/* XPM */
static char *pidgin_tray_invisible_png[] = {
/* columns rows colors chars-per-pixel */
"24 24 138 2 ",
"   c #7D817E",
".  c #939692",
"X  c #969696",
"o  c #969995",
"O  c #9D9E9B",
"+  c #9C9C9C",
"@  c #9FA29E",
"#  c #A4A4A4",
"$  c #AAACA7",
"%  c #AAACA9",
"&  c #ACAEAA",
"*  c #AEAEAE",
"=  c #AFAFAF",
"-  c #AEB0AB",
";  c #AFB1AC",
":  c #AFB2AD",
">  c #B2B4B0",
",  c #B6B7B4",
"<  c #B7BAB5",
"1  c #B8BAB5",
"2  c #B9BBB7",
"3  c #BDBFBB",
"4  c #BEBFBB",
"5  c #BEBFBD",
"6  c #BFBFBF",
"7  c #BEC0BC",
"8  c #BFC1BC",
"9  c #C0C0BF",
"0  c #C0C0C0",
"q  c #C3C6C0",
"w  c #C4C6C1",
"e  c #C5C7C1",
"r  c #C5C5C5",
"t  c #C6C8C2",
"y  c #C6C8C3",
"u  c #C7C9C3",
"i  c #C7C9C4",
"p  c #C7CAC4",
"a  c #C8CAC5",
"s  c #C8CBC5",
"d  c #C9CBC5",
"f  c #C8CBC6",
"g  c #C9CBC6",
"h  c #CACBC6",
"j  c #C9CCC6",
"k  c #CACCC7",
"l  c #CBCCC7",
"z  c #CBCDC7",
"x  c #C9C9C9",
"c  c #CBCBCA",
"v  c #CACCC8",
"b  c #CBCDC8",
"n  c #CBCDC9",
"m  c #CBCEC8",
"M  c #CBCCCA",
"N  c #CCCDC9",
"B  c #CCCEC8",
"V  c #CCCEC9",
"C  c #CCCFC9",
"Z  c #CDCFC9",
"A  c #CCCECA",
"S  c #CDCECA",
"D  c #CDCFCA",
"F  c #CECFCA",
"G  c #CDCDCD",
"H  c #CDCECC",
"J  c #CECFCC",
"K  c #CED0CA",
"L  c #CED0CB",
"P  c #CFD0CB",
"I  c #CFD0CC",
"U  c #CED1CC",
"Y  c #CFD1CC",
"T  c #CFD0CD",
"R  c #CFD1CD",
"E  c #CFD2CD",
"W  c #D0D1CC",
"Q  c #D0D2CD",
"!  c #D1D2CD",
"~  c #D0D2CE",
"^  c #D1D2CE",
"/  c #D1D3CE",
"(  c #D1D2CF",
")  c #D2D3CE",
"_  c #D2D3CF",
"`  c #D2D4CF",
"'  c #D1D2D0",
"]  c #D2D3D1",
"[  c #D2D4D0",
"{  c #D3D4D0",
"}  c #D2D5D0",
"|  c #D3D5D0",
" . c #D2D4D1",
".. c #D3D4D1",
"X. c #D4D5D1",
"o. c #D4D6D1",
"O. c #D4D5D3",
"+. c #D4D6D2",
"@. c #D5D6D2",
"#. c #D5D6D3",
"$. c #D6D7D3",
"%. c #D5D5D5",
"&. c #D5D6D5",
"*. c #D6D7D4",
"=. c #D6D8D4",
"-. c #D7D8D5",
";. c #D8D9D5",
":. c #D9DAD6",
">. c #D9DAD7",
",. c #D9DBD7",
"<. c #DADAD6",
"1. c #DBDBDA",
"2. c #DBDCD8",
"3. c #DBDCD9",
"4. c #DBDDD9",
"5. c #DCDDD9",
"6. c #DCDDDA",
"7. c #DDDEDA",
"8. c #DDDEDB",
"9. c #DEDEDB",
"0. c #DEDFDB",
"q. c #DEDFDC",
"w. c #DEDFDE",
"e. c #DFE0DD",
"r. c #E1E1E1",
"t. c #E3E3E2",
"y. c #E7E7E7",
"u. c #E8E8E8",
"i. c #EAEAEA",
"p. c #EDEDEC",
"a. c #EEEEED",
"s. c #EFEFEF",
"d. c #F0F0F0",
"f. c #F1F1F1",
"g. c #F2F2F2",
"h. c #F3F3F3",
"j. c #F5F5F5",
"k. c None",
/* pixels */
"k.k.k.k.k.k.k.k.k.k.k.k.k.k.k.k.k.k.k.k.k.k.k.k.",
"k.* r r r r r r r r r r r r r 6 k.k.k.k.k.k.k.k.",
"k.r j.g.g.g.g.g.g.g.g.g.g.g.g.u.k.k.k.k.k.k.k.k.",
"k.r g.s.s.s.s.s.s.s.s.s.s.s.g.y.+ k.k.k.k.k.k.k.",
"k.r g.s.s.s.s.s.s.s.s.s.s.s.s.y.+ k.k.k.k.k.k.k.",
"k.r g.s.s.s.s.s.s.s.s.s.s.s.s.y.+ k.k.k.k.k.k.k.",
"k.r g.s.s.s.s.s.s.s.s.s.s.s.g.y.+ k.k.k.k.k.k.k.",
"k.r g.s.s.s.s.s.s.s.s.g.u.w.O.c O k.k.k.k.k.k.k.",
"k.r g.s.s.s.s.s.s.s.s.1.n J =.=.F l 1 k.k.k.k.k.",
"k.r g.s.s.s.s.s.s.s.] F 4.w.e.0.O.3.2.P : k.k.k.",
"k.r g.s.s.s.s.s.s.&.T e.e.0.w.0.` ,.2.2. .: k.k.",
"k.r g.s.s.s.s.s.r.n w.0.0.0.0.,.! $.$.$.$.F k.k.",
"k.r g.s.s.s.s.s.! O.0.0.0.4.4.,.P  .` ` ` O.1 k.",
"k.r j.g.s.s.g.s.J 0.0.0.4.2.,.,.P ` ` ` ` ` p k.",
"k.* c J g.s.&.9 6 O. . .! ! ! P P T P P P P n k.",
"k.k.k.X r.0 k.k., ` ! T ! P F F P P P P P j P k.",
"k.k.k.k.# k.k.k.< O.` ! ! P P P Z l Z j j Z s k.",
"k.k.k.k.k.k.k.k.k.T P P Z P Z l l l j j s Z 8 k.",
"k.k.k.k.k.k.k.k.k.e T n l l l l l p p s y P ; k.",
"k.k.k.k.k.k.k.k.k.$ F F l p y s y y y 9 l 7 k.k.",
"k.k.k.k.k.k.k.k.k.k.& n n y y e y 9 y n 7 k.k.k.",
"k.k.k.k.k.k.k.k.k.k.k.o 7 n l g s g y % k.k.k.k.",
"k.k.k.k.k.k.k.k.k.k.k.k.k.. & > : @   k.k.k.k.k.",
"k.k.k.k.k.k.k.k.k.k.k.k.k.k.k.k.k.k.k.k.k.k.k.k."
};
