/* XPM */
static char *pidgin_tray_available_png[] = {
/* columns rows colors chars-per-pixel */
"24 24 191 2 ",
"   c #3C5C23",
".  c #405F27",
"X  c #486A2B",
"o  c #577F34",
"O  c #528125",
"+  c #518224",
"@  c #5A8236",
"#  c #638C3E",
"$  c #639335",
"%  c #639237",
"&  c #68953C",
"*  c #77B639",
"=  c #78B73B",
"-  c #79B73C",
";  c #79B73D",
":  c #7BB83F",
">  c #6D8D4E",
",  c #6A9641",
"<  c #6E9D41",
"1  c #6F9F42",
"2  c #6E9845",
"3  c #6E9847",
"4  c #719C48",
"5  c #739E4A",
"6  c #7AA94E",
"7  c #7BB840",
"8  c #7DB942",
"9  c #7EB943",
"0  c #7FBA45",
"q  c #7BA950",
"w  c #7EAB52",
"e  c #7FAB53",
"r  c #80BA46",
"t  c #80BC47",
"y  c #81BC47",
"u  c #82BC49",
"i  c #84BD4B",
"p  c #84BD4C",
"a  c #84BC4E",
"s  c #85BD4F",
"d  c #86BF4E",
"f  c #86BE4F",
"g  c #86BF4F",
"h  c #87BF4F",
"j  c #80AB55",
"k  c #80AC54",
"l  c #81AF54",
"z  c #82AE57",
"x  c #86B757",
"c  c #86BE50",
"v  c #8BBD5A",
"b  c #8DBF5C",
"n  c #8BB265",
"m  c #8CB861",
"M  c #8EBC61",
"N  c #90BF63",
"B  c #91BE65",
"V  c #94BA6E",
"C  c #96B776",
"Z  c #98BA77",
"A  c #88C151",
"S  c #89C152",
"D  c #89C053",
"F  c #8AC054",
"G  c #8BC255",
"H  c #8BC355",
"J  c #8CC355",
"K  c #8DC558",
"L  c #8EC558",
"P  c #8EC559",
"I  c #90C65B",
"U  c #91C75C",
"Y  c #92C85D",
"T  c #93C85E",
"R  c #93C85F",
"E  c #95CA60",
"W  c #95CA61",
"Q  c #97CB63",
"!  c #97CC63",
"~  c #97CB64",
"^  c #99CC65",
"/  c #99CD66",
"(  c #9ACD66",
")  c #9ACD67",
"_  c #95C269",
"`  c #96C468",
"'  c #97C06F",
"]  c #98C56B",
"[  c #9ACD68",
"{  c #9CCF69",
"}  c #9CCE6A",
"|  c #9ED06C",
" . c #9ED06D",
".. c #98C170",
"X. c #9AC372",
"o. c #9ECA73",
"O. c #9FCA74",
"+. c #A0D26F",
"@. c #A0CD73",
"#. c #A0D170",
"$. c #A1D270",
"%. c #A2D271",
"&. c #A2D372",
"*. c #A3D373",
"=. c #A5D475",
"-. c #A5D476",
";. c #A5D576",
":. c #A7D578",
">. c #A7D678",
",. c #A7D679",
"<. c #A6D07C",
"1. c #A9D67B",
"2. c #A9D77B",
"3. c #A9D77C",
"4. c #AAD77D",
"5. c #ABD87E",
"6. c #ABD87F",
"7. c #969696",
"8. c #9C9C9C",
"9. c #9C9C9D",
"0. c #A0B789",
"q. c #A6BE90",
"w. c #A4A4A4",
"e. c #AEAEAE",
"r. c #AFAFAF",
"t. c #B4BAAE",
"y. c #BFBFBF",
"u. c #A8D280",
"i. c #A9D280",
"p. c #ABD582",
"a. c #ADD684",
"s. c #AED686",
"d. c #AEDA81",
"f. c #AEDA82",
"g. c #AFDB84",
"h. c #B0DB84",
"j. c #B0DB85",
"k. c #B2DC87",
"l. c #B2DC88",
"z. c #B4DD8A",
"x. c #B4DD8B",
"c. c #B4DE8A",
"v. c #B6DE8D",
"b. c #B6DE8E",
"n. c #ABC097",
"m. c #AEC39A",
"M. c #B8DF90",
"N. c #B8E090",
"B. c #B8E190",
"V. c #B8E091",
"C. c #B9E092",
"Z. c #BAE193",
"A. c #BBE393",
"S. c #BBE195",
"D. c #BBE295",
"F. c #BCE296",
"G. c #BCE396",
"H. c #BDE397",
"J. c #BDE496",
"K. c #BEE498",
"L. c #BFE498",
"P. c #BFE598",
"I. c #B2C5A0",
"U. c #BFCEB2",
"Y. c #C8D3BD",
"T. c #C0C0C0",
"R. c #C5C5C5",
"E. c #C9C9C9",
"W. c #CDCDCD",
"Q. c #D2DACB",
"!. c #D5D5D6",
"~. c #E1E1E1",
"^. c #E4E6E1",
"/. c #E7E7E7",
"(. c #E6E9E3",
"). c #E8E8E8",
"_. c #E8E8E9",
"`. c #E9EBE8",
"'. c #ECECEB",
"]. c #EEEEEE",
"[. c #EFEFEF",
"{. c #F0EFF0",
"}. c #F0F0F0",
"|. c #F0F0F1",
" X c #F1F0F1",
".X c #F2F1F3",
"XX c #F2F2F2",
"oX c #F2F2F3",
"OX c #F3F3F3",
"+X c #F5F5F5",
"@X c None",
/* pixels */
"@X@X@X@X@X@X@X@X@X@X@X@X@X@X@X@X@X@X@X@X@X@X@X@X",
"@Xe.R.R.R.R.R.R.R.R.R.R.R.R.R.y.@X@X@X@X@X@X@X@X",
"@XR.+XXXXXXXXXXXXXXXXXXXXXXXXX).@X@X@X@X@X@X@X@X",
"@XR.XX[.[.[.[.[.[.[.[.[.[.[.XX/.9.@X@X@X@X@X@X@X",
"@XR.XX[.[.[.[.[.[.[.[.[.[.[.[./.8.@X@X@X@X@X@X@X",
"@XR.XX[.[.[.[.[.[.[.[.[.[.[.[./.9.@X@X@X@X@X@X@X",
"@XR.XX[.[.[.[.[.[.[.[.[.{.{.XX_.9.@X@X@X@X@X@X@X",
"@XR.XX[.[.[.[.[.[.[.[.XX^.Y.m.0.> @X@X@X@X@X@X@X",
"@XR.XX[.[.[.[.[.[.{.'.U.C X.<.s.s.o.w @X@X@X@X@X",
"@XR.XX[.[.[.[.[.XX).n.' b.P.K.P.P.P.J.<.1 @X@X@X",
"@XR.XX[.[.[.[.[.[.I.X.J.K.H.H.H.S.Z.N.Z.p.< @X@X",
"@XR.XX[.[.[.[.XXQ.V Z.H.H.S.Z.M.b.b.j.g.j.O.@X@X",
"@XR.XX[.[.[.[.[.q.u.H.Z.b.b.l.k.g.d.5.4.>.4.q @X",
"@XR.+XXX}.[.XX(.Z l.b.z.k.k.d.5.5.>.-.%.%.%.B @X",
"@Xe.E.W.XX[.!.t.n z.g.d.6.4.>.-.%.%. .[ ^ ^ ] O ",
"@X@X@X7.~.T.@X@Xk j.2.>.-.%.%.} } [ ^ W T T _ O ",
"@X@X@X@Xw.@X@X@X6 2.&.+.| { { Q T T I J J H M @X",
"@X@X@X@X@X@X@X@X$ O.| ^ Q R T I P J A A d D k @X",
"@X@X@X@X@X@X@X@X@Xm [ U I J H D A u u 0 0 P & @X",
"@X@X@X@X@X@X@X@X@X% ` J D A u u 0 8 8 : c w @X@X",
"@X@X@X@X@X@X@X@X@X@X, _ D 0 8 : ; * ; c e @X@X@X",
"@X@X@X@X@X@X@X@X@X@X@X@ z v d u t a x 3   @X@X@X",
"@X@X@X@X@X@X@X@X@X@X@X@X  o 2 5 4 # X @X@X@X@X@X",
"@X@X@X@X@X@X@X@X@X@X@X@X@X@X@X@X@X@X@X@X@X@X@X@X"
};
