/* XPM */
static char *pidgin_tray_busy_png[] = {
/* columns rows colors chars-per-pixel */
"24 24 200 2 ",
"   c #6C2223",
".  c #6F2526",
"X  c #7D2828",
"o  c #9F2929",
"O  c #963232",
"+  c #9B3636",
"@  c #A02929",
"#  c #A73B3C",
"$  c #AE3A3A",
"%  c #B03939",
"&  c #B43D3D",
"*  c #9E5353",
"=  c #B34141",
"-  c #B54545",
";  c #B64444",
":  c #BB4646",
">  c #B74A4A",
",  c #B74B4B",
"<  c #BE4848",
"1  c #C45656",
"2  c #C45757",
"3  c #CE5353",
"4  c #CE5454",
"5  c #C55D5D",
"6  c #CF5858",
"7  c #D45252",
"8  c #D65353",
"9  c #D55555",
"0  c #D55656",
"q  c #D55857",
"w  c #D05B5B",
"e  c #D65959",
"r  c #D65A5A",
"t  c #D65B5B",
"y  c #D65D5C",
"u  c #D65E5E",
"i  c #D65F5F",
"p  c #E94D4D",
"a  c #E94F4F",
"s  c #E95151",
"d  c #E95353",
"f  c #E95555",
"g  c #E15C5C",
"h  c #E95858",
"j  c #E95A5A",
"k  c #EA5C5C",
"l  c #EA5E5E",
"z  c #EF5E5E",
"x  c #F35454",
"c  c #F35656",
"v  c #F35757",
"b  c #F45454",
"n  c #F35959",
"m  c #F35A5A",
"M  c #F45858",
"N  c #F45A5A",
"B  c #F15D5D",
"V  c #F25F5F",
"C  c #F45C5C",
"Z  c #F45D5D",
"A  c #F45E5E",
"S  c #F55E5E",
"D  c #F45F5F",
"F  c #F55F5F",
"G  c #CF6867",
"H  c #CF6C6B",
"J  c #C86D6D",
"K  c #D66161",
"L  c #D66767",
"P  c #DD6060",
"I  c #DE6363",
"U  c #DB6767",
"Y  c #DC6464",
"T  c #DF6767",
"R  c #DB6B6B",
"E  c #CD7777",
"W  c #C87D7D",
"Q  c #CC7E7E",
"!  c #D47979",
"~  c #D47A7A",
"^  c #D07C7B",
"/  c #D17C7B",
"(  c #D77C7C",
")  c #DE7C7C",
"_  c #E66060",
"`  c #EA6060",
"'  c #EB6767",
"]  c #ED6767",
"[  c #E36C6C",
"{  c #EE6969",
"}  c #E86D6D",
"|  c #F36060",
" . c #F26262",
".. c #F46161",
"X. c #F56262",
"o. c #F46363",
"O. c #F56464",
"+. c #F46565",
"@. c #F56767",
"#. c #F56969",
"$. c #F66868",
"%. c #F56C6C",
"&. c #F66C6C",
"*. c #F56E6E",
"=. c #E87272",
"-. c #E47B7B",
";. c #EC7C7C",
":. c #F67575",
">. c #F77777",
",. c #F67878",
"<. c #F77B7B",
"1. c #F67D7D",
"2. c #F77D7D",
"3. c #F67F7F",
"4. c #F77F7F",
"5. c #969696",
"6. c #9C9C9C",
"7. c #9C9D9D",
"8. c #A4A4A4",
"9. c #AEAEAE",
"0. c #AFAFAF",
"q. c #BDAEAE",
"w. c #BFBFBF",
"e. c #C48C8C",
"r. c #D28382",
"t. c #D28483",
"y. c #D28584",
"u. c #CA9393",
"i. c #CC9999",
"p. c #CF9D9D",
"a. c #E48181",
"s. c #E68787",
"d. c #ED8484",
"f. c #EC8686",
"g. c #E58989",
"h. c #E98A8A",
"j. c #E98C8C",
"k. c #F78080",
"l. c #F68282",
"z. c #F78282",
"x. c #F68484",
"c. c #F78585",
"v. c #F78686",
"b. c #F68787",
"n. c #F78787",
"m. c #F88787",
"M. c #F78989",
"N. c #F78C8C",
"B. c #F78E8E",
"V. c #F88A8A",
"C. c #F88C8C",
"Z. c #F69191",
"A. c #F79191",
"S. c #F19696",
"D. c #F69797",
"F. c #F89090",
"G. c #F99191",
"H. c #F89292",
"J. c #F89494",
"K. c #F89595",
"L. c #F79A9A",
"P. c #F99A9A",
"I. c #D0A2A2",
"U. c #D7A1A0",
"Y. c #D6B3B3",
"T. c #DABEBE",
"R. c #C0C0C0",
"E. c #C5C5C5",
"W. c #C9C9C9",
"Q. c #CDCDCD",
"!. c #DFCBCB",
"~. c #D5D6D6",
"^. c #E1C8C6",
"/. c #E2CCCA",
"(. c #E4CFCE",
"). c #E4D0CE",
"_. c #E4D0CF",
"`. c #E1E1E1",
"'. c #E7E7E7",
"]. c #E8E1E1",
"[. c #EBE3E3",
"{. c #E8E8E8",
"}. c #E8E9E9",
"|. c #EBE8E8",
" X c #EDEBEB",
".X c #EEEEEE",
"XX c #EFEFEF",
"oX c #EFF0F0",
"OX c #EFF3F1",
"+X c #EFF4F1",
"@X c #EFF4F2",
"#X c #F0F0F0",
"$X c #F0F1F1",
"%X c #F1F3F3",
"&X c #F2F2F2",
"*X c #F2F3F3",
"=X c #F3F3F3",
"-X c #F0F5F3",
";X c #F5F5F5",
":X c None",
/* pixels */
":X:X:X:X:X:X:X:X:X:X:X:X:X:X:X:X:X:X:X:X:X:X:X:X",
":X9.E.E.E.E.E.E.E.E.E.E.E.E.E.w.:X:X:X:X:X:X:X:X",
":XE.;X&X&X&X&X&X&X&X&X&X&X&X&X{.:X:X:X:X:X:X:X:X",
":XE.&XXXXXXXXXXXXXXXXXXXXXXX&X'.7.:X:X:X:X:X:X:X",
":XE.&XXXXXXXXXXXXXXXXXXXXXXXXX'.7.:X:X:X:X:X:X:X",
":XE.&XXXXXXXXXXXXXXXXXXXXXXXXX'.7.:X:X:X:X:X:X:X",
":XE.&XXXXXXXXXXXXXXXoXoXoXoX&X}.7.:X:X:X:X:X:X:X",
":XE.&XXXXXXXXXXXXXXXoXoX].T.p.e.* :X:X:X:X:X:X:X",
":XE.&XXXXXXXXXXXXXoX{.Y.W ( g.h.j.) 5 :X:X:X:X:X",
":XE.&XXXXXXXXXXX&X{.i.( S.P.K.H.C.H.Z.a., :X:X:X",
":XE.&XXXXXXXoXXXXXI.( L.K.B.B.N.V.b.l.m.f., :X:X",
":XE.&XXXXXXXoXoX!.E D.Z.B.N.N.b.l.l.3.3.4.-.:X:X",
":XE.&XXXXXXXXXXXu.s.H.B.V.b.m.l.l.3.,.,.:.3.1 :X",
":XE.;X&XoXoX&X[.Q d.Y i y y e e e q 9 9 8 _ R :X",
":X9.W.Q.&XoX~.q.J U U._._._._._._.(._._.^.G T o ",
":X:X:X5.`.R.:X:X5 i /.+X+XoX&X-X+X+X+X+X+X/ I o ",
":X:X:X:X8.:X:X:X1 [ H y.y.y.y.t.t.t.r.r.^ 7 I :X",
":X:X:X:X:X:X:X:X$ ;.{ ` k k j f f d d a a N 6 :X",
":X:X:X:X:X:X:X:X:XL ,.&.&.$.@.o.o.F F N N ] & :X",
":X:X:X:X:X:X:X:X:X% =.&.@.@. .F N N c x V 3 :X:X",
":X:X:X:X:X:X:X:X:X:X= } $.F C N c x x  .3 :X:X:X",
":X:X:X:X:X:X:X:X:X:X:X+ w '  .F N V g ; . :X:X:X",
":X:X:X:X:X:X:X:X:X:X:X:X  O ; < : # X :X:X:X:X:X",
":X:X:X:X:X:X:X:X:X:X:X:X:X:X:X:X:X:X:X:X:X:X:X:X"
};
