/* XPM */
static char *pidgin_tray_pending_png[] = {
/* columns rows colors chars-per-pixel */
"24 24 128 2 ",
"   c #CF792F",
".  c #DB7A25",
"X  c #DA7B2A",
"o  c #DA7D2D",
"O  c #DB7E2E",
"+  c #DB7F2E",
"@  c #DC802F",
"#  c #DE8636",
"$  c #E08937",
"%  c #FCAF3D",
"&  c #FCAF3E",
"*  c #C58650",
"=  c #E59648",
"-  c #E59649",
";  c #E99D4E",
":  c #E99E4F",
">  c #E89C50",
",  c #E99E50",
"<  c #E99F51",
"1  c #FCB040",
"2  c #FCB041",
"3  c #FCB042",
"4  c #FBB246",
"5  c #FBB247",
"6  c #FBB347",
"7  c #FBB248",
"8  c #FBB348",
"9  c #FCB44A",
"0  c #FDB54A",
"q  c #FAB44D",
"w  c #FBB44D",
"e  c #FBB54D",
"r  c #FCB44C",
"t  c #FCB64D",
"y  c #F3AF5B",
"u  c #FAB652",
"i  c #FAB753",
"p  c #FCB853",
"a  c #F7B359",
"s  c #F7B459",
"d  c #F7B55C",
"f  c #F7B65F",
"g  c #F9B75A",
"h  c #F8B65B",
"j  c #FAB958",
"k  c #FAB959",
"l  c #FBBA58",
"z  c #FAB95A",
"x  c #FABB5F",
"c  c #FBBC5E",
"v  c #D09E73",
"b  c #F6B762",
"n  c #F1B166",
"m  c #F6B865",
"M  c #F9BB60",
"N  c #FABB60",
"B  c #FABC60",
"V  c #F9BD66",
"C  c #F9BE66",
"Z  c #F6B969",
"A  c #F6BA69",
"S  c #F5B96A",
"D  c #F6BA6D",
"F  c #F6BB6E",
"G  c #F8BC6D",
"H  c #EFB574",
"J  c #F5BB70",
"K  c #F5BC70",
"L  c #F5BC73",
"P  c #F5BD73",
"I  c #F5BE76",
"U  c #F5BE77",
"Y  c #F5BF78",
"T  c #F4BF7A",
"R  c #F9C06C",
"E  c #F8C272",
"W  c #F8C273",
"Q  c #F7C478",
"!  c #F4C07D",
"~  c #F4C07E",
"^  c #F7C67E",
"/  c #F7C77F",
"(  c #F8C579",
")  c #969696",
"_  c #9B9C9D",
"`  c #9C9C9C",
"'  c #A4A4A4",
"]  c #AEAEAE",
"[  c #AFAFAF",
"{  c #BFBFBF",
"}  c #E0B189",
"|  c #E4B48B",
" . c #E4B58C",
".. c #E5B58C",
"X. c #E6B78E",
"o. c #E6BD99",
"O. c #F3C181",
"+. c #F4C383",
"@. c #F4C384",
"#. c #F4C485",
"$. c #F6C884",
"%. c #F6C985",
"&. c #F5CA8A",
"*. c #F6CB8B",
"=. c #F5CD91",
"-. c #F5CD92",
";. c #F5CF95",
":. c #F5D097",
">. c #C0C0C0",
",. c #C5C5C5",
"<. c #C9C9C9",
"1. c #CDCDCD",
"2. c #D4D5D7",
"3. c #ECE3DA",
"4. c #E1E1E1",
"5. c #E7E7E7",
"6. c #E7E8E9",
"7. c #E8E8E8",
"8. c #EFEFEF",
"9. c #EFF0F0",
"0. c #EFF1F2",
"q. c #F0F0F0",
"w. c #F0F2F3",
"e. c #F2F2F2",
"r. c #F3F3F3",
"t. c #F2F4F5",
"y. c #F5F5F5",
"u. c None",
/* pixels */
"u.u.u.u.u.u.u.u.u.u.u.u.u.u.u.u.u.u.u.u.u.u.u.u.",
"u.] ,.,.,.,.,.,.,.,.,.,.,.,.,.{ u.u.u.u.u.u.u.u.",
"u.,.y.e.e.e.e.e.e.e.e.e.e.e.e.7.u.u.u.u.u.u.u.u.",
"u.,.e.8.8.8.8.8.8.8.8.8.8.8.e.5.` u.u.u.u.u.u.u.",
"u.,.e.8.8.8.9.8.9.9.8.9.8.9.9.5.` u.u.u.u.u.u.u.",
"u.,.e.8.8.8.9.9.9.0.9.9.9.9.0.6._ u.u.u.u.u.u.u.",
"u.,.e.8.8.8.9.3.o. . .X. . .X.} * u.u.u.X u.u.u.",
"u.,.e.8.8.8.9.o.H +.+.+.O.! T Y U P J D A D = u.",
"u.,.e.8.9.9.0. .#.:.;.-.&.$.$.Q E R V c j c , u.",
"u.,.e.8.8.9.0. .+.;.=.&.$.^ Q E G V c j u j , u.",
"u.,.e.8.8.8.9. .+.;.&.$.^ Q E G V x j i q p : u.",
"u.,.e.8.8.8.9. .O.*.$.^ Q E R V V j i q 6 t : u.",
"u.,.e.8.8.8.9.X.! $.^ Q E R V c j i q 8 1 9 : u.",
"u.,.y.e.9.8.t.X.! ^ Q E R V x j u q 8 1 % 9 : u.",
"u.] <.1.e.9.2.v Y Q E R V M j u q 8 1 & % 9 : u.",
"u.u.u.) 4.>.u.  U E R V M j u q 9 1 & & & 9 : u.",
"u.u.u.u.' u.u.u.P R V x j u q 5 1 & % & % 9 : u.",
"u.u.u.u.u.u.u.u.F V V j u q 5 1 & & & & % 9 : u.",
"u.u.u.u.u.u.u.u.F V j u q 6 1 % & % % % & 9 : u.",
"u.u.u.u.u.u.u.u.n A m b f d h a d h 9 9 h f = u.",
"u.u.u.u.u.u.u.u.u.@ @ O @ O O O u.$ y G # u.u.u.",
"u.u.u.u.u.u.u.u.u.u.u.u.u.u.u.u.u.u.. , u.u.u.u.",
"u.u.u.u.u.u.u.u.u.u.u.u.u.u.u.u.u.u.u.u.u.u.u.u.",
"u.u.u.u.u.u.u.u.u.u.u.u.u.u.u.u.u.u.u.u.u.u.u.u."
};
