/* XPM */
static char *pidgin_tray_away_png[] = {
/* columns rows colors chars-per-pixel */
"24 24 192 2 ",
"   c #324761",
".  c #374C65",
"X  c #555A5A",
"o  c #405571",
"O  c #6C706F",
"+  c #727675",
"@  c #737776",
"#  c #7B7E7E",
"$  c #466187",
"%  c #476388",
"&  c #536A88",
"*  c #566E8B",
"=  c #5D779A",
"-  c #5F7A9C",
";  c #64768F",
":  c #647C99",
">  c #6780A1",
",  c #6680A2",
"<  c #6881A0",
"1  c #7088A5",
"2  c #7089A6",
"3  c #728BA9",
"4  c #738CA9",
"5  c #768FAE",
"6  c #7790AE",
"7  c #7890AD",
"8  c #7991AF",
"9  c #808483",
"0  c #8B8E8E",
"q  c #949797",
"w  c #969696",
"e  c #9C9C9C",
"r  c #9D9C9C",
"t  c #8499B3",
"y  c #859EBC",
"u  c #869FBC",
"i  c #87A0BC",
"p  c #8BA0BA",
"a  c #8FA1B8",
"s  c #8CA3BE",
"d  c #8DA4BE",
"f  c #8EA5BF",
"g  c #93A5BC",
"h  c #99A6B8",
"j  c #A0A2A0",
"k  c #A4A5A3",
"l  c #A3A5A5",
"z  c #A4A4A4",
"x  c #A6A8A6",
"c  c #A7A8A6",
"v  c #A7A9A7",
"b  c #AEAEAE",
"n  c #AFAFAF",
"m  c #B2B4B3",
"M  c #B1B5BA",
"N  c #BFBFBF",
"B  c #8BA4C0",
"V  c #8DA7C4",
"C  c #8EABC8",
"Z  c #8FABC9",
"A  c #8DABCB",
"S  c #8EABCA",
"D  c #8FACCA",
"F  c #8EACCB",
"G  c #8FADCD",
"H  c #90A9C5",
"J  c #93ACC7",
"K  c #93ADC7",
"L  c #90ABC9",
"P  c #91ACC8",
"I  c #93ADC9",
"U  c #91ACCA",
"Y  c #93ADCA",
"T  c #93AECB",
"R  c #94AECA",
"E  c #95AECB",
"W  c #94AFCB",
"Q  c #95AFCB",
"!  c #90AECD",
"~  c #91AECE",
"^  c #91AFCF",
"/  c #92AFCE",
"(  c #93AFCE",
")  c #94AFCC",
"_  c #91B0CF",
"`  c #92B0CF",
"'  c #93B0CF",
"]  c #94B0CD",
"[  c #97B1CE",
"{  c #99B1C9",
"}  c #9CB2C8",
"|  c #9DB2C8",
" . c #9DB3C9",
".. c #98B2CE",
"X. c #92B1D1",
"o. c #95B1D0",
"O. c #A2AFC0",
"+. c #A5B1C1",
"@. c #A8B4C5",
"#. c #ABB6C6",
"$. c #A0B4C8",
"%. c #A2B5C8",
"&. c #A3B5C8",
"*. c #A5B7C8",
"=. c #A6B8C9",
"-. c #B1BFCC",
";. c #B5C1CD",
":. c #B5C2CD",
">. c #BBC3CF",
",. c #BCC6CF",
"<. c #C0C0C0",
"1. c #C5C5C5",
"2. c #C8C9C6",
"3. c #CACBC7",
"4. c #C0C9CF",
"5. c #C5CBCF",
"6. c #C9C9C9",
"7. c #CACBC8",
"8. c #C9CBCA",
"9. c #CCCCC9",
"0. c #CDCDCD",
"q. c #D2D2CE",
"w. c #C4CBD0",
"e. c #C4CCD1",
"r. c #C4CBD4",
"t. c #C8CED1",
"y. c #C9CED1",
"u. c #C9CFD2",
"i. c #CFD4DB",
"p. c #D1D3D0",
"a. c #D4D4D1",
"s. c #D5D6D3",
"d. c #D6D6D2",
"f. c #D3D6D5",
"g. c #D5D5D5",
"h. c #D4D7D6",
"j. c #D5D8D7",
"k. c #D7D9D6",
"l. c #D8D9D6",
"z. c #DADBD7",
"x. c #DBDBD7",
"c. c #DCDCD7",
"v. c #DADBD9",
"b. c #DCDCD8",
"n. c #DDDCD8",
"m. c #DDDDD8",
"M. c #DDDDD9",
"N. c #DEDDD8",
"B. c #DEDED9",
"V. c #DFDED9",
"C. c #DEDEDA",
"Z. c #DFDFDB",
"A. c #DFDFDC",
"S. c #E0DFDB",
"D. c #E0E0DC",
"F. c #E1E0DC",
"G. c #E0E0DD",
"H. c #E1E0DD",
"J. c #E1E1DD",
"K. c #E1E1DE",
"L. c #E3E2DF",
"P. c #E1E1E1",
"I. c #E5E5E2",
"U. c #E2E4E7",
"Y. c #E7E7E4",
"T. c #E7E7E7",
"R. c #E8E8E6",
"E. c #E5E7E9",
"W. c #E8E8E8",
"Q. c #E9E8E8",
"!. c #EBEBE8",
"~. c #EBEBE9",
"^. c #E8E9EB",
"/. c #ECECEA",
"(. c #EDEDEB",
"). c #EBECED",
"_. c #EEEEEC",
"`. c #EEEEEE",
"'. c #EFEFEF",
"]. c #F0F0EF",
"[. c #F0F0F0",
"{. c #F1F0F0",
"}. c #F1F1F0",
"|. c #F2F2F1",
" X c #F3F3F1",
".X c #F2F2F2",
"XX c #F3F2F2",
"oX c #F3F3F3",
"OX c #F5F5F5",
"+X c #F9F9F7",
"@X c #FAFAFA",
"#X c None",
/* pixels */
"#X#X#X#X#X#X#X#X#X#X#X#X#X#X#X#X#X#X#X#X#X#X#X#X",
"#Xb 1.1.1.1.1.1.1.1.1.1.1.1.1.N #X#X#X#X#X#X#X#X",
"#X1.OX.X.X.X.X.X.X.X.X.X.X.X.XQ.#X#X#X#X#X#X#X#X",
"#X1..X'.'.'.'.'.'.'.'.'.'.'..XT.r #X#X#X#X#X#X#X",
"#X1..X'.'.'.'.'.'.'.'.'.'.'.'.T.r #X#X#X#X#X#X#X",
"#X1..X'.'.'.'.'.'.'.'.'.'.'.'.T.r #X#X#X#X#X#X#X",
"#X1..X'.'.'.'.'.'.'.'.'.].]..XW.r #X#X#X#X#X#X#X",
"#X1..X'.'.'.'.'.'.'.'..XU.r.@.h ; #X#X#X#X#X#X#X",
"#X1..X'.'.'.'.'.'.'.).>.a s Y Y Y V 8 #X#X#X#X#X",
"#X1..X'.'.'.'.'..XQ.+.s ' S {  . .Y G W , #X#X#X",
"#X1..X'.'.'.'.'.'.#.d (  .y.k.c.z.h.;.S ..< #X#X",
"#X1..X'.'.].].].i.u ( *.z.L.D.b.c.c.q.5.S W #X#X",
"#X1..X'.'.'.'.'.h Y J h.I.~.Y.D.c.j @ q.;.( 8 #X",
"#X1.OX.X].'..XE.g ' -.D.Q. X/.a.v X j c.f.W H #X",
"#Xb 8.0..X'.h.M t ' 5.L.'.@X8.q # v c.b.v.| ) % ",
"#X#X#Xw P.<.#X#X8 G y.D./.+Xm l 0 3.b.b.b. .Y $ ",
"#X#X#X#Xz #X#X#X5 ( ,.A.Y.'.a.c 9 @ 9.b.k.{ [ #X",
"#X#X#X#X#X#X#X#X= [ %.v.L.D.b.L.9.O @ a.y.F y #X",
"#X#X#X#X#X#X#X#X#XB F ,.b.b.x.b.b.9.k p.| o., #X",
"#X#X#X#X#X#X#X#X#X: ..Y 4.x.b.b.b.S.k.*.( y #X#X",
"#X#X#X#X#X#X#X#X#X#X< [ S %.,.y.w.-.J X.y #X#X#X",
"#X#X#X#X#X#X#X#X#X#X#X* i ( ( G G ' L 2 . #X#X#X",
"#X#X#X#X#X#X#X#X#X#X#X#X  & 2 4 3 : o #X#X#X#X#X",
"#X#X#X#X#X#X#X#X#X#X#X#X#X#X#X#X#X#X#X#X#X#X#X#X"
};
