/* XPM */
static char *pidgin_tray_xa_png[] = {
/* columns rows colors chars-per-pixel */
"24 24 187 2 ",
"   c #7E7517",
".  c #6C682E",
"X  c #867E22",
"o  c #8D831F",
"O  c #AE9F11",
"+  c #A99B1F",
"@  c #B4A410",
"#  c #938929",
"$  c #968C2A",
"%  c #9C9121",
"&  c #9D922A",
"*  c #999035",
"=  c #A0952A",
"-  c #BAAC2B",
";  c #BAAC2C",
":  c #AFA437",
">  c #B2A638",
",  c #C3B31D",
"<  c #CBBA1D",
"1  c #CAB91F",
"2  c #CB9636",
"3  c #CC9D35",
"4  c #C5943D",
"5  c #CFBF2E",
"6  c #D4A33E",
"7  c #D3AE3F",
"8  c #C6B83B",
"9  c #D8C30A",
"0  c #E4CD0A",
"q  c #EFD709",
"w  c #EED60A",
"e  c #EFD70A",
"r  c #E7D21D",
"t  c #E9D41C",
"y  c #EBD61D",
"u  c #F0DA18",
"i  c #F0DA19",
"p  c #F0DA1A",
"a  c #F0DA1B",
"s  c #DBC92D",
"d  c #D6C63B",
"f  c #D9C93C",
"g  c #E1CF2E",
"h  c #E3D022",
"j  c #ECD725",
"k  c #F1DC29",
"l  c #F1DC2C",
"z  c #EBD731",
"x  c #E7D63F",
"c  c #E8D63E",
"v  c #A99F43",
"b  c #BD9957",
"n  c #AAA042",
"m  c #BBB046",
"M  c #95A174",
"N  c #9FA773",
"B  c #D1AC41",
"V  c #CABD49",
"C  c #D5B041",
"Z  c #D5B145",
"A  c #DBB046",
"S  c #D6B249",
"D  c #D5B34E",
"F  c #D8B14D",
"G  c #DEB94C",
"H  c #D5B351",
"J  c #D7B450",
"K  c #D6B451",
"L  c #DAB650",
"P  c #CAAE7B",
"I  c #C3BC79",
"U  c #D7C94E",
"Y  c #DFCD4B",
"T  c #D9CB4C",
"R  c #E7D74E",
"E  c #EDD64C",
"W  c #F1DD42",
"Q  c #E1C059",
"!  c #E9D355",
"~  c #EED754",
"^  c #E5D25A",
"/  c #E4D05D",
"(  c #E8D95F",
")  c #F4E350",
"_  c #F7E550",
"`  c #D9D166",
"'  c #D7D176",
"]  c #E9D565",
"[  c #EEDF60",
"{  c #EED965",
"}  c #EFDB6B",
"|  c #F1DD6D",
" . c #EFDB72",
".. c #EAD17A",
"X. c #EFDB79",
"o. c #EFDC7F",
"O. c #F3E362",
"+. c #F4E562",
"@. c #F5E662",
"#. c #F0E164",
"$. c #F5E873",
"%. c #F7E973",
"&. c #F6E874",
"*. c #F6E976",
"=. c #3C5D86",
"-. c #2C5A99",
";. c #2F5D9A",
":. c #325F9C",
">. c #32619F",
",. c #37639F",
"<. c #39649F",
"1. c #3161A1",
"2. c #3966A2",
"3. c #3967A4",
"4. c #3768A6",
"5. c #3F6BA4",
"6. c #406CA6",
"7. c #416DA6",
"8. c #4B6FA2",
"9. c #4B70A3",
"0. c #587AA4",
"q. c #5D7FAD",
"w. c #537CB2",
"e. c #527CB3",
"r. c #6F8995",
"t. c #7A8D97",
"y. c #7A92B2",
"u. c #969696",
"i. c #91979D",
"p. c #9B9C9D",
"a. c #9C9C9C",
"s. c #97A48E",
"d. c #B1B08E",
"f. c #9CA4AB",
"g. c #A4A4A4",
"h. c #AEAEAE",
"j. c #AFAFAF",
"k. c #BFBFBF",
"l. c #DBC08F",
"z. c #DAC193",
"x. c #F0DE86",
"c. c #F4E884",
"v. c #F6EA85",
"b. c #F6EB85",
"n. c #F7EB85",
"m. c #F7EC87",
"M. c #EAE195",
"N. c #F3E293",
"B. c #F2E294",
"V. c #F2E295",
"C. c #F3E395",
"Z. c #F2E396",
"A. c #F8EE97",
"S. c #F9EF97",
"D. c #F9EF9A",
"F. c #8EA3C0",
"G. c #A7B7CC",
"H. c #B4BCC7",
"J. c #B0BDD0",
"K. c #C0C0C0",
"L. c #C5C5C5",
"P. c #C6C6C6",
"I. c #C9C9C9",
"U. c #C8C9CA",
"Y. c #CDCDCD",
"T. c #D4D4D4",
"R. c #DCE0E6",
"E. c #DFE2E7",
"W. c #E1E1E1",
"Q. c #E7E7E7",
"!. c #E7E8E9",
"~. c #E8E8E8",
"^. c #E8EAEC",
"/. c #E9EBEF",
"(. c #ECECED",
"). c #EEEFEF",
"_. c #EFEFEF",
"`. c #F0F0F0",
"'. c #F2F1F0",
"]. c #F2F1F1",
"[. c #F2F2F1",
"{. c #F1F1F3",
"}. c #F2F2F2",
"|. c #F3F3F2",
" X c #F3F3F3",
".X c #F5F5F5",
"XX c None",
/* pixels */
"XXXXXXXXXXXXXXXXXXXXXXXXXXXXXXXXXXXXXXXXXXXXXXXX",
"XXh.L.L.L.L.L.L.L.L.L.L.L.L.L.k.XXXXXXXXXXXXXXXX",
"XXL..X}.}.}.}.}.}.}.}.}.}.}.}.~.XXXXXXXXXXXXXXXX",
"XXL.}._._._._._._._._._._._.}.Q.a.XXXXXXXXXXXXXX",
"XXL.}._._._._._._._._._._._._.Q.a.XXXXXXXXXXXXXX",
"XXL.}._._._._._._._._._._._._.Q.a.XXXXXXXXXXXXXX",
"XXL.}._._._._._._._._._._._._.Q.a.XXXXXXXXXXXXXX",
"XXL.}._._._._._._._._.`._._.}.Q.a.XXXXXXXXXXXXXX",
"XXL.}._._._._._._.}._.R.R._.}.!.p.XXXXXXXXXXXXXX",
"XXL.}._._._._._.~.H.y.8.q.f.z.l.b XXXXXXXXXXXXXX",
"XXL.}._._._._.'.J.9.5.2.2.0.d.N.C.C.Z.Z...XXXXXX",
"XXL.}._._._._.'.F.3.4.7.;.e.t.M.S.S.S.D.x.XXXXXX",
"XXL.}._._._._.}.G.,.1.:.>.e.s.c.c.n.c.m.o.XXXXXX",
"XXL..X}.`._.}.}./.i.=.-.5.r.' &.$.&.&.*.X.XXXXXX",
"XXj.U.Y.}.`.T.L.U.P I M N ` @.@.O.( [ #. .XXXXXX",
"XXXXXXu.W.K.XXXXXX4 | ) _ T v V R n m U } XXXXXX",
"XXXXXXXXg.XXXXXXXXXX] > 8 * . : x d f c { XXXXXX",
"XXXXXXXXXXXXXXXXXXXX/ # $ ; % s 5 g - & ^ 6 XXXX",
"XXXXXXXXXXXXXXXXXXXX! < , t r 5 X % + o Y A XXXX",
"XXXXXXXXXXXXXXXXXXXXE e e e e O   @ 0 9 z G XXXX",
"XXXXXXXXXXXXXXXXXX2 ~ a u u u t h j k l W Q XXXX",
"XXXXXXXXXXXXXXXXXXXXF L L K H D S Z C 7 B 3 XXXX",
"XXXXXXXXXXXXXXXXXXXXXXXXXXXXXXXXXXXXXXXXXXXXXXXX",
"XXXXXXXXXXXXXXXXXXXXXXXXXXXXXXXXXXXXXXXXXXXXXXXX"
};
