/* XPM */
static char *a[] = {
/* columns rows colors chars-per-pixel */
"36 36 256 2 ",
"   c #0EB510AC328C",
".  c #31AA0EF8081E",
"X  c #59761398050C",
"o  c #679312F50446",
"O  c #7D14120E0438",
"+  c #59EF289A0D6E",
"@  c #721431F51556",
"#  c #53F72E842D07",
"$  c #65E739763408",
"%  c #7F1A35AA1FB7",
"&  c #755E4AD33775",
"*  c #78BC610238F9",
"=  c #04AA1A4B593A",
"-  c #006F11BB4565",
";  c #1BE328875A9F",
":  c #0CD721515BA0",
">  c #2F3D303952A4",
",  c #00001C65647C",
"<  c #05FE26EE682F",
"1  c #1785299E61CE",
"2  c #04702C75724F",
"3  c #0C5B3524753C",
"4  c #09CD36487E42",
"5  c #1A3636F76D76",
"6  c #474437E750BD",
"7  c #1AB144707A09",
"8  c #32174A3E7594",
"9  c #4BBD4D915000",
"0  c #6C9349B54A84",
"q  c #43A35A776ED9",
"w  c #55186135793F",
"e  c #6E4067A56AFB",
"r  c #67DB716B7436",
"t  c #7915765676C5",
"y  c #72B86A2F6A8B",
"u  c #8C580D0602A7",
"i  c #92F90DAE0295",
"p  c #9DF613100396",
"a  c #97E0161C0491",
"s  c #89F4176503EC",
"d  c #A26E14A10387",
"f  c #A29E1B6A0502",
"g  c #AAAB19B2046F",
"h  c #85CB276407EF",
"j  c #978A2C350923",
"k  c #98CB35AA1857",
"l  c #8E942FB50ECD",
"z  c #ADC42A850897",
"x  c #AA6024FC0630",
"c  c #B576292F070E",
"v  c #A9B53C990C3E",
"b  c #BD333B620AFB",
"n  c #B78234590964",
"m  c #83C63AC528DA",
"M  c #C70F38BC0822",
"N  c #9E574C980EC3",
"B  c #92F1493C1121",
"V  c #BEFA41050C8A",
"C  c #B454444F1367",
"Z  c #B89857FC16FB",
"A  c #AA904EEF10AA",
"S  c #812947B9388B",
"D  c #9A8F54F0316F",
"F  c #92D54DE8275D",
"G  c #B61C5B0426DF",
"H  c #B8685B3E323D",
"J  c #AF6D528F25A3",
"K  c #8BCF735B3D84",
"L  c #B86264522DBB",
"P  c #B76869AB35A3",
"I  c #B3E172392F3E",
"U  c #C4C5446A0D75",
"Y  c #CD8844CA0A86",
"T  c #CD7D4B9A0D2F",
"R  c #C138463806BD",
"E  c #D1D4463C0A7D",
"W  c #D3914B870B93",
"Q  c #DA2A4DA30BD2",
"!  c #CA4456490D42",
"~  c #D591530E0C76",
"^  c #DC4E53DA0AE0",
"/  c #D6A85BFB0D3B",
"(  c #DB1A5CDF0B42",
")  c #D912562D071B",
"_  c #C6614A531115",
"`  c #C9624BDB1081",
"'  c #CD8952F71277",
"]  c #CEBC5AF1155E",
"[  c #C9585B42195B",
"{  c #D34F5570113F",
"}  c #D4365B311314",
"|  c #DBA15C821251",
" . c #D84459A71587",
".. c #E15B5BFA10DF",
"X. c #D5AF62000CBF",
"o. c #DA6262870CA8",
"O. c #D43C6C7B0E2D",
"+. c #DC426C2B0B92",
"@. c #D901756C0DA4",
"#. c #CD0D67691778",
"$. c #D68A625213E0",
"%. c #DB5A649E11D6",
"&. c #DBE36BE313D6",
"*. c #D6DB6A3318A7",
"=. c #C5BD700F1819",
"-. c #E4A77CB50B3F",
";. c #E31975610CA2",
":. c #E390653C1212",
">. c #E493696F16F3",
",. c #E75778261317",
"<. c #E0E16CE20AFC",
"1. c #C79963FB27C1",
"2. c #D925762F37D6",
"3. c #CB7974EE2FF2",
"4. c #E9386B741FCF",
"5. c #9EE25D114E01",
"6. c #991779725BE4",
"7. c #93106C4654B4",
"8. c #ADB473254B95",
"9. c #919D75CE72C7",
"0. c #E3437D6441DF",
"q. c #6B1680727C24",
"w. c #BD6B8B6B32E3",
"e. c #DB479B2A1F11",
"r. c #E9C08C940C3C",
"t. c #E58886200CB9",
"y. c #E44F837311D7",
"u. c #E9758C3E11C4",
"i. c #EC239AFC13E4",
"p. c #E83A94A81497",
"a. c #F04A9A040FB4",
"s. c #ED9EA25318B9",
"d. c #F4E2ACEE1AA7",
"f. c #F511A39712D5",
"g. c #C66592022B85",
"h. c #DD9F93CC2935",
"j. c #D034878C2ACE",
"k. c #EED88D432E84",
"l. c #E9CCA9BD28C3",
"z. c #F5EDB7842418",
"x. c #EBC1B8263842",
"c. c #E7D3B4422B83",
"v. c #D4CFA5B83213",
"b. c #F83BC1AD2CC0",
"n. c #F89FC817377E",
"m. c #B72986BA4B38",
"M. c #A7B184FC5D6A",
"N. c #A43398E654BD",
"B. c #B55D936B4A89",
"V. c #8D688C5D7489",
"C. c #AB7093946D8D",
"Z. c #B1FCA92672D5",
"A. c #D7D38BBA5629",
"S. c #C8378EC15569",
"D. c #CE7AA60A4E57",
"F. c #D409AFFA545E",
"G. c #E409BBB848DC",
"H. c #C9FA98547957",
"J. c #CBDDB9686D8C",
"K. c #DCDFC64E5EAB",
"L. c #EB3BC8874A8A",
"P. c #F575CC4149D0",
"I. c #F8CBD3E24B9A",
"U. c #ED5CC9CF5130",
"Y. c #F7C6D5BA53CE",
"T. c #D367C7797205",
"R. c #EED5D743629D",
"E. c #10D33F5B80D9",
"W. c #0F333EF480B9",
"Q. c #1D7D4C04852A",
"!. c #15CA484088DB",
"~. c #1B5F55799746",
"^. c #386E5E578C2A",
"/. c #23B95A1E96E0",
"(. c #3C2669BD949B",
"). c #2F1765DF9707",
"_. c #1CFB5F7FA28B",
"`. c #1E0365A3AA05",
"'. c #1D476BACB398",
"]. c #1CD57001B862",
"[. c #23266481A4D1",
"{. c #2B8D6C24A84D",
"}. c #350C6871A53F",
"|. c #364372FBA58B",
" X c #25AB7299B558",
".X c #284D77FEBAB3",
"XX c #25DB6F48B103",
"oX c #48FE63FC8304",
"OX c #494875FA98B4",
"+X c #520A790794A9",
"@X c #59A1794D8F97",
"#X c #4CA97B89ABAD",
"$X c #21A37BC7C513",
"%X c #79A195799F86",
"&X c #53908685AB13",
"*X c #493B84AFAECA",
"=X c #7389941EAB01",
"-X c #662E896CA42A",
";X c #7BC1A846B79F",
":X c #2E3D84A3C5CF",
">X c #282584E3CA48",
",X c #369688FBC860",
"<X c #34B795E0D7D7",
"1X c #31678E7CD087",
"2X c #3E79A14BDE9F",
"3X c #46E99526CA80",
"4X c #57669AF7C2DD",
"5X c #42359BCDD648",
"6X c #4429A30FDBC1",
"7X c #5717A8A8D868",
"8X c #584EB100DD86",
"9X c #7A42AC88C7B6",
"0X c #716CB4B2D375",
"qX c #4A8FAD5AE381",
"wX c #57C9BA86E708",
"eX c #4C7CB2D8E6CE",
"rX c #61C4BCC1E3DE",
"tX c #5B50C0DBED97",
"yX c #62E1C772EB4F",
"uX c #7441CCD1EAFA",
"iX c #69B2D1F9F2D2",
"pX c #771FDA01F3A3",
"aX c #6F70D020EE13",
"sX c #7B07E094F9BD",
"dX c #98DA9DBE8875",
"fX c #8AD397489184",
"gX c #AB7D9A9587F8",
"hX c #9EEAA7DC9259",
"jX c #AA11A8468E7E",
"kX c #B552AFC59D61",
"lX c #8A82AA11A98B",
"zX c #A0CABE76B7D5",
"xX c #BE15C0CA8BB3",
"cX c #8893BC98D3EA",
"vX c #9104BE7FD2C9",
"bX c #93AACCA8D68C",
"nX c #AE06C834C41D",
"mX c #965ED735E92B",
"MX c #8699DA99F197",
"NX c #8C04D642E879",
"BX c #A37AD5FAE597",
"VX c #8A93E49BF680",
"CX c #9834E6BDF738",
"ZX c #967FE299EC8B",
"AX c #A6DBEB81F8B7",
"SX c #B632EB59F5F1",
"DX c #BCD9F227FC01",
"FX c #B3FFF22AFD29",
"GX c #B682EB73F164",
"HX c #C564F41EFBFF",
"JX c #CCC2F668FD49",
"KX c #D334F9D4FF6F",
"LX c #D0AFF844FEA8",
"PX c #C87FEB99EE5C",
"IX c #C69ED279CA30",
"UX c None",
/* pixels */
"UXUXUXUXUXUXUXUXUXUXUXUXUXUXUX).(.OX#X&X#XUXUXUXUXUXUXUXUXUXUXUXUXUXUXUX",
"UXUXUXUXUXUXUXUXUXUXUXUXUXUX0X9XcXcXvXcXvXBXUXUXUXUXUXUXUXUXUXUXUXUXUXUX",
"UXUXUXUXUXUXUXUXUX2 E.}.4X0XBXDXJXLXLXKXJXSXNX9X+X@XUXUXUXUXUXUXUXUXUXUX",
"UXUXUXUXUXUXUXUXW.E.}.7XpXAXDXJXLXKXKXLXJXPXAXmX;XlXhXt UXUXUXUXUXUXUXUX",
"UXUXUXUXUXUXUX, 2 /.#X0XbXnXIXPXJXJXJXJXHXHXFXZX0XlXfXdXV.UXUXUXUXUXUXUX",
"UXUXUXk.k.3.> 1 8 }.#X=XgXC.kXGXHXHXJXHXFXSXAXMXyX4X=XxXJ.6.UXUXUXUXUXUX",
"UXUXUX4.4.[ $ 0 y t 9.5.H C.nXGXDXDXDXDXSXCXMXuX8X4X=XjXJ.J.m.UXUXUXUXUX",
"UXUXUX ... .G P H 8.H J H gXMXAXFXFXFXAXCXMXuXwX8X3X&XhXT.R.D.S.UXUXUXUX",
"UXUXUX....:...%.| | ~ ' 8.lXmXmXAXAXAXCXZXpXuXyXwX5X*XfXT.R.Y.D.m.UXUXUX",
"UXUX>.:...^ ^ ^ ~ { { ] H 8.gXkXzXbXCXCXVXVXpXiXyXeX,X+XZ.R.Y.L.F.L.UXUX",
"UXUX>.:...Q W W W ' } { C H 0.S.C.;XuXsXpXpXiXyXwX6X:X|.q.K.L.P.U.U.UXUX",
"UXUXUX..) Q E E W W {  .[ 2.0.2.V.=XyXiXyXtXwXeX6X,X X[.q.D.L.Y.Y.UXUXUX",
"UXUX>.^ Q E E Y T W W $.2.A.H.9.-X4XwXwXwX6X,X1X1X.X[./.q.B.L.I.I.x.UXUX",
"UX,.>.Q E E E Y T {  .4.k.S.fX&X,X6XqXqX6X,X.X{. X_.~.^.q.D.G.P.U.l.h.UX",
"UXUX>.Q E E E T ` ' [ 3.2.6.+X,X<X2X2X<X:X X`.~.~.Q.Q.oXV.F.x.P.P.h.UXUX",
"UXUX:.Q E E ~ ' _ V C J 6.t OX:X>X1X1X:XXX_.~.~.Q.!.Q.w N.I.n.n.L.g.UXUX",
"UXUX..W E W { _ n z k S w (.|.$X>X>X>X$X]._.~.!.W.W.7 q N.I.n.n.b.w.UXUX",
"UXUXQ E W W { b x g x 0 ^.`.'.].]..X X]. X[.~.4 4 4 7 9 N.n.b.b.c.w.UXUX",
"UXUXW E Y ' ' U c c b J e (.[.`.{.|.+XOX|.[.!.4 3 3 5 9 N.n.b.z.z.e.UXUX",
"UXUXM M Y T ] ` M M U [ P 7.e r y 7.8.M.t OXQ.5 2 2 > 7.v.b.z.d.s.p.u.UX",
"UXUXM M M ' { T T E ) ~ ] 1.1.P 1.&.*.3.M.oXQ.3 : : 9 g.z.z.d.f.p.r.UXUX",
"UXUXc c n _ ] { } ) ) ~ b b _ [ ! ! m 0 8 !.E.< = ; * e.d.d.i.r.r.UXUXUX",
"UXc c c c b _ ' } ( ( / _ v k k m $ 6 5 W.W.2 , = 9 I i.f.a.r.t.+.G UXUX",
"UXUXc g g c b _ } o.:.%.} C % $ > ; 3 2 < , = : > * g.i.a.r.t.O.[ L UXUX",
"UXUXUXg g d z b ' ] } $.&.1.J & 9 1 =       # & F g.p.p.r.-.+.Z D 8.UXUX",
"UXUXUXUXp p f z _ ' ] $.&.*.#.L F & $ # + @ B Z O.@.u.t.-.@.=.I I 3.UXUX",
"UXUXUXUXd p i f n V ' ' $.$.$.%.*.#.Z ! #.O.+.<.@.-.-.t.t.@.j.g.l.UXUXUX",
"UXUXUXUXUXd i i a n V T ' { $.$.$./ X.X.X.! X.+.+.-.-.r.r.r.i.s.UXUXUXUX",
"UXUXUXUXUXd i u i p z b U ' { } } o.( o.X.) X.o.<.@.y.y.t.t.i.UXUXUXUXUX",
"UXUXUXUXUXUXi u u a f z n U T { / / ( / ( o.o.o.&.&.&.&.O.@.UXUXUXUXUXUX",
"UXUXUXUXUXUXUXo o i d d g z b R T ) / / ( ( o.X.X.Z J A Z UXUXUXUXUXUXUX",
"UXUXUXUXUXUXUXUXX o O a d x c b Y E W ^ ) ) o.O.! Z A N UXUXUXUXUXUXUXUX",
"UXUXUXUXUXUXUXUXUX. X s a f z z n n M V V ! ! Z A N N UXUXUXUXUXUXUXUXUX",
"UXUXUXUXUXUXUXUXUXUXUXUX@ j j h h j j l @ v A B + + UXUXUXUXUXUXUXUXUXUX",
"UXUXUXUXUXUXUXUXUXUXUXUXUXUXUXUXUXUXUXUXUXUXUXUXUXUXUXUXUXUXUXUXUXUXUXUX",
"UXUXUXUXUXUXUXUXUXUXUXUXUXUXUXUXUXUXUXUXUXUXUXUXUXUXUXUXUXUXUXUXUXUXUXUX"
};
