/* XPM */
static char * firefox_xpm[] = {
"24 24 407 2",
"  	c None",
". 	c #30628F",
"+ 	c #4279A3",
"@ 	c #5486A7",
"# 	c #4D82A5",
"$ 	c #052565",
"% 	c #1F5092",
"& 	c #5599BB",
"* 	c #8ACCE3",
"= 	c #BEEFF9",
"- 	c #D0F9FF",
"; 	c #D1F9FF",
"> 	c #D3F8FE",
", 	c #ADE1EE",
"' 	c #69AACA",
") 	c #426789",
"! 	c #042363",
"~ 	c #184C8D",
"{ 	c #5AA6D9",
"] 	c #90E5FA",
"^ 	c #C1F7FF",
"/ 	c #CDF6FD",
"( 	c #D2F7FD",
"_ 	c #CDF6FC",
": 	c #C9F5FC",
"< 	c #A0EAF8",
"[ 	c #81AAB5",
"} 	c #ABB5A1",
"| 	c #5F6570",
"1 	c #F79035",
"2 	c #E78733",
"3 	c #000F5D",
"4 	c #15396E",
"5 	c #3264B3",
"6 	c #619BCB",
"7 	c #A5A99B",
"8 	c #C39F84",
"9 	c #C1ECF1",
"0 	c #C8F4FC",
"a 	c #C9F4FB",
"b 	c #BFF1FA",
"c 	c #B4F0FA",
"d 	c #9FE8F7",
"e 	c #59B4DF",
"f 	c #6988A1",
"g 	c #D4D086",
"h 	c #A0785C",
"i 	c #E5631B",
"j 	c #D85712",
"k 	c #744A3E",
"l 	c #8E6B5A",
"m 	c #89747A",
"n 	c #A3513E",
"o 	c #C15018",
"p 	c #9FBFBE",
"q 	c #B6F2FE",
"r 	c #BAF0FA",
"s 	c #BEF2FB",
"t 	c #B3EDF9",
"u 	c #89DAF2",
"v 	c #6FCAE9",
"w 	c #51A8D8",
"x 	c #6193B3",
"y 	c #ADAD87",
"z 	c #DFCF6B",
"A 	c #AA7145",
"B 	c #D9500B",
"C 	c #E56814",
"D 	c #E06413",
"E 	c #DB6112",
"F 	c #DA5E16",
"G 	c #D04808",
"H 	c #9D865E",
"I 	c #76E2FF",
"J 	c #97F0FF",
"K 	c #A9F2FF",
"L 	c #A9ECF9",
"M 	c #92E6F7",
"N 	c #7DD6EE",
"O 	c #5EBDE4",
"P 	c #54AEDE",
"Q 	c #347DBE",
"R 	c #AEAD7E",
"S 	c #FDE462",
"T 	c #E4C54E",
"U 	c #B08150",
"V 	c #E56B14",
"W 	c #E46A13",
"X 	c #DF4F0E",
"Y 	c #D8510A",
"Z 	c #D25310",
"` 	c #D15412",
" .	c #D55B12",
"..	c #B54315",
"+.	c #B89072",
"@.	c #B0A48B",
"#.	c #91C3C7",
"$.	c #90EBFC",
"%.	c #8BE6F7",
"&.	c #85E3F5",
"*.	c #71D8F3",
"=.	c #5FCCF1",
"-.	c #40A1DD",
";.	c #436785",
">.	c #EDDB69",
",.	c #F7CF4C",
"'.	c #E1B34F",
").	c #E9CC4B",
"!.	c #DF5E0B",
"~.	c #D84D08",
"{.	c #D0460A",
"].	c #D2460A",
"^.	c #CE5112",
"/.	c #D85B11",
"(.	c #CA5015",
"_.	c #E77636",
":.	c #E4752E",
"<.	c #71818E",
"[.	c #6AD1F1",
"}.	c #65D0F2",
"|.	c #5DC3EB",
"1.	c #53BDED",
"2.	c #42A1DA",
"3.	c #2C79BA",
"4.	c #2365A4",
"5.	c #BCA85A",
"6.	c #F8D24D",
"7.	c #F7D353",
"8.	c #E96D13",
"9.	c #DA4C06",
"0.	c #D1450A",
"a.	c #CD490D",
"b.	c #D34B0C",
"c.	c #D45C14",
"d.	c #E1823E",
"e.	c #D3A685",
"f.	c #6B7993",
"g.	c #4695CC",
"h.	c #58BAE9",
"i.	c #56B9E9",
"j.	c #3C94D1",
"k.	c #2D7FC2",
"l.	c #328DCE",
"m.	c #1C5C9E",
"n.	c #275790",
"o.	c #A2874A",
"p.	c #E8C748",
"q.	c #FDDE53",
"r.	c #E5A82C",
"s.	c #E76F18",
"t.	c #D2480C",
"u.	c #CF490C",
"v.	c #CC4C0F",
"w.	c #D25814",
"x.	c #E06D21",
"y.	c #F08C33",
"z.	c #577083",
"A.	c #298CD4",
"B.	c #42A6E2",
"C.	c #41A4E0",
"D.	c #338ACA",
"E.	c #2E75B6",
"F.	c #20609F",
"G.	c #1C5898",
"H.	c #12478A",
"I.	c #586D82",
"J.	c #CFAC64",
"K.	c #F1B639",
"L.	c #F8D755",
"M.	c #DA8724",
"N.	c #E36817",
"O.	c #D4490B",
"P.	c #CD490E",
"Q.	c #D35210",
"R.	c #C64D13",
"S.	c #B1390E",
"T.	c #A1441F",
"U.	c #857062",
"V.	c #517891",
"W.	c #2786CD",
"X.	c #2B87CA",
"Y.	c #2E8ACD",
"Z.	c #2573B7",
"`.	c #195394",
" +	c #174D8E",
".+	c #174884",
"++	c #174982",
"@+	c #4F606D",
"#+	c #FFDB4B",
"$+	c #F6BF33",
"%+	c #F7D442",
"&+	c #BA7B30",
"*+	c #DC520E",
"=+	c #D1460A",
"-+	c #D34B0D",
";+	c #D35813",
">+	c #AA2607",
",+	c #A21C04",
"'+	c #7E3C32",
")+	c #1C62A8",
"!+	c #1C67AF",
"~+	c #1E74BC",
"{+	c #247CC2",
"]+	c #1C73BE",
"^+	c #1D73BD",
"/+	c #1D66AB",
"(+	c #124384",
"_+	c #0A3880",
":+	c #0D3779",
"<+	c #4B5A5C",
"[+	c #F0CE4C",
"}+	c #F7C52E",
"|+	c #F1BF2D",
"1+	c #AF8431",
"2+	c #D1440C",
"3+	c #CB410B",
"4+	c #CD4D0E",
"5+	c #CC5614",
"6+	c #B82F06",
"7+	c #B92F05",
"8+	c #CF5614",
"9+	c #6B696E",
"0+	c #2564A2",
"a+	c #1F66A9",
"b+	c #416D99",
"c+	c #647682",
"d+	c #47789D",
"e+	c #1F5B9C",
"f+	c #0D3574",
"g+	c #0C3576",
"h+	c #0A2E6F",
"i+	c #6E5F42",
"j+	c #F9CC40",
"k+	c #F5B825",
"l+	c #F1B121",
"m+	c #E19D1A",
"n+	c #CD3506",
"o+	c #C43308",
"p+	c #CE4E0E",
"q+	c #D15813",
"r+	c #CD4309",
"s+	c #D34908",
"t+	c #D75409",
"u+	c #D7641D",
"v+	c #BC6D32",
"w+	c #AE703A",
"x+	c #D36D20",
"y+	c #EA7C1C",
"z+	c #CD934A",
"A+	c #39618F",
"B+	c #133E77",
"C+	c #02246A",
"D+	c #1A335F",
"E+	c #DBA328",
"F+	c #F7B823",
"G+	c #F5B01B",
"H+	c #ED9B14",
"I+	c #E6850B",
"J+	c #BA2A07",
"K+	c #B62808",
"L+	c #BF410E",
"M+	c #D15613",
"N+	c #D35A13",
"O+	c #D95605",
"P+	c #D9550D",
"Q+	c #AF3009",
"R+	c #C6440D",
"S+	c #CE4D0E",
"T+	c #CB4F07",
"U+	c #713430",
"V+	c #213F77",
"W+	c #0B3E8B",
"X+	c #0B2E6C",
"Y+	c #000F51",
"Z+	c #6E5939",
"`+	c #F3A516",
" @	c #F3AB1A",
".@	c #E9910F",
"+@	c #E5840A",
"@@	c #B72707",
"#@	c #A91804",
"$@	c #B32607",
"%@	c #C2450F",
"&@	c #D15913",
"*@	c #DB640E",
"=@	c #E16811",
"-@	c #D55611",
";@	c #7C2E18",
">@	c #512B3A",
",@	c #1F295C",
"'@	c #04347C",
")@	c #022D78",
"!@	c #01256E",
"~@	c #021C61",
"{@	c #14285E",
"]@	c #C58427",
"^@	c #EF9E13",
"/@	c #EC920C",
"(@	c #E7860A",
"_@	c #CC5F0D",
":@	c #B1572E",
"<@	c #A81704",
"[@	c #970E03",
"}@	c #AC2B0A",
"|@	c #CB4F11",
"1@	c #D66314",
"2@	c #DF7019",
"3@	c #BF6325",
"4@	c #814D3B",
"5@	c #293260",
"6@	c #07164A",
"7@	c #02052A",
"8@	c #251521",
"9@	c #7A441F",
"0@	c #B5681E",
"a@	c #EC9F1F",
"b@	c #E78A0C",
"c@	c #E67E09",
"d@	c #D1650C",
"e@	c #8F4E35",
"f@	c #C57B3E",
"g@	c #9F1303",
"h@	c #930F03",
"i@	c #B7340A",
"j@	c #C64F14",
"k@	c #CF5A16",
"l@	c #D66415",
"m@	c #D86615",
"n@	c #D96911",
"o@	c #CC5F17",
"p@	c #B45915",
"q@	c #BC5A16",
"r@	c #D36D0D",
"s@	c #E06B0B",
"t@	c #E77A0B",
"u@	c #E3770C",
"v@	c #E38210",
"w@	c #E07209",
"x@	c #B37D29",
"y@	c #E49E28",
"z@	c #8F0B02",
"A@	c #8E0C03",
"B@	c #B6330A",
"C@	c #CD5011",
"D@	c #D25B13",
"E@	c #D56115",
"F@	c #D86213",
"G@	c #DB610C",
"H@	c #D7630C",
"I@	c #D3580D",
"J@	c #D5650C",
"K@	c #DD6A0A",
"L@	c #E38011",
"M@	c #EB9617",
"N@	c #E98B0A",
"O@	c #F4A615",
"P@	c #910D02",
"Q@	c #910D03",
"R@	c #941003",
"S@	c #AD2606",
"T@	c #C13F0C",
"U@	c #D05210",
"V@	c #D25812",
"W@	c #D85C0D",
"X@	c #D75F0D",
"Y@	c #D85E0D",
"Z@	c #DA5E0C",
"`@	c #DB630D",
" #	c #E06F11",
".#	c #DF760E",
"+#	c #DD740D",
"@#	c #D5760E",
"##	c #581604",
"$#	c #9F1203",
"%#	c #A01303",
"&#	c #A31604",
"*#	c #B23109",
"=#	c #C8440B",
"-#	c #D3530C",
";#	c #DB570B",
">#	c #DB5E09",
",#	c #D95B07",
"'#	c #DB640D",
")#	c #C86110",
"!#	c #AA4C1B",
"~#	c #A84B1A",
"{#	c #330F08",
"]#	c #851603",
"^#	c #A31A06",
"/#	c #AC2606",
"(#	c #BC3106",
"_#	c #C53805",
":#	c #C94509",
"<#	c #D14A06",
"[#	c #D35407",
"}#	c #CF6507",
"|#	c #B6570E",
"1#	c #9E4D0F",
"2#	c #722A10",
"3#	c #A3300C",
"4#	c #6F1E09",
"5#	c #872C08",
"6#	c #932605",
"7#	c #662809",
"8#	c #A43F0C",
"9#	c #904711",
"0#	c #3C190D",
"                    . + @ #                     ",
"            $ % & * = - ; > , ' )               ",
"          ! ~ { ] ^ / ( ( _ : < [ } |           ",
"    1 2 3 4 5 6 7 8 9 0 a b c d e f g h         ",
"    i j k l m n o p q r s t u v w x y z A       ",
"    B C D E F G H I J K L M N O P Q R S T U     ",
"  V W X Y Z `  ...+.@.#.$.%.&.*.=.-.;.>.,.'.).  ",
"    !.~.{.].^./.(._.:.<.[.}.|.1.2.3.4.5.6.7.    ",
"  8.9.0.0.a.b.c.d.e.f.g.h.i.j.k.l.m.n.o.p.q.r.  ",
"  s.t.0.u.v.w.x.y.z.A.B.C.D.E.F.G.H.I.J.K.L.M.  ",
"  N.O.P.Q.R.S.T.U.V.W.X.Y.Z.`. +.+++@+#+$+%+&+  ",
"  *+=+-+;+>+,+'+)+!+~+{+]+^+/+(+_+:+<+[+}+|+1+  ",
"  2+3+4+5+6+7+8+9+0+a+b+c+d+e+f+g+h+i+j+k+l+m+  ",
"  n+o+p+q+r+s+t+u+v+w+x+y+z+A+B+C+D+E+F+G+H+I+  ",
"  J+K+L+M+N+O+P+Q+R+S+T+U+V+W+X+Y+Z+`+ @.@+@    ",
"  @@#@$@%@&@*@=@-@;@>@,@'@)@!@~@{@]@^@/@(@_@:@  ",
"    <@[@}@|@&@1@2@3@4@5@6@7@8@9@0@a@b@c@d@e@f@  ",
"      g@h@i@j@k@l@m@n@o@p@q@r@s@t@u@v@w@x@y@    ",
"      <@z@A@B@R+C@D@E@F@G@H@I@J@K@L@M@N@O@      ",
"        P@Q@R@S@T@U@V@W@X@Y@Z@`@ #.#+#@#        ",
"          ##$#%#&#*#=#-#;#>#,#'#)#!#~#          ",
"            {#]#^#/#(#_#:#<#[#}#|#1#            ",
"                2#3#4#5#6#7#8#9#0#              ",
"                                                "};
