/* XPM */
static char * Microphone_Normal_Red_icon_xpm[] = {
"24 24 356 2",
"  	c None",
". 	c #DA5140",
"+ 	c #D85344",
"@ 	c #D75143",
"# 	c #D55042",
"$ 	c #D44F41",
"% 	c #D34D40",
"& 	c #D24B40",
"* 	c #D0493F",
"= 	c #CF483E",
"- 	c #CE463D",
"; 	c #CC443C",
"> 	c #CB423B",
", 	c #CA413B",
"' 	c #C93F3A",
") 	c #C73E3A",
"! 	c #C32F2D",
"~ 	c #E6452C",
"{ 	c #EFB1A9",
"] 	c #F3BDB6",
"^ 	c #F4C0B9",
"/ 	c #F3BEB7",
"( 	c #F3BDB7",
"_ 	c #F3BCB6",
": 	c #F3BBB4",
"< 	c #F2BBB3",
"[ 	c #F2B9B3",
"} 	c #F2B8B2",
"| 	c #F1B7B1",
"1 	c #F1B6B0",
"2 	c #F1B5AE",
"3 	c #F0B4AE",
"4 	c #F0B3AD",
"5 	c #EFB2AB",
"6 	c #EDAAA4",
"7 	c #E3847D",
"8 	c #AE0000",
"9 	c #EDA59B",
"0 	c #F0B8B2",
"a 	c #EFB5AD",
"b 	c #EEB1AA",
"c 	c #EEB1A9",
"d 	c #EEB0A7",
"e 	c #EEAEA7",
"f 	c #EDAEA5",
"g 	c #ECB1A9",
"h 	c #EBB3AD",
"i 	c #EAB2AB",
"j 	c #EAABA3",
"k 	c #ECA89F",
"l 	c #ECA79E",
"m 	c #ECA59C",
"n 	c #ECA49C",
"o 	c #ECA39A",
"p 	c #ECA79F",
"q 	c #DD6A62",
"r 	c #DC523E",
"s 	c #EB998D",
"t 	c #EA9D93",
"u 	c #E99C91",
"v 	c #E99A90",
"w 	c #E99A8F",
"x 	c #E9988E",
"y 	c #E9968C",
"z 	c #E9A49C",
"A 	c #F2E2E0",
"B 	c #F5F5F5",
"C 	c #F2F0F0",
"D 	c #EAD1CE",
"E 	c #E0938A",
"F 	c #E78E83",
"G 	c #E68D82",
"H 	c #E68C81",
"I 	c #E68B7F",
"J 	c #E6897D",
"K 	c #E07E72",
"L 	c #D54B38",
"M 	c #E5867A",
"N 	c #E58D82",
"O 	c #E48B80",
"P 	c #E5897F",
"Q 	c #E28376",
"R 	c #EEDCDA",
"S 	c #EEF0F0",
"T 	c #EAEAEA",
"U 	c #E8E8E8",
"V 	c #E5E8E9",
"W 	c #DBB3AE",
"X 	c #DD7C70",
"Y 	c #E27E71",
"Z 	c #E17D70",
"` 	c #E17B6F",
" .	c #E17A6D",
"..	c #E0786B",
"+.	c #DC6B5F",
"@.	c #A30D08",
"#.	c #CC4230",
"$.	c #D9675C",
"%.	c #CC3C2F",
"&.	c #C72718",
"*.	c #C62616",
"=.	c #C72516",
"-.	c #BD1A0B",
";.	c #DFE4E4",
">.	c #D0D0D1",
",.	c #CCCCCC",
"'.	c #C7C7C7",
").	c #C3C5C6",
"!.	c #BCA09E",
"~.	c #B21B0C",
"{.	c #C62314",
"].	c #C62313",
"^.	c #C62212",
"/.	c #C82D1E",
"(.	c #CE493D",
"_.	c #BE2515",
":.	c #BA1003",
"<.	c #B60900",
"[.	c #B70B00",
"}.	c #AC0000",
"|.	c #CFD2D2",
"1.	c #BCBCBD",
"2.	c #B7B7B7",
"3.	c #B2B2B2",
"4.	c #B0B3B2",
"5.	c #AD8F8E",
"6.	c #A00300",
"7.	c #B80C00",
"8.	c #B70C00",
"9.	c #B60A00",
"0.	c #A30A04",
"a.	c #B21306",
"b.	c #B00901",
"c.	c #AE0801",
"d.	c #AF0801",
"e.	c #A30000",
"f.	c #C2C3C4",
"g.	c #ADAEAE",
"h.	c #AFAFAF",
"i.	c #B3B4B2",
"j.	c #B8BCB9",
"k.	c #B09291",
"l.	c #980000",
"m.	c #A30902",
"n.	c #A91005",
"o.	c #A60501",
"p.	c #A50401",
"q.	c #A40603",
"r.	c #A81816",
"s.	c #C3C5C4",
"t.	c #B7B9B6",
"u.	c #BDBEBB",
"v.	c #C2C3C0",
"w.	c #C9CDC8",
"x.	c #B59997",
"y.	c #900503",
"z.	c #A5120F",
"A.	c #A30502",
"B.	c #A60401",
"C.	c #A40B03",
"D.	c #A40E05",
"E.	c #A50403",
"F.	c #A30303",
"G.	c #A31717",
"H.	c #E6D9DA",
"I.	c #922424",
"J.	c #CDCECC",
"K.	c #C7CAC5",
"L.	c #CDCFC9",
"M.	c #D2D4CD",
"N.	c #D8DED6",
"O.	c #BA9B97",
"P.	c #A86363",
"Q.	c #BA9595",
"R.	c #9C0D0D",
"S.	c #A50303",
"T.	c #A50C04",
"U.	c #A40E06",
"V.	c #AD0706",
"W.	c #AC0606",
"X.	c #AD0606",
"Y.	c #A60606",
"Z.	c #C78E8E",
"`.	c #912C2C",
" +	c #D8D9D3",
".+	c #D7DBD3",
"++	c #DBDED6",
"@+	c #DFE1DA",
"#+	c #E5EAE4",
"$+	c #C0A09D",
"%+	c #A86868",
"&+	c #9D5152",
"*+	c #A30606",
"=+	c #AE0706",
"-+	c #A80F04",
";+	c #A30D07",
">+	c #B50A0A",
",+	c #B60A0A",
"'+	c #B30808",
")+	c #C87F7F",
"!+	c #952C2C",
"~+	c #E2E3DE",
"{+	c #E4E6E0",
"]+	c #E6E8E4",
"^+	c #EAECE8",
"/+	c #F0F5F1",
"(+	c #C7A4A3",
"_+	c #AE6B6A",
":+	c #AA4E4D",
"<+	c #B10808",
"[+	c #B60A09",
"}+	c #AA1005",
"|+	c #A10D08",
"1+	c #BD0D0D",
"2+	c #BF0D0D",
"3+	c #BC0B0B",
"4+	c #C67C7C",
"5+	c #982B2C",
"6+	c #ECF0EC",
"7+	c #EFF0ED",
"8+	c #F2F3F0",
"9+	c #F6F6F4",
"0+	c #FCFFFE",
"a+	c #D1ADAD",
"b+	c #B56F6E",
"c+	c #B35453",
"d+	c #BA0B0B",
"e+	c #BE0D0C",
"f+	c #AC1205",
"g+	c #A00C09",
"h+	c #C51010",
"i+	c #C71111",
"j+	c #C50E0E",
"k+	c #C56B6A",
"l+	c #AA4F4F",
"m+	c #DFC1BF",
"n+	c #FDFDFC",
"o+	c #FEFEFE",
"p+	c #FFFFFF",
"q+	c #B56F6F",
"r+	c #C89492",
"s+	c #B64948",
"t+	c #C40F0F",
"u+	c #C61010",
"v+	c #AE1306",
"w+	c #9F100E",
"x+	c #CC1D1D",
"y+	c #CF1F1F",
"z+	c #CF1E1E",
"A+	c #CA4444",
"B+	c #CFB6B3",
"C+	c #A93838",
"D+	c #F1E0E0",
"E+	c #F9F4F4",
"F+	c #F9F3F3",
"G+	c #DCBDBD",
"H+	c #A63E3E",
"I+	c #E4D8D4",
"J+	c #AF1D1D",
"K+	c #CD1E1E",
"L+	c #D01F1F",
"M+	c #CE1E1C",
"N+	c #B01607",
"O+	c #A31815",
"P+	c #D42F2F",
"Q+	c #D83232",
"R+	c #D12929",
"S+	c #CE7C7B",
"T+	c #D7B8B5",
"U+	c #BF6D6C",
"V+	c #C37272",
"W+	c #C07070",
"X+	c #C27A79",
"Y+	c #DFC6C5",
"Z+	c #B34E4E",
"`+	c #CA2A2A",
" @	c #D62F2D",
".@	c #B21909",
"+@	c #B3231E",
"@@	c #DD4140",
"#@	c #E04343",
"$@	c #DA4141",
"%@	c #C75656",
"&@	c #D4A8A8",
"*@	c #E9DDDB",
"=@	c #EADDDB",
"-@	c #C58D8C",
";@	c #B64848",
">@	c #D13D3D",
",@	c #DF4343",
"'@	c #DD403E",
")@	c #B41C0B",
"!@	c #C43025",
"~@	c #E75352",
"{@	c #E95656",
"]@	c #E85656",
"^@	c #E55454",
"/@	c #D55D5D",
"(@	c #F6EDED",
"_@	c #EDDEDE",
":@	c #B43636",
"<@	c #E45454",
"[@	c #E95555",
"}@	c #E6504E",
"|@	c #B61F0E",
"1@	c #D3392B",
"2@	c #F06463",
"3@	c #F06868",
"4@	c #F16868",
"5@	c #F06767",
"6@	c #EC8E8E",
"7@	c #F8F1F1",
"8@	c #F0E5E5",
"9@	c #D26868",
"0@	c #ED6261",
"a@	c #F5706D",
"b@	c #F97B7B",
"c@	c #F97A7A",
"d@	c #F87A7A",
"e@	c #EE7A7A",
"f@	c #D47474",
"g@	c #D07272",
"h@	c #E57373",
"i@	c #F97D7F",
"j@	c #F35B4F",
"k@	c #E1341A",
"l@	c #F87772",
"m@	c #FB807E",
"n@	c #F97F7D",
"o@	c #F77E7D",
"p@	c #F57D7D",
"q@	c #F47D7D",
"r@	c #F67D7D",
"s@	c #F67D7C",
"t@	c #F77D7C",
"u@	c #F87E7D",
"v@	c #FA7F7D",
"w@	c #FB7F7D",
"x@	c #F8695D",
"y@	c #B01902",
"z@	c #B92D1C",
"A@	c #AA2B20",
"B@	c #9C261F",
"C@	c #8E201D",
"D@	c #891F1D",
"E@	c #8D201D",
"F@	c #91221D",
"G@	c #97241E",
"H@	c #9B261E",
"I@	c #9F271F",
"J@	c #A4291F",
"K@	c #A82A1F",
"L@	c #AE2D20",
"M@	c #B32F20",
"N@	c #B73021",
"O@	c #B72916",
"                                                ",
"        . + @ # $ % & * = - ; > , ' ) !         ",
"    ~ { ] ^ / ( _ : < [ } | 1 2 3 4 5 6 7 8     ",
"    9 0 a b c d e f g h i j k l m n o p l q     ",
"  r s t u v w x y z A B C D E F G H I J I K     ",
"  L M N G H O P Q R S T U V W X Y Z `  ...+.@.  ",
"  #.$.%.&.*.*.=.-.;.>.,.'.).!.~.{.].].^./.(.@.  ",
"  _.:.<.[.[.[.[.}.|.1.2.3.4.5.6.7.8.8.8.[.9.0.  ",
"  a.b.c.c.c.c.d.e.f.g.h.i.j.k.l.d.c.c.c.c.d.m.  ",
"  n.o.p.p.p.q.r.l.s.t.u.v.w.x.y.z.A.p.p.p.B.C.  ",
"  D.E.F.F.F.G.H.I.J.K.L.M.N.O.P.Q.R.F.F.F.S.T.  ",
"  U.V.W.W.X.Y.Z.`. +.+++@+#+$+%+&+*+X.W.W.=+-+  ",
"  ;+>+,+,+,+'+)+!+~+{+]+^+/+(+_+:+<+,+,+,+[+}+  ",
"  |+1+2+2+2+3+4+5+6+7+8+9+0+a+b+c+d+2+2+2+e+f+  ",
"  g+h+i+i+i+j+k+l+m+0+n+o+p+q+r+s+t+i+i+i+u+v+  ",
"  w+x+y+y+y+z+A+B+C+D+E+F+G+H+I+J+K+L+y+L+M+N+  ",
"  O+P+Q+Q+Q+Q+R+S+T+U+V+W+X+Y+Z+`+Q+Q+Q+Q+ @.@  ",
"  +@@@#@#@#@#@#@$@%@&@*@=@-@;@>@,@#@#@#@#@'@)@  ",
"  !@~@{@{@{@{@{@]@^@/@(@_@:@<@[@{@{@{@{@{@}@|@  ",
"  1@2@3@4@4@4@3@4@5@6@7@8@9@5@4@3@4@4@4@3@0@    ",
"    a@b@c@c@c@c@c@d@e@f@g@h@d@c@c@c@c@c@i@j@    ",
"    k@l@m@n@o@p@q@p@r@s@t@o@u@n@v@v@w@m@x@y@    ",
"        z@A@B@C@D@E@F@G@H@I@J@K@L@M@N@O@        ",
"                                                "};
