/* XPM */
static char * Microphone_Normal_icon_xpm[] = {
"24 24 354 2",
"  	c None",
". 	c #3C815A",
"+ 	c #40855C",
"@ 	c #40875A",
"# 	c #408957",
"$ 	c #408C55",
"% 	c #418E52",
"& 	c #41914F",
"* 	c #41954C",
"= 	c #419848",
"- 	c #429D43",
"; 	c #42A140",
"> 	c #42A540",
", 	c #42AA40",
"' 	c #43AD41",
") 	c #43B142",
"! 	c #36B138",
"~ 	c #27714D",
"{ 	c #ACDAAF",
"] 	c #B9E2BB",
"^ 	c #BCE3BD",
"/ 	c #BAE4BD",
"( 	c #BAE4BB",
"_ 	c #B9E3B9",
": 	c #B8E4B9",
"< 	c #B8E4B7",
"[ 	c #B6E4B6",
"} 	c #B6E4B5",
"| 	c #B5E5B3",
"1 	c #B4E4B2",
"2 	c #B3E5B1",
"3 	c #B3E6B0",
"4 	c #B1E6AF",
"5 	c #A9E3A7",
"6 	c #85D782",
"7 	c #0A9D11",
"8 	c #9ED1A0",
"9 	c #B6E1B4",
"0 	c #B2DFAF",
"a 	c #AFDDAC",
"b 	c #AEDDAB",
"c 	c #ACDCA9",
"d 	c #ABDCA9",
"e 	c #A9DBA7",
"f 	c #ADDCAB",
"g 	c #B2DCAF",
"h 	c #AFDAAD",
"i 	c #A8D9A6",
"j 	c #A4D8A2",
"k 	c #A3D9A0",
"l 	c #A2D8A0",
"m 	c #A1D89E",
"n 	c #A0D79D",
"o 	c #A3D8A1",
"p 	c #6BC868",
"q 	c #397E56",
"r 	c #91C793",
"s 	c #98CD97",
"t 	c #97CB95",
"u 	c #95CB94",
"v 	c #94CA93",
"w 	c #93CA92",
"x 	c #91C990",
"y 	c #A1CF9F",
"z 	c #E1ECE0",
"A 	c #F5F5F5",
"B 	c #F0F1F0",
"C 	c #CFE1CF",
"D 	c #8EC28D",
"E 	c #89C488",
"F 	c #88C486",
"G 	c #86C385",
"H 	c #85C384",
"I 	c #83C282",
"J 	c #79BE78",
"K 	c #357B51",
"L 	c #7DB885",
"M 	c #86BF8B",
"N 	c #86BE8A",
"O 	c #84BE89",
"P 	c #83BD88",
"Q 	c #7CB881",
"R 	c #DBE7DC",
"S 	c #F0EFF0",
"T 	c #EAEAEA",
"U 	c #E8E8E8",
"V 	c #E8E7E8",
"W 	c #B0CAB2",
"X 	c #75B37A",
"Y 	c #76B67C",
"Z 	c #75B67B",
"` 	c #74B579",
" .	c #72B478",
"..	c #70B376",
"+.	c #64AE6A",
"@.	c #118312",
"#.	c #2D764B",
"$.	c #5FA36E",
"%.	c #338A45",
"&.	c #1C7E30",
"*.	c #1C7E2F",
"=.	c #117324",
"-.	c #E3E1E3",
";.	c #D1D0D0",
">.	c #CCCCCC",
",.	c #C7C7C7",
"'.	c #C6C4C5",
").	c #9FAFA1",
"!.	c #116D24",
"~.	c #197C2C",
"{.	c #197B2C",
"].	c #187B2C",
"^.	c #187B2B",
"/.	c #238236",
"(.	c #429550",
"_.	c #107E11",
":.	c #126635",
"<.	c #066A25",
"[.	c #006720",
"}.	c #036821",
"|.	c #036922",
"1.	c #005D15",
"2.	c #D2D0D1",
"3.	c #BDBCBC",
"4.	c #B7B7B7",
"5.	c #B2B2B2",
"6.	c #B3B1B2",
"7.	c #8E9F90",
"8.	c #005817",
"9.	c #026821",
"0.	c #02691D",
"a.	c #0A740B",
"b.	c #025C29",
"c.	c #02612A",
"d.	c #03612A",
"e.	c #03622A",
"f.	c #00561E",
"g.	c #C4C3C3",
"h.	c #AEAEAE",
"i.	c #AFAFAF",
"j.	c #B3B4B2",
"k.	c #BBBBB9",
"l.	c #92A296",
"m.	c #00531F",
"n.	c #036427",
"o.	c #086D09",
"p.	c #025B29",
"q.	c #015C2F",
"r.	c #015B2F",
"s.	c #045C30",
"t.	c #17673E",
"u.	c #005126",
"v.	c #C4C4C4",
"w.	c #B8B9B6",
"x.	c #BDBEBB",
"y.	c #C2C3C0",
"z.	c #CBCCC7",
"A.	c #98A89C",
"B.	c #03522A",
"C.	c #106239",
"D.	c #025B2F",
"E.	c #025E2C",
"F.	c #07670D",
"G.	c #005932",
"H.	c #005733",
"I.	c #005833",
"J.	c #15603F",
"K.	c #DAE0DE",
"L.	c #245D42",
"M.	c #CDCECC",
"N.	c #C8CAC5",
"O.	c #CDCFC9",
"P.	c #D2D4CD",
"Q.	c #DBDDD6",
"R.	c #9AAA9F",
"S.	c #638878",
"T.	c #95A89F",
"U.	c #0B5837",
"V.	c #01592F",
"W.	c #066212",
"X.	c #035D28",
"Y.	c #005632",
"Z.	c #005534",
"`.	c #005232",
" +	c #8CA99E",
".+	c #2A5B47",
"++	c #D8DAD4",
"@+	c #D8DBD3",
"#+	c #DBDED6",
"$+	c #DFE1DA",
"%+	c #E8E9E3",
"&+	c #9EAFA4",
"*+	c #66867A",
"=+	c #507565",
"-+	c #005031",
";+	c #005533",
">+	c #005732",
",+	c #055D16",
"'+	c #036025",
")+	c #005832",
"!+	c #005633",
"~+	c #005431",
"{+	c #7BA091",
"]+	c #295A45",
"^+	c #E1E3DE",
"/+	c #E4E6E0",
"(+	c #E6E8E4",
"_+	c #EAECE8",
":+	c #F3F3F1",
"<+	c #A3B3AA",
"[+	c #68897B",
"}+	c #497763",
"|+	c #005331",
"1+	c #005731",
"2+	c #035919",
"3+	c #046422",
"4+	c #015A30",
"5+	c #00582E",
"6+	c #779C8B",
"7+	c #275A40",
"8+	c #EEEEEC",
"9+	c #EFF0ED",
"0+	c #F2F3F0",
"a+	c #F6F6F4",
"b+	c #FFFEFE",
"c+	c #ADBBB3",
"d+	c #6A8D7C",
"e+	c #4F7D66",
"f+	c #00572E",
"g+	c #015A2F",
"h+	c #03551D",
"i+	c #05681E",
"j+	c #02602B",
"k+	c #005E29",
"l+	c #659277",
"m+	c #49765B",
"n+	c #BFCEC4",
"o+	c #FCFDFC",
"p+	c #FEFEFE",
"q+	c #FFFFFF",
"r+	c #6B8E79",
"s+	c #91AB9A",
"t+	c #427958",
"u+	c #015D29",
"v+	c #02612B",
"w+	c #02602A",
"x+	c #025220",
"y+	c #066F18",
"z+	c #056A22",
"A+	c #056923",
"B+	c #046822",
"C+	c #307C46",
"D+	c #B2C1B4",
"E+	c #29673B",
"F+	c #DDE7DE",
"G+	c #F3F6F4",
"H+	c #F2F5F3",
"I+	c #B8CABC",
"J+	c #336A43",
"K+	c #D4DDD3",
"L+	c #085B20",
"M+	c #046823",
"N+	c #056724",
"O+	c #024F22",
"P+	c #087612",
"Q+	c #077619",
"R+	c #07741A",
"S+	c #006D12",
"T+	c #659D6B",
"U+	c #B1C5B3",
"V+	c #5B8E63",
"W+	c #5C9163",
"X+	c #5C9063",
"Y+	c #6B9873",
"Z+	c #C0D0C2",
"`+	c #34773D",
" @	c #016A13",
".@	c #06711B",
"+@	c #024D23",
"@@	c #0A800B",
"#@	c #0A840D",
"$@	c #0A830D",
"%@	c #097E0C",
"&@	c #2C832C",
"*@	c #98BB98",
"=@	c #D8E3D7",
"-@	c #D8E2D8",
";@	c #79A479",
">@	c #1E741F",
",@	c #07780A",
"'@	c #0A820D",
")@	c #097F0F",
"!@	c #014D24",
"~@	c #0C8C08",
"{@	c #0E9401",
"]@	c #0E9301",
"^@	c #0B9000",
"/@	c #228F1A",
"(@	c #E9F1E8",
"_@	c #D6E4D4",
":@	c #006B00",
"<@	c #0D9001",
"[@	c #0C8D05",
"}@	c #014C25",
"|@	c #0D980B",
"1@	c #0FA506",
"2@	c #0FA505",
"3@	c #0DA303",
"4@	c #51B64B",
"5@	c #EDF3ED",
"6@	c #DEEADD",
"7@	c #23951C",
"8@	c #0EA305",
"9@	c #0FA406",
"0@	c #0E9D08",
"a@	c #10B20A",
"b@	c #10B50A",
"c@	c #10B40A",
"d@	c #19AE13",
"e@	c #239E1E",
"f@	c #229B1D",
"g@	c #14A60D",
"h@	c #11B808",
"i@	c #098D19",
"j@	c #0DA30E",
"k@	c #11BD0D",
"l@	c #11C00E",
"m@	c #11BF0E",
"n@	c #11BE0D",
"o@	c #11BE0E",
"p@	c #11BD0E",
"q@	c #11BC0F",
"r@	c #11BB0F",
"s@	c #11BB10",
"t@	c #10BB10",
"u@	c #10BA11",
"v@	c #0B9C19",
"w@	c #00402D",
"x@	c #0C8A0C",
"y@	c #0B850B",
"z@	c #0B7F0A",
"A@	c #0A790B",
"B@	c #09760D",
"C@	c #087310",
"D@	c #087013",
"E@	c #076D15",
"F@	c #076C17",
"G@	c #066919",
"H@	c #05671C",
"I@	c #05651D",
"J@	c #05631F",
"K@	c #046120",
"L@	c #036022",
"M@	c #025525",
"                                                ",
"        . + @ # $ % & * = - ; > , ' ) !         ",
"    ~ { ] ^ / ( _ : < [ } | 1 2 3 4 4 5 6 7     ",
"    8 9 0 a b c d e f g h i j k l m n j o p     ",
"  q r s t u v w x y z A B C D E F G H I H J     ",
"  K L M M N O P Q R S T U V W X Y Z `  ...+.@.  ",
"  #.$.%.&.*.*.*.=.-.;.>.,.'.).!.~.{.].^./.(._.  ",
"  :.<.[.}.}.}.|.1.2.3.4.5.6.7.8.|.|.|.|.9.0.a.  ",
"  b.c.d.d.d.d.e.f.g.h.i.j.k.l.m.e.d.d.d.d.n.o.  ",
"  p.q.r.r.r.s.t.u.v.w.x.y.z.A.B.C.D.r.r.r.E.F.  ",
"  b.G.H.H.I.J.K.L.M.N.O.P.Q.R.S.T.U.H.H.H.V.W.  ",
"  X.Y.Z.Z.Z.`. +.+++@+#+$+%+&+*+=+-+Z.Z.;+>+,+  ",
"  '+)+!+!+!+~+{+]+^+/+(+_+:+<+[+}+|+!+!+!+1+2+  ",
"  3+q.4+4+4+5+6+7+8+9+0+a+b+c+d+e+f+4+4+4+g+h+  ",
"  i+e.j+j+j+k+l+m+n+b+o+p+q+r+s+t+u+v+j+j+w+x+  ",
"  y+z+A+A+A+B+C+D+E+F+G+H+I+J+K+L+M+A+A+A+N+O+  ",
"  P+Q+R+R+R+R+S+T+U+V+W+X+Y+Z+`+ @R+R+R+R+.@+@  ",
"  @@#@$@$@$@$@$@%@&@*@=@-@;@>@,@'@$@$@$@'@)@!@  ",
"  ~@{@{@{@{@{@{@]@^@/@(@_@:@<@]@{@{@{@{@{@[@}@  ",
"  |@1@2@2@2@2@2@2@3@4@5@6@7@8@2@2@2@2@2@9@0@    ",
"    a@b@c@b@b@b@c@c@d@e@f@g@c@b@b@b@b@c@h@i@    ",
"    j@k@l@m@n@o@p@p@q@r@s@t@t@t@t@u@u@t@v@w@    ",
"        x@y@z@A@B@C@D@E@F@G@H@I@J@K@L@M@        ",
"                                                "};
