<?xml version="1.0" encoding="UTF-8" standalone="no"?>
<!-- Created with Inkscape (http://www.inkscape.org/) -->

<svg
   xmlns:dc="http://purl.org/dc/elements/1.1/"
   xmlns:cc="http://creativecommons.org/ns#"
   xmlns:rdf="http://www.w3.org/1999/02/22-rdf-syntax-ns#"
   xmlns:svg="http://www.w3.org/2000/svg"
   xmlns="http://www.w3.org/2000/svg"
   xmlns:sodipodi="http://sodipodi.sourceforge.net/DTD/sodipodi-0.dtd"
   xmlns:inkscape="http://www.inkscape.org/namespaces/inkscape"
   version="1.0"
   width="16.000006"
   height="16.000006"
   id="svg1928"
   inkscape:version="0.48.3.1 r9886"
   sodipodi:docname="CBS_Eyemark.svg">
  <metadata
     id="metadata7">
    <rdf:RDF>
      <cc:Work
         rdf:about="">
        <dc:format>image/svg+xml</dc:format>
        <dc:type
           rdf:resource="http://purl.org/dc/dcmitype/StillImage" />
      </cc:Work>
    </rdf:RDF>
  </metadata>
  <sodipodi:namedview
     pagecolor="#ffffff"
     bordercolor="#666666"
     borderopacity="1"
     objecttolerance="10"
     gridtolerance="10"
     guidetolerance="10"
     inkscape:pageopacity="0"
     inkscape:pageshadow="2"
     inkscape:window-width="1050"
     inkscape:window-height="1034"
     id="namedview5"
     showgrid="false"
     fit-margin-top="0"
     fit-margin-left="0"
     fit-margin-right="0"
     fit-margin-bottom="0"
     inkscape:zoom="1.2745992"
     inkscape:cx="-134.39771"
     inkscape:cy="8.000005"
     inkscape:window-x="0"
     inkscape:window-y="40"
     inkscape:window-maximized="0"
     inkscape:current-layer="svg1928" />
  <defs
     id="defs1931" />
  <path
     d="M 8.001351,0 C 3.584933,0 0,3.584933 0,8.00135 c 0,4.416418 3.584932,7.998655 8.001351,7.998655 4.416416,-1e-5 7.998654,-3.582237 7.998654,-7.998655 C 16.000005,3.584933 12.417768,0 8.001351,0 z M 7.707005,3.413333 c 0.07906,-0.0015 0.158431,-0.0011 0.237637,0 2.667605,-0.01103 5.296306,1.362619 6.756455,3.605064 0.195427,0.289937 0.45347,0.755875 0.553587,0.982953 -0.907578,1.939021 -2.635617,3.462222 -4.663629,4.142447 C 7.95104,13.080023 4.821735,12.514731 2.740928,10.620759 1.905146,9.894796 1.260456,8.953371 0.742616,8.00135 0.962576,7.647182 1.211014,7.148005 1.496034,6.772658 2.887889,4.759016 5.256163,3.46118 7.707005,3.413333 z M 7.99865,4.153249 c -2.123579,0 -3.845401,1.721821 -3.845401,3.845401 0,2.123579 1.721822,3.8481 3.845401,3.848101 2.123579,0 3.848101,-1.724522 3.848101,-3.848101 0,-2.123579 -1.724522,-3.845401 -3.848101,-3.845401 z"
     style="fill:#000001"
     id="path3747"
     inkscape:connector-curvature="0" />
</svg>
