<?xml version="1.0" encoding="UTF-8" standalone="no"?>
<!-- Created with Inkscape (http://www.inkscape.org/) -->

<svg
   xmlns:dc="http://purl.org/dc/elements/1.1/"
   xmlns:cc="http://creativecommons.org/ns#"
   xmlns:rdf="http://www.w3.org/1999/02/22-rdf-syntax-ns#"
   xmlns:svg="http://www.w3.org/2000/svg"
   xmlns="http://www.w3.org/2000/svg"
   xmlns:xlink="http://www.w3.org/1999/xlink"
   xmlns:sodipodi="http://sodipodi.sourceforge.net/DTD/sodipodi-0.dtd"
   xmlns:inkscape="http://www.inkscape.org/namespaces/inkscape"
   width="16.000008"
   height="15.999987"
   id="svg4345"
   sodipodi:version="0.32"
   inkscape:version="0.48.3.1 r9886"
   sodipodi:docname="pidgin.svg"
   inkscape:export-xdpi="960"
   inkscape:export-ydpi="960"
   inkscape:output_extension="org.inkscape.output.svg.inkscape"
   sodipodi:modified="TRUE"
   version="1.0">
  <defs
     id="defs4347">
    <linearGradient
       inkscape:collect="always"
       id="linearGradient6563">
      <stop
         style="stop-color:white;stop-opacity:1;"
         offset="0"
         id="stop6565" />
      <stop
         style="stop-color:white;stop-opacity:0;"
         offset="1"
         id="stop6567" />
    </linearGradient>
    <linearGradient
       inkscape:collect="always"
       id="linearGradient6537">
      <stop
         style="stop-color:white;stop-opacity:1;"
         offset="0"
         id="stop6539" />
      <stop
         style="stop-color:white;stop-opacity:0;"
         offset="1"
         id="stop6541" />
    </linearGradient>
    <linearGradient
       inkscape:collect="always"
       id="linearGradient6506">
      <stop
         style="stop-color:#eeeeec;stop-opacity:1;"
         offset="0"
         id="stop6508" />
      <stop
         style="stop-color:#eeeeec;stop-opacity:0;"
         offset="1"
         id="stop6510" />
    </linearGradient>
    <linearGradient
       inkscape:collect="always"
       id="linearGradient6493">
      <stop
         style="stop-color:#eeeeec;stop-opacity:1;"
         offset="0"
         id="stop6495" />
      <stop
         style="stop-color:#eeeeec;stop-opacity:0;"
         offset="1"
         id="stop6497" />
    </linearGradient>
    <linearGradient
       inkscape:collect="always"
       id="linearGradient5304">
      <stop
         style="stop-color:#2e3436;stop-opacity:1;"
         offset="0"
         id="stop5306" />
      <stop
         style="stop-color:#2e3436;stop-opacity:0;"
         offset="1"
         id="stop5308" />
    </linearGradient>
    <linearGradient
       inkscape:collect="always"
       id="linearGradient5280">
      <stop
         style="stop-color:#82508e;stop-opacity:1;"
         offset="0"
         id="stop5282" />
      <stop
         style="stop-color:#82508e;stop-opacity:0;"
         offset="1"
         id="stop5284" />
    </linearGradient>
    <linearGradient
       id="linearGradient2804">
      <stop
         style="stop-color:black;stop-opacity:0;"
         offset="0"
         id="stop2806" />
      <stop
         id="stop2812"
         offset="0.5"
         style="stop-color:black;stop-opacity:1;" />
      <stop
         style="stop-color:black;stop-opacity:0;"
         offset="1"
         id="stop2808" />
    </linearGradient>
    <radialGradient
       inkscape:collect="always"
       xlink:href="#linearGradient25546"
       id="radialGradient25572"
       gradientUnits="userSpaceOnUse"
       gradientTransform="matrix(1,0,0,0.994693,0,0.0416407)"
       cx="7.8836637"
       cy="1.5104795"
       fx="7.8836637"
       fy="1.5104795"
       r="8.4883642" />
    <radialGradient
       inkscape:collect="always"
       xlink:href="#linearGradient25546"
       id="radialGradient25568"
       gradientUnits="userSpaceOnUse"
       gradientTransform="matrix(1,0,0,0.994693,0,0.0416407)"
       cx="7.8836741"
       cy="0.14505707"
       fx="7.8836741"
       fy="0.14505707"
       r="8.4883642" />
    <linearGradient
       inkscape:collect="always"
       id="linearGradient25546">
      <stop
         style="stop-color:white;stop-opacity:1;"
         offset="0"
         id="stop25548" />
      <stop
         style="stop-color:white;stop-opacity:0;"
         offset="1"
         id="stop25550" />
    </linearGradient>
    <radialGradient
       inkscape:collect="always"
       xlink:href="#linearGradient25546"
       id="radialGradient25554"
       cx="7.8836637"
       cy="2.6242435"
       fx="7.8836637"
       fy="2.6242435"
       r="8.4883642"
       gradientTransform="matrix(1.131317,0,0,1.125313,-1.035262,-0.301139)"
       gradientUnits="userSpaceOnUse" />
    <linearGradient
       id="linearGradient3800">
      <stop
         style="stop-color:#f4d9b1;stop-opacity:1.0000000;"
         offset="0.0000000"
         id="stop3802" />
      <stop
         style="stop-color:#df9725;stop-opacity:1.0000000;"
         offset="1.0000000"
         id="stop3804" />
    </linearGradient>
    <radialGradient
       inkscape:collect="always"
       xlink:href="#linearGradient5280"
       id="radialGradient5286"
       cx="15.004828"
       cy="39.80859"
       fx="15.004828"
       fy="39.80859"
       r="9.7225161"
       gradientTransform="matrix(1,0,0,0.732283,0,10.65742)"
       gradientUnits="userSpaceOnUse" />
    <linearGradient
       inkscape:collect="always"
       xlink:href="#linearGradient5304"
       id="linearGradient5310"
       x1="12.606371"
       y1="15.069461"
       x2="12.606371"
       y2="23.043955"
       gradientUnits="userSpaceOnUse"
       gradientTransform="matrix(0.34042541,0,0,0.33640597,15.638295,15.653618)" />
    <linearGradient
       inkscape:collect="always"
       xlink:href="#linearGradient6493"
       id="linearGradient6499"
       x1="3.3105288"
       y1="43.5"
       x2="5.6917014"
       y2="43.5"
       gradientUnits="userSpaceOnUse" />
    <linearGradient
       inkscape:collect="always"
       xlink:href="#linearGradient6506"
       id="linearGradient6512"
       x1="15.645709"
       y1="39.743458"
       x2="15.645709"
       y2="53.502155"
       gradientUnits="userSpaceOnUse"
       gradientTransform="matrix(0.34042541,0,0,0.33640597,15.638295,15.653618)" />
    <linearGradient
       inkscape:collect="always"
       xlink:href="#linearGradient6537"
       id="linearGradient6543"
       x1="30.5"
       y1="0.033532728"
       x2="30.5"
       y2="23.559282"
       gradientUnits="userSpaceOnUse" />
    <linearGradient
       inkscape:collect="always"
       xlink:href="#linearGradient6563"
       id="linearGradient6569"
       x1="-1.6841649"
       y1="39.902092"
       x2="5.5366187"
       y2="44.272076"
       gradientUnits="userSpaceOnUse"
       gradientTransform="matrix(0.40181297,0,0,0.29548714,19.986634,13.841742)" />
    <linearGradient
       inkscape:collect="always"
       xlink:href="#linearGradient6563"
       id="linearGradient6573"
       gradientUnits="userSpaceOnUse"
       x1="12.01321"
       y1="38.950283"
       x2="5.5366187"
       y2="44.272076" />
  </defs>
  <sodipodi:namedview
     id="base"
     pagecolor="#ffffff"
     bordercolor="#666666"
     borderopacity="1.0"
     inkscape:pageopacity="0.0"
     inkscape:pageshadow="2"
     inkscape:zoom="6.5312308"
     inkscape:cx="-11.608178"
     inkscape:cy="-5.993724"
     inkscape:current-layer="layer1"
     showgrid="true"
     inkscape:grid-bbox="true"
     inkscape:document-units="px"
     inkscape:window-width="1050"
     inkscape:window-height="1034"
     inkscape:window-x="0"
     inkscape:window-y="40"
     showguides="true"
     inkscape:guide-bbox="true"
     inkscape:grid-points="true"
     fit-margin-top="0"
     fit-margin-left="0"
     fit-margin-right="0"
     fit-margin-bottom="0"
     inkscape:window-maximized="0" />
  <metadata
     id="metadata4350">
    <rdf:RDF>
      <cc:Work
         rdf:about="">
        <dc:format>image/svg+xml</dc:format>
        <dc:type
           rdf:resource="http://purl.org/dc/dcmitype/StillImage" />
      </cc:Work>
    </rdf:RDF>
  </metadata>
  <g
     id="layer1"
     inkscape:label="Layer 1"
     inkscape:groupmode="layer"
     transform="translate(-15.499991,-16.5)">
    <rect
       style="opacity:0.23144106;fill:#2e3436;fill-opacity:1;stroke:none"
       id="rect6514"
       width="12.255316"
       height="1.0212765"
       x="15.499991"
       y="31.47871"
       rx="0.69488853"
       ry="0.51063824" />
    <path
       sodipodi:type="inkscape:offset"
       inkscape:radius="-1.0057179"
       inkscape:original="M 20.53125 1.5 C 17.192693 1.5 14.5 4.611235 14.5 8.46875 L 14.5 20.53125 C 14.5 24.388765 17.192693 27.5 20.53125 27.5 L 34.53125 27.5 L 34.53125 31.09375 L 39.34375 27.5 L 41.5 27.5 C 45.512737 27.5 46.5 24.38319 46.5 20.53125 L 46.5 8.46875 C 46.5 4.6112353 43.807307 1.5 40.46875 1.5 L 20.53125 1.5 z "
       style="fill:none;stroke:#ffffff;stroke-width:1;stroke-miterlimit:4;stroke-opacity:1"
       id="path6504"
       d="M 20.53125,2.5 C 17.817519,2.5 15.5,5.0792547 15.5,8.46875 l 0,12.0625 c 0,3.389495 2.317519,5.96875 5.03125,5.96875 l 14,0 a 1.0058184,1.0058184 0 0 1 1,1 l 0,1.59375 L 38.75,26.6875 A 1.0058184,1.0058184 0 0 1 39.34375,26.5 l 2.15625,0 c 1.745978,0 2.534662,-0.568074 3.125,-1.5625 0.590338,-0.994426 0.875,-2.566203 0.875,-4.40625 l 0,-12.0625 C 45.5,5.079255 43.182481,2.5 40.46875,2.5 l -19.9375,0 z"
       transform="matrix(0.34042541,0,0,0.34042572,15.499997,16.159561)" />
    <path
       style="fill:#efefef;fill-opacity:1;stroke:#787878;stroke-width:0.34042558;stroke-miterlimit:4;stroke-opacity:1"
       d="m 22.489357,16.6702 c -1.13653,0 -2.053191,1.059144 -2.053191,2.372342 l 0,4.106385 c 0,1.313197 0.916661,2.372342 2.053191,2.372342 l 4.765599,0 0,1.228108 1.641991,-1.233042 0.730705,0.0049 c 1.366038,0 1.702127,-1.061043 1.702127,-2.372342 l 0,-4.106385 c 0,-1.313198 -0.916661,-2.372342 -2.053191,-2.372342 l -6.787231,0 z"
       id="rect5498"
       sodipodi:nodetypes="cccccccccccc"
       inkscape:connector-curvature="0" />
    <path
       sodipodi:type="inkscape:offset"
       inkscape:radius="-1.044691"
       inkscape:original="M 20.53125 1.5 C 17.192693 1.5 14.5 4.611235 14.5 8.46875 L 14.5 20.53125 C 14.5 24.388765 17.192693 27.5 20.53125 27.5 L 34.53125 27.5 L 34.53125 31.09375 L 39.34375 27.5 L 41.5 27.5 C 45.512737 27.5 46.5 24.38319 46.5 20.53125 L 46.5 8.46875 C 46.5 4.6112353 43.807307 1.5 40.46875 1.5 L 20.53125 1.5 z "
       style="fill:url(#linearGradient6543);fill-opacity:1;stroke:#ffffff;stroke-width:1;stroke-miterlimit:4;stroke-opacity:1"
       id="path6535"
       d="m 20.53125,2.53125 c -2.689518,0 -5,2.5661412 -5,5.9375 l 0,12.0625 c 0,3.371359 2.310482,5.9375 5,5.9375 l 14,0 A 1.0447954,1.0447954 0 0 1 35.5625,27.5 l 0,1.5 3.15625,-2.34375 a 1.0447954,1.0447954 0 0 1 0.625,-0.1875 l 2.15625,0 c 1.735888,0 2.509537,-0.547142 3.09375,-1.53125 0.584213,-0.984108 0.875,-2.569532 0.875,-4.40625 l 0,-12.0625 c 0,-3.3713585 -2.310482,-5.9375 -5,-5.9375 l -19.9375,0 z"
       transform="matrix(0.34042541,0,0,0.34042572,15.499997,16.159561)" />
    <path
       style="fill:#82508e;fill-opacity:1;stroke:#3b1941;stroke-width:0.34042555;stroke-miterlimit:4;stroke-opacity:1;stroke-dasharray:none"
       d="m 20.758669,20.026895 c -2.254978,0 -4.085105,1.883874 -4.085105,4.205075 0.628426,5.040392 -0.853447,4.367897 -1.003354,6.673605 0,0.701111 0.335462,1.03462 1.052613,1.03462 0.404251,0 8.924367,0.04916 9.840452,0.04916 0.719702,0 0.663477,-0.692861 0.663477,-0.692861 0,-0.896661 -2.179437,-1.649045 -2.786909,-2.307232 -0.622439,-0.673155 0.06351,-3.075264 0.06351,-3.075264 0.218317,-0.514634 0.340425,-1.084881 0.340425,-1.68203 0,-2.321201 -1.830126,-4.205075 -4.085105,-4.205075 z"
       id="path5176"
       sodipodi:nodetypes="cccccszcsc"
       inkscape:connector-curvature="0" />
    <path
       sodipodi:type="arc"
       style="fill:url(#radialGradient5286);fill-opacity:1;stroke:none"
       id="path5273"
       sodipodi:cx="15.004828"
       sodipodi:cy="39.80859"
       sodipodi:rx="9.7225161"
       sodipodi:ry="7.119638"
       d="m 24.727345,39.80859 c 0,3.932067 -4.352919,7.119638 -9.722517,7.119638 -5.3695969,0 -9.7225156,-3.187571 -9.7225156,-7.119638 0,-3.932068 4.3529187,-7.119638 9.7225156,-7.119638 5.369598,0 9.722517,3.18757 9.722517,7.119638 z"
       transform="matrix(0.3326341,0,0,0.38252038,15.427124,13.820587)" />
    <path
       style="opacity:0.5152838;fill:#5c3466;fill-opacity:1;stroke:none"
       d="m 15.856705,31.255333 c 0,0 -0.173592,-1.084618 1.046383,-3.56886 0,0 0.477967,0.943609 0.637892,1.3746 -0.209164,-0.03052 -0.697514,0.0025 -0.697514,0.0025 0.133754,0.286689 0.885144,1.573249 1.703953,2.349872 -0.665169,-0.268762 -1.342828,-0.317874 -1.342828,-0.317874 0.184975,0.33765 0.890255,0.55148 1.013003,0.706082 0,0 -2.266024,0.277756 -2.360889,-0.546353 z"
       id="rect5312"
       sodipodi:nodetypes="cccccccc"
       inkscape:connector-curvature="0" />
    <path
       style="opacity:0.5152838;fill:#5c3466;fill-opacity:1;stroke:none"
       d="m 27.13135,31.619176 c -0.392289,-2.710565 -3.188022,-1.005739 -3.089314,-3.59227 0,0 -0.7054,0.883988 -0.723817,1.377927 0.190092,-0.03141 0.330598,-0.02466 0.330598,-0.02466 -0.121558,0.295093 -0.613838,1.606171 -1.357985,2.405559 0.604516,-0.27664 1.009664,-0.362926 1.009664,-0.362926 -0.02849,0.34036 -0.200209,0.178906 -0.292462,0.49995 1.755612,-0.06389 2.961628,0.372093 4.123316,-0.303583 z"
       id="path5317"
       sodipodi:nodetypes="cccccccc"
       inkscape:connector-curvature="0" />
    <path
       style="opacity:0.31004369;fill:url(#linearGradient5310);fill-opacity:1;stroke:url(#linearGradient6512);stroke-width:0.34042555;stroke-miterlimit:4;stroke-opacity:1"
       d="m 20.744676,20.384327 c -2.046738,0 -3.717787,1.707455 -3.723403,3.83713 -9e-6,0.0036 0,0.0069 0,0.01051 0.310441,2.529944 0.08298,4.026769 -0.499999,5.077628 -0.950311,1.901235 -0.351568,2.320035 0.445825,2.320035 0.659262,0 6.827149,-0.01002 8.810459,-0.01002 0.397347,0 1.073499,0.169573 1.073499,-0.323114 0,-0.0746 -0.068,-0.214855 -0.255319,-0.38897 -0.187319,-0.174114 -0.467486,-0.361078 -0.776595,-0.54666 -0.30911,-0.185581 -0.639333,-0.373315 -0.93617,-0.557172 -0.296837,-0.183857 -0.559862,-0.355482 -0.744681,-0.599223 -0.207661,-0.273866 -0.302959,-0.595802 -0.3215,-0.946142 -0.01854,-0.350339 0.02838,-0.726202 0.06816,-1.082807 0.07955,-0.713208 0.253341,-1.335111 0.253341,-1.335111 0.0051,-0.02163 0.01223,-0.04275 0.02128,-0.06308 0.199993,-0.471441 0.30851,-0.996587 0.30851,-1.545365 0,-2.134696 -1.673212,-3.847643 -3.723403,-3.847643 z"
       id="path5241"
       sodipodi:nodetypes="csscccssssssscssc"
       inkscape:connector-curvature="0" />
    <path
       style="fill:#a46bb0;fill-opacity:1;stroke:none"
       d="m 17.941932,22.996197 c 0.597339,-0.627003 1.569115,-0.45996 1.950523,-0.05961 0.52267,0.548626 0.462069,1.502761 -0.135269,2.129765 -0.519097,0.544876 -1.372917,0.830653 -1.895587,0.282027 -0.522671,-0.548627 -0.391585,-1.856826 0.08033,-2.352182 z"
       id="path5160"
       sodipodi:nodetypes="csssc"
       inkscape:connector-curvature="0" />
    <path
       style="fill:#ffffff;fill-opacity:1;stroke:none"
       d="m 20.248032,24.040551 c 0,0.751661 -0.711544,1.26295 -1.191489,1.26295 -0.657702,0 -1.191489,-0.610043 -1.191489,-1.361704 0,-0.653205 0.365905,-1.361704 1.023607,-1.361704 0.657702,0 1.359371,0.86662 1.359371,1.460458 z"
       id="path5157"
       sodipodi:nodetypes="csssc"
       inkscape:connector-curvature="0" />
    <path
       sodipodi:type="arc"
       style="fill:#5c3566;fill-opacity:1;stroke:none"
       id="path5162"
       sodipodi:cx="10.169642"
       sodipodi:cy="24.3125"
       sodipodi:rx="1.2410715"
       sodipodi:ry="1.2946428"
       d="m 11.410714,24.3125 c 0,0.715011 -0.555647,1.294643 -1.241072,1.294643 -0.6854244,0 -1.241071,-0.579632 -1.241071,-1.294643 0,-0.715011 0.5556466,-1.294643 1.241071,-1.294643 0.685425,0 1.241072,0.579632 1.241072,1.294643 z"
       transform="matrix(0.41144905,0,0,0.39442303,14.872251,14.522602)" />
    <path
       sodipodi:type="arc"
       style="fill:#000000;fill-opacity:1;stroke:none"
       id="path5164"
       sodipodi:cx="10.169642"
       sodipodi:cy="24.3125"
       sodipodi:rx="1.2410715"
       sodipodi:ry="1.2946428"
       d="m 11.410714,24.3125 c 0,0.715011 -0.555647,1.294643 -1.241072,1.294643 -0.6854244,0 -1.241071,-0.579632 -1.241071,-1.294643 0,-0.715011 0.5556466,-1.294643 1.241071,-1.294643 0.685425,0 1.241072,0.579632 1.241072,1.294643 z"
       transform="matrix(0.13714991,0,0,0.13147548,17.661776,20.915513)" />
    <path
       style="fill:#975fa3;fill-opacity:1;stroke:none"
       d="m 25.041431,22.949962 c -0.448004,-0.557336 -1.176836,-0.408853 -1.462892,-0.05299 -0.392003,0.487668 -0.346552,1.335787 0.101452,1.893124 0.389322,0.484334 1.029687,0.738358 1.42169,0.25069 0.392003,-0.487668 0.293689,-1.650511 -0.06025,-2.090827 z"
       id="path5167"
       sodipodi:nodetypes="csssc"
       inkscape:connector-curvature="0" />
    <path
       style="fill:#ffffff;fill-opacity:1;stroke:none"
       d="m 24.753169,23.197929 c -0.373337,-0.418001 -0.980697,-0.306638 -1.219078,-0.03974 -0.326669,0.36575 -0.288794,1.001838 0.08454,1.419838 0.324436,0.36325 0.858074,0.553767 1.184743,0.188017 0.32667,-0.36575 0.244741,-1.237879 -0.05021,-1.568115 z"
       id="path5169"
       sodipodi:nodetypes="csssc"
       inkscape:connector-curvature="0" />
    <path
       sodipodi:type="arc"
       style="fill:#5c3566;fill-opacity:1;stroke:none"
       id="path5171"
       sodipodi:cx="10.169642"
       sodipodi:cy="24.3125"
       sodipodi:rx="1.2410715"
       sodipodi:ry="1.2946428"
       d="m 11.410714,24.3125 c 0,0.715011 -0.555647,1.294643 -1.241072,1.294643 -0.6854244,0 -1.241071,-0.579632 -1.241071,-1.294643 0,-0.715011 0.5556466,-1.294643 1.241071,-1.294643 0.685425,0 1.241072,0.579632 1.241072,1.294643 z"
       transform="matrix(0.41144905,0,0,0.39442303,19.978631,14.5226)" />
    <path
       sodipodi:type="arc"
       style="fill:#000000;fill-opacity:1;stroke:none"
       id="path5173"
       sodipodi:cx="10.169642"
       sodipodi:cy="24.3125"
       sodipodi:rx="1.2410715"
       sodipodi:ry="1.2946428"
       d="m 11.410714,24.3125 c 0,0.715011 -0.555647,1.294643 -1.241072,1.294643 -0.6854244,0 -1.241071,-0.579632 -1.241071,-1.294643 0,-0.715011 0.5556466,-1.294643 1.241071,-1.294643 0.685425,0 1.241072,0.579632 1.241072,1.294643 z"
       transform="matrix(0.13714991,0,0,0.13147548,22.768158,20.915513)" />
    <rect
       style="fill:#eeeeec;fill-opacity:1;stroke:none"
       id="rect5215"
       width="2.0425532"
       height="0.68084788"
       x="20.928881"
       y="25.643925"
       rx="0.39680171"
       ry="0.34042394" />
    <path
       style="fill:#f9751a;fill-opacity:1;stroke:none"
       d="m 19.585104,26.253454 c 1.815443,0.988069 2.060167,-0.902404 2.403712,-0.902404 0.338819,0 0.477994,1.898572 2.021817,0.903456 -0.324322,0.575395 -1.321167,1.479522 -1.741415,1.479522 -0.424979,0 -2.15709,-0.630627 -2.684114,-1.480574 z"
       id="rect5187"
       sodipodi:nodetypes="czczc"
       inkscape:connector-curvature="0" />
    <path
       style="fill:#3b1941;fill-opacity:1;stroke:none"
       d="m 18.196498,19.879455 c 0.552336,-0.632233 2.251106,-0.142099 2.251106,0.317657 l -1.373001,0.176469 -0.878105,-0.494126 z"
       id="path5192"
       sodipodi:nodetypes="cccc"
       inkscape:connector-curvature="0" />
    <path
       style="fill:#3b1941;fill-opacity:1;stroke:none"
       d="m 18.893388,19.115194 c 0.972863,-0.614698 2.828641,0.481216 3.005111,1.045038 l -1.54523,0 -1.459881,-1.045038 z"
       id="rect5189"
       sodipodi:nodetypes="cccc"
       inkscape:connector-curvature="0" />
    <path
       style="fill:url(#linearGradient6569);fill-opacity:1;stroke:none"
       d="m 19.585104,26.253454 c 1.815443,0.988069 2.060167,-0.902404 2.403712,-0.902404 0.338819,0 0.477994,1.898572 2.021817,0.903456 -0.324322,0.575395 -1.321167,1.479522 -1.741415,1.479522 -0.424979,0 -2.15709,-0.630627 -2.684114,-1.480574 z"
       id="path6561"
       sodipodi:nodetypes="czczc"
       inkscape:connector-curvature="0" />
  </g>
</svg>
