#define eog_width 36
#define eog_height 36
static unsigned char eog_bits[] = {
   0x00, 0x00, 0x00, 0x00, 0x00, 0x00, 0x00, 0x00, 0x00, 0x00, 0x00, 0x00,
   0x00, 0x00, 0x00, 0x00, 0x00, 0x00, 0x00, 0x00, 0x00, 0x00, 0x00, 0x00,
   0x00, 0x00, 0x00, 0x00, 0x00, 0x00, 0x00, 0x00, 0x00, 0x00, 0x00, 0x00,
   0xc0, 0x3f, 0x00, 0x00, 0x00, 0xb8, 0xe2, 0x01, 0x00, 0x00, 0x06, 0x08,
   0x03, 0x00, 0x80, 0x01, 0x60, 0x0c, 0x00, 0x40, 0x00, 0x80, 0x11, 0x00,
   0x30, 0x04, 0x00, 0x61, 0x00, 0x18, 0x02, 0x00, 0xc2, 0x00, 0x08, 0x02,
   0x07, 0x86, 0x01, 0x04, 0xc1, 0x1f, 0x04, 0x01, 0x06, 0x41, 0x1f, 0x04,
   0x02, 0x02, 0xc1, 0x3f, 0x04, 0x06, 0x02, 0xe1, 0x3f, 0x04, 0x04, 0x02,
   0xc1, 0x3f, 0x04, 0x04, 0x06, 0xc1, 0x1f, 0x04, 0x04, 0x04, 0x81, 0x1f,
   0x04, 0x02, 0x0c, 0x02, 0x03, 0x02, 0x03, 0x18, 0x06, 0x00, 0x82, 0x01,
   0x30, 0x04, 0x00, 0xc1, 0x00, 0x60, 0x18, 0x80, 0x30, 0x00, 0x80, 0x31,
   0x60, 0x1c, 0x00, 0x00, 0xc7, 0xbf, 0x07, 0x00, 0x00, 0x7c, 0xfd, 0x00,
   0x00, 0x00, 0xc0, 0x07, 0x00, 0x00, 0x00, 0x00, 0x00, 0x00, 0x00, 0x00,
   0x00, 0x00, 0x00, 0x00, 0x00, 0x00, 0x00, 0x00, 0x00, 0x00, 0x00, 0x00,
   0x00, 0x00, 0x00, 0x00, 0x00, 0x00, 0x00, 0x00, 0x00, 0x00, 0x00, 0x00 };
