#define klomp_width 36
#define klomp_height 36
static unsigned char klomp_bits[] = {
   0x00, 0x00, 0x00, 0x00, 0x00, 0x00, 0x00, 0x00, 0x00, 0x00, 0x00, 0x00,
   0x00, 0x00, 0x00, 0x00, 0x00, 0x00, 0x00, 0x00, 0x00, 0x00, 0x1c, 0x00,
   0x00, 0x00, 0x00, 0x2a, 0x00, 0x00, 0x00, 0x00, 0x29, 0x00, 0x00, 0x00,
   0xc0, 0x44, 0x00, 0x00, 0x00, 0x60, 0x84, 0x00, 0x04, 0xfc, 0x1f, 0x82,
   0x01, 0x06, 0x1a, 0x85, 0x01, 0xfe, 0x08, 0xf0, 0xc0, 0x00, 0x00, 0x08,
   0xc1, 0x3f, 0x00, 0x00, 0x00, 0x01, 0x15, 0x00, 0x00, 0x00, 0x01, 0x00,
   0x00, 0x00, 0x00, 0x01, 0x00, 0x00, 0x00, 0x00, 0x01, 0x00, 0x00, 0x00,
   0x08, 0x01, 0x00, 0x00, 0x00, 0x08, 0x01, 0x00, 0x00, 0x00, 0x08, 0x01,
   0x00, 0x00, 0x00, 0x00, 0x00, 0x00, 0x00, 0x00, 0x00, 0x00, 0x00, 0x00,
   0x00, 0x04, 0x00, 0x00, 0x00, 0x00, 0x04, 0x02, 0x00, 0x00, 0x00, 0x02,
   0x00, 0x00, 0x00, 0x00, 0x00, 0x04, 0x00, 0x00, 0x00, 0x01, 0x08, 0x00,
   0x00, 0x80, 0x00, 0x10, 0x78, 0x00, 0xc0, 0x00, 0x60, 0x87, 0x01, 0x20,
   0x00, 0x00, 0x00, 0x07, 0x10, 0x00, 0x00, 0x00, 0x3c, 0x0f, 0x00, 0x00,
   0x00, 0x40, 0x00, 0x00, 0x00, 0x00, 0x00, 0x00, 0x00, 0x00, 0x00, 0x00,
   0x00, 0x00, 0x00, 0x00, 0x00, 0x00, 0x00, 0x00, 0x00, 0x00, 0x00, 0x00 };
