#define pidgin_tray_available_width 36
#define pidgin_tray_available_height 36
static unsigned char pidgin_tray_available_bits[] = {
   0x00, 0x00, 0x00, 0x00, 0x00, 0x00, 0x00, 0x00, 0x00, 0x00, 0x00, 0x00,
   0x00, 0x00, 0x00, 0x00, 0x00, 0x00, 0x01, 0x00, 0x00, 0x00, 0x00, 0x00,
   0x00, 0x00, 0x00, 0x00, 0x01, 0x00, 0x00, 0x00, 0x00, 0x00, 0x00, 0x00,
   0x00, 0x00, 0x01, 0x00, 0x00, 0x00, 0x00, 0x00, 0x00, 0x00, 0x00, 0x00,
   0x01, 0x00, 0x00, 0x00, 0x00, 0x00, 0x00, 0x00, 0x00, 0xc0, 0x03, 0x00,
   0x00, 0x00, 0x18, 0x1c, 0x00, 0x00, 0x00, 0x02, 0x20, 0x00, 0x00, 0x00,
   0x01, 0xc0, 0x00, 0x00, 0x80, 0x00, 0x80, 0x01, 0x00, 0x40, 0x00, 0x00,
   0x01, 0x00, 0x00, 0x00, 0x00, 0x02, 0x00, 0x20, 0x00, 0x00, 0x02, 0x00,
   0x00, 0x00, 0x40, 0x04, 0x00, 0x00, 0x00, 0x09, 0x05, 0x00, 0x10, 0x00,
   0x48, 0x04, 0x10, 0x1c, 0x24, 0x21, 0x05, 0x00, 0x10, 0x00, 0x44, 0x04,
   0xa0, 0x50, 0xaa, 0x92, 0x02, 0x20, 0x10, 0x00, 0x54, 0x05, 0x00, 0xa0,
   0xaa, 0xa2, 0x06, 0x00, 0x20, 0x90, 0x94, 0x02, 0x00, 0x40, 0xa5, 0x2a,
   0x02, 0x00, 0x40, 0xaa, 0xea, 0x01, 0x00, 0x80, 0x54, 0x95, 0x00, 0x00,
   0x00, 0x51, 0xd5, 0x00, 0x00, 0x00, 0xa6, 0x72, 0x00, 0x00, 0x00, 0x3c,
   0x1e, 0x00, 0x00, 0x00, 0xe0, 0x03, 0x00, 0x00, 0x00, 0x00, 0x00, 0x00 };
