#define reviewboard_width 36
#define reviewboard_height 36
static unsigned char reviewboard_bits[] = {
   0x00, 0x00, 0x00, 0x03, 0x00, 0x00, 0x00, 0x2c, 0x08, 0x00, 0x00, 0x60,
   0x91, 0x10, 0x00, 0x00, 0x0b, 0x02, 0x02, 0x00, 0x58, 0x00, 0x80, 0x24,
   0x00, 0x04, 0x50, 0x10, 0x20, 0x00, 0x02, 0x04, 0x41, 0x29, 0x00, 0x92,
   0x40, 0x0a, 0x00, 0x00, 0xc0, 0x13, 0x00, 0x28, 0x00, 0xe4, 0x03, 0x00,
   0x40, 0x00, 0xe2, 0x07, 0x00, 0x50, 0x00, 0xe2, 0x03, 0x00, 0x42, 0x00,
   0xe2, 0x03, 0x00, 0x40, 0x00, 0xc6, 0x01, 0x00, 0x0a, 0x00, 0x80, 0x00,
   0x00, 0x20, 0x00, 0x14, 0x00, 0x00, 0x84, 0x00, 0x40, 0x00, 0x00, 0xd0,
   0x00, 0x04, 0x00, 0x00, 0x80, 0x00, 0x24, 0x00, 0x00, 0x84, 0x00, 0x04,
   0x00, 0x00, 0x10, 0x00, 0x28, 0x01, 0x00, 0x40, 0x00, 0x00, 0x00, 0x00,
   0x08, 0x00, 0x28, 0x01, 0x00, 0x20, 0x01, 0x08, 0x00, 0x00, 0x00, 0x01,
   0x48, 0x00, 0x00, 0x48, 0x01, 0x88, 0x00, 0x00, 0x0a, 0x01, 0x00, 0x00,
   0x40, 0x01, 0x01, 0x20, 0x81, 0x0a, 0x28, 0x01, 0x10, 0x02, 0xa0, 0x02,
   0x01, 0x50, 0xa8, 0x04, 0x80, 0x00, 0x10, 0x01, 0x20, 0x6a, 0x00, 0x10,
   0x92, 0x42, 0x0d, 0x00, 0x20, 0x00, 0x7c, 0x00, 0x00, 0xe0, 0xe8, 0x03,
   0x00, 0x00, 0x80, 0x1f, 0x00, 0x00, 0x00, 0x00, 0x00, 0x00, 0x00, 0x00 };
