#define tor_width 36
#define tor_height 36
static unsigned char tor_bits[] = {
   0x00, 0x00, 0x00, 0x00, 0x00, 0x00, 0x00, 0x00, 0x00, 0x00, 0x00, 0x00,
   0x00, 0x00, 0x00, 0x00, 0x00, 0x00, 0x00, 0x00, 0x00, 0x00, 0x00, 0x00,
   0x00, 0x00, 0x00, 0x00, 0x00, 0x00, 0x00, 0x00, 0x00, 0x00, 0x00, 0x00,
   0x00, 0x10, 0x00, 0x00, 0x00, 0x00, 0x0c, 0x00, 0x00, 0x00, 0x00, 0x04,
   0x00, 0x00, 0x00, 0x00, 0x0a, 0x00, 0x00, 0x00, 0x00, 0x0d, 0x00, 0x00,
   0x00, 0x00, 0x08, 0x00, 0x00, 0x00, 0x00, 0x09, 0x00, 0x00, 0x00, 0x80,
   0x14, 0x00, 0x00, 0x00, 0xc0, 0x30, 0x00, 0x00, 0x00, 0x20, 0x68, 0x00,
   0x00, 0x00, 0x18, 0xd0, 0x01, 0x00, 0x00, 0x04, 0xb0, 0x03, 0x00, 0x00,
   0x06, 0x60, 0x07, 0x00, 0x00, 0x02, 0xe0, 0x0e, 0x00, 0x00, 0x01, 0xc0,
   0x0f, 0x00, 0x00, 0x01, 0xe4, 0x0e, 0x00, 0x80, 0x00, 0xc8, 0x1f, 0x00,
   0x00, 0x01, 0xe0, 0x1f, 0x00, 0x80, 0x00, 0xe4, 0x1f, 0x00, 0x00, 0x00,
   0xe8, 0x0f, 0x00, 0x00, 0x01, 0xe8, 0x0f, 0x00, 0x00, 0x01, 0xf4, 0x0f,
   0x00, 0x00, 0x0a, 0xf0, 0x0f, 0x00, 0x00, 0x02, 0xfc, 0x07, 0x00, 0x00,
   0x2c, 0xf8, 0x03, 0x00, 0x00, 0x70, 0xfd, 0x01, 0x00, 0x00, 0xe0, 0x7f,
   0x00, 0x00, 0x00, 0x00, 0x04, 0x00, 0x00, 0x00, 0x00, 0x00, 0x00, 0x00 };
