/* XPM */
static char * thunderbird_xpm[] = {
"16 36 174 2",
"  	c None",
". 	c #000000",
"+ 	c #225EA3",
"@ 	c #2266A8",
"# 	c #4C8EBD",
"$ 	c #78B7D5",
"% 	c #5598C1",
"& 	c #2871AA",
"* 	c #1864A6",
"= 	c #1661A5",
"- 	c #1660A4",
"; 	c #2567A6",
"> 	c #73B2D7",
", 	c #88C4DA",
"' 	c #5F99C0",
") 	c #2E79B0",
"! 	c #3180B8",
"~ 	c #4E95C6",
"{ 	c #3F8DC6",
"] 	c #3D88C1",
"^ 	c #1C70B4",
"/ 	c #418ABB",
"( 	c #547DB5",
"_ 	c #5292B5",
": 	c #325F93",
"< 	c #398CBB",
"[ 	c #10508B",
"} 	c #3E6F9D",
"| 	c #52A3D7",
"1 	c #4792C8",
"2 	c #3184C1",
"3 	c #3C85C0",
"4 	c #317FBE",
"5 	c #488FBD",
"6 	c #295A95",
"7 	c #4F6D84",
"8 	c #404863",
"9 	c #6D9693",
"0 	c #054F98",
"a 	c #054595",
"b 	c #043186",
"c 	c #00175B",
"d 	c #3F8DCA",
"e 	c #3480BC",
"f 	c #3E8CC3",
"g 	c #2972B7",
"h 	c #2171B9",
"i 	c #4C96C6",
"j 	c #1D1F3D",
"k 	c #5E6A77",
"l 	c #3B719D",
"m 	c #0B356D",
"n 	c #3C3A4B",
"o 	c #747381",
"p 	c #7C7C8C",
"q 	c #2B2B4D",
"r 	c #15285C",
"s 	c #4799D1",
"t 	c #4189C2",
"u 	c #1C66AF",
"v 	c #3382C6",
"w 	c #1E66A6",
"x 	c #3E78AA",
"y 	c #858289",
"z 	c #727882",
"A 	c #41435D",
"B 	c #92918E",
"C 	c #F7F7F3",
"D 	c #FFFFFF",
"E 	c #FFFFFC",
"F 	c #FFFFF7",
"G 	c #5E5B6E",
"H 	c #3A77B0",
"I 	c #1A5FA8",
"J 	c #206CB1",
"K 	c #4592CC",
"L 	c #2062A2",
"M 	c #376CA6",
"N 	c #ABA8B1",
"O 	c #BBBBC0",
"P 	c #817B7D",
"Q 	c #F4F2EA",
"R 	c #FCFAF3",
"S 	c #FFFFFA",
"T 	c #C3BDBB",
"U 	c #6C646E",
"V 	c #1A5290",
"W 	c #2964A6",
"X 	c #347DB8",
"Y 	c #4287BD",
"Z 	c #11569C",
"` 	c #1F2D5E",
" .	c #B8B7B9",
"..	c #D7D2CC",
"+.	c #C2BDB9",
"@.	c #D1CBC6",
"#.	c #FCFAF6",
"$.	c #BEBAB9",
"%.	c #908886",
"&.	c #DAD6CE",
"*.	c #B6B0B8",
"=.	c #2965A3",
"-.	c #4272A4",
";.	c #2A6BA9",
">.	c #2869A9",
",.	c #2060A2",
"'.	c #2D4777",
").	c #CEC6BB",
"!.	c #F1EDE4",
"~.	c #FEFAF2",
"{.	c #C9C3BE",
"].	c #BBB5B0",
"^.	c #E8E5DD",
"/.	c #E8E3DC",
"(.	c #E8E2D9",
"_.	c #A2A2AF",
":.	c #2A3360",
"<.	c #183D80",
"[.	c #3271AD",
"}.	c #346DA6",
"|.	c #184F99",
"1.	c #13205D",
"2.	c #A09A9A",
"3.	c #E9E3D6",
"4.	c #E5E0D6",
"5.	c #ECE7DE",
"6.	c #F2EEE4",
"7.	c #F4EFE6",
"8.	c #F6F0E6",
"9.	c #C9C1B7",
"0.	c #F0E5D6",
"a.	c #A39796",
"b.	c #082472",
"c.	c #285C9A",
"d.	c #0B2E86",
"e.	c #1D529A",
"f.	c #08073D",
"g.	c #2D273A",
"h.	c #857B7F",
"i.	c #C2BAB1",
"j.	c #E3DCD1",
"k.	c #DAD2C7",
"l.	c #DCD3C6",
"m.	c #D5CBBD",
"n.	c #D5C7B7",
"o.	c #636282",
"p.	c #090847",
"q.	c #132F7A",
"r.	c #1A478F",
"s.	c #0A043D",
"t.	c #000012",
"u.	c #02000E",
"v.	c #3B3231",
"w.	c #8B817B",
"x.	c #BAB0A5",
"y.	c #D8CCBD",
"z.	c #AC9D91",
"A.	c #14185D",
"B.	c #0D023B",
"C.	c #1B3472",
"D.	c #0B1A61",
"E.	c #040020",
"F.	c #382E2C",
"G.	c #44486D",
"H.	c #0E144F",
"I.	c #1A2262",
"J.	c #020639",
"K.	c #1D2D5C",
"L.	c #122863",
"M.	c #1A3475",
"N.	c #0C1644",
"O.	c #0B193C",
"P.	c #0A1F4A",
"Q.	c #122246",
". . . . . . + . . . . . . . . . ",
". . . . @ # $ % & * = - . . . . ",
". . . ; > , ' ) ! ~ { ] ^ . . . ",
". . / ( _ : < [ } | 1 2 3 4 . . ",
". 5 6 7 8 9 0 a b c d e f g h . ",
". i j k l m n o p q r s t u v w ",
". x y z A B C D E F G H I J K L ",
". M N O P Q R R S T U V W X Y Z ",
". `  ...+.@.#.$.%.&.*.=.-.;.>.,.",
". '.).!.~.{.].^./.(._.:.<.[.}.|.",
". 1.2.3.4.5.6.7.8.9.0.a.b.c.d.e.",
". . f.g.h.i.j.k.l.m.n.o.p.q.r.. ",
". . . s.t.u.v.w.x.y.z.A.B.C.D.. ",
". . . . E.. . . . F.G.H.I.J.. . ",
". . . . . . . . . K.L.M.N.. . . ",
". . . . . . . . O.P.Q.. . . . . ",
". . . . . . . . . . . . . . . . ",
". . . . . . . . . . . . . . . . ",
". . . . . . . . . . . . . . . . ",
". . . . . . . . . . . . . . . . ",
". . . . . . . . . . . . . . . . ",
". . . . . . . . . . . . . . . . ",
". . . . . . . . . . . . . . . . ",
". . . . . . . . . . . . . . . . ",
". . . . . . . . . . . . . . . . ",
". . . . . . . . . . . . . . . . ",
". . . . . . . . . . . . . . . . ",
". . . . . . . . . . . . . . . . ",
". . . . . . . . . . . . . . . . ",
". . . . . . . . . . . . . . . . ",
". . . . . . . . . . . . . . . . ",
". . . . . . . . . . . . . . . . ",
". . . . . . . . . . . . . . . . ",
". . . . . . . . . . . . . . . . ",
". . . . . . . . . . . . . . . . ",
". . . . . . . . . . . . . . . . "};
