/* XPM */
static char * thunderbird_on_xpm[] = {
"12 24 111 2",
"  	c None",
". 	c #000000",
"+ 	c #000103",
"@ 	c #06111C",
"# 	c #214569",
"$ 	c #182F42",
"% 	c #061623",
"& 	c #031323",
"* 	c #02111D",
"= 	c #000203",
"- 	c #194163",
"; 	c #5FA3D0",
"> 	c #73B1D2",
", 	c #418ABA",
"' 	c #3483BC",
") 	c #3C8AC5",
"! 	c #2E7EBE",
"~ 	c #114167",
"{ 	c #000204",
"] 	c #030608",
"^ 	c #265377",
"/ 	c #4B7FB1",
"( 	c #517B9C",
"_ 	c #3776A1",
": 	c #084E90",
"< 	c #2A5E98",
"[ 	c #3F86BF",
"} 	c #3A8BC5",
"| 	c #3687C7",
"1 	c #1B4E7A",
"2 	c #01060A",
"3 	c #0C1B24",
"4 	c #35618D",
"5 	c #425169",
"6 	c #375D7F",
"7 	c #27466A",
"8 	c #516384",
"9 	c #535D82",
"0 	c #213364",
"a 	c #377CB4",
"b 	c #3582C0",
"c 	c #2472BB",
"d 	c #195182",
"e 	c #08121D",
"f 	c #6A83A0",
"g 	c #807F87",
"h 	c #686B77",
"i 	c #CBC8C5",
"j 	c #F9F6F4",
"k 	c #FBF9F7",
"l 	c #9D969D",
"m 	c #31598B",
"n 	c #1C64AB",
"o 	c #337EBC",
"p 	c #2168AB",
"q 	c #02060F",
"r 	c #707995",
"s 	c #CAC5C3",
"t 	c #BFB8B4",
"u 	c #EDE9E4",
"v 	c #D2CECC",
"w 	c #A6A09C",
"x 	c #BFB9B8",
"y 	c #4B73A2",
"z 	c #2E6AA6",
"A 	c #2C6EAB",
"B 	c #1D5FA1",
"C 	c #030811",
"D 	c #7A8296",
"E 	c #F3ECDE",
"F 	c #F2EDE5",
"G 	c #C6C0BA",
"H 	c #E5E2D9",
"I 	c #EFE9E1",
"J 	c #CBC6C4",
"K 	c #585A7A",
"L 	c #194181",
"M 	c #2D68A6",
"N 	c #1A5099",
"O 	c #000002",
"P 	c #151635",
"Q 	c #565065",
"R 	c #A29998",
"S 	c #DBD4CB",
"T 	c #E5DED4",
"U 	c #E6DDD1",
"V 	c #E3D6C3",
"W 	c #89818F",
"X 	c #121F61",
"Y 	c #123A8A",
"Z 	c #081B39",
"` 	c #000017",
" .	c #010113",
"..	c #191517",
"+.	c #5B5450",
"@.	c #8C847A",
"#.	c #A0958E",
"$.	c #323160",
"%.	c #0A0E4F",
"&.	c #0D1D56",
"*.	c #01020A",
"=.	c #000001",
"-.	c #000004",
";.	c #06070F",
">.	c #1D2C5A",
",.	c #162966",
"'.	c #09123B",
").	c #000006",
"!.	c #06122D",
"~.	c #081736",
"{.	c #030912",
". . + @ # $ % & * = . . ",
". + - ; > , ' ) ! ~ { . ",
"] ^ / ( _ : < [ } | 1 2 ",
"3 4 5 6 7 8 9 0 a b c d ",
"e f g h i j k l m n o p ",
"q r s t u v w x y z A B ",
"C D E F G H I J K L M N ",
"O P Q R S T U V W X Y Z ",
". . `  ...+.@.#.$.%.&.*.",
". . =.-.. . ;.>.,.'.).. ",
". . . . . . !.~.{.. . . ",
". . . . . . . . . . . . ",
". . . . . . . . . . . . ",
". . . . . . . . . . . . ",
". . . . . . . . . . . . ",
". . . . . . . . . . . . ",
". . . . . . . . . . . . ",
". . . . . . . . . . . . ",
". . . . . . . . . . . . ",
". . . . . . . . . . . . ",
". . . . . . . . . . . . ",
". . . . . . . . . . . . ",
". . . . . . . . . . . . ",
". . . . . . . . . . . . "};
