/* XPM */
static char * thunderbird_off_xpm[] = {
"12 24 138 2",
"  	c None",
". 	c #000000",
"+ 	c #000001",
"@ 	c #061420",
"# 	c #1F4060",
"$ 	c #193144",
"% 	c #071623",
"& 	c #031322",
"* 	c #031221",
"= 	c #000102",
"- 	c #000200",
"; 	c #163E63",
"> 	c #62A7D5",
", 	c #74B1D1",
"' 	c #418ABB",
") 	c #3584BC",
"! 	c #3A89C4",
"~ 	c #3180BF",
"{ 	c #104168",
"] 	c #010000",
"^ 	c #030608",
"/ 	c #25577A",
"( 	c #4C7FB3",
"_ 	c #517C9A",
": 	c #3874A0",
"< 	c #074E91",
"[ 	c #2A5E98",
"} 	c #428AC1",
"| 	c #3888C3",
"1 	c #398BCA",
"2 	c #1B507D",
"3 	c #010509",
"4 	c #0E1D26",
"5 	c #2F5887",
"6 	c #475469",
"7 	c #355C83",
"8 	c #274769",
"9 	c #516384",
"0 	c #545E82",
"a 	c #1E2F60",
"b 	c #3B82BB",
"c 	c #3681BD",
"d 	c #2270BB",
"e 	c #195283",
"f 	c #07141E",
"g 	c #6C819D",
"h 	c #87848C",
"i 	c #5F6070",
"j 	c #D0CEC9",
"k 	c #FAF8F4",
"l 	c #FCFBF9",
"m 	c #9A8E92",
"n 	c #315E90",
"o 	c #1C63A9",
"p 	c #337FBD",
"q 	c #2269AB",
"r 	c #010510",
"s 	c #737C96",
"t 	c #D0CBC6",
"u 	c #B9B3AF",
"v 	c #EFECE6",
"w 	c #D2CFCD",
"x 	c #A7A19D",
"y 	c #C9BCB8",
"z 	c #416EA1",
"A 	c #366EA6",
"B 	c #296DAC",
"C 	c #1E60A2",
"D 	c #020712",
"E 	c #808697",
"F 	c #F3ECDE",
"G 	c #F5F1E8",
"H 	c #C4BEB8",
"I 	c #E5E2D9",
"J 	c #EFE9E1",
"K 	c #D0CBCA",
"L 	c #565775",
"M 	c #163F83",
"N 	c #316EA9",
"O 	c #1B5099",
"P 	c #000002",
"Q 	c #171838",
"R 	c #554F64",
"S 	c #A29A99",
"T 	c #DBD5CB",
"U 	c #E5DED4",
"V 	c #E6DDD1",
"W 	c #E6D9C5",
"X 	c #8C8592",
"Y 	c #0B1659",
"Z 	c #19428E",
"` 	c #091C39",
" .	c #00001B",
"..	c #030212",
"+.	c #181417",
"@.	c #5C5451",
"#.	c #8C847B",
"$.	c #A99C90",
"%.	c #2B2B60",
"&.	c #0E0E4C",
"*.	c #0E215A",
"=.	c #00020A",
"-.	c #000005",
";.	c #07070F",
">.	c #1E2D5B",
",.	c #152967",
"'.	c #0A133D",
").	c #000004",
"!.	c #07122E",
"~.	c #091A3B",
"{.	c #03060D",
"].	c #120000",
"^.	c #110000",
"/.	c #140000",
"(.	c #0F0000",
"_.	c #930000",
":.	c #EF0000",
"<.	c #EB0000",
"[.	c #FA0000",
"}.	c #6E0000",
"|.	c #050000",
"1.	c #3F0000",
"2.	c #FF0000",
"3.	c #E80000",
"4.	c #170000",
"5.	c #3D0000",
"6.	c #FE0000",
"7.	c #E70000",
"8.	c #160000",
"9.	c #410000",
"0.	c #FD0000",
"a.	c #F30000",
"b.	c #180000",
"c.	c #450000",
"d.	c #CA0000",
"e.	c #C60000",
"f.	c #D00000",
"g.	c #250000",
". . + @ # $ % & * = . . ",
". - ; > , ' ) ! ~ { ] . ",
"^ / ( _ : < [ } | 1 2 3 ",
"4 5 6 7 8 9 0 a b c d e ",
"f g h i j k l m n o p q ",
"r s t u v w x y z A B C ",
"D E F G H I J K L M N O ",
"P Q R S T U V W X Y Z ` ",
". .  ...+.@.#.$.%.&.*.=.",
". . + -.. ] ;.>.,.'.).. ",
". . . . . . !.~.{.+ . . ",
". . . . . . . . . . . . ",
". . . . . . . . . . . . ",
". . . . . ].^./.. . . . ",
". . . (._.:.<.[.}.|.. . ",
". . . 1.2.2.2.2.3.4.. . ",
". . . 5.2.6.2.6.7.8.. . ",
". . . 9.2.2.2.0.a.b.. . ",
". . . . c.d.e.f.g.. . . ",
". . . . . . . . . . . . ",
". . . . . . . . . . . . ",
". . . . . . . . . . . . ",
". . . . . . . . . . . . ",
". . . . . . . . . . . . "};
