/* XPM */
static char *a[] = {
/* columns rows colors chars-per-pixel */
"36 36 256 2 ",
"   c #96FB00000000",
".  c #9EB0005E0000",
"X  c #9D430BA00B45",
"o  c #97DF179215C0",
"O  c #A574040D0293",
"+  c #AB9605AE0336",
"@  c #A5CE0AD2043C",
"#  c #ADE609B90253",
"$  c #A5590C510A23",
"%  c #B22B072904D8",
"&  c #B4D70A130053",
"*  c #B51609BD0937",
"=  c #BB9A0BB90B75",
"-  c #AF2D10CB062C",
";  c #AF9B17F600B3",
":  c #A8CE10840A1B",
">  c #B33B13190740",
",  c #BDE314180673",
"<  c #B7331A150CC2",
"1  c #BBAA16DE0A1E",
"2  c #A595121610F3",
"3  c #ABFC19FC13D2",
"4  c #A8B1194B16DD",
"5  c #BB1B1F151079",
"6  c #BC5A1F561F2E",
"7  c #BDAA250018A0",
"8  c #B94325921AB2",
"9  c #9D462F3B2D30",
"0  c #9F832FFA2D30",
"q  c #9D9B39AE39D7",
"w  c #ACE02CB52BF1",
"e  c #A6D5260B24B5",
"r  c #B55E2D412CBC",
"t  c #BA0A2AB92679",
"y  c #A43031D62D94",
"u  c #AC2E34FA2E70",
"i  c #B5C8386D2F25",
"p  c #BCBF3A752EDD",
"a  c #B1FD37232EE2",
"s  c #A2283C663D1D",
"d  c #BEE03C502FCF",
"f  c #BAFB3B043A6F",
"g  c #C22E0DBE0DC2",
"h  c #C16A10130DAE",
"j  c #C60C114810F6",
"k  c #CBA716FE1700",
"l  c #C33A1BFB1BDB",
"z  c #CB8B1A2218B1",
"x  c #C0BD1DF81272",
"c  c #C3C7274C19BC",
"v  c #E18B333718C5",
"b  c #D041219C219C",
"n  c #CD7229F429D5",
"m  c #CAA62B6B237A",
"M  c #D1982217220C",
"N  c #D7232E912E8A",
"B  c #C62332BD2452",
"V  c #CB0D320B2308",
"C  c #C689331D2CFA",
"Z  c #CC543737282D",
"A  c #C4EF3B162C18",
"S  c #CBEF39BD2BB4",
"D  c #D2A338A02AF8",
"F  c #C5DF3E763D38",
"G  c #C826380434A7",
"H  c #D1B335893501",
"J  c #D5143BE0341A",
"K  c #DC183AD13AA6",
"L  c #DB3E36513655",
"P  c #C95443D43904",
"I  c #D08F470F39BB",
"U  c #D66247EC37A8",
"Y  c #E6C643AF2A56",
"T  c #9DB942174238",
"R  c #A51845834510",
"E  c #A20B48AD47B4",
"W  c #AB8A4B474B0D",
"Q  c #BDEB469A4688",
"!  c #B97E4B634AE5",
"~  c #AD4850014ACA",
"^  c #A28A54A853FE",
"/  c #AC43549453B3",
"(  c #A7C15B6F5B13",
")  c #BBA3546453BD",
"_  c #B91B59EA591B",
"`  c #BD1F66305D82",
"'  c #AD2F65BD651C",
"]  c #A8C1688768A4",
"[  c #B3F264E464DF",
"{  c #B7CE6FA76E81",
"}  c #BE276C366C70",
"|  c #BA56623561C4",
" . c #AD7B70676F91",
".. c #ACB774C67424",
"X. c #B02679CF77D5",
"o. c #BEAD7CD77BBE",
"O. c #B9C075B57580",
"+. c #C2C145E145D2",
"@. c #CA9144894327",
"#. c #CAE44C4F4A8E",
"$. c #DE6845244397",
"%. c #DFE74A5647C1",
"&. c #D53F4C194C18",
"*. c #D81741E341E3",
"=. c #CF6F52574D80",
"-. c #D18D555E4E03",
";. c #D9A456874472",
":. c #CCBC52C3524C",
">. c #D4385671525B",
",. c #D6155B7D51E1",
"<. c #D8BA5EF453AA",
"1. c #DE8A5697569D",
"2. c #E25C4668465A",
"3. c #EC5452DC433E",
"4. c #E4D955034900",
"5. c #E71552FF5298",
"6. c #E879530552F0",
"7. c #EDCE5F2C5F27",
"8. c #E4E2597C597E",
"9. c #F37A5CF752C5",
"0. c #DFE860B14E3B",
"q. c #C64160765FBD",
"w. c #DC4F638A562D",
"e. c #D7F86C4A5F75",
"r. c #DD606C055EBA",
"t. c #D7F0642F5B15",
"y. c #EE8760FD5E0D",
"u. c #F26F65035BEE",
"i. c #C2E8672F66C6",
"p. c #C20F6BEF6C26",
"a. c #CDC260B260B9",
"s. c #DD0E6DE961A8",
"d. c #D8F967B467B7",
"f. c #C63C73696FCB",
"g. c #E0327ACA6EDC",
"h. c #DEBC74966849",
"j. c #CF5B781876F7",
"k. c #C17E75287478",
"l. c #D6F778897800",
"z. c #EA2C60006000",
"x. c #E4CA6DD06CE0",
"c. c #E9EE6E416C63",
"v. c #F6C66B4B63CA",
"b. c #F3186BB46B96",
"n. c #F0E866D965A4",
"m. c #EDC471446D5D",
"M. c #E10F79CE6DB0",
"N. c #EAC1766A6506",
"B. c #F1DB71FC6CBA",
"V. c #E6D175BE758C",
"C. c #E1CE7D7B71B1",
"Z. c #EE8E7B317B15",
"A. c #F64475A773A2",
"S. c #F8C977797735",
"D. c #F60A7C157C0E",
"F. c #FA787CEA7CC7",
"G. c #B35C80867E40",
"H. c #E4EB83F87774",
"J. c #E4ED86A17AB5",
"K. c #E54A88167D83",
"L. c #FD0880587FCF",
"P. c #FB937FF08005",
"I. c #BABF83DA825A",
"U. c #BB11874885F4",
"Y. c #AEC3970C95FF",
"T. c #B3FE9D029B96",
"R. c #AF93AFF0B014",
"E. c #BCA7A55FA1BA",
"W. c #B143AFD4AE8D",
"Q. c #B48EB52BB470",
"!. c #BC70BDC3BC23",
"~. c #B588B916B6CC",
"^. c #C40A853E8412",
"/. c #CA8385918535",
"(. c #C3318BBF8A77",
"). c #CAFE8C1B8B3F",
"_. c #D4C28A5D822F",
"`. c #D34B8FDA8FDE",
"'. c #D81987D987DA",
"]. c #C62590A990A8",
"[. c #CCE894D393E5",
"{. c #CFB5996C9760",
"}. c #CF589DA99C50",
"|. c #D7D1980A9818",
" X c #D83997AA9789",
".X c #E7218D8E834D",
"XX c #E95984D484D4",
"oX c #FD5480D9806A",
"OX c #E7ED90C585CB",
"+X c #EAAD9294868A",
"@X c #E470936D8B07",
"#X c #E90296138B63",
"$X c #E6169D28961A",
"%X c #EABB9D98940A",
"&X c #E9959F1B98F0",
"*X c #EC22A1219753",
"=X c #E497A79C9FE1",
"-X c #EBB6A38A9BBC",
";X c #ED91A8509FD3",
":X c #C723A9C8A799",
">X c #D3AEA457A2C4",
",X c #D3F7A98EA8B5",
"<X c #CD95B1D3AFFB",
"1X c #D752B06EAF24",
"2X c #DF9CB6B4B67D",
"3X c #D84CB9BDB63B",
"4X c #D561B677B606",
"5X c #E0B9ADBEA7B0",
"6X c #EE43AC64A452",
"7X c #EFBCAFF4A86D",
"8X c #E53BAC45AC19",
"9X c #EF99B33EABC8",
"0X c #F0C6B319AB8D",
"qX c #EEA5B704B330",
"wX c #ED30BD31B762",
"eX c #ED6BBEB0B98E",
"rX c #F10DB7CAB0E7",
"tX c #F251BB6CB44D",
"yX c #BE82C22ABED4",
"uX c #C140C264BEDA",
"iX c #E977C240BD7B",
"pX c #BFD6C25BC22B",
"aX c #C2C9C400C33A",
"sX c #C725CA12C560",
"dX c #CA77CB2AC5D0",
"fX c #CB1FCD6ECC92",
"gX c #C857C62CC6B9",
"hX c #CF51D120CAE7",
"jX c #D1A3D408CD47",
"kX c #D36CD49BD1C3",
"lX c #DA68DCA7D599",
"zX c #D6B6DA33DAB8",
"xX c #D98ADA66D6EE",
"cX c #E242C482C422",
"vX c #E9A0C940C70E",
"bX c #F0A8D1A0CDB7",
"nX c #E75AD4FAD2F3",
"mX c #EE7BDD4ADCB4",
"MX c #ED90D803D6D5",
"NX c #F0EDDE2BDE06",
"BX c #DE1AE1FEDAB1",
"VX c #E1E9E364DD7D",
"CX c #ECADE1F4E041",
"ZX c #E39DE53BE3A3",
"AX c #EC1BE41DE24C",
"SX c #E74AEAB4E554",
"DX c #E7FAE969E991",
"FX c #EBA8EC9BE9B8",
"GX c #F24DE5EBE46F",
"HX c #F323EB7FEACB",
"JX c #EEFDF1F8EE2B",
"KX c #EFCEF0FDF13D",
"LX c #F4E1F42FF2E1",
"PX c #FDB2FE37FDBD",
"IX c #F73AF716F5BB",
"UX c None",
/* pixels */
"UXUXUXUXUXUXUXUXUXUXUXUXUXUXUXUXUXUXUXUXUXUXUXUXUXUXUXUXUXUXUXUXUXUXUXUX",
"UXUXUXUXUXUXUXUXUXUXUXUXUXUXUXUXUXUXUXUXUXUXUXUXUXUXUXUXUXUXUXUXUXUXUXUX",
"UXUXUXUXUXUXw.w.w.w.w.w.w.<.<.<.,.,.,.,.-.>.-.-.-.-.=.=.#.@.UXUXUXUXUXUX",
"UXUXUXY N.7X6X7X6X6X6X6X6X;X6X;X6X;X;X-X;X-X-X-X-X&X&X&X%X@X.XF + UXUXUX",
"UXUXUXN.+XrXtXiXwXtXtXtXtXtXtXtX0XrXqX0X9XrX9X9X0X0X0X7X6X6X%X<.C UXUXUX",
"UXUXUX*X7X0X0X7X7X7X6X6X6X6X6X0XwXeXwXqX7X;X-X-X*X*X%X*X&X-X-XXXh.UXUXUX",
"UXUX0.+X*X;X*X%X*X%X%X%X#X%X6XbXGXHXGXMXiX$XOXOXOXOXOXOX.X.XOXJ.g.UXUXUX",
"UXU 4.H.#X#X#X+X#X+X+X@X.X;XvXGXKXLXKXFXnX1X@XJ.J.K.J.J.H.H.H.C.s.t UXUX",
"UXUX;.M.H.H.g.M.C.g.g.h.h.5XmXDXDXZXZXZXzXiX_.e.s.s.r.r.r.r.r.r.-.3 UXUX",
"UXUXI w.,.I S Z Z Z S V c _.ZXzXkXkXfXfXsX:X` 8 V V V V V V S U P 3 UXUX",
"UXUXZ A V x h , , h , , & p.zXfXaXpXyX!.~.T.~ # , , , h , h 1 c 7 : UXUX",
"UXUX5 , & & & & & & & & O } fXyX~.Q.R.Q.R.Y.E O & & & & > & & & & O UXUX",
"UXUX> & # # % # & # # + O | aXQ.R.R.Q.~.Q.Y.R O + # & + & # # % # @ UXUX",
"UXUX; # + + O O + + # O . [ pX~.Q.~.!.!.!.T.E   O # O O # + + + # O UXUX",
"UXUX: O O O O O O @ e w X ' aX!.!.uXaXdXdXE.^ o e 4 O O O O O O O @ UXUX",
"UXUX@ O O O O O O 2 p.}.q  .fXsXsXfXhXkXjXE. .( O.R X O . O O O O @ UXUX",
"UXUXO $ O O O O O $ } ,XT X.kXkXjXkXlXBXlXE.I.] ..T X O + O O O + @ UXUX",
"UXUX$ + * * * % + + ! k.q G.xXzXlXVXVXSXnX<XI.] ^ 9 + + % % + * # : UXUX",
"UXUX$ * * * * * * * Q O.q U.ZXZXVXVXSXJXSX<XU.' ^ w % * * * * * * - UXUX",
"UXUX$ * = * = = = * +.} q U.DXDXJXJXJXIXKX3XU.[ / r * = = = = = * - UXUX",
"UXUX$ = g g = g = g +.p.q Y.ZXKXLXIXIXPXLX1X(.{ _ r = g = g g g = > UXUX",
"UXUX2 = j j j j j g F i.^ P.nXKXPXPXPXPXHX].G.^.) t g j j j j j h * UXUX",
"UXUX: j k k k k k k G q.o.o.).NXPXPXPXLXvX[ ^.>X! 6 k k k k k k k > UXUX",
"UXUX4 l M M M M M M n :.}.o.| 4XMXCXNXvX>X[ (.,Xf l M M M M M M c < UXUX",
"UXUX4 n N N N N N N N H P.T.}.^.G.P.U.P.).,X]._ G n N N N N N N b < UXUX",
"UXUX6 H K K K K K K L L &.k.Y.P.T.:X:X].P.).i.F H L K K K K K K D 5 UXUX",
"UXUXt U 2.2.2.2.2.2.2.2.2.&.a.`.cXCXmX1X../ F *.2.2.2.2.2.2.2.2.J 7 UXUX",
"UXUXC 2.6.6.6.6.6.6.6.6.5.5.1.a.8XHXCX`.Q :.5.5.5.5.5.5.6.6.6.6.$.7 UXUX",
"UXV J 5.7.7.7.7.7.7.7.7.z.z.8.k.2XLXHX X:.8.z.7.7.7.7.7.7.7.7.7.5.B UXUX",
"UXUXU y.b.b.b.b.b.n.b.b.b.b.V.P.qXNXMX&Xd.n.b.b.b.b.b.b.b.b.b.n.y.UXUXUX",
"UXUXUXb.A.S.S.S.S.S.S.P.P.b.P.O.P.P.P.P.x.S.S.S.S.S.S.S.S.S.P.n.9.UXUXUX",
"UXUXUX3.u.F.P.P.P.P.P.P.P.P.P.P.P.j.O.P.P.P.P.P.P.P.P.P.P.P.A.5.D UXUXUX",
"UXUXUXv 3.A.B.m.m.V.c.x.x.x.x.x.c.x.x.x.c.m.m.m.m.m.m.B.m.B.v.U ; UXUXUX",
"UXUXUXUXUXUXA A i u y 9 9 9 9 0 y u u u a u i i i p d A A A UXUXUXUXUXUX",
"UXUXUXUXUXUXUXUXUXUXUXUXUXUXUXUXUXUXUXUXUXUXUXUXUXUXUXUXUXUXUXUXUXUXUXUX",
"UXUXUXUXUXUXUXUXUXUXUXUXUXUXUXUXUXUXUXUXUXUXUXUXUXUXUXUXUXUXUXUXUXUXUXUX"
};
