/* XPM */
static char *a[] = {
/* columns rows colors chars-per-pixel */
"36 36 256 2 ",
"   c #00003EEF2D7D",
".  c #00005D5C1768",
"X  c #014856D11EA8",
"o  c #02475ADF1B1A",
"O  c #07566CFB0DE6",
"+  c #085A71720DE8",
"@  c #042778DD0F70",
"#  c #0A867BBA0C89",
"$  c #05B26365148E",
"%  c #04226A5512F7",
"&  c #03BE62FC1AD9",
"*  c #04D96CF71C06",
"=  c #0E1D6CA51F52",
"-  c #078D757711D0",
";  c #0622792F1158",
":  c #08AF7B9B1391",
">  c #06B072EF1B3A",
",  c #078575241455",
"<  c #121377CE116D",
"1  c #1247770C1834",
"2  c #01F9549421A3",
"3  c #02B85F182750",
"4  c #004956EC2E50",
"5  c #01A15CDE2C86",
"6  c #002D55A03308",
"7  c #01005942315B",
"8  c #0B1C58F534C2",
"9  c #0E385DE63A40",
"0  c #15E85E473A2D",
"q  c #02D664EA2466",
"w  c #048D6A38221E",
"e  c #08F66E8621A6",
"r  c #02EE62792934",
"t  c #0F1262CE2CB8",
"y  c #11A86FAB2B3E",
"u  c #0B75715324B7",
"i  c #0ED573612822",
"p  c #1B867B272C5E",
"a  c #14A0763F2DF4",
"s  c #0D80654B30D0",
"d  c #161D65613E79",
"f  c #194379B130D9",
"g  c #25FC7D9F2519",
"h  c #257A70BA38C5",
"j  c #22307B08330B",
"k  c #21AA6A4A43C3",
"l  c #2531648749B5",
"z  c #24356D4B4944",
"x  c #37EF68404F33",
"c  c #346F64914E50",
"v  c #240473A941AB",
"b  c #39E667D65525",
"n  c #37DF6A4E5360",
"m  c #2F0774B45103",
"M  c #33C1793D51F3",
"N  c #3B7E7CFE52E8",
"B  c #3E3A779A5D76",
"V  c #3F9A7CC361EB",
"C  c #413F6F285B40",
"Z  c #474979A257EA",
"A  c #481479A75C2E",
"S  c #479978AD57C1",
"D  c #44237CA6645B",
"F  c #4F0279B16748",
"G  c #47D77FBD69E5",
"H  c #51F37AC5689F",
"J  c #0CD98EDC02A0",
"K  c #0AA6851E0B07",
"L  c #0C118D2E0991",
"P  c #0E2E86730698",
"I  c #14C08EA30BEA",
"U  c #0D3E91BF02EE",
"Y  c #0E6D9CD00275",
"T  c #0CBF93860AB6",
"R  c #0BB49C090C2B",
"E  c #10DF9AA40665",
"W  c #08E086531AED",
"Q  c #16F082C61806",
"!  c #09E990AF1638",
"~  c #0B949F9F1808",
"^  c #1CBF9A731558",
"/  c #0DD2A6DF0520",
"(  c #0F40A85F05E3",
")  c #0D89A2990C98",
"_  c #0EFEAE6C0DC8",
"`  c #12DCA4FB0B28",
"'  c #1298ADB90C96",
"]  c #0F5DB1C90BA9",
"[  c #1035B32C0AAB",
"{  c #10CCBBE70CB6",
"}  c #0E53ACAE1233",
"|  c #1368ABBD0F96",
" . c #1F76B088194D",
".. c #1DD9895D1FE5",
"X. c #2ED19FFD26D8",
"o. c #2D7193B52A89",
"O. c #251881E23600",
"+. c #2622827D3AA9",
"@. c #28CE85ED39CB",
"#. c #2DE389673EA8",
"$. c #2BA9886231DD",
"%. c #35358CB13366",
"&. c #2C8EA5BB26C9",
"*. c #34E6AE922FD1",
"=. c #37E9B2843A0E",
"-. c #3D8DB2AF36EA",
";. c #430BA96B3EBE",
":. c #2EDB82884784",
">. c #30F98B084240",
",. c #3E5393904C4C",
"<. c #3E0D85765048",
"1. c #3F86848658BB",
"2. c #44A087B54B44",
"3. c #485E85395A85",
"4. c #57C9948A57C9",
"5. c #56229A9E58D0",
"6. c #4545AC184116",
"7. c #47BCBA2D496C",
"8. c #5156A3B5578B",
"9. c #5578AC715440",
"0. c #5500A43C5C1C",
"q. c #4FACBA964FD6",
"w. c #557EB4D05372",
"e. c #55DEBA21548D",
"r. c #4AEC8D2562C1",
"t. c #538D8474644A",
"y. c #5ABC86FD6710",
"u. c #5389806868A8",
"i. c #55858BCA67C9",
"p. c #55149CAD649E",
"a. c #546E959F6BA8",
"s. c #5BA79F336C3B",
"d. c #5B1D84AB71B2",
"f. c #607189696E05",
"g. c #610398846983",
"h. c #633F85F67746",
"j. c #63268D0C7400",
"k. c #6B1A8CD37D54",
"l. c #60FBA01D75C2",
"z. c #67F5904A7C67",
"x. c #68C49596732D",
"c. c #714F9EB877E0",
"v. c #73EE9C2A7BC7",
"b. c #64CDABB16CC3",
"n. c #677FB25869AA",
"m. c #7055BA386BF1",
"M. c #6A3DA9977801",
"N. c #757BA5927721",
"B. c #7523ABF8741C",
"V. c #749EA0EE7B06",
"C. c #7911A44F7CF6",
"Z. c #738CB257761D",
"A. c #742DB4527B4B",
"S. c #7822B6A87F55",
"D. c #7BF4BC7B7E05",
"F. c #697EC6486802",
"G. c #77F8C0E27681",
"H. c #812EC40B7FD6",
"J. c #6CA4936782B1",
"K. c #6C979A8285B7",
"L. c #749693718262",
"P. c #78DF951A8701",
"I. c #7CEA9ABE8B84",
"U. c #797A9ADD84C2",
"Y. c #7D6DBB4281FB",
"T. c #79A6B48682B3",
"R. c #81669CA18D40",
"E. c #84BF9E0C9175",
"W. c #8106A67A8726",
"Q. c #8462A4698DF6",
"!. c #8600ABA58A09",
"~. c #812CBE8F82EF",
"^. c #8549B3A58BEC",
"/. c #871BBEF68CE8",
"(. c #879BA14893BF",
"). c #8C58AFB490D4",
"_. c #8DEFA8169879",
"`. c #9656A3A897F2",
"'. c #9B88A85F9D7A",
"]. c #884CBE649352",
"[. c #945AB43298CD",
"{. c #9E60AB60A106",
"}. c #9B9EB810A0F9",
"|. c #A2D8B00CA567",
" X c #B009AFF3B006",
".X c #A3DBB51AABE6",
"XX c #AC1CB38BAD8F",
"oX c #A126B9CFAB28",
"OX c #A64BB9C8A976",
"+X c #AC7ABA98B0CC",
"@X c #B53BB54FB48A",
"#X c #B084BDF2B5BB",
"$X c #BD45BD85BBEC",
"%X c #8BA1C61B8AF9",
"&X c #8D31CB4A8AC9",
"*X c #85E8CE3A838D",
"=X c #90F1C4538D23",
"-X c #892ED8D78670",
";X c #8F5CC672912D",
":X c #9155C7519282",
">X c #971ACD369503",
",X c #98C4CE0A9758",
"<X c #9AE7CE549A0E",
"1X c #9E33D4EB9BF3",
"2X c #9EA8DCA39C8C",
"3X c #96BCDAD494AA",
"4X c #A108D98D9F32",
"5X c #A193C058A172",
"6X c #A2CBCC2BA525",
"7X c #AA25CC36AA9B",
"8X c #A3E2D6ACA54D",
"9X c #A58AD944A404",
"0X c #A979DB73A6FD",
"qX c #A5C7D441AB77",
"wX c #AC9CDB0FAB50",
"eX c #AB91D5B1A9A7",
"rX c #B168DE6AAF4B",
"tX c #AFBDC781B450",
"yX c #B796CB42B936",
"uX c #B55CC712B88D",
"iX c #B47ADDC1B2B7",
"pX c #BD78DD8BBC51",
"aX c #AEB3E24AAC29",
"sX c #B127E252AEE1",
"dX c #B5B1E2C3B420",
"fX c #B8FFE4CCB76A",
"gX c #BB53E391B98E",
"hX c #C10BC1C0BE9D",
"jX c #C405C3DBC328",
"kX c #C763C9F4C436",
"lX c #CA25CBADC6DD",
"zX c #CD39CC70CBEC",
"xX c #C4DDDF63C3E2",
"cX c #C4F7D497C8B1",
"vX c #CF43D232CB61",
"bX c #D2ABD500CE6D",
"nX c #D3CAD49FD1BA",
"mX c #D596DAA1D3B0",
"MX c #DB23DD75D65C",
"NX c #DA0BD71DD946",
"BX c #DAEADB72DA99",
"VX c #CDE4E577CCC2",
"CX c #D4C3E1B5D5B3",
"ZX c #DC0EE567DB89",
"AX c #E1DCE39BDD5D",
"SX c #E418E59FE347",
"DX c #E68DEDCBE578",
"FX c #EB3BECA6EA35",
"GX c #E8FEE9D5E419",
"HX c #ED4AF15AEC0E",
"JX c #F07FF106EDA7",
"KX c #F117EFF3F12B",
"LX c #F3ADF4ADF306",
"PX c #F8C1F865F6C4",
"IX c #FE0FFE20FDCE",
"UX c None",
/* pixels */
"UXUXUXUXUXUXUXUXUXUXUXUXUXUXUXUXUXUXUXUXUXUXUXUXUXUXUXUXUXUXUXUXUXUXUXUX",
"UXUXUXUXUXUXUXUXUXUXUXUXUXUXUXUXUXUXUXUXUXUXUXUXUXUXUXUXUXUXUXUXUXUXUXUX",
"UXUXUXUXUXUXa.a.a.a.a.a.p.p.p.p.0.0.0.9.9.9.9.w.w.w.w.e.q.7.UXUXUXUXUXUX",
"UXUXUXz K.wXqXqXqXqXqX8XqX8X8X8X8X8X8X8X4X8X2X2X2X2X2X2X2X3X-X7.) UXUXUX",
"UXUXUXl.;XdXfXgXgXgXgXfXdXdXdXdXdXdXsXdXsXsXdXaXaXaXaXaXaXaX3XF.=.UXUXUX",
"UXUXUX<X8XrXwXwX0X0X0X0X0X0X0XiXpXgXpXiX0X8X1X1X1X1X1X>X1X1X4XG.F.UXUXUX",
"UXUXr./.<X1X1X<X<X>X<X>X>X<XeXVXDXDXDXZXpX<X;X%X%X%X%X%X%X*X&XH.G.UXUXUX",
"UXM r.T.;X:X;X;X;X;X;X%X%X6XxXDXJXLXLXFXmX7X;XY.Y.*X*XY.Y.D.D.D.n.o.UXUX",
"UXUX1.M.T.S.A.A.A.A.A.Z.M.6XAXFXFXSXSXSXBXyX^.b.b.b.b.b.b.b.b.b.9...UXUX",
"UXUX1.s.p.,.>.#.#.#.#.@.j ^.SXBXnXnXzXzXkXXXg.j O.@.@.@.O.@.#.,.2.Q UXUX",
"UXUXv :.+.a i u u u u e & c.NXzXjX$X$X$X@X'.3.$ e u e u e u i f j < UXUX",
"UXUXs r w q q w q w w q o x.zXhX@X@X@X@X X`.S X q q w q w q w w * + UXUX",
"UXUX3 r r r r r r r r r X j.jX@X X X@X@X@X'.S X 5 r r r r r r q w O UXUX",
"UXUX5 5 5 5 5 5 r 5 s 7 2 j.jX@X@X@X$XjXuX'.A 2 5 r 5 r 5 5 5 r r O UXUX",
"UXUX5 5 5 7 7 7 7 7 z M 8 j.kXhX$XhXjXzXkX|.u.0 z d 7 7 7 7 7 7 3 $ UXUX",
"UXUX5 4 7 7 7 7 7 9 K.}.n z.zXkXlXzXzXnXvX.XL.d.P.D 8 7 7 7 7 7 3 $ UXUX",
"UXUX5 7 6 6 6 6 6 8 K..XC P.nXbXbXbXMXAXMX.XR.L.P.C 6 6 6 6 6 6 3 o UXUX",
"UXUX5 7 6 6 6 6 6 6 G I.b I.MXMXMXAXAXAXAX+XR.H H l 6 6 6 6 6 6 4 o UXUX",
"UXUXr 7 6 6 6 6 6 6 V J.b R.AXAXAXGXGXJXSX#XE.h.H l 6 6 6 6 6 6 4 o UXUX",
"UXUXr 7 7 6 7 7 6 6 D J.c E.FXFXFXJXJXPXKXyX(.h.H l 6 6 6 6 6 6 4 X UXUX",
"UXUXq 5 7 7 7 7 4 4 B z.x E.FXLXLXLXPXIXLXtX(.z.u.k 4 5 7 7 4 7 4 2 UXUX",
"UXUXw r r r r r 5 5 M j.A R.mXPXIXIXIXIXFX_.I.Q.t.k 5 5 5 r r r 3 2 UXUX",
"UXUX* w r q q q q r h a.U.v.Q.ZXIXIXIXLXcXd.R.OXN t r q q r r r 3 2 UXUX",
"UXUX* * w w e w w w y <.[.v.y.tXCXZXZXcX}.y.Q.[.h . w w e w e e q 2 UXUX",
"UXUX, > > > > > > > > p s.).[.v.c.C.N.v.U.OXW.2.e % > > > > > > * 2 UXUX",
"UXUX# : : : : : : : ; : $.4.N.N.!.[.[.!.N.N.2.1 , : : : : : : : , 2 UXUX",
"UXUXK K P K K K P K P K K Q %.B.yXZXZX5X4...< # K K K K K K K K - 2 UXUX",
"UXUXL J U U U U U U U U J J I o.&XDXAXB.< P J U J U U U U U U U K 2 UXUX",
"UXT T Y / Y Y Y Y Y Y Y Y Y Y &.>XJXDXZ.# U Y Y Y / Y Y Y Y Y Y T & UXUX",
"UXUXR ( ( ( ( ( ( ( ( ( ( ( ' ;.&XVXxXm.^ / ( ( / ( / / ( ` ( ) R UXUXUX",
"UXUXUX[ [ [ [ [ [ [ [ [ [ [ '  .-.;.;.&.` [ [ [ [ [ [ [ ] ] [ ) ! UXUXUX",
"UXUXUX( ] { { { { { { { { { { { [ | | [ [ { { { { { { { { { ] W r UXUXUX",
"UXUXUX) ] { { ] ] ] [ ] ] ' [ | } | } } } } } } } } } } } } ~ w   UXUXUX",
"UXUXUXUXUXUXT T L ! K K K W K : : : : : > > > > > u > e e w UXUXUXUXUXUX",
"UXUXUXUXUXUXUXUXUXUXUXUXUXUXUXUXUXUXUXUXUXUXUXUXUXUXUXUXUXUXUXUXUXUXUXUX",
"UXUXUXUXUXUXUXUXUXUXUXUXUXUXUXUXUXUXUXUXUXUXUXUXUXUXUXUXUXUXUXUXUXUXUXUX"
};
