#define vim_width 36
#define vim_height 36
static unsigned char vim_bits[] = {
   0x00, 0x00, 0x00, 0x00, 0x00, 0x00, 0x00, 0x00, 0x00, 0x00, 0x00, 0x00,
   0x06, 0x00, 0x00, 0xf8, 0xff, 0xe9, 0xff, 0x03, 0x08, 0x00, 0x73, 0x00,
   0x04, 0x08, 0x00, 0x27, 0x20, 0x06, 0x3c, 0x4c, 0x39, 0x83, 0x05, 0x70,
   0xe0, 0xff, 0x80, 0x03, 0xa0, 0x60, 0x3f, 0xc4, 0x01, 0x20, 0x62, 0x1a,
   0xe4, 0x00, 0x20, 0x60, 0x0e, 0x74, 0x00, 0x20, 0xc0, 0x07, 0x34, 0x00,
   0x60, 0xe0, 0x0a, 0x1c, 0x00, 0x60, 0x60, 0x85, 0x5c, 0x00, 0x30, 0xe0,
   0x02, 0xa6, 0x00, 0x68, 0x60, 0x05, 0x6b, 0x01, 0x74, 0xa0, 0xc8, 0x5b,
   0x02, 0xbe, 0x00, 0xe0, 0x8e, 0x04, 0x32, 0x20, 0xf8, 0x66, 0x07, 0x3c,
   0x04, 0x48, 0xaf, 0x03, 0x38, 0x04, 0x60, 0x6f, 0x01, 0x30, 0x20, 0x1c,
   0xf4, 0x00, 0x20, 0x00, 0x20, 0x66, 0x04, 0x20, 0x00, 0x73, 0x00, 0x04,
   0x20, 0x80, 0x52, 0xe7, 0x00, 0x20, 0xc0, 0x20, 0x4d, 0x02, 0x60, 0x60,
   0x29, 0x53, 0x02, 0x60, 0xb0, 0xb9, 0x13, 0x00, 0x60, 0x58, 0x18, 0x12,
   0x02, 0xa0, 0x67, 0x7c, 0x00, 0x00, 0xe0, 0x43, 0x23, 0x00, 0x00, 0x00,
   0x80, 0x10, 0x00, 0x00, 0x00, 0x00, 0x0b, 0x00, 0x00, 0x00, 0x00, 0x06,
   0x00, 0x00, 0x00, 0x00, 0x00, 0x00, 0x00, 0x00, 0x00, 0x00, 0x00, 0x00 };
