/* XPM */
static char *pidgin_tray_away_png[] = {
/* columns rows colors chars-per-pixel */
"36 36 134 2 ",
"   c #1E395F",
".  c #253A54",
"X  c #223C5E",
"o  c #233E60",
"O  c #3D4243",
"+  c #2A405C",
"@  c #2D4C77",
"#  c #2F4E78",
"$  c #344F73",
"%  c #395376",
"&  c #33527D",
"*  c #3D577A",
"=  c #404546",
"-  c #494E4E",
";  c #4C5151",
":  c #515656",
">  c #575B5C",
",  c #485F7F",
"<  c #5D6261",
"1  c #636867",
"2  c #6A6E6E",
"3  c #727676",
"4  c #70747C",
"5  c #7B7D7D",
"6  c #3D5B83",
"7  c #415F86",
"8  c #466182",
"9  c #49668C",
"0  c #526B8E",
"q  c #526D92",
"w  c #567092",
"e  c #5A7495",
"r  c #627B9C",
"t  c #647FA2",
"y  c #7E8182",
"u  c #6A819F",
"i  c #6781A2",
"p  c #6B83A3",
"a  c #6F88A5",
"s  c #7186A2",
"d  c #738AA7",
"f  c #768DAA",
"g  c #7F92AC",
"h  c #7E95B2",
"j  c #7597BD",
"k  c #7799BE",
"l  c #7E9DBF",
"z  c #779BC3",
"x  c #7C9DC2",
"c  c #7EA1C6",
"v  c #7FA2C8",
"b  c #868685",
"n  c #858889",
"m  c #8D8D8D",
"M  c #939494",
"N  c #959896",
"B  c #979A98",
"V  c #989999",
"C  c #8495AE",
"Z  c #8096B2",
"A  c #8399B4",
"S  c #839EBC",
"D  c #9EA1A0",
"F  c #85A1BF",
"G  c #8AA2BC",
"H  c #90A0B5",
"J  c #90A6BF",
"K  c #98A5B8",
"L  c #9EABBD",
"P  c #A1A3A1",
"I  c #A6A8A5",
"U  c #ABACAA",
"Y  c #AEB0AD",
"T  c #B1B2AF",
"R  c #A2AEBF",
"E  c #B6B7B5",
"W  c #B6B8B7",
"Q  c #BCBDBB",
"!  c #C1C2BF",
"~  c #83A2C2",
"^  c #8DA7C3",
"/  c #8EA9C4",
"(  c #82A4C9",
")  c #86A9CD",
"_  c #89AACE",
"`  c #91A7C0",
"'  c #96ABC2",
"]  c #99AEC5",
"[  c #9EB2C6",
"{  c #9CB2CB",
"}  c #8CAED1",
"|  c #94B4D5",
" . c #98B7D6",
".. c #9BB8D6",
"X. c #9CBAD9",
"o. c #A2B3C5",
"O. c #A9B4C3",
"+. c #AEB8C6",
"@. c #A3B6CA",
"#. c #AEBCC9",
"$. c #A4BBD2",
"%. c #A8BFD6",
"&. c #A3BED9",
"*. c #B5C1CB",
"=. c #BCC5CE",
"-. c #ABC0D6",
";. c #A6C0DA",
":. c #ABC3DB",
">. c #BFC7D1",
",. c #C2C3C1",
"<. c #C9CAC6",
"1. c #C2CACF",
"2. c #CCCCCC",
"3. c #CFD0CF",
"4. c #D2D2CF",
"5. c #C6CDD1",
"6. c #C9CDD1",
"7. c #CBD1D3",
"8. c #CBD0D8",
"9. c #D2D4D4",
"0. c #D7D8D6",
"q. c #D9DAD6",
"w. c #D5D9DE",
"e. c #DBDBD9",
"r. c #E1E1DD",
"t. c #E5E5E2",
"y. c #E9E9E6",
"u. c #E5E7E9",
"i. c #EFEFEF",
"p. c #F0EFEF",
"a. c #F1F0EF",
"s. c #F3F3F3",
"d. c #FBFBFA",
"f. c None",
/* pixels */
"f.f.f.f.f.f.f.f.f.f.f.f.f.f.f.f.f.f.f.f.f.f.f.f.f.f.f.f.f.f.f.f.f.f.f.f.",
"f.f.f.f.f.f.f.f.f.f.f.f.f.f.f.f.f.f.f.f.f.f.f.f.f.f.f.f.f.f.f.f.f.f.f.f.",
"f.f.Q e.q.q.e.w.q.e.q.w.e.w.q.q.q.w.e.q.w.q.q.2.f.f.f.f.f.f.f.f.f.f.f.f.",
"f.f.e.s.s.s.s.s.s.s.s.p.s.s.s.s.s.s.s.s.s.s.s.u.m f.f.f.f.f.f.f.f.f.f.f.",
"f.f.q.s.i.i.i.i.p.i.i.i.i.i.i.i.p.p.i.i.i.p.i.i.M f.f.f.f.f.f.f.f.f.f.f.",
"f.f.w.s.i.i.i.i.i.i.p.i.p.i.p.p.i.i.p.i.i.i.i.i.m f.f.f.f.f.f.f.f.f.f.f.",
"f.f.q.s.i.i.p.i.i.p.i.p.i.i.i.i.p.p.i.i.p.p.p.i.m f.f.f.f.f.f.f.f.f.f.f.",
"f.f.w.s.p.i.p.i.i.p.i.i.i.p.p.i.i.i.i.p.i.i.p.i.m f.f.f.f.f.f.f.f.f.f.f.",
"f.f.e.s.i.p.i.i.p.i.p.i.p.p.i.i.i.p.p.i.i.i.i.i.M f.f.f.f.f.f.f.f.f.f.f.",
"f.f.q.s.p.i.p.i.i.p.i.p.p.p.i.p.i.i.i.p.p.i.i.i.m f.f.f.f.f.f.f.f.f.f.f.",
"f.f.q.s.p.i.p.i.i.i.p.i.p.p.p.p.p.i.p.p.i.i.p.i.m f.f.f.f.f.f.f.f.f.f.f.",
"f.f.q.s.i.i.i.i.p.p.i.p.p.p.p.p.p.p.y.w.+.C s r 8 & f.f.f.f.f.f.f.f.f.f.",
"f.f.q.s.i.i.i.p.i.p.i.p.i.i.p.p.p.8.H t Z { %.-.%.@.S e 7 f.f.f.f.f.f.f.",
"f.f.q.s.p.i.i.p.i.i.i.p.i.p.p.u.O.d J :.X.} ( z v _ ..:.] i f.f.f.f.f.f.",
"f.f.e.s.i.i.i.i.p.i.i.i.i.i.u.K f $...~ S ] #.#.#.o.F z  .:.Z # f.f.f.f.",
"f.f.w.s.i.p.p.i.i.p.p.i.p.i.[ f :.} x O.9.q.e.e.e.e.0.*.F ( :.A # f.f.f.",
"f.f.q.s.i.i.i.i.i.i.i.i.s.>.a -.) ^ =.e.r.e.e.e.e.e.e.e.3.L v :.f f.f.f.",
"f.f.q.s.p.i.p.p.a.i.i.a.y.C ] | S 5.r.r.r.r.r.e.e.e.q.4.q.4.J _ -.9 f.f.",
"f.f.w.s.i.i.i.i.i.i.i.a.=.f ;.c #.e.r.y.y.y.r.e.e.e.Y < P r.>.l X.S f.f.",
"f.f.e.s.i.p.p.i.i.i.i.i.L G  .G q.e.y.y.a.y.y.e.e.Y ; ; T r.e.[ ) @.7 f.",
"f.f.e.s.s.p.i.i.i.a.s.u.g ;.) @.e.r.y.a.s.a.t.4.Q : - Y e.e.r.=.( &.a f.",
"f.f.,.w.e.t.s.p.s.i.e.5.u :.l =.e.r.a.s.d.y.D 3 3 2 T e.e.e.q.7.~ ;.f f.",
"f.f.f.m m M s.s.e.U n 4 0 :.j 3.e.r.p.s.d.2.y 3.M N r.q.q.e.e.q.S X.f f.",
"f.f.f.f.f.m i.9.V f.f.f.q :.j 5.e.r.y.a.d.4.y E n N q.r.e.e.e.0.S &.f f.",
"f.f.f.f.f.b W m f.f.f.f.w :.c =.q.r.t.a.a.t.I 5 5 > N q.e.e.e.3.~ &.f f.",
"f.f.f.f.f.5 f.f.f.f.f.f.9 .._ [ q.r.r.t.t.r.q.r.! 1 O N q.q.e.*.( &.t f.",
"f.f.f.f.f.f.f.f.f.f.f.f.f.h X.F 4.r.r.r.q.e.r.q.r.! 1 = I r.q.L _ { & f.",
"f.f.f.f.f.f.f.f.f.f.f.f.f.u ;.v o.q.r.e.e.e.q.q.r.e.! 5 Y e.*.x &.h f.f.",
"f.f.f.f.f.f.f.f.f.f.f.f.f.f.J X.l =.q.q.q.q.e.r.e.e.e.e.q.4.l | $.6 f.f.",
"f.f.f.f.f.f.f.f.f.f.f.f.f.f.9 @.| l #.q.r.e.e.q.e.e.r.e.=.F ) :.r f.f.f.",
"f.f.f.f.f.f.f.f.f.f.f.f.f.f.f.i $. .l J =.4.0.e.q.4.>.o.k } :.a f.f.f.f.",
"f.f.f.f.f.f.f.f.f.f.f.f.f.f.f.f.0 [ :._ c _ / R R J l c &...i + f.f.f.f.",
"f.f.f.f.f.f.f.f.f.f.f.f.f.f.f.f.f.* d $.&...} _ }  .&.%.h 8 . f.f.f.f.f.",
"f.f.f.f.f.f.f.f.f.f.f.f.f.f.f.f.f.f.. $ e S J ' ` S i % + f.f.f.f.f.f.f.",
"f.f.f.f.f.f.f.f.f.f.f.f.f.f.f.f.f.f.f.f.f.X o   X X f.f.f.f.f.f.f.f.f.f.",
"f.f.f.f.f.f.f.f.f.f.f.f.f.f.f.f.f.f.f.f.f.f.f.f.f.f.f.f.f.f.f.f.f.f.f.f."
};
