/* XPM */
static char *pidgin_tray_available_png[] = {
/* columns rows colors chars-per-pixel */
"36 36 102 2 ",
"   c #315B0D",
".  c #2F4C1C",
"X  c #335A11",
"o  c #34541B",
"O  c #426D1C",
"+  c #417312",
"@  c #447912",
"#  c #4C7E1D",
"$  c #467021",
"%  c #487222",
"&  c #507A2A",
"*  c #567D31",
"=  c #737C6F",
"-  c #7A7A7A",
";  c #548425",
":  c #58842F",
">  c #5C8C2E",
",  c #5E8B35",
"<  c #649336",
"1  c #65923A",
"2  c #6D9D3E",
"3  c #75B536",
"4  c #76B639",
"5  c #79B73D",
"6  c #7BB83F",
"7  c #689240",
"8  c #6D9844",
"9  c #729E47",
"0  c #729C4B",
"q  c #739751",
"w  c #76A24D",
"e  c #78A74B",
"r  c #7EB943",
"t  c #7CA554",
"y  c #7EA955",
"u  c #7DA05D",
"i  c #80BB47",
"p  c #84BD4B",
"a  c #81AC58",
"s  c #82B056",
"d  c #87BE50",
"f  c #86B35B",
"g  c #8AB95C",
"h  c #86A964",
"j  c #8AB463",
"k  c #8EBA64",
"l  c #93BD6A",
"z  c #8EAC72",
"x  c #8AC254",
"c  c #8FC559",
"v  c #91C65C",
"b  c #93C85E",
"n  c #95C665",
"m  c #96CA62",
"M  c #99CD66",
"N  c #96C36B",
"B  c #98C46D",
"V  c #9CCE6A",
"C  c #9FD06D",
"Z  c #9AC471",
"A  c #9DCA71",
"S  c #A0D16F",
"D  c #A3CF79",
"F  c #A4D474",
"G  c #A6D479",
"H  c #A9D67B",
"J  c #ABD87E",
"K  c #868586",
"L  c #8D8D8D",
"P  c #949494",
"I  c #989898",
"U  c #9AB381",
"Y  c #A0B68C",
"T  c #A3B98D",
"R  c #ACBE9B",
"E  c #A9A9A9",
"W  c #B7B7B7",
"Q  c #BFBFBF",
"!  c #ACD683",
"~  c #AEDA82",
"^  c #B1DB85",
"/  c #B4DD8B",
"(  c #B8DF90",
")  c #BBE295",
"_  c #BFE598",
"`  c #B2C3A2",
"'  c #C1E79A",
"]  c #C1CDB5",
"[  c #C5D1BA",
"{  c #C1C1C1",
"}  c #CBCDCA",
"|  c #CFD8C7",
" . c #D1D1D1",
".. c #D8DED2",
"X. c #D9D9D9",
"o. c #E1E1E1",
"O. c #E7E9E4",
"+. c #EFEFEF",
"@. c #EFEFF0",
"#. c #F0EFF0",
"$. c #F3F3F3",
"%. c None",
/* pixels */
"%.%.%.%.%.%.%.%.%.%.%.%.%.%.%.%.%.%.%.%.%.%.%.%.%.%.%.%.%.%.%.%.%.%.%.%.",
"%.%.%.%.%.%.%.%.%.%.%.%.%.%.%.%.%.%.%.%.%.%.%.%.%.%.%.%.%.%.%.%.%.%.%.%.",
"%.%.Q X.X.X.X.X.X.X.X.X.X.X.X.X.X.X.X.X.X.X.X.} %.%.%.%.%.%.%.%.%.%.%.%.",
"%.%.X.$.$.$.$.$.$.$.$.$.$.$.$.$.$.$.$.$.$.$.#.+.L %.%.%.%.%.%.%.%.%.%.%.",
"%.%.X.$.$.+.+.+.+.+.+.+.+.+.@.+.+.+.+.+.+.+.@.+.P %.%.%.%.%.%.%.%.%.%.%.",
"%.%.X.$.+.+.+.+.+.+.@.+.@.+.+.+.+.+.$.+.+.+.$.O.L %.%.%.%.%.%.%.%.%.%.%.",
"%.%.X.$.+.+.+.+.+.@.+.+.+.+.+.+.+.+.+.+.+.+.+.+.L %.%.%.%.%.%.%.%.%.%.%.",
"%.%.X.$.+.+.+.+.+.+.@.+.@.+.@.+.+.+.+.+.+.+.+.+.L %.%.%.%.%.%.%.%.%.%.%.",
"%.%.X.$.+.+.+.+.+.+.+.+.+.+.@.+.+.@.@.@.+.@.@.+.P %.%.%.%.%.%.%.%.%.%.%.",
"%.%.X.$.+.+.+.+.+.+.+.+.+.@.+.+.@.@.@.@.+.+.@.@.L %.%.%.%.%.%.%.%.%.%.%.",
"%.%.X.$.+.+.$.+.+.+.@.+.+.+.+.@.+.+.$.@.@.+.@.@.L %.%.%.%.%.%.%.%.%.%.%.",
"%.%.X.$.+.+.+.+.+.@.+.+.+.@.+.@.@.@.O.X.R z u q * @ %.%.%.%.%.%.%.%.%.%.",
"%.%.X.$.+.+.+.+.+.@.$.+.+.+.@.#.+.| U 0 f D ! / ^ G g < ; %.%.%.%.%.%.%.",
"%.%.X.$.+.+.@.+.+.+.+.+.+.+.$.O.` t l ) _ _ _ _ _ _ _ ) Z 2 %.%.%.%.%.%.",
"%.%.X.$.+.+.+.+.+.+.+.+.+.+.O.Y y ~ _ ) ) _ ) _ _ ) ) ) _ / s + %.%.%.%.",
"%.%.X.$.+.+.+.+.@.+.@.+.+.+.R y ) _ ) _ _ _ ) ) ) ) ) ) ) ( ) f + %.%.%.",
"%.%.X.$.+.+.@.@.+.+.@.@.$.[ y ^ _ ) _ ) ) ) ) ) ) ( ( ( / ^ / / e %.%.%.",
"%.%.X.$.+.@.@.@.@.+.@.@.O.z A _ ) ) ) ) ) ) ( ( / / / ^ ^ ~ J ~ J ; %.%.",
"%.%.X.$.+.@.@.@.+.+.+.#.] y ) ) ) ) ) ( ( / / / ^ ^ ^ J J H H H ~ f %.%.",
"%.%.X.#.+.+.@.@.@.+.+.+.T k ) ) ( ( / / ^ ^ ^ J J J H H H H F F H B & %.",
"%.%.X.$.$.$.@.@.+.@.$.O.h ! ( ( ^ ^ ^ ^ ^ J H H H H H F F S S C V G 2 %.",
"%.%.{ X.X.o.$.#.$.+.X.} 0 / ^ ^ ^ ~ J H H H H H F F S C C V V V M F 9 %.",
"%.%.%.L L P $.$.o.E K = , ( ~ J ~ H G G H F F S C C C V V M m b m D w %.",
"%.%.%.%.%.L @. .I %.%.%.> ( H H G G G F S S C C M M M m b b b b c S w %.",
"%.%.%.%.%.L W L %.%.%.%.> ! G F F S C C C V M M m m b b c c c x x V 9 %.",
"%.%.%.%.%.- %.%.%.%.%.%.; A G V C V V V m m m m b b x x x x x x d N 1 %.",
"%.%.%.%.%.%.%.%.%.%.%.%.%.s H V M M m b b v v c x x x x x x x 6 x l + %.",
"%.%.%.%.%.%.%.%.%.%.%.%.%.1 G M b b v c c c x x x x x r r i r 6 B w %.%.",
"%.%.%.%.%.%.%.%.%.%.%.%.%.%.j A c c x x x x p p p i r r 6 r 5 x N # %.%.",
"%.%.%.%.%.%.%.%.%.%.%.%.%.%.; B M x x x p p i i r r r 5 5 4 i N 1 %.%.%.",
"%.%.%.%.%.%.%.%.%.%.%.%.%.%.%., Z v x 6 r r r 5 r 5 5 5 3 i B 8 %.%.%.%.",
"%.%.%.%.%.%.%.%.%.%.%.%.%.%.%.%.: k m x r 5 5 5 5 3 3 5 c N 1 X %.%.%.%.",
"%.%.%.%.%.%.%.%.%.%.%.%.%.%.%.%.%.% 0 l B x p r i d v l t & . %.%.%.%.%.",
"%.%.%.%.%.%.%.%.%.%.%.%.%.%.%.%.%.%.o O , y j k j a 7 $ o %.%.%.%.%.%.%.",
"%.%.%.%.%.%.%.%.%.%.%.%.%.%.%.%.%.%.%.%.%.X     X X %.%.%.%.%.%.%.%.%.%.",
"%.%.%.%.%.%.%.%.%.%.%.%.%.%.%.%.%.%.%.%.%.%.%.%.%.%.%.%.%.%.%.%.%.%.%.%."
};
