/* XPM */
static char *pidgin_tray_busy_png[] = {
/* columns rows colors chars-per-pixel */
"36 36 120 2 ",
"   c #581B1C",
".  c #730E0E",
"X  c #6F1414",
"o  c #611B1C",
"O  c #681B1C",
"+  c #711213",
"@  c #7A7A7A",
"#  c #841B1B",
"$  c #881E1E",
"%  c #911515",
"&  c #961919",
"*  c #991C1C",
"=  c #8B2122",
"-  c #9C2121",
";  c #932728",
":  c #9F2E2E",
">  c #923535",
",  c #A22727",
"<  c #A22B2B",
"1  c #A53434",
"2  c #A83232",
"3  c #A53A3A",
"4  c #AC3C3C",
"5  c #B13737",
"6  c #B13A3A",
"7  c #C13636",
"8  c #CC3333",
"9  c #C13837",
"0  c #C23A3A",
"q  c #CC3A3A",
"w  c #D33838",
"e  c #B74343",
"r  c #BE4544",
"t  c #B74949",
"y  c #BC4A4A",
"u  c #AB5454",
"i  c #B35252",
"p  c #BE5151",
"a  c #BD5D5D",
"s  c #816F6F",
"d  c #B36060",
"f  c #BC6969",
"g  c #BC7575",
"h  c #C24D4D",
"j  c #CF4D4D",
"k  c #D04E4E",
"l  c #D94F4F",
"z  c #C35353",
"x  c #C85253",
"c  c #C75D5D",
"v  c #D55151",
"b  c #D15C5C",
"n  c #EA5454",
"m  c #E65C5C",
"M  c #F35454",
"N  c #F45C5C",
"B  c #C76464",
"V  c #CB6666",
"C  c #CD6B6B",
"Z  c #D36262",
"A  c #DA6767",
"S  c #DB6B6B",
"D  c #CC7D7C",
"F  c #D37575",
"G  c #DC7D7D",
"H  c #E36C6C",
"J  c #ED6D6D",
"K  c #F46363",
"L  c #F46B6B",
"P  c #E37575",
"I  c #EB7171",
"U  c #E17B7B",
"Y  c #F57474",
"T  c #F67C7C",
"R  c #858686",
"E  c #8D8D8D",
"W  c #949494",
"Q  c #989898",
"!  c #A9A9A9",
"~  c #B7B7B7",
"^  c #BFBFBF",
"/  c #C28383",
"(  c #CD8281",
")  c #C58E8E",
"_  c #DC8080",
"`  c #C99B9B",
"'  c #D59C9B",
"]  c #E18686",
"[  c #EE8181",
"{  c #E48989",
"}  c #E98A8A",
"|  c #F68484",
" . c #F88787",
".. c #F78B8B",
"X. c #EB9494",
"o. c #F69292",
"O. c #F89494",
"+. c #F49C9C",
"@. c #F99A9A",
"#. c #CDA3A3",
"$. c #D7A7A6",
"%. c #D9ADAB",
"&. c #D5B6B6",
"*. c #D8BABA",
"=. c #F9A1A1",
"-. c #C1C1C1",
";. c #CBCBCB",
":. c #DDC7C7",
">. c #D2C8C8",
",. c #D1D1D1",
"<. c #D9D9D9",
"1. c #E3CCCA",
"2. c #E5D3D1",
"3. c #E1E1E1",
"4. c #EBE5E4",
"5. c #ECE9E7",
"6. c #EFEFEF",
"7. c #EFF2F0",
"8. c #F3F3F3",
"9. c None",
/* pixels */
"9.9.9.9.9.9.9.9.9.9.9.9.9.9.9.9.9.9.9.9.9.9.9.9.9.9.9.9.9.9.9.9.9.9.9.9.",
"9.9.9.9.9.9.9.9.9.9.9.9.9.9.9.9.9.9.9.9.9.9.9.9.9.9.9.9.9.9.9.9.9.9.9.9.",
"9.9.^ <.<.<.<.<.<.<.<.<.<.<.<.<.<.<.<.<.<.<.<.;.9.9.9.9.9.9.9.9.9.9.9.9.",
"9.9.<.8.8.8.8.8.8.8.8.8.8.8.8.8.8.8.8.8.8.8.6.6.W 9.9.9.9.9.9.9.9.9.9.9.",
"9.9.<.8.8.6.6.6.6.6.6.6.6.6.6.6.7.7.6.6.6.6.6.6.E 9.9.9.9.9.9.9.9.9.9.9.",
"9.9.<.8.6.6.6.6.6.6.6.6.6.6.6.6.6.6.6.6.6.6.6.6.W 9.9.9.9.9.9.9.9.9.9.9.",
"9.9.<.8.6.6.6.6.6.6.6.6.6.7.6.6.6.6.6.6.6.6.7.6.E 9.9.9.9.9.9.9.9.9.9.9.",
"9.9.<.8.6.6.6.6.6.8.6.6.6.6.6.6.6.7.6.6.6.6.6.6.E 9.9.9.9.9.9.9.9.9.9.9.",
"9.9.<.8.6.6.6.6.6.6.8.6.6.7.6.6.6.6.6.6.6.6.6.6.W 9.9.9.9.9.9.9.9.9.9.9.",
"9.9.<.8.6.6.6.6.6.6.6.6.6.6.6.6.6.6.6.6.6.6.6.6.E 9.9.9.9.9.9.9.9.9.9.9.",
"9.9.<.8.6.6.6.6.6.6.6.6.6.6.6.6.6.6.6.6.6.6.7.6.E 9.9.9.9.9.9.9.9.9.9.9.",
"9.9.<.8.6.6.6.6.6.6.6.6.6.6.6.6.6.7.6.2.#.g d u > * 9.9.9.9.9.9.9.9.9.9.",
"9.9.<.8.6.6.6.6.6.6.6.6.6.6.6.6.6.:./ u V ] X.X.X.{ C 4 - 9.9.9.9.9.9.9.",
"9.9.<.8.6.6.8.6.6.6.6.6.6.7.7.5.#.a F +.=.@.O.O.O.O.@.+.G t 9.9.9.9.9.9.",
"9.9.<.8.6.6.6.6.6.6.6.6.6.6.5.) a X.=.@.O.O.o.o.o.......O.X.B % 9.9.9.9.",
"9.9.<.8.6.6.6.6.6.6.7.6.6.6.` a +.@.O.o.o.o....... . .| |  .O.V % 9.9.9.",
"9.9.<.8.6.6.6.6.6.6.6.6.7.*.a o.@.O.o.o......... .| | T | T T O.z 9.9.9.",
"9.9.<.8.6.6.6.6.7.6.6.6.4.g _ @.o........... .| | | | | T T T | } < 9.9.",
"9.9.<.8.6.6.6.6.6.6.7.7.&.a +.o.o..... . .| | | | T T T T Y Y Y  .V 9.9.",
"9.9.<.8.6.6.6.6.6.6.7.6.) C @..... . .| | | T T T T T Y Y Y Y Y Y U - 9.",
"9.9.<.8.8.8.6.6.6.8.8.4.f } [ k 0 0 0 0 0 5 7 9 7 7 7 7 7 7 7 q m [ e 9.",
"9.9.-.3.<.3.8.8.8.6.<.>.u o.j ( 1.2.2.2.2.2.2.2.2.2.2.2.2.2.2.' 0 T p 9.",
"9.9.9.E E W 8.8.3.! R s 3 O.5 2.6.6.6.6.8.6.6.6.7.5.7.7.5.6.6.5.r L z 9.",
"9.9.9.9.9.E 6.,.Q 9.9.9.2 o.q 1.7.7.7.7.8.7.7.7.7.7.7.7.7.7.7.4.r J p 9.",
"9.9.9.9.9.E ~ R 9.9.9.9.2 ..v B %.%.%.%.%.%.%.%.%.%.%.%.%.%.%.D q I y 9.",
"9.9.9.9.9.@ 9.9.9.9.9.9., G T l q q q 8 q 8 q 8 8 8 8 8 8 8 8 w n I 6 9.",
"9.9.9.9.9.9.9.9.9.9.9.9.9.c  .T Y Y Y Y Y L L L L K K K K K M N K A % 9.",
"9.9.9.9.9.9.9.9.9.9.9.9.9.6 [ Y Y L L L L K K K K K K N N N M M Y h 9.9.",
"9.9.9.9.9.9.9.9.9.9.9.9.9.9.Z | L L L K K K K K K N N M M M M K H * 9.9.",
"9.9.9.9.9.9.9.9.9.9.9.9.9.9., P Y L K K K K N N N N M M M M N J 5 9.9.9.",
"9.9.9.9.9.9.9.9.9.9.9.9.9.9.9.2 P Y K K N N N N M M M M M N J e 9.9.9.9.",
"9.9.9.9.9.9.9.9.9.9.9.9.9.9.9.9.2 A Y K N N N M M M M M K H 6 + 9.9.9.9.",
"9.9.9.9.9.9.9.9.9.9.9.9.9.9.9.9.9.= e P Y K N N N K L J h ;   9.9.9.9.9.",
"9.9.9.9.9.9.9.9.9.9.9.9.9.9.9.9.9.9.o # 1 z b Z b x 4 # O 9.9.9.9.9.9.9.",
"9.9.9.9.9.9.9.9.9.9.9.9.9.9.9.9.9.9.9.9.9.+ . . + + 9.9.9.9.9.9.9.9.9.9.",
"9.9.9.9.9.9.9.9.9.9.9.9.9.9.9.9.9.9.9.9.9.9.9.9.9.9.9.9.9.9.9.9.9.9.9.9."
};
