/* XPM */
static char *pidgin_tray_email_png[] = {
/* columns rows colors chars-per-pixel */
"36 36 153 2 ",
"   c #7A7A7A",
".  c #828381",
"X  c #858585",
"o  c #888A85",
"O  c #8A8C87",
"+  c #888888",
"@  c #898989",
"#  c #8B8B8B",
"$  c #8B8C89",
"%  c #8C8C8C",
"&  c #8E8E8E",
"*  c #8F8F8F",
"=  c #90938D",
"-  c #949494",
";  c #979797",
":  c #989A95",
">  c #9A9C97",
",  c #A3A5A1",
"<  c #A6A7A4",
"1  c #AAABA7",
"2  c #AAACA7",
"3  c #A9A9A9",
"4  c #AAABA8",
"5  c #AFB1AC",
"6  c #B3B5B1",
"7  c #B4B5B2",
"8  c #B7B7B7",
"9  c #B9BBB6",
"0  c #BBBCB9",
"q  c #BCBDBA",
"w  c #BDBEBB",
"e  c #BDBEBC",
"r  c #BFBFBF",
"t  c #BFC0BC",
"y  c #C1C1C1",
"u  c #C1C2C1",
"i  c #C3C4C2",
"p  c #C5C6C3",
"a  c #C5C7C3",
"s  c #CBCBCB",
"d  c #CBCCC9",
"f  c #CFD1CC",
"g  c #CFD1CD",
"h  c #D0D1CE",
"j  c #D2D3CF",
"k  c #D1D1D1",
"l  c #D1D2D0",
"z  c #D2D3D0",
"x  c #D2D3D1",
"c  c #D3D5D0",
"v  c #D3D5D1",
"b  c #D3D4D2",
"n  c #D4D6D2",
"m  c #D5D7D2",
"M  c #D5D7D3",
"N  c #D6D8D4",
"B  c #D7D9D4",
"V  c #D7D8D5",
"C  c #D7D9D5",
"Z  c #D8D9D5",
"A  c #D8DAD6",
"S  c #D9DAD7",
"D  c #DADBD7",
"F  c #D8D8D8",
"G  c #D9D9D9",
"H  c #D9DAD8",
"J  c #DADADA",
"K  c #DBDBDA",
"L  c #DBDBDB",
"P  c #DADCD8",
"I  c #DBDCD8",
"U  c #DBDCD9",
"Y  c #DBDCDA",
"T  c #DCDDDA",
"R  c #DCDCDB",
"E  c #DCDCDC",
"W  c #DDDDDC",
"Q  c #DDDEDC",
"!  c #DEDFDC",
"~  c #DFDFDC",
"^  c #DEDEDE",
"/  c #DEE0DC",
"(  c #DEE0DD",
")  c #DFE0DD",
"_  c #DFE0DE",
"`  c #E0E0DF",
"'  c #E0E1DF",
"]  c #E1E2DE",
"[  c #E2E3DF",
"{  c #E1E1E1",
"}  c #E2E3E1",
"|  c #E3E4E1",
" . c #E4E5E2",
".. c #E4E4E3",
"X. c #E4E5E3",
"o. c #E5E5E3",
"O. c #E6E7E6",
"+. c #E7E8E6",
"@. c #E8E9E6",
"#. c #E8E8E7",
"$. c #E8E9E7",
"%. c #E9EAE7",
"&. c #E9E9E8",
"*. c #EAEBE9",
"=. c #EAEBEA",
"-. c #EBEBEA",
";. c #EBEBEB",
":. c #EBECEA",
">. c #ECECEA",
",. c #EDEDEA",
"<. c #ECECEB",
"1. c #ECEDEB",
"2. c #EDEDEB",
"3. c #EEEEEB",
"4. c #ECECEC",
"5. c #EDEDEC",
"6. c #EDEDED",
"7. c #EEEEEC",
"8. c #EEEEED",
"9. c #EFEFED",
"0. c #EEEEEE",
"q. c #EEEFEE",
"w. c #EFEFEE",
"e. c #EFEFEF",
"r. c #F0F0EE",
"t. c #F0F0EF",
"y. c #F1F1EF",
"u. c #F0F0F0",
"i. c #F0F1F0",
"p. c #F1F1F0",
"a. c #F1F1F1",
"s. c #F1F2F0",
"d. c #F2F2F0",
"f. c #F2F2F1",
"g. c #F3F2F1",
"h. c #F3F3F1",
"j. c #F2F2F2",
"k. c #F3F3F2",
"l. c #F3F3F3",
"z. c #F3F4F3",
"x. c #F4F4F3",
"c. c #F5F5F3",
"v. c #F4F4F4",
"b. c #F5F5F4",
"n. c #F5F5F5",
"m. c #F5F6F4",
"M. c #F6F6F4",
"N. c #F6F6F5",
"B. c #F6F6F6",
"V. c #F7F7F6",
"C. c #F7F7F7",
"Z. c #F9F9F8",
"A. c None",
/* pixels */
"A.A.A.A.A.A.A.A.A.A.A.A.A.A.A.A.A.A.A.A.A.A.A.A.A.A.A.A.A.A.A.A.A.A.A.A.",
"A.A.A.A.A.A.A.A.A.A.A.A.A.A.A.A.A.A.A.A.A.A.A.A.A.A.A.A.A.A.A.A.A.A.A.A.",
"A.A.r G G G G G F F F V G G G G G G G G F F V s A.A.A.A.A.A.A.A.A.A.A.A.",
"A.A.G C.l.l.l.l.l.l.l.l.l.l.l.l.l.l.l.l.l.l.l.e.& A.A.A.A.A.A.A.A.A.A.A.",
"A.A.G l.e.e.e.e.e.e.e.e.e.e.e.e.e.e.e.e.e.e.e.e.* A.A.A.A.A.A.A.A.A.A.A.",
"A.A.G l.e.e.e.e.e.e.e.e.e.e.e.e.e.e.e.e.e.e.e.;.* A.A.A.A.A.A.A.A.A.A.A.",
"A.A.G l.e.e.e.e.e.e.e.e.e.e.e.e.e.e.e.e.e.e.e.e.* A.A.A.A.A.A.A.A.A.A.A.",
"A.A.G l.e.e.e.e.e.e.e.e.e.e.e.e.e.e.e.e.e.e.e.e.* A.A.A.A.A.A.A.A.A.A.A.",
"A.A.G l.e.e.e.e.e.e.e.e.e.e.e.e.e.e.e.e.e.e.e.<.* A.A.A.A.A.A.A.A.A.A.A.",
"A.A.G l.e.e.e.e.e.e.e.e.e.e.e.e.e.e.e.e.e.e.e.e.& A.A.A.A.A.A.A.A.A.A.A.",
"A.A.G l.e.e.e.e.e.e.e.e.e.e.e.e.e.e.e.e.e.e.e.<.* A.A.A.A.A.A.A.A.A.A.A.",
"A.A.G l.e.e.e.e.e.e.e.e.e.e.e.e.e.e.e.e.e.e.e.e.* A.A.A.A.A.A.A.A.A.A.A.",
"A.A.G l.e.e.e.e.e.e.e.e.e.e.e.e.e.e.e.e.e.e.e.;.* A.A.A.A.A.A.A.A.A.A.A.",
"A.A.G l.e.e.e.e.e.e.e.e.e.e.e.e.e.e.e.e.e.e.e.e.* A.A.A.A.A.A.A.A.A.A.A.",
"A.A.G l.e.e.e.e.e.e.e.e.e.e.e.e.e.e.e.e.e.e.e.e.* A.A.A.A.A.A.A.A.A.A.A.",
"A.A.G l.e.e.e.e.e.e.e.e.e.e.l.l.l.l.u.l.l.u.l.l.* A.A.A.A.A.A.A.A.A.A.A.",
"A.A.F l.e.e.e.e.e.e.e.e.e.T i w 0 w w 0 w 0 w 0 $ o A.A.A.A.A.A.A.A.A.A.",
"A.A.F l.e.e.e.e.e.e.e.u._ d _ I G G T G T T G I T T T T T Y G T ! j A.A.",
"A.A.F l.e.e.e.e.e.e.e.u.b 7 l.V.y.y.l.y.y.y.M.y.l.y.l.y.l.y.l.V.C.a = A.",
"A.A.F l.e.e.u.u.e.e.e.l.l 5 m +.V.y.e.3.3.3.3.3.3.3.3.3.3.3.M.e.A t A.A.",
"A.A.G C.j.l.u.u.e.l.l.l.b w ;.j ] M.y.e.3.3.3.3.3.3.3.3.y.M.@.j  .l A.A.",
"A.A.u G ! { j.u.C.;.G G u w C.;.B D y.z.3.3.3.3.3.3.e.y.M./ j O.C.b A.A.",
"A.A.A.@ % - l.C.! 3 X A.. w C.e.e.T m 3.C.y.3.3.3.y.l.y.A A 3.e.l.l A.A.",
"A.A.A.A.A.@ e.l ; A.A.A.A.w l.e.e.e. .n  .M.y.3.e.M.;.n _ e.e.e.C.b A.A.",
"A.A.A.A.A.@ 8 @ A.A.A.A.A.r C.e.e.r.r._ h / M.M.M.] h A e.r.e.e.v.b A.A.",
"A.A.A.A.A.  A.A.A.A.A.A.A.w C.e.e.r._ A 3./ m @.I D 3.A D 3.r.e.z.b A.A.",
"A.A.A.A.A.A.A.A.A.A.A.A.A.w C.e.e.I m y.z.3.] n / 3.y.M.I V ;.u.z.b A.A.",
"A.A.A.A.A.A.A.A.A.A.A.A.A.w C.;.V G M.y.3.3.3.3.3.3.3.y.C.! b #.C.b A.A.",
"A.A.A.A.A.A.A.A.A.A.A.A.A.w r.m _ M.r.e.3.9.3.r.3.3.3.3.e.M.[ j @.b A.A.",
"A.A.A.A.A.A.A.A.A.A.A.A.A.7 m  .V.r.3.3.3.9.3.3.3.r.3.3.3.e.M.@.b a A.A.",
"A.A.A.A.A.A.A.A.A.A.A.A.A.2 +.M.r.3.3.3.3.3.3.3.3.3.3.3.3.3.3.M.r.9 $ A.",
"A.A.A.A.A.A.A.A.A.A.A.A.A.2 _ M.M.M.M.C.N.N.N.M.M.C.C.M.M.C.M.C.*.7 A.A.",
"A.A.A.A.A.A.A.A.A.A.A.A.A.: , 3 4 4 4 4 4 4 4 4 4 4 4 4 4 4 4 4 < > A.A.",
"A.A.A.A.A.A.A.A.A.A.A.A.A.A.A.A.A.A.A.A.A.A.A.A.A.A.A.A.A.A.A.A.A.A.A.A.",
"A.A.A.A.A.A.A.A.A.A.A.A.A.A.A.A.A.A.A.A.A.A.A.A.A.A.A.A.A.A.A.A.A.A.A.A.",
"A.A.A.A.A.A.A.A.A.A.A.A.A.A.A.A.A.A.A.A.A.A.A.A.A.A.A.A.A.A.A.A.A.A.A.A."
};
