/* XPM */
static char *pidgin_tray_invisible_png[] = {
/* columns rows colors chars-per-pixel */
"36 36 244 2 ",
"   c #6A6E6B",
".  c #7A7A7A",
"X  c #838382",
"o  c #858585",
"O  c #878A86",
"+  c #888888",
"@  c #898989",
"#  c #8A8A8A",
"$  c #8B8B8B",
"%  c #898C88",
"&  c #8B8D89",
"*  c #8C8C8C",
"=  c #8E8E8E",
"-  c #8F8F8F",
";  c #929390",
":  c #919490",
">  c #949494",
",  c #9A9C97",
"<  c #989898",
"1  c #9DA09B",
"2  c #9EA09C",
"3  c #9FA29C",
"4  c #A0A19C",
"5  c #A0A19D",
"6  c #A0A29E",
"7  c #A4A6A2",
"8  c #A5A6A2",
"9  c #A6A8A5",
"0  c #A8AAA5",
"q  c #A8A9A6",
"w  c #A9A9A9",
"e  c #ABADA9",
"r  c #ABAEA8",
"t  c #ACADA8",
"y  c #AFB0AB",
"u  c #AFB2AC",
"i  c #B0B1AD",
"p  c #B0B2AE",
"a  c #B4B6B1",
"s  c #B4B6B2",
"d  c #B5B7B3",
"f  c #B6B7B3",
"g  c #B7B7B7",
"h  c #B7B8B6",
"j  c #B8BAB5",
"k  c #B8BAB7",
"l  c #BABBB8",
"z  c #BABCB8",
"x  c #BCBEB9",
"c  c #BCBEBA",
"v  c #BCBEBB",
"b  c #BDBFBB",
"n  c #BFBFBF",
"m  c #BFC1BC",
"M  c #BFC0BD",
"N  c #BFC0BE",
"B  c #C0C1BE",
"V  c #C1C2BF",
"C  c #C1C3BF",
"Z  c #C3C5BF",
"A  c #C3C6BF",
"S  c #C1C1C1",
"D  c #C1C3C0",
"F  c #C2C3C0",
"G  c #C3C4C0",
"H  c #C3C6C0",
"J  c #C3C6C1",
"K  c #C4C5C1",
"L  c #C4C6C0",
"P  c #C4C7C0",
"I  c #C4C6C1",
"U  c #C4C7C1",
"Y  c #C5C7C1",
"T  c #C5C7C2",
"R  c #C4C6C3",
"E  c #C6C7C4",
"W  c #C6C7C5",
"Q  c #C7C7C5",
"!  c #C5C8C1",
"~  c #C6C8C1",
"^  c #C5C8C2",
"/  c #C6C8C2",
"(  c #C7C9C2",
")  c #C6C9C3",
"_  c #C7C9C3",
"`  c #C7CAC3",
"'  c #C6C8C4",
"]  c #C7C9C4",
"[  c #C7CAC4",
"{  c #C7CBC4",
"}  c #C8CAC4",
"|  c #C8CBC4",
" . c #C8CAC5",
".. c #C8CBC5",
"X. c #C9CBC5",
"o. c #C8C9C6",
"O. c #C8CAC6",
"+. c #C9CAC6",
"@. c #C8CBC6",
"#. c #C9CBC6",
"$. c #C9CBC7",
"%. c #CACBC6",
"&. c #CACBC7",
"*. c #C9CCC7",
"=. c #CACCC6",
"-. c #CACCC7",
";. c #CBCCC7",
":. c #CACDC7",
">. c #CBCDC7",
",. c #CBCBCB",
"<. c #CACCC8",
"1. c #CBCCC8",
"2. c #CBCDC8",
"3. c #CBCCC9",
"4. c #CBCDC9",
"5. c #CBCEC8",
"6. c #CBCCCA",
"7. c #CCCDC8",
"8. c #CCCEC8",
"9. c #CCCFC8",
"0. c #CDCFC8",
"q. c #CCCEC9",
"w. c #CCCFC9",
"e. c #CDCFC9",
"r. c #CCCDCA",
"t. c #CCCECA",
"y. c #CDCECA",
"u. c #CDCFCA",
"i. c #CECECB",
"p. c #CECFCB",
"a. c #CDCECC",
"s. c #CECFCC",
"d. c #CFCFCE",
"f. c #CDD0CA",
"g. c #CDD0CB",
"h. c #CED0CA",
"j. c #CFD0CA",
"k. c #CED0CB",
"l. c #CFD0CB",
"z. c #CFD1CB",
"x. c #CED0CC",
"c. c #CFD0CC",
"v. c #CED1CC",
"b. c #CFD1CC",
"n. c #CFD0CD",
"m. c #CFD1CD",
"M. c #D0D0CB",
"N. c #D0D1CB",
"B. c #D0D1CC",
"V. c #D0D1CD",
"C. c #D0D2CC",
"Z. c #D0D2CD",
"A. c #D1D2CD",
"S. c #D0D2CE",
"D. c #D1D2CE",
"F. c #D1D3CE",
"G. c #D1D2CF",
"H. c #D1D3CF",
"J. c #D2D2CE",
"K. c #D2D3CF",
"L. c #D2D4CF",
"P. c #D2D5CF",
"I. c #D1D1D1",
"U. c #D2D3D1",
"Y. c #D2D5D0",
"T. c #D3D5D0",
"R. c #D3D5D1",
"E. c #D3D6D1",
"W. c #D4D5D0",
"Q. c #D4D5D1",
"!. c #D4D6D0",
"~. c #D5D6D1",
"^. c #D4D5D3",
"/. c #D4D6D2",
"(. c #D5D6D2",
"). c #D5D7D2",
"_. c #D5D6D3",
"`. c #D5D7D3",
"'. c #D6D6D2",
"]. c #D6D7D3",
"[. c #D4D4D4",
"{. c #D6D7D4",
"}. c #D6D6D5",
"|. c #D6D8D3",
" X c #D6D8D4",
".X c #D7D8D4",
"XX c #D6D8D5",
"oX c #D7D8D5",
"OX c #D7D9D5",
"+X c #D8D9D5",
"@X c #D9DAD5",
"#X c #D9DAD6",
"$X c #D8DAD7",
"%X c #D9DAD7",
"&X c #DADAD6",
"*X c #DADBD6",
"=X c #DADBD7",
"-X c #DBDBD7",
";X c #D8D8D8",
":X c #D9D9D9",
">X c #D9DAD8",
",X c #DADADA",
"<X c #DBDBDB",
"1X c #DADCD8",
"2X c #DBDCD8",
"3X c #DBDCD9",
"4X c #DADDD9",
"5X c #DBDDD9",
"6X c #DBDCDA",
"7X c #DBDCDB",
"8X c #DCDDD9",
"9X c #DCDDDA",
"0X c #DDDDDA",
"qX c #DCDEDA",
"wX c #DDDEDA",
"eX c #DDDEDB",
"rX c #DEDEDB",
"tX c #DCDCDC",
"yX c #DDDEDD",
"uX c #DEDEDC",
"iX c #DEDFDC",
"pX c #DEDEDE",
"aX c #DEE0DC",
"sX c #DFE0DD",
"dX c #E0E1DE",
"fX c #E0E1DF",
"gX c #E1E2DF",
"hX c #E1E1E1",
"jX c #E1E2E1",
"kX c #E5E5E5",
"lX c #EBEBEB",
"zX c #ECECEC",
"xX c #EDEDED",
"cX c #EEEEEE",
"vX c #EFEFEF",
"bX c #F0F0F0",
"nX c #F1F1F1",
"mX c #F2F2F2",
"MX c #F3F3F3",
"NX c #F4F4F4",
"BX c #F5F5F5",
"VX c #F6F6F6",
"CX c #F7F7F7",
"ZX c None",
/* pixels */
"ZXZXZXZXZXZXZXZXZXZXZXZXZXZXZXZXZXZXZXZXZXZXZXZXZXZXZXZXZXZXZXZXZXZXZXZX",
"ZXZXZXZXZXZXZXZXZXZXZXZXZXZXZXZXZXZXZXZXZXZXZXZXZXZXZXZXZXZXZXZXZXZXZXZX",
"ZXZXn ;X;X;X;X;X;X;X;X}.;X;X;X;X;X;X;X;X;X;X;X,.ZXZXZXZXZXZXZXZXZXZXZXZX",
"ZXZX;XVXMXMXMXMXMXMXMXMXMXMXMXMXMXMXMXMXMXMXMXvX= ZXZXZXZXZXZXZXZXZXZXZX",
"ZXZX;XMXvXvXvXvXvXvXvXvXvXvXvXvXMXvXvXvXvXvXvXlX= ZXZXZXZXZXZXZXZXZXZXZX",
"ZXZX;XMXvXvXvXvXvXvXvXvXvXvXvXvXvXvXvXvXvXvXvXvX= ZXZXZXZXZXZXZXZXZXZXZX",
"ZXZX;XMXvXvXvXvXvXvXvXvXvXvXvXvXvXvXvXvXvXvXvXlX: ZXZXZXZXZXZXZXZXZXZXZX",
"ZXZX;XMXvXvXvXvXvXvXvXvXvXvXvXvXvXvXvXvXvXvXvXvX= ZXZXZXZXZXZXZXZXZXZXZX",
"ZXZX;XMXvXvXvXvXvXvXvXvXvXvXvXvXvXvXvXvXvXvXvXvX= ZXZXZXZXZXZXZXZXZXZXZX",
"ZXZX;XMXvXvXvXvXvXvXvXvXvXvXvXvXvXvXvXvXvXvXvXlX- ZXZXZXZXZXZXZXZXZXZXZX",
"ZXZX;XMXvXvXvXvXvXvXvXvXvXvXvXvXvXvXvXvXvXvXvXvX= ZXZXZXZXZXZXZXZXZXZXZX",
"ZXZX;XMXvXvXvXvXvXvXvXvXvXvXvXvXvXvXvXkX}.R V l ; ZXZXZXZXZXZXZXZXZXZXZX",
"ZXZX;XMXvXvXvXvXvXvXvXvXvXvXvXvXvXjXi.z E /.%X1X>.z.B 0 ZXZXZXZXZXZXZXZX",
"ZXZX;XMXvXvXvXvXvXvXvXvXvXvXvXvXI.D i.iXdXdXsXiXv.-X0X0X<.y ZXZXZXZXZXZX",
"ZXZX;XMXvXvXvXvXvXvXvXvXvXvXlXi.D ;XdXiX8XdXsXsXz.%X%X%X8X%Xz ZXZXZXZXZX",
"ZXZX;XVXvXvXvXvXvXvXvXvXvXvXI.V sXsXiXiXiXiXiX8Xi.%X%X%X%X%X1Xn ZXZXZXZX",
"ZXZX;XMXvXvXvXvXvXvXvXvXMXiXV 1XsXiXiXiXiXiXiXuXs.%X%X{.%X'.'.%Xa ZXZXZX",
"ZXZX;XMXvXvXvXvXvXvXvXvXlXR F.dXiXiXiXiXiX8X8X8Xi.{.'.'./././.'./.2 ZXZX",
"ZXZX;XMXvXvXvXvXvXvXvXvX<XD dXsXiXiX8X8X8X8X8X8X+././.~./.P./.P.oXm ZXZX",
"ZXZX;XMXvXvXvXvXvXvXvXvXs.,.dX8X8X8X8X8X8X2X%X-X&./.P./.P.P.F.F.P.z.ZXZX",
"ZXZX;XVXMXMXvXvXvXMXMXvXE %X8X8X8X8X8X1X1X-X;X%X{ Y.P.m.J.A.A.A.z.P.y ZX",
"ZXZXS iXtXjXMXvXVXlX;XI.h ;XoXoX}.%X}././././.F.<.P.m.v.A.A.A.i.z.|.a ZX",
"ZXZXZX@ * > MXCXiXw o X 2 F.>.i.i.<.>.>.<.+.+.+.z.v.z.z.f.z.i.z.i./.d ZX",
"ZXZXZXZXZX@ vXI.< ZXZXZX8 %XP.Y.F.F.F.F.F.F.F.M.z.z.z.z.<.z.>.>.>./.d ZX",
"ZXZXZXZXZX@ g @ ZXZXZXZX8 |.Y.P.z.P.v.z.z.z.z.z.i.<.z.>.<.>.>.>.>.P.a ZX",
"ZXZXZXZXZX. ZXZXZXZXZXZX2 i.P.F.z.z.z.z.z.z.>.f.z.<.<.<.>.>.| >.>.v.r ZX",
"ZXZXZXZXZXZXZXZXZXZXZXZXZXx |.z.z.z.z.f.>.>.>.>.>.>.>.{ | >.| { >.>.ZXZX",
"ZXZXZXZXZXZXZXZXZXZXZXZXZXr Y.v.f.f.<.<.>.>.+.>.| | { { { { ! ! F.k ZXZX",
"ZXZXZXZXZXZXZXZXZXZXZXZXZXZXJ Y.>.>.>.>.>.+.>.>.+.+.+.! ! ! ! >.i., ZXZX",
"ZXZXZXZXZXZXZXZXZXZXZXZXZXZX2 s.v.>.+.{ +.+.! ! ! ! ! ! ! E +.F.t ZXZXZX",
"ZXZXZXZXZXZXZXZXZXZXZXZXZXZXZX8 v.F.{ ! ! ` ! ! ! ! J J A +.F.y ZXZXZXZX",
"ZXZXZXZXZXZXZXZXZXZXZXZXZXZXZXZX1 +.Y.<.! E ! J J J A ! v.s.q ZXZXZXZXZX",
"ZXZXZXZXZXZXZXZXZXZXZXZXZXZXZXZXZX& p v.I.i.>.{ +.>.z.F.k ; ZXZXZXZXZXZX",
"ZXZXZXZXZXZXZXZXZXZXZXZXZXZXZXZXZXZXZXO 2 z J { E z 9 &   ZXZXZXZXZXZXZX",
"ZXZXZXZXZXZXZXZXZXZXZXZXZXZXZXZXZXZXZXZXZXZXZXZXZXZXZXZXZXZXZXZXZXZXZXZX",
"ZXZXZXZXZXZXZXZXZXZXZXZXZXZXZXZXZXZXZXZXZXZXZXZXZXZXZXZXZXZXZXZXZXZXZXZX"
};
