/* XPM */
static char *pidgin_tray_connect_png[] = {
/* columns rows colors chars-per-pixel */
"36 36 117 2 ",
"   c #BFA00C",
".  c #9C9335",
"X  c #9D9335",
"o  c #9E9435",
"O  c #9E9637",
"+  c #CAA808",
"@  c #C9AB15",
"#  c #CEAF14",
"$  c #D2B113",
"%  c #D3B316",
"&  c #D4B617",
"*  c #D5B617",
"=  c #D7B717",
"-  c #D8B916",
";  c #D2B318",
":  c #D4B418",
">  c #D6B81A",
",  c #DABC18",
"<  c #E6CC30",
"1  c #E9D035",
"2  c #BCBA5A",
"3  c #BFBC5C",
"4  c #FAE74C",
"5  c #FEEB4C",
"6  c #FFEC4D",
"7  c #204A87",
"8  c #214B88",
"9  c #214C88",
"0  c #2B538D",
"q  c #325C93",
"w  c #335C93",
"e  c #355F99",
"r  c #44699E",
"t  c #456A9F",
"y  c #436EA5",
"u  c #4C70A2",
"i  c #4672A8",
"p  c #4975AB",
"a  c #4A76AC",
"s  c #4C77AC",
"d  c #4E78AD",
"f  c #537BAE",
"g  c #567DAF",
"h  c #517DB1",
"j  c #5A80B0",
"k  c #5D82B1",
"l  c #5A86B8",
"z  c #5A86BA",
"x  c #5C87B8",
"c  c #6185B3",
"v  c #6286B3",
"b  c #6688B4",
"n  c #6788B5",
"m  c #6889B5",
"M  c #698AB6",
"N  c #698BB6",
"B  c #6B8CB7",
"V  c #648CBC",
"C  c #6990BE",
"Z  c #7494BD",
"A  c #6E93C0",
"S  c #6E9BCC",
"D  c #7497C2",
"F  c #789AC3",
"G  c #7E9EC5",
"H  c #719ECE",
"J  c #729ECF",
"K  c #729FCF",
"L  c #739FCF",
"P  c #74A0CF",
"I  c #74A1D1",
"U  c #76A2D0",
"Y  c #77A2D0",
"T  c #76A2D1",
"R  c #76A4D3",
"E  c #78A3D1",
"W  c #7AA5D2",
"Q  c #7DA6D1",
"!  c #7CA6D3",
"~  c #81A1C7",
"^  c #84A2C7",
"/  c #84A3C7",
"(  c #85A3C7",
")  c #91ADCF",
"_  c #84AAD3",
"`  c #83AAD4",
"'  c #85ACD4",
"]  c #86ACD4",
"[  c #87ADD6",
"{  c #8AAED4",
"}  c #8AAFD7",
"|  c #8CAFD5",
" . c #91B3D6",
".. c #91B3D7",
"X. c #96B6D7",
"o. c #97B6D7",
"O. c #94B6D8",
"+. c #95B6DA",
"@. c #99B9DB",
"#. c #9CB9D8",
"$. c #9FBCD9",
"%. c #9EBCDB",
"&. c #A4BFDA",
"*. c #A5BFDB",
"=. c #A2BFDD",
"-. c #A4C0DC",
";. c #A9C2DB",
":. c #A9C2DD",
">. c #AAC3DC",
",. c #A8C3DE",
"<. c #ABC4DE",
"1. c #ADC5DF",
"2. c #ADC6DE",
"3. c #ADC6DF",
"4. c #B0C8E1",
"5. c #B6CEE5",
"6. c None",
/* pixels */
"6.6.6.6.6.6.6.6.6.6.6.6.6.6.6.6.6.6.6.6.6.6.6.6.6.6.6.6.6.6.6.6.6.6.6.6.",
"6.6.6.6.6.6.6.6.6.6.6.6.6.6.6.6.6.6.6.6.6.6.6.6.6.6.6.6.6.6.6.6.6.6.6.6.",
"6.6.6.6.6.6.6.6.6.6.6.6.6.6.6.6.6.6.6.6.6.6.6.6.6.6.6.6.6.6.6.6.6.6.6.6.",
"6.6.6.6.6.6.6.6.6.6.6.6.6.6.6.6.6.6.6.6.6.6.6.6.6.6.6.6.6.6.6.6.6.6.6.6.",
"6.6.6.6.6.6.6.6.6.6.6.6.6.6.6.6.6.6.6.6.6.6.6.6.6.6.6.6.6.6.6.6.6.6.6.6.",
"6.6.6.6.6.6.6.6.6.6.6.6.6.6.6.6.6.6.6.6.6.6.6.6.6.6.6.6.6.6.6.6.6.6.6.6.",
"6.6.6.6.6.6.6.6.6.6.6.6.6.6.6.6.6.6.6.6.6.6.6.6.6.6.6.6.6.6.6.6.6.6.6.6.",
"6.6.6.6.6.6.6.6.6.u M N B r 6.6.6.6.6.6.6.6.r B M M u 6.6.6.6.6.6.6.6.6.",
"6.6.6.6.6.6.6.6.r ) 1.4.5.B 6.6.6.6.6.6.6.6.B 5.4.1.) r 6.6.6.6.6.6.6.6.",
"6.6.6.6.6.6.6.6.Z <.>.>.4.N o > : % 6.6.6.6.M 4.;.<.<.Z 6.6.6.6.6.6.6.6.",
"6.6.6.6.6.6.6.6.( 1.>.>.4.N 2 5 4 1 + 6.6.6.M 4.>.;.>.^ 6.6.6.6.6.6.6.6.",
"6.6.6.6.6.6.6.6.( 1.;.*.>.n o , > % 6.6.6.6.n 3.*.$.$.~ 6.6.6.6.6.6.6.6.",
"6.6.6.6.6.6.6.8 G -.#.X.@.c 6.6.6.6.6.6.6.6.v =.O. ...F 8 6.6.6.6.6.6.6.",
"6.6.6.6.7 7 7 7 D O.| ] } j 6.6.6.6.6.6.6.6.k O.{ _ ` A 7 7 7 7 6.6.6.6.",
"6.6.6.6.6.6.6.9 C ' Q U Q h 6.6.6.6.6.6.6.6.g { Q E U V 9 6.6.6.6.6.6.6.",
"6.6.6.6.6.6.6.6.x U P J U d o = : # 6.6.6.6.d W L J U l 6.6.6.6.6.6.6.6.",
"6.6.6.6.6.6.6.6.h S K K U p 3 6 4 <   6.6.6.p U K K K h 6.6.6.6.6.6.6.6.",
"6.6.6.6.6.6.6.6.y S K K I a o : ; @ 6.6.6.6.p U J I S y 6.6.6.6.6.6.6.6.",
"6.6.6.6.6.6.6.6.0 z J I R a 6.6.6.6.6.6.6.6.a R I S z 0 6.6.6.6.6.6.6.6.",
"6.6.6.6.6.6.6.6.6.q i a a e 6.6.6.6.6.6.6.6.e a p i q 6.6.6.6.6.6.6.6.6.",
"6.6.6.6.6.6.6.6.6.6.6.6.6.6.6.6.6.6.6.6.6.6.6.6.6.6.6.6.6.6.6.6.6.6.6.6.",
"6.6.6.6.6.6.6.6.6.6.6.6.6.6.6.6.6.6.6.6.6.6.6.6.6.6.6.6.6.6.6.6.6.6.6.6.",
"6.6.6.6.6.6.6.6.6.6.6.6.6.6.6.6.6.6.6.6.6.6.6.6.6.6.6.6.6.6.6.6.6.6.6.6.",
"6.6.6.6.6.6.6.6.6.6.6.6.6.6.6.6.6.6.6.6.6.6.6.6.6.6.6.6.6.6.6.6.6.6.6.6.",
"6.6.6.6.6.6.6.6.6.6.6.6.6.6.6.6.6.6.6.6.6.6.6.6.6.6.6.6.6.6.6.6.6.6.6.6.",
"6.6.6.6.6.6.6.6.6.6.6.6.6.6.6.6.6.6.6.6.6.6.6.6.6.6.6.6.6.6.6.6.6.6.6.6.",
"6.6.6.6.6.6.6.6.6.6.6.6.6.6.6.6.6.6.6.6.6.6.6.6.6.6.6.6.6.6.6.6.6.6.6.6.",
"6.6.6.6.6.6.6.6.6.6.6.6.6.6.6.6.6.6.6.6.6.6.6.6.6.6.6.6.6.6.6.6.6.6.6.6.",
"6.6.6.6.6.6.6.6.6.6.6.6.6.6.6.6.6.6.6.6.6.6.6.6.6.6.6.6.6.6.6.6.6.6.6.6.",
"6.6.6.6.6.6.6.6.6.6.6.6.6.6.6.6.6.6.6.6.6.6.6.6.6.6.6.6.6.6.6.6.6.6.6.6.",
"6.6.6.6.6.6.6.6.6.6.6.6.6.6.6.6.6.6.6.6.6.6.6.6.6.6.6.6.6.6.6.6.6.6.6.6.",
"6.6.6.6.6.6.6.6.6.6.6.6.6.6.6.6.6.6.6.6.6.6.6.6.6.6.6.6.6.6.6.6.6.6.6.6.",
"6.6.6.6.6.6.6.6.6.6.6.6.6.6.6.6.6.6.6.6.6.6.6.6.6.6.6.6.6.6.6.6.6.6.6.6.",
"6.6.6.6.6.6.6.6.6.6.6.6.6.6.6.6.6.6.6.6.6.6.6.6.6.6.6.6.6.6.6.6.6.6.6.6.",
"6.6.6.6.6.6.6.6.6.6.6.6.6.6.6.6.6.6.6.6.6.6.6.6.6.6.6.6.6.6.6.6.6.6.6.6.",
"6.6.6.6.6.6.6.6.6.6.6.6.6.6.6.6.6.6.6.6.6.6.6.6.6.6.6.6.6.6.6.6.6.6.6.6."
};
