/* XPM */
static char *pidgin_tray_offline_png[] = {
/* columns rows colors chars-per-pixel */
"36 36 80 1 ",
"  c #171A1B",
". c #1B1F21",
"X c #1D2323",
"o c #202526",
"O c #24292B",
"+ c #292D2E",
"@ c #2C3133",
"# c #383C3F",
"$ c #3D4243",
"% c #414647",
"& c #424749",
"* c #474C4D",
"= c #494E4F",
"- c #4E5354",
"; c #525757",
": c #535759",
"> c #575C5C",
", c #595D5D",
"< c #5C6161",
"1 c #606464",
"2 c #656968",
"3 c #6A6D6E",
"4 c #72746F",
"5 c #6E7272",
"6 c #727574",
"7 c #777874",
"8 c #797B76",
"9 c #757979",
"0 c #7C7E7B",
"q c #7E807C",
"w c #80827D",
"e c #7E8180",
"r c #848582",
"t c #868884",
"y c #888A85",
"u c #878988",
"i c #8C8D8B",
"p c #8F918D",
"a c #91928E",
"s c #939592",
"d c #969895",
"f c #989A96",
"g c #97999A",
"h c #9B9D99",
"j c #9EA09D",
"k c #A1A29F",
"l c #9EA1A1",
"z c #A4A5A2",
"x c #A7A9A5",
"c c #A9AAA6",
"v c #ACADAB",
"b c #AFB0AC",
"n c #B0B1AD",
"m c #AFB1B2",
"M c #B5B6B4",
"N c #B8B9B7",
"B c #BDBDBC",
"V c #BFC2BB",
"C c #C0C1BE",
"Z c #C4C5C2",
"A c #C6C8C3",
"S c #C8CAC6",
"D c #CCCDCA",
"F c #CFD0CC",
"G c #D1D2CE",
"H c #CECFD0",
"J c #D4D4D2",
"K c #D7D8D6",
"L c #D8D9D5",
"P c #D9DAD9",
"I c #DFE0DD",
"U c #E0E0DF",
"Y c #E3E4E2",
"T c #E7E8E6",
"R c #E9EAE7",
"E c #E7E7E8",
"W c #EFEFEF",
"Q c #F0EFEF",
"! c #F3F3F3",
"~ c None",
/* pixels */
"~~~~~~~~~~~~~~~~~~~~~~~~~~~~~~~~~~~~",
"~~~~~~~~~~~~~~~~~~~~~~~~~~~~~~~~~~~~",
"~~BPPPPPPKPPPPPPPPPPPKPH~~~~~~~~~~~~",
"~~P!!!!!!!!!!!!!!!!!!!!Ep~~~~~~~~~~~",
"~~P!QWQWWWWWWWWW!WWQWWWWp~~~~~~~~~~~",
"~~K!QQWQ!WWWWWWWQWWQWQWWp~~~~~~~~~~~",
"~~K!WQQWWWWWWW!WWWQWQQQWp~~~~~~~~~~~",
"~~K!QWWQWWWWW!WWQWWQWWQWs~~~~~~~~~~~",
"~~P!QWQQWWQWWWWWWWW!WQWWp~~~~~~~~~~~",
"~~P!WWWWQWWQWWWWWWWWWWWWp~~~~~~~~~~~",
"~~P!WQWQWQQW!WWWWW!WQWQWp~~~~~~~~~~~",
"~~P!QWQWWWQWWWWWW!EPMi06:&~~~~~~~~~~",
"~~P!QQQWQWQWQW!WWHg5qdzzzhr<=~~~~~~~",
"~~P!QQWQWQWQQW!Em9ucnbvvvvnbs2~~~~~~",
"~~P!QWQWQQWWWWEl9lvlzcccccchxx9$~~~~",
"~~P!WQWQWWQWQWv6zzietkzzzzieulve$~~~",
"~~P!WQWQQWWW!Z7jzidDcrjkjysFcrjx5~~~",
"~~P!WWQWWQWQEipktdKRUxrdtsJRUzrhj-~~",
"~~P!QWWWWQQ!Z9kyiKWWRIx8sPQQRUhqzq~~",
"~~P!WQWWQWQWlejyrAERWWInKRQRRKsqfs=~",
"~~P!!!!WW!!ErssprwAEWTRRRRRRKaqpah2~",
"~~ZUPU!!!WPH5fpiiwwAYYYYYYYFp0yiif6~",
"~~~iid!!Uvr6<jyyyy0wDIIPIIKy8yyyyf6~",
"~~~~~uQHg~~~>jyyyt7aJLLLLLKh7yyyyd6~",
"~~~~~uNu~~~~,fyywwaGLGGGFGGJh8wyyd5~",
"~~~~~0~~~~~~-pptwfCLCFGLGDFGGf8yid1~",
"~~~~~~~~~~~~~qdqwCLCCLCaBFCCSDs8pp%~",
"~~~~~~~~~~~~~1hqwCCCCCw8qNFVCDs8h6~~",
"~~~~~~~~~~~~~#wfwwCLCwwaqqNFSs8as%~~",
"~~~~~~~~~~~~~~-skwwVwwpwwwqbs8ah<~~~",
"~~~~~~~~~~~~~~~>ffw4wppwiww48ah2o~~~",
"~~~~~~~~~~~~~~~o-akwwpwpwpyyhs<O~~~~",
"~~~~~~~~~~~~~~~~X%3dhdspashh9=o ~~~~",
"~~~~~~~~~~~~~~~~~~+$>9titq1$+X~~~~~~",
"~~~~~~~~~~~~~~~~~~~~~@@@@@O~~~~~~~~~",
"~~~~~~~~~~~~~~~~~~~~~~~~~~~~~~~~~~~~"
};
