/* XPM */
static char *pidgin_tray_xa_png[] = {
/* columns rows colors chars-per-pixel */
"36 36 206 2 ",
"   c #6B651F",
".  c #776F18",
"X  c #686321",
"o  c #6B662D",
"O  c #706B2C",
"+  c #7E7623",
"@  c #78722D",
"#  c #6D6930",
"$  c #607A7F",
"%  c #7A7A7A",
"&  c #827A1D",
"*  c #BB7D14",
"=  c #837B26",
"-  c #817928",
";  c #857F3A",
":  c #69817E",
">  c #8F8414",
",  c #938814",
"<  c #998D1A",
"1  c #BC851C",
"2  c #BBAA17",
"3  c #948922",
"4  c #948A2C",
"5  c #998E28",
"6  c #9C9122",
"7  c #9C9129",
"8  c #8F883C",
"9  c #908835",
"0  c #BD8C26",
"q  c #A39822",
"w  c #AB9E22",
"e  c #A2972F",
"r  c #A59929",
"t  c #BE8B35",
"y  c #BC8C3B",
"u  c #A1983F",
"i  c #A89E3F",
"p  c #BAAA20",
"a  c #B7A92A",
"s  c #BFB02B",
"d  c #AFA339",
"f  c #B9AC32",
"g  c #BAAE3A",
"h  c #C58315",
"j  c #CBB816",
"k  c #C48923",
"l  c #C88C25",
"z  c #C3942A",
"x  c #CC992E",
"c  c #CB9934",
"v  c #CC9B3D",
"b  c #C3B42C",
"n  c #CABA2B",
"m  c #D2A038",
"M  c #C2B435",
"N  c #C6B83B",
"B  c #CCBE3E",
"V  c #D4C00B",
"C  c #DCC715",
"Z  c #E5CE05",
"A  c #E6CF0A",
"S  c #EDD401",
"D  c #EDD509",
"F  c #F1D907",
"G  c #EDD713",
"H  c #EFD814",
"J  c #EFD91A",
"K  c #F0D916",
"L  c #D5C322",
"P  c #D9C721",
"I  c #D3C333",
"U  c #DCCA35",
"Y  c #D5C63D",
"T  c #E2CF2B",
"R  c #E6D220",
"E  c #E8D320",
"W  c #E8D52D",
"Q  c #F0DB20",
"!  c #F0DB2C",
"~  c #EDDA36",
"^  c #E5D53F",
"/  c #F0DD37",
"(  c #B3A741",
")  c #B5AA4B",
"_  c #BCB044",
"`  c #988970",
"'  c #84947A",
"]  c #A2A973",
"[  c #CB9C41",
"{  c #D9AE44",
"}  c #D7AB4C",
"|  c #CEA257",
" . c #CDA45C",
".. c #D3A75B",
"X. c #DDB752",
"o. c #DDB85A",
"O. c #DFBB61",
"+. c #DDCD42",
"@. c #D2C448",
"#. c #DCCE4B",
"$. c #D6C953",
"%. c #D8CA53",
"&. c #E3D240",
"*. c #EDDB41",
"=. c #EADB4E",
"-. c #F2DF42",
";. c #F0DF4E",
":. c #E3D557",
">. c #EADA57",
",. c #EDD65B",
"<. c #EFDC5B",
"1. c #F1DE5A",
"2. c #F3E24E",
"3. c #F8E64F",
"4. c #F2E251",
"5. c #F3E35A",
"6. c #E3C365",
"7. c #E7CB64",
"8. c #EBD362",
"9. c #E4D967",
"0. c #EBD46B",
"q. c #E3DA72",
"w. c #F0DE73",
"e. c #F0DE7F",
"r. c #F5E665",
"t. c #F7E865",
"y. c #F5E769",
"u. c #F5E771",
"i. c #F6E872",
"p. c #F3E17C",
"a. c #F6E97C",
"s. c #2A5694",
"d. c #2B5895",
"f. c #325C96",
"g. c #385F96",
"h. c #36619B",
"j. c #3E669C",
"k. c #3464A3",
"l. c #3865A2",
"z. c #3968A6",
"x. c #3C6CA8",
"c. c #415F82",
"v. c #43699D",
"b. c #547196",
"n. c #56759C",
"m. c #59769F",
"M. c #647E94",
"N. c #426CA3",
"B. c #426FAA",
"V. c #4670A7",
"C. c #4D73A2",
"Z. c #4671AA",
"A. c #5476A4",
"S. c #5C7FAC",
"D. c #4F7AB2",
"F. c #547CB1",
"G. c #788D85",
"H. c #6B87AF",
"J. c #668BBC",
"K. c #868686",
"L. c #8A8881",
"P. c #8D8D8D",
"I. c #949494",
"U. c #989898",
"Y. c #97A383",
"T. c #B4B38C",
"R. c #B0B292",
"E. c #8893A0",
"W. c #899EBD",
"Q. c #A9A9A9",
"!. c #B7B7B7",
"~. c #BFBFBF",
"^. c #CEC78B",
"/. c #DCD69A",
"(. c #E2DA86",
"). c #F2E283",
"_. c #F7EB86",
"`. c #F3E388",
"'. c #F7EB8B",
"]. c #F1E091",
"[. c #F7EC93",
"{. c #F8ED94",
"}. c #F4E59B",
"|. c #F7ED9C",
" X c #F8ED9F",
".X c #F9EFA0",
"XX c #F9F0A0",
"oX c #91A4C0",
"OX c #98AAC4",
"+X c #B0BDCF",
"@X c #B7C2D2",
"#X c #BBC6D5",
"$X c #C1C1C1",
"%X c #CBCBCB",
"&X c #C4CDD9",
"*X c #CFD6DF",
"=X c #D1D1D1",
"-X c #D9D9D9",
";X c #D9DDE4",
":X c #E1E1E1",
">X c #E3E6E9",
",X c #E6E9EC",
"<X c #EFEFEF",
"1X c #F0F0EF",
"2X c #F3F3F3",
"3X c None",
/* pixels */
"3X3X3X3X3X3X3X3X3X3X3X3X3X3X3X3X3X3X3X3X3X3X3X3X3X3X3X3X3X3X3X3X3X3X3X3X",
"3X3X3X3X3X3X3X3X3X3X3X3X3X3X3X3X3X3X3X3X3X3X3X3X3X3X3X3X3X3X3X3X3X3X3X3X",
"3X3X~.-X-X-X-X-X-X-X-X-X-X-X-X-X-X-X-X-X-X-X-X%X3X3X3X3X3X3X3X3X3X3X3X3X",
"3X3X-X2X2X2X2X2X2X2X2X2X2X2X2X2X2X2X2X2X2X2X2X<XP.3X3X3X3X3X3X3X3X3X3X3X",
"3X3X-X2X1X<X<X<X<X<X1X<X<X<X<X<X<X<X<X<X<X<X1X<XI.3X3X3X3X3X3X3X3X3X3X3X",
"3X3X-X2X1X1X<X1X<X<X<X<X1X<X<X<X<X<X<X<X<X1X1X,XP.3X3X3X3X3X3X3X3X3X3X3X",
"3X3X-X2X<X<X<X<X<X<X<X<X<X<X<X<X<X<X<X<X<X<X1X<XP.3X3X3X3X3X3X3X3X3X3X3X",
"3X3X-X2X<X<X1X<X<X<X1X<X<X<X<X1X<X<X<X<X<X1X1X<XP.3X3X3X3X3X3X3X3X3X3X3X",
"3X3X-X2X<X1X<X<X1X<X1X<X<X<X<X<X<X<X<X<X<X<X1X,XI.3X3X3X3X3X3X3X3X3X3X3X",
"3X3X-X2X<X<X<X<X<X<X<X<X<X<X<X<X<X1X<X<X1X1X1X<XP.3X3X3X3X3X3X3X3X3X3X3X",
"3X3X-X2X<X1X<X1X<X<X1X<X<X1X<X<X<X<X1X<X<X<X1X<XP.3X3X3X3X3X3X3X3X3X3X3X",
"3X3X-X2X<X<X<X<X<X1X<X<X<X<X<X<X1X<X<X<X<X<X1X<XI.3X3X3X3X3X3X3X3X3X3X3X",
"3X3X-X2X<X<X<X<X1X<X<X<X<X1X<X1X1X1X2X1X<X<X1X,XP.3X3X3X3X3X3X3X3X3X3X3X",
"3X3X-X2X<X<X<X<X<X<X1X<X<X1X1X>X+XoXOX&X<X1X<X<XP.3X3X3X3X3X3X3X3X3X3X3X",
"3X3X-X2X<X<X<X<X<X<X<X1X1X*XE.m.h.d.v.A.L. .....y l l l l l l h 3X3X3X3X",
"3X3X-X2X<X<X<X<X1X<X1X1X;XH.j.B.N.d.k.H.m.R.}.}.}.}.}.}.}.}.].{ 3X3X3X3X",
"3X3X-X2X<X<X<X<X1X1X1X1X#XN.B.z.Z.V.d.x.J.G./. XXXXX.X.X.X.XXXX.3X3X3X3X",
"3X3X-X2X<X1X<X1X1X1X1X2X+Xh.x.k.k.Z.d.k.J.b.R.].[.[.[.[.[.[.|.X.3X3X3X3X",
"3X3X-X2X<X<X<X<X1X<X1X1X&Xv.k.k.z.h.d.k.J.b.(.'.'.'._._._.'.[.X.3X3X3X3X",
"3X3X-X2X<X<X1X1X<X<X1X1X,XW.f.s.d.d.k.D.H.Y.a.a.a.a.a.a.a.a.'.X.3X3X3X3X",
"3X3X-X2X2X2X1X1X1X1X1X2X2X,X` c.d.k.x.C.G.q.y.u.u.u.u.w.u.u._.X.3X3X3X3X",
"3X3X$X-X-X:X2X1X2X<X-X-X-X;X..^.' $ : ] 9.t.r.r.r.r.r.r.r.r._.X.3X3X3X3X",
"3X3X3XP.P.I.2X2X:XQ.K.3XK.K.z `.5.5.5.5.5.<.>.>.5.$.) $.$.:.i.X.3X3X3X3X",
"3X3X3X3X3XP.1X=XU.3X3X3X3X3Xl ).4.;.2.2._ 8 8 @.3.( ( u _ #.i.X.3X3X3X3X",
"3X3X3X3X3XK.!.P.3X3X3X3X3X3Xl ).+.d &.B 9 # o g -.N Y Y *.-.y.$.3X3X3X3X",
"3X3X3X3X3X% 3X3X3X3X3X3X3X3Xl ).M o f @ e O 4 U ~ ~ ~ U f I r.O.3X3X3X3X",
"3X3X3X3X3X3X3X3X3X3X3X3X3X3Xl p.M = 7 r T 4 b ! s I W a 5 - =.6.3X3X3X3X",
"3X3X3X3X3X3X3X3X3X3X3X3X3X3Xl p.L 2 6 P J R R P + 6 6 < w X ^ 7.3X3X3X3X",
"3X3X3X3X3X3X3X3X3X3X3X3X3X3Xl w.J G G G G G C <   & < 2 j < W 8.x 3X3X3X",
"3X3X3X3X3X3X3X3X3X3X3X3X3X3Xl w.G D D D D F D , . , j F D Z G <.m 3X3X3X",
"3X3X3X3X3X3X3X3X3X3X3X3X3X3Xl w.D S S S S S S Z Z Z D G G J J r.} 3X3X3X",
"3X3X3X3X3X3X3X3X3X3X3X3X3X3Xk e.5.5.5.5.5.5.5.5.5.5.5.5.1.<.,.0.{ h 3X3X",
"3X3X3X3X3X3X3X3X3X3X3X3X3X3X* c v [ [ [ [ [ [ v v c c x z z z 0 1 3X3X3X",
"3X3X3X3X3X3X3X3X3X3X3X3X3X3X3X3X3X3X3X3X3X3X3X3X3X3X3X3X3X3X3X3X3X3X3X3X",
"3X3X3X3X3X3X3X3X3X3X3X3X3X3X3X3X3X3X3X3X3X3X3X3X3X3X3X3X3X3X3X3X3X3X3X3X",
"3X3X3X3X3X3X3X3X3X3X3X3X3X3X3X3X3X3X3X3X3X3X3X3X3X3X3X3X3X3X3X3X3X3X3X3X"
};
