/* XPM */
static char * not_running_xpm[] = {
"36 36 125 2",
"  	c None",
". 	c #DB3333",
"+ 	c #BDBDBC",
"@ 	c #D9DAD9",
"# 	c #F3F3F3",
"$ 	c #E7E7E8",
"% 	c #F0EFEF",
"& 	c #EFEFEF",
"* 	c #8F918D",
"= 	c #D7D8D6",
"- 	c #E59292",
"; 	c #DB3636",
"> 	c #E6A3A3",
", 	c #DE5454",
"' 	c #939592",
") 	c #EDDCDC",
"! 	c #E16F6F",
"~ 	c #DC3C3C",
"{ 	c #E9BFBF",
"] 	c #DF5858",
"^ 	c #DD4A4A",
"/ 	c #EABFBF",
"( 	c #B5B6B4",
"_ 	c #8C8D8B",
": 	c #7C7E7B",
"< 	c #727574",
"[ 	c #535759",
"} 	c #424749",
"| 	c #CECFD0",
"1 	c #97999A",
"2 	c #6E7272",
"3 	c #7E807C",
"4 	c #969895",
"5 	c #A4A5A2",
"6 	c #9B9D99",
"7 	c #848582",
"8 	c #5C6161",
"9 	c #494E4F",
"0 	c #D54242",
"a 	c #8E6767",
"b 	c #878988",
"c 	c #A9AAA6",
"d 	c #B0B1AD",
"e 	c #AFB0AC",
"f 	c #ACADAB",
"g 	c #656968",
"h 	c #DC4949",
"i 	c #D34040",
"j 	c #B78E8C",
"k 	c #9EA1A1",
"l 	c #A7A9A5",
"m 	c #757979",
"n 	c #3D4243",
"o 	c #CD3B3B",
"p 	c #CB4544",
"q 	c #877978",
"r 	c #868884",
"s 	c #A1A29F",
"t 	c #7E8180",
"u 	c #C4C5C2",
"v 	c #777874",
"w 	c #AD8482",
"x 	c #D83838",
"y 	c #D66463",
"z 	c #AD9E9A",
"A 	c #9EA09D",
"B 	c #888A85",
"C 	c #CFD0CC",
"D 	c #A86563",
"E 	c #D93434",
"F 	c #DC6A6A",
"G 	c #AC9D99",
"H 	c #D4D4D2",
"I 	c #E9EAE7",
"J 	c #E0E0DF",
"K 	c #4E5354",
"L 	c #D89594",
"M 	c #DC7877",
"N 	c #797B76",
"O 	c #C6C8C3",
"P 	c #E29E9E",
"Q 	c #DC8987",
"R 	c #989A96",
"S 	c #80827D",
"T 	c #E08C8D",
"U 	c #E18E8C",
"V 	c #91928E",
"W 	c #DE8B8A",
"X 	c #E3E4E2",
"Y 	c #CCCDCA",
"Z 	c #DD9A98",
"` 	c #575C5C",
" .	c #D8D9D5",
"..	c #D97573",
"+.	c #DA3636",
"@.	c #B8B9B7",
"#.	c #595D5D",
"$.	c #D1D2CE",
"%.	c #D1C2BE",
"&.	c #D76664",
"*.	c #D69291",
"=.	c #C0C1BE",
"-.	c #D8C8C5",
";.	c #DA3B3A",
">.	c #D3AAA7",
",.	c #BFAFAE",
"'.	c #D85251",
").	c #D84545",
"!.	c #CFA6A4",
"~.	c #414647",
"{.	c #606464",
"].	c #C09795",
"^.	c #D94646",
"/.	c #D94645",
"(.	c #383C3F",
"_.	c #BFC2BB",
":.	c #BA908D",
"<.	c #D13F3E",
"[.	c #72746F",
"}.	c #202526",
"|.	c #24292B",
"1.	c #1D2323",
"2.	c #6A6D6E",
"3.	c #171A1B",
"4.	c #292D2E",
"                            . . . . . . . . .                           ",
"                      . . . . . . . . . . . . . . .                     ",
"    + @ @ @ @ @ @ . . . . . . . @ @ @ @ @ . . . . . . .                 ",
"    @ # # # # . . . . . . # # # # # # # # # # $ . . . . . .             ",
"    @ # % & . . . . . & & & & & # & & % & & & & *   . . . . .           ",
"    = # % . . . . - & & & & & & % & & % & % & & *       . . . .         ",
"    = # & . . . . ; > & & & # & & & % & % % % & *         . . .         ",
"    = # . . . , . . ; > & # & & % & & % & & % & '           . . .       ",
"    @ . . . . ) ! . . ~ { & & & & & & # & % & & *           . . . .     ",
"    @ . . . & & ) ] . . ^ { & & & & & & & & & & *             . . .     ",
"    . . . % & % & / ^ . . ^ { & & & # & % & % & *               . . .   ",
"    . . . & % & & & / ^ . . ^ { & # $ @ ( _ : < [ }             . . .   ",
"    . . % % % & % & % { ^ . . ^ { | 1 2 3 4 5 5 5 6 7 8 9         . .   ",
"  . . . % % & % & % & % / ^ . . 0 a b c d e f f f f d e ' g       . . . ",
"  . . . % & % & % % & & & { h . . i j k 5 c c c c c c 6 l l m n   . . . ",
"  . . # & % & % & & % & % & j o . . p q r s 5 5 5 5 _ t b k f t n   . . ",
"  . . # & % & % % & & & # u v w x . . y z 7 A s A B ' C c 7 A l 2   . . ",
"  . . # & & % & & % & % $ _ * s D E . . F G 7 4 r ' H I J 5 7 6 A K . . ",
"  . . # % & & & & % % # u m s B _ L ; . . M l N ' @ % % I J 6 3 5 3 . . ",
"  . . # & % & & % & % & k t A B 7 O P . . . Q d = I % I I = ' 3 R ' . . ",
"  . . # # # # & & # # $ 7 ' ' * 7 S O T . . . U I I I I = V 3 * V 6 . . ",
"  . . . @ J # # # & @ | 2 R * _ _ S S O W . . . W X X C * : B _ _ . . . ",
"  . . . _ 4 # # J f 7 < 8 A B B B B : S Y Q . . . Z = B N B B B B . . . ",
"    . .   b % | 1       ` A B B B r v V H  .... . +.L 6 v B B B B . .   ",
"    . . . b @.b         #.R B B S S V $. .$.%.&.. . +.*.6 N S B . . .   ",
"    . . . :             K * * r S R =. .=.C $.-.&.. . ;.>.R N B . . .   ",
"      . . .               3 4 3 S =. .=.=. .=.V ,.'.. . ).!.' . . . ~.  ",
"      . . . .             {.6 3 S =.=.=.=.=.S N 3 ].^.. . /.. . . .     ",
"        . . .             (.S R S S =. .=.S S V 3 3 ].^.. . . . . ~.    ",
"          . . .             K ' s S S _.S S * S S S 3 :.<.. . . 8       ",
"          . . . .             ` R R S [.S * * S _ S S [.. . . . }.      ",
"            . . . . .         }.K V s S S * S * S * . . . . . |.        ",
"              . . . . . .       1.~.2.4 6 4 ' * . . . . . . }.3.        ",
"                  . . . . . . .     4.n ` . . . . . . . 4.1.            ",
"                      . . . . . . . . . . . . . . . |.                  ",
"                            . . . . . . . . .                           "};
