/* XPM */
static char *pidgin_tray_pending_png[] = {
/* columns rows colors chars-per-pixel */
"36 36 227 2 ",
"   c #7A7A7A",
".  c #CF5F02",
"X  c #D06109",
"o  c #D16509",
"O  c #D56B11",
"+  c #D56C13",
"@  c #D46C14",
"#  c #D66E16",
"$  c #D66F19",
"%  c #D56F1A",
"&  c #D4721E",
"*  c #D5721E",
"=  c #D6721F",
"-  c #D8751E",
";  c #C9722A",
":  c #D67320",
">  c #D77320",
",  c #D77420",
"<  c #D77521",
"1  c #D77522",
"2  c #D87521",
"3  c #D87623",
"4  c #DA7D2B",
"5  c #A37C5D",
"6  c #DE812B",
"7  c #DF8535",
"8  c #E38F3D",
"9  c #FCAF3E",
"0  c #FCAF3F",
"q  c #D68C4E",
"w  c #DC9152",
"e  c #DC9153",
"r  c #DD9254",
"t  c #DD955A",
"y  c #E69A4F",
"u  c #E69B51",
"i  c #E79B51",
"p  c #E69B52",
"a  c #E79C52",
"s  c #E39B57",
"d  c #E99F53",
"f  c #FBB143",
"g  c #FCB040",
"h  c #FCB143",
"j  c #FBB247",
"k  c #FCB144",
"l  c #FCB244",
"z  c #FBB248",
"x  c #FBB348",
"c  c #FBB44B",
"v  c #FDB549",
"b  c #FDB54A",
"n  c #FBB44C",
"m  c #FAB54F",
"M  c #FCB64D",
"N  c #E8A056",
"B  c #FAB550",
"V  c #FAB653",
"C  c #FAB753",
"Z  c #FCB751",
"A  c #FAB754",
"S  c #FCB851",
"D  c #F9B856",
"F  c #FAB857",
"G  c #FCB955",
"H  c #FAB858",
"J  c #FAB958",
"K  c #FBBA59",
"L  c #FAB95A",
"P  c #FABA5B",
"I  c #FBBB5B",
"U  c #FCBB5B",
"Y  c #FABA5C",
"T  c #F9BA5E",
"R  c #FABB5F",
"E  c #FDBD5E",
"W  c #EEAD66",
"Q  c #EFB06B",
"!  c #F9BB60",
"~  c #FABB60",
"^  c #FABC61",
"/  c #F9BC62",
"(  c #F9BC64",
")  c #F9BD64",
"_  c #FABE65",
"`  c #F9BD67",
"'  c #F0B068",
"]  c #F0B168",
"[  c #F0B169",
"{  c #F0B16A",
"}  c #F3B469",
"|  c #F6BC6F",
" . c #F9BE68",
".. c #F9BF68",
"X. c #F9BF69",
"o. c #F8BF6B",
"O. c #F8BF6C",
"+. c #F8BE70",
"@. c #F9BF70",
"#. c #F8BF71",
"$. c #F8BF72",
"%. c #F8BF73",
"&. c #F9C06C",
"*. c #F9C06D",
"=. c #F8C06F",
"-. c #FBC16F",
";. c #FCC46F",
":. c #F7C177",
">. c #F7C477",
",. c #F8C170",
"<. c #F9C071",
"1. c #F8C270",
"2. c #F8C073",
"3. c #F8C273",
"4. c #FBC472",
"5. c #FCC573",
"6. c #F8C074",
"7. c #F8C175",
"8. c #F8C274",
"9. c #F8C374",
"0. c #F8C375",
"q. c #F9C176",
"w. c #FCC675",
"e. c #F7C178",
"r. c #F7C478",
"t. c #F6C57B",
"y. c #F7C37D",
"u. c #F7C37F",
"i. c #F7C57C",
"p. c #F7C67C",
"a. c #F7C47F",
"s. c #F8C37B",
"d. c #F8C478",
"f. c #F8C579",
"g. c #FBC778",
"h. c #FBC87C",
"j. c #FBC97F",
"k. c #858484",
"l. c #888888",
"z. c #898989",
"x. c #8A8A8A",
"c. c #8B8B8B",
"v. c #8C8C8C",
"b. c #8E8E8E",
"n. c #8F8F8F",
"m. c #8D9093",
"M. c #949494",
"N. c #989898",
"B. c #A9A9A9",
"V. c #B7B7B7",
"C. c #BFBFBF",
"Z. c #F4C283",
"A. c #F7C481",
"S. c #F6C680",
"D. c #F6C780",
"F. c #F7C780",
"G. c #F7C781",
"H. c #F6C482",
"J. c #F7C582",
"K. c #F7C583",
"L. c #F7C685",
"P. c #F6C686",
"I. c #F6C687",
"U. c #F8C482",
"Y. c #F8C683",
"T. c #F6C884",
"R. c #F6C984",
"E. c #F6C885",
"W. c #F6C985",
"Q. c #FACA82",
"!. c #FACC84",
"~. c #F6C788",
"^. c #F6C789",
"/. c #F7C889",
"(. c #F5CA88",
"). c #F6CA88",
"_. c #F6CB89",
"`. c #F5CB8C",
"'. c #F5CB8D",
"]. c #FACD88",
"[. c #F9CE8B",
"{. c #F9CF8D",
"}. c #F5CD91",
"|. c #F5CD92",
" X c #F5CE94",
".X c #F5CF95",
"XX c #F5CF96",
"oX c #F9D090",
"OX c #F8D194",
"+X c #F8D297",
"@X c #F8D39A",
"#X c #F8D49B",
"$X c #E5C0A0",
"%X c #E4C4AC",
"&X c #E5C6AD",
"*X c #E6C6AD",
"=X c #E8D1BF",
"-X c #C1C1C1",
";X c #CBCBCB",
":X c #D1D1D1",
">X c #D8D8D8",
",X c #D9D9D9",
"<X c #DAD9D9",
"1X c #DBDBDB",
"2X c #DCDCDC",
"3X c #DEDEDE",
"4X c #E1E1E1",
"5X c #EEEAE7",
"6X c #ECECEC",
"7X c #EDEDED",
"8X c #EEEEEE",
"9X c #EFEEEE",
"0X c #EFEFEE",
"qX c #EFEFEF",
"wX c #EFEFF0",
"eX c #EEF0F2",
"rX c #EFF1F2",
"tX c #F0F0F0",
"yX c #F1F1F1",
"uX c #F2F2F2",
"iX c #F3F3F3",
"pX c #F0F2F4",
"aX c #F4F4F4",
"sX c #F5F5F5",
"dX c #F6F6F6",
"fX c #F7F7F7",
"gX c None",
/* pixels */
"gXgXgXgXgXgXgXgXgXgXgXgXgXgXgXgXgXgXgXgXgXgXgXgXgXgXgXgXgXgXgXgXgXgXgXgX",
"gXgXgXgXgXgXgXgXgXgXgXgXgXgXgXgXgXgXgXgXgXgXgXgXgXgXgXgXgXgXgXgXgXgXgXgX",
"gXgXC.>X>X>X>X>X>X>X>X>X>X>X>X>X>X>X>X>X>X>X>X;XgXgXgXgXgXgXgXgXgXgXgXgX",
"gXgX>XdXiXiXiXiXiXiXiXiXiXiXiXiXiXiXiXaXiXiXiX6Xb.gXgXgXgXgXgXgXgXgXgXgX",
"gXgX>XiXqXqXqXqXqXqXqXqXqXqXqXqXqXqXqXqXqXqXqXqXb.gXgXgXgXgXgXgXgXgXgXgX",
"gXgX>XiXqXqXqXqXqXqXqXqXqXqXqXqXqXqXqXqXqXqXqX6Xb.gXgXgXgXgXgXgXgXgXgXgX",
"gXgX>XiXqXqXqXqXqXqXqXqXqXqXqXqXqXqXqXqXqXqXwXqXM.gXgXgXgXgXgXgXgXgXgXgX",
"gXgX>XiXqXqXqXqXqXqXqXqXqXqXqXrXqXqXqXqXqXqXwXqXb.gXgXgXgXgXgXgXgXgXgXgX",
"gXgX>XiXqXqXqXqXqXqXqXqXrXrXrXrXrXrXrXrXrXrXrXwXm.gXgXgXgXgXgXgXgXgXgXgX",
"gXgX>XiXqXqXqXqXqXqXqX5X=X&X&X&X&X&X&X&X*X&X&X&X5 gXgXgXgXgXgXgXgXgXgXgX",
"gXgX>XiXqXqXqXqXqXqXqX$Xs p p p a a p p a a a a p p p p p p p p y 8 gXgX",
"gXgX>XiXqXqXqXqXqXqXqXt Z.#X#X#X#X#X@XOXoXoX[.!.!.Q.j.h.w.w.4.;.r.' gXgX",
"gXgX>XiXqXqXqXqXqXqXqXw ~..X.X.X.X}.`.).T.i.i.t.1.1.| ( / R P A P } . gX",
"gXgX>XiXqXqXqXqXqXqXqXw ~..X.X.X}.`.).T.S.i.t.1.1.*.( ( R P A V P ' gXgX",
"gXgX>XiXqXqXqXqXqXqXqXw ~..X.X}.'.).T.S.t.>.>.*.*.X.( ! R A A V G } gXgX",
"gXgX>XdXqXqXqXqXqXqXqXw ~..X}.`.).T.S.i.>.>.1.*.X.( ! P A V m c V } gXgX",
"gXgX>XiXqXqXqXqXqXqXqXr ~.}.`.).T.G.i.t.>.| &.&./ / P F V V c l M ' gXgX",
"gXgX>XiXqXqXqXqXqXqXqXw ~.}.).T.G.i.r.9.,.O.( ( R P F V m b l f b ' gXgX",
"gXgX>XiXqXqXqXqXqXqXqXw L.).T.S.f.t.9.1.X.X.( R P F V m m l l g b ' gXgX",
"gXgX>XiXqXqXqXqXqXqXwXr L.T.S.i.f.>.*.&.X.( ! R F V m c l l 9 9 x } gXgX",
"gXgX>XdXiXiXqXqXqXiXiXw L.S.i.f.9.1.X.X.( ! P A B m c c l g 9 9 v ' gXgX",
"gXgX-X3X3X4XiXqXaX6X>Xq U.i.f.9.*.&.X.( ! P A V m c c g g 9 9 9 b ' gXgX",
"gXgXgXz.v.M.iXfX3XB.k.; U.i.9.*.*.X.( ! R H V m c c l g 9 9 9 9 b ' gXgX",
"gXgXgXgXgXz.qX:XN.gXgX% S.9.1.*.X.( ! P A A m m c g 9 9 9 9 9 9 x } gXgX",
"gXgXgXgXgXz.V.z.gXgXgX% S.1.X.X.( ! Y H V m c c g g 9 9 9 9 9 9 b ' gXgX",
"gXgXgXgXgX  gXgXgXgXgX% A.O.X./ ! Y H A m m l l g 9 9 9 9 9 9 9 b ' gXgX",
"gXgXgXgXgXgXgXgXgXgXgX% u.X.( R Y H B B c l l g 9 9 9 9 9 9 9 9 b ' gXgX",
"gXgXgXgXgXgXgXgXgXgXgX% u.( ! R H V m c c f g 9 9 9 9 9 9 9 9 9 x } gXgX",
"gXgXgXgXgXgXgXgXgXgXgX% y.! P P A V m c l g 0 g 9 g 9 9 9 g 9 9 b } gXgX",
"gXgXgXgXgXgXgXgXgXgXgX# Q s.e.e.%.%.+.+.+.+.O.+.+.+.@.Z 9 H +.+.+.N gXgX",
"gXgXgXgXgXgXgXgXgXgXgXgX# < 2 < < < > > > > = = = = 8 O.E s.4 3 < gXgXgX",
"gXgXgXgXgXgXgXgXgXgXgXgXgXgXgXgXgXgXgXgXgXgXgXgXgXgXgX4 } U.@ gXgXgXgXgX",
"gXgXgXgXgXgXgXgXgXgXgXgXgXgXgXgXgXgXgXgXgXgXgXgXgXgXgXgX- d O gXgXgXgXgX",
"gXgXgXgXgXgXgXgXgXgXgXgXgXgXgXgXgXgXgXgXgXgXgXgXgXgXgXgXgXo . gXgXgXgXgX",
"gXgXgXgXgXgXgXgXgXgXgXgXgXgXgXgXgXgXgXgXgXgXgXgXgXgXgXgXgXgXgXgXgXgXgXgX",
"gXgXgXgXgXgXgXgXgXgXgXgXgXgXgXgXgXgXgXgXgXgXgXgXgXgXgXgXgXgXgXgXgXgXgXgX"
};
