/* XPM */
static char * thunderbird_on_xpm[] = {
"18 40 235 2",
"  	c None",
". 	c #000000",
"+ 	c #071527",
"@ 	c #1E5697",
"# 	c #092643",
"$ 	c #2768A4",
"% 	c #4F8BB3",
"& 	c #6FAECF",
"* 	c #4B87AB",
"= 	c #256598",
"- 	c #145893",
"; 	c #115491",
"> 	c #125A9C",
", 	c #072643",
"' 	c #092948",
") 	c #3F7FB3",
"! 	c #77B9DE",
"~ 	c #80BED9",
"{ 	c #619CC3",
"] 	c #3884BA",
"^ 	c #2E80BA",
"/ 	c #418BC1",
"( 	c #3A88C3",
"_ 	c #3886C3",
": 	c #2672B0",
"< 	c #083151",
"[ 	c #20465C",
"} 	c #3E74AC",
"| 	c #5694C6",
"1 	c #5B98BD",
"2 	c #4A80AE",
"3 	c #418DBA",
"4 	c #185C94",
"5 	c #3C77A5",
"6 	c #57A6D7",
"7 	c #4C9ACE",
"8 	c #3B8AC3",
"9 	c #3486C6",
"0 	c #2E77B2",
"a 	c #183E5B",
"b 	c #224358",
"c 	c #3373A9",
"d 	c #4A7AAA",
"e 	c #4D6A8B",
"f 	c #4D6D83",
"g 	c #477D99",
"h 	c #0F64AA",
"i 	c #00438F",
"j 	c #14458E",
"k 	c #1D4E8E",
"l 	c #3F88C3",
"m 	c #398AC6",
"n 	c #3784BE",
"o 	c #3B8AC8",
"p 	c #2871B2",
"q 	c #0D3253",
"r 	c #4890BC",
"s 	c #264F84",
"t 	c #3F546E",
"u 	c #4B627B",
"v 	c #3D5F7D",
"w 	c #325E7B",
"x 	c #0F376C",
"y 	c #2D5086",
"z 	c #2E4882",
"A 	c #040C45",
"B 	c #1C457F",
"C 	c #377FBA",
"D 	c #4292C9",
"E 	c #3680BC",
"F 	c #226FBA",
"G 	c #2776BC",
"H 	c #0C2A45",
"I 	c #4081AD",
"J 	c #3D4C69",
"K 	c #565561",
"L 	c #516C85",
"M 	c #2D5683",
"N 	c #3A4E6F",
"O 	c #847C80",
"P 	c #A9A4A9",
"Q 	c #AFACB0",
"R 	c #7F7C8B",
"S 	c #36365A",
"T 	c #386CA0",
"U 	c #408DC9",
"V 	c #2870B3",
"W 	c #216DB4",
"X 	c #3887C8",
"Y 	c #206CB0",
"Z 	c #2F6595",
"` 	c #828D9F",
" .	c #908F94",
"..	c #5F6171",
"+.	c #69646F",
"@.	c #CBC7BD",
"#.	c #FFFFFF",
"$.	c #8C8288",
"%.	c #3E618B",
"&.	c #2264A9",
"*.	c #1A61A9",
"=.	c #2E7ABA",
"-.	c #438DC6",
";.	c #1B5D9F",
">.	c #265489",
",.	c #919CB2",
"'.	c #C4C0C4",
").	c #A09D9F",
"!.	c #ADA7A4",
"~.	c #FFFDF4",
"{.	c #FCFAF3",
"].	c #F4F2EB",
"^.	c #F3F2EE",
"/.	c #CCC6C3",
"(.	c #8C7F82",
"_.	c #355682",
":.	c #1D599C",
"<.	c #306FAD",
"[.	c #3880B9",
"}.	c #3A7EB6",
"|.	c #10559B",
"1.	c #121E4C",
"2.	c #9396A4",
"3.	c #D5D1CB",
"4.	c #D0CAC5",
"5.	c #C5C0BB",
"6.	c #DCD7D2",
"7.	c #F5F3F0",
"8.	c #BAB6B5",
"9.	c #8F8785",
"0.	c #D3CFC6",
"a.	c #CBC1C2",
"b.	c #597DA9",
"c.	c #2D65A0",
"d.	c #3A6FA5",
"e.	c #286AA9",
"f.	c #2667A7",
"g.	c #1F5FA1",
"h.	c #1E3764",
"i.	c #A7A8AC",
"j.	c #EAE3D7",
"k.	c #FCF8F0",
"l.	c #EBE6DF",
"m.	c #C0BAB5",
"n.	c #E7E4DC",
"o.	c #E5E0D9",
"p.	c #ECE5DB",
"q.	c #BAB8BE",
"r.	c #515678",
"s.	c #172E69",
"t.	c #215293",
"u.	c #3575AF",
"v.	c #316AA4",
"w.	c #174E98",
"x.	c #0B1A55",
"y.	c #858492",
"z.	c #E1DACC",
"A.	c #F5F0E3",
"B.	c #EBE7DD",
"C.	c #EAE5DD",
"D.	c #EDE9DF",
"E.	c #F4F0E7",
"F.	c #F7F2E8",
"G.	c #CFC7BE",
"H.	c #E6DDD1",
"I.	c #C2B4AC",
"J.	c #4A527C",
"K.	c #0B3683",
"L.	c #25599B",
"M.	c #0E348A",
"N.	c #1E56A2",
"O.	c #00030C",
"P.	c #1A1A44",
"Q.	c #403B55",
"R.	c #7A7275",
"S.	c #B9B0AB",
"T.	c #E3DCD0",
"U.	c #F2ECE1",
"V.	c #E4DDD2",
"W.	c #E4DCCF",
"X.	c #D3C9BD",
"Y.	c #E2D5C2",
"Z.	c #A69EA2",
"`.	c #383866",
" +	c #05145C",
".+	c #183E8A",
"++	c #153E83",
"@+	c #050F1C",
"#+	c #000007",
"$+	c #06012C",
"%+	c #191436",
"&+	c #2D2A33",
"*+	c #494449",
"=+	c #7D736E",
"-+	c #AFA59D",
";+	c #CFC5B9",
">+	c #E3D8C9",
",+	c #D3C2AC",
"'+	c #615E7D",
")+	c #100B4A",
"!+	c #0E104D",
"~+	c #19367F",
"{+	c #0E2567",
"]+	c #010010",
"^+	c #00001B",
"/+	c #00000B",
"(+	c #161211",
"_+	c #3A3533",
":+	c #4D4944",
"<+	c #7B6F63",
"[+	c #7E767A",
"}+	c #2F3060",
"|+	c #0A0B4E",
"1+	c #131755",
"2+	c #0A174C",
"3+	c #020620",
"4+	c #010008",
"5+	c #01000D",
"6+	c #1C1C2C",
"7+	c #28335E",
"8+	c #1B2B69",
"9+	c #152364",
"0+	c #0D1445",
"a+	c #00000F",
"b+	c #030712",
"c+	c #132654",
"d+	c #10275E",
"e+	c #112758",
"f+	c #0D1B42",
"g+	c #030717",
"h+	c #000001",
"i+	c #091432",
"j+	c #061739",
"k+	c #0D1C3B",
"l+	c #04070D",
". . . . . . + @ . . . . . . . . . . ",
". . . . # $ % & * = - ; > , . . . . ",
". . . ' ) ! ~ { ] ^ / ( _ : < . . . ",
". . [ } | 1 2 3 4 5 6 7 8 9 0 a . . ",
". b c d e f g h i j k l m n o p q . ",
". r s t u v w x y z A B C D E F G H ",
". I J K L M N O P Q R S T U V W X Y ",
". Z `  ...+.@.#.#.#.#.$.%.&.*.=.-.;.",
". >.,.'.).!.~.{.].^./.(._.:.<.[.}.|.",
". 1.2.3.4.5.6.7.8.9.0.a.b.c.d.e.f.g.",
". h.i.j.k.l.m.m.n.o.p.q.r.s.t.u.v.w.",
". x.y.z.A.B.C.D.E.F.G.H.I.J.K.L.M.N.",
". O.P.Q.R.S.T.U.V.W.X.Y.Z.`. +.+++@+",
". . #+$+%+&+*+=+-+;+>+,+'+)+!+~+{+. ",
". . . ]+^+/+. (+_+:+<+[+}+|+1+2+3+. ",
". . . . 4+5+. . . . 6+7+8+9+0+a+. . ",
". . . . . . . . . b+c+d+e+f+g+. . . ",
". . . . . . . . h+i+j+k+l+. . . . . ",
". . . . . . . . . . . . . . . . . . ",
". . . . . . . . . . . . . . . . . . ",
". . . . . . . . . . . . . . . . . . ",
". . . . . . . . . . . . . . . . . . ",
". . . . . . . . . . . . . . . . . . ",
". . . . . . . . . . . . . . . . . . ",
". . . . . . . . . . . . . . . . . . ",
". . . . . . . . . . . . . . . . . . ",
". . . . . . . . . . . . . . . . . . ",
". . . . . . . . . . . . . . . . . . ",
". . . . . . . . . . . . . . . . . . ",
". . . . . . . . . . . . . . . . . . ",
". . . . . . . . . . . . . . . . . . ",
". . . . . . . . . . . . . . . . . . ",
". . . . . . . . . . . . . . . . . . ",
". . . . . . . . . . . . . . . . . . ",
". . . . . . . . . . . . . . . . . . ",
". . . . . . . . . . . . . . . . . . ",
". . . . . . . . . . . . . . . . . . ",
". . . . . . . . . . . . . . . . . . ",
". . . . . . . . . . . . . . . . . . ",
". . . . . . . . . . . . . . . . . . "};
