<?xml version="1.0" encoding="UTF-8" standalone="no"?>
<!-- Generator: libbsvg 0.5.0 - a native SVG-Library for BeOS -->

<svg
   xmlns:dc="http://purl.org/dc/elements/1.1/"
   xmlns:cc="http://creativecommons.org/ns#"
   xmlns:rdf="http://www.w3.org/1999/02/22-rdf-syntax-ns#"
   xmlns:svg="http://www.w3.org/2000/svg"
   xmlns="http://www.w3.org/2000/svg"
   xmlns:sodipodi="http://sodipodi.sourceforge.net/DTD/sodipodi-0.dtd"
   xmlns:inkscape="http://www.inkscape.org/namespaces/inkscape"
   width="63.999958"
   height="128"
   id="svg2"
   sodipodi:version="0.32"
   inkscape:version="0.48.3.1 r9886"
   sodipodi:docname="thunderbird-on.svg"
   version="1.0"
   inkscape:output_extension="org.inkscape.output.svg.inkscape"
   inkscape:export-xdpi="960"
   inkscape:export-ydpi="960"
   sodipodi:modified="true">
  <metadata
     id="metadata256">
    <rdf:RDF>
      <cc:Work
         rdf:about="">
        <dc:format>image/svg+xml</dc:format>
        <dc:type
           rdf:resource="http://purl.org/dc/dcmitype/StillImage" />
        <dc:title />
      </cc:Work>
    </rdf:RDF>
  </metadata>
  <defs
     id="defs254" />
  <sodipodi:namedview
     inkscape:window-height="1036"
     inkscape:window-width="1050"
     inkscape:pageshadow="2"
     inkscape:pageopacity="0.0"
     guidetolerance="10.0"
     gridtolerance="10.0"
     objecttolerance="10.0"
     borderopacity="1.0"
     bordercolor="#666666"
     pagecolor="#ffffff"
     id="base"
     width="48px"
     height="48px"
     inkscape:zoom="11.313708"
     inkscape:cx="-15.647041"
     inkscape:cy="44.583502"
     inkscape:window-x="0"
     inkscape:window-y="38"
     inkscape:current-layer="svg2"
     showgrid="false"
     fit-margin-top="0"
     fit-margin-left="0"
     fit-margin-right="0"
     fit-margin-bottom="0"
     inkscape:window-maximized="0" />
  <radialGradient
     id="XMLID_1_"
     gradientUnits="userSpaceOnUse"
     cx="111.25"
     cy="123.5"
     r="91"
     fx="111.25"
     fy="123.5"
     gradientTransform="matrix(0.30424153,0,0,0.29157188,-0.00599944,0)">
    <stop
       offset="0.00"
       style="stop-color:#000000;"
       id="stop5" />
    <stop
       offset="0.50"
       style="stop-color:#000000;"
       id="stop7" />
    <stop
       offset="1.00"
       style="stop-color:#000000; stop-opacity:0.00;"
       id="stop9" />
  </radialGradient>
  <radialGradient
     id="XMLID_2_"
     gradientUnits="userSpaceOnUse"
     cx="151.75"
     cy="175.67"
     r="126.3"
     fx="151.75"
     fy="175.67"
     gradientTransform="matrix(0.30424153,0,0,0.29157188,-0.00599944,0)">
    <stop
       offset="0.00"
       style="stop-color:#f2be7f;"
       id="stop12" />
    <stop
       offset="1.00"
       style="stop-color:#ffffdc;"
       id="stop14" />
  </radialGradient>
  <linearGradient
     id="XMLID_3_"
     gradientUnits="userSpaceOnUse"
     x1="100.13"
     y1="79.080002"
     x2="94.449997"
     y2="45.619999"
     gradientTransform="matrix(0.30424153,0,0,0.29157188,-0.00599944,0)">
    <stop
       offset="0.00"
       style="stop-color:#c3ad7b;"
       id="stop17" />
    <stop
       offset="1.00"
       style="stop-color:#a25f00;"
       id="stop19" />
  </linearGradient>
  <radialGradient
     id="XMLID_4_"
     gradientUnits="userSpaceOnUse"
     cx="149.75"
     cy="87"
     r="90.870003"
     fx="149.75"
     fy="87"
     gradientTransform="matrix(0.30424153,0,0,0.29157188,-0.00599944,0)">
    <stop
       offset="0.00"
       style="stop-color:#f2be7f;"
       id="stop22" />
    <stop
       offset="1.00"
       style="stop-color:#ffffdc;"
       id="stop24" />
  </radialGradient>
  <linearGradient
     id="XMLID_5_"
     gradientUnits="userSpaceOnUse"
     x1="80.160004"
     y1="171.37"
     x2="82.470001"
     y2="164.25"
     gradientTransform="matrix(0.30424153,0,0,0.29157188,-0.00599944,0)">
    <stop
       offset="0.00"
       style="stop-color:#aa944b;"
       id="stop27" />
    <stop
       offset="1.00"
       style="stop-color:#aa944b; stop-opacity:0.00;"
       id="stop29" />
  </linearGradient>
  <linearGradient
     id="XMLID_6_"
     gradientUnits="userSpaceOnUse"
     x1="34.919998"
     y1="84.019997"
     x2="34.919998"
     y2="58.060001"
     gradientTransform="matrix(0.30424153,0,0,0.29157188,-0.00599944,0)">
    <stop
       offset="0.01"
       style="stop-color:#d2b170;"
       id="stop32" />
    <stop
       offset="1.00"
       style="stop-color:#a25f00;"
       id="stop34" />
  </linearGradient>
  <linearGradient
     id="XMLID_7_"
     gradientUnits="userSpaceOnUse"
     x1="85.489998"
     y1="124.25"
     x2="85.489998"
     y2="71.330002"
     gradientTransform="matrix(0.30424153,0,0,0.29157188,-0.00599944,0)">
    <stop
       offset="0.00"
       style="stop-color:#a25f00; stop-opacity:0.00;"
       id="stop37" />
    <stop
       offset="1.00"
       style="stop-color:#a25f00;"
       id="stop39" />
  </linearGradient>
  <linearGradient
     id="XMLID_8_"
     gradientUnits="userSpaceOnUse"
     x1="29.23"
     y1="187.64"
     x2="29.23"
     y2="165.83"
     gradientTransform="matrix(0.30424153,0,0,0.29157188,-0.00599944,0)">
    <stop
       offset="0.00"
       style="stop-color:#a4d8e5;"
       id="stop42" />
    <stop
       offset="0.50"
       style="stop-color:#0c418f;"
       id="stop44" />
    <stop
       offset="1.00"
       style="stop-color:#000060;"
       id="stop46" />
  </linearGradient>
  <linearGradient
     id="XMLID_9_"
     gradientUnits="userSpaceOnUse"
     x1="15.71"
     y1="170.38"
     x2="15.71"
     y2="141.59"
     gradientTransform="matrix(0.30424153,0,0,0.29157188,-0.00599944,0)">
    <stop
       offset="0.00"
       style="stop-color:#a4d8e5;"
       id="stop49" />
    <stop
       offset="0.50"
       style="stop-color:#0c418f;"
       id="stop51" />
    <stop
       offset="1.00"
       style="stop-color:#000060;"
       id="stop53" />
  </linearGradient>
  <radialGradient
     id="XMLID_10_"
     gradientUnits="userSpaceOnUse"
     cx="41.75"
     cy="67"
     r="77.830002"
     fx="41.75"
     fy="67"
     gradientTransform="matrix(0.30424153,0,0,0.29157188,-0.00599944,0)">
    <stop
       offset="0.00"
       style="stop-color:#000060;"
       id="stop56" />
    <stop
       offset="0.50"
       style="stop-color:#0c418f;"
       id="stop58" />
    <stop
       offset="1.00"
       style="stop-color:#a4d8e5;"
       id="stop60" />
  </radialGradient>
  <radialGradient
     id="XMLID_11_"
     gradientUnits="userSpaceOnUse"
     cx="57.5"
     cy="54.25"
     r="71.419998"
     fx="57.5"
     fy="54.25"
     gradientTransform="matrix(0.30424153,0,0,0.29157188,-0.00599944,0)">
    <stop
       offset="0.00"
       style="stop-color:#000060;"
       id="stop63" />
    <stop
       offset="0.50"
       style="stop-color:#0c418f;"
       id="stop65" />
    <stop
       offset="1.00"
       style="stop-color:#a4d8e5;"
       id="stop67" />
  </radialGradient>
  <linearGradient
     id="XMLID_12_"
     gradientUnits="userSpaceOnUse"
     x1="46.73"
     y1="25.34"
     x2="9.2200003"
     y2="90.300003"
     gradientTransform="matrix(0.30424153,0,0,0.29157188,-0.00599944,0)">
    <stop
       offset="0.01"
       style="stop-color:#1b609d;"
       id="stop70" />
    <stop
       offset="0.50"
       style="stop-color:#9fd2e5;"
       id="stop72" />
    <stop
       offset="1.00"
       style="stop-color:#4187b8;"
       id="stop74" />
  </linearGradient>
  <linearGradient
     id="XMLID_13_"
     gradientUnits="userSpaceOnUse"
     x1="66.43"
     y1="24.35"
     x2="123.46"
     y2="81.379997"
     gradientTransform="matrix(0.30424153,0,0,0.29157188,-0.00599944,0)">
    <stop
       offset="0.00"
       style="stop-color:#a4d8e5;"
       id="stop77" />
    <stop
       offset="0.67"
       style="stop-color:#0c418f;"
       id="stop79" />
    <stop
       offset="1.00"
       style="stop-color:#000040;"
       id="stop81" />
  </linearGradient>
  <linearGradient
     id="XMLID_14_"
     gradientUnits="userSpaceOnUse"
     x1="71.550003"
     y1="36.5"
     x2="61.5"
     y2="8.8800001"
     gradientTransform="matrix(0.30424153,0,0,0.29157188,-0.00599944,0)">
    <stop
       offset="0.00"
       style="stop-color:#a4d8e5;"
       id="stop84" />
    <stop
       offset="1.00"
       style="stop-color:#0c418f;"
       id="stop86" />
  </linearGradient>
  <linearGradient
     id="XMLID_15_"
     gradientUnits="userSpaceOnUse"
     x1="115.05"
     y1="222.03999"
     x2="170.24001"
     y2="126.46"
     gradientTransform="matrix(0.30424153,0,0,0.29157188,-0.00599944,0)">
    <stop
       offset="0.01"
       style="stop-color:#b4b4dc;"
       id="stop89" />
    <stop
       offset="1.00"
       style="stop-color:#000000;"
       id="stop91" />
  </linearGradient>
  <linearGradient
     id="XMLID_16_"
     gradientUnits="userSpaceOnUse"
     x1="139.21001"
     y1="224.10001"
     x2="168.19"
     y2="173.89999"
     gradientTransform="matrix(0.30424153,0,0,0.29157188,-0.00599944,0)">
    <stop
       offset="0.01"
       style="stop-color:#b4b4dc;"
       id="stop94" />
    <stop
       offset="1.00"
       style="stop-color:#000000;"
       id="stop96" />
  </linearGradient>
  <linearGradient
     id="XMLID_17_"
     gradientUnits="userSpaceOnUse"
     x1="185.78999"
     y1="171.82001"
     x2="185.78999"
     y2="72.25"
     gradientTransform="matrix(0.30424153,0,0,0.29157188,-0.00599944,0)">
    <stop
       offset="0.00"
       style="stop-color:#6498c1;"
       id="stop99" />
    <stop
       offset="0.20"
       style="stop-color:#0c418f;"
       id="stop101" />
    <stop
       offset="1.00"
       style="stop-color:#000040;"
       id="stop103" />
  </linearGradient>
  <linearGradient
     id="XMLID_18_"
     gradientUnits="userSpaceOnUse"
     x1="185.2"
     y1="149.75"
     x2="185.2"
     y2="60.68"
     gradientTransform="matrix(0.30424153,0,0,0.29157188,-0.00599944,0)">
    <stop
       offset="0.00"
       style="stop-color:#a4d8e5;"
       id="stop106" />
    <stop
       offset="0.20"
       style="stop-color:#0c418f;"
       id="stop108" />
    <stop
       offset="0.50"
       style="stop-color:#000040;"
       id="stop110" />
  </linearGradient>
  <linearGradient
     id="XMLID_19_"
     gradientUnits="userSpaceOnUse"
     x1="151.2"
     y1="134.73"
     x2="151.2"
     y2="83.480003"
     gradientTransform="matrix(0.30424153,0,0,0.29157188,-0.00599944,0)">
    <stop
       offset="0.00"
       style="stop-color:#a4d8e5;"
       id="stop113" />
    <stop
       offset="0.50"
       style="stop-color:#0c418f;"
       id="stop115" />
    <stop
       offset="1.00"
       style="stop-color:#000060;"
       id="stop117" />
  </linearGradient>
  <linearGradient
     id="XMLID_20_"
     gradientUnits="userSpaceOnUse"
     x1="132.09"
     y1="33.560001"
     x2="171.09"
     y2="88.059998"
     gradientTransform="matrix(0.30424153,0,0,0.29157188,-0.00599944,0)">
    <stop
       offset="0.00"
       style="stop-color:#4187b8;"
       id="stop120" />
    <stop
       offset="1.00"
       style="stop-color:#074e92;"
       id="stop122" />
  </linearGradient>
  <linearGradient
     id="XMLID_21_"
     gradientUnits="userSpaceOnUse"
     x1="162.21001"
     y1="71.089996"
     x2="134.67999"
     y2="23.41"
     gradientTransform="matrix(0.30424153,0,0,0.29157188,-0.00599944,0)">
    <stop
       offset="0.01"
       style="stop-color:#1b609d;"
       id="stop125" />
    <stop
       offset="0.50"
       style="stop-color:#9fd2e5;"
       id="stop127" />
    <stop
       offset="1.00"
       style="stop-color:#4187b8;"
       id="stop129" />
  </linearGradient>
  <linearGradient
     id="XMLID_22_"
     gradientUnits="userSpaceOnUse"
     x1="50.32"
     y1="74.900002"
     x2="94.57"
     y2="30.65"
     gradientTransform="matrix(0.30424153,0,0,0.29157188,-0.00599944,0)">
    <stop
       offset="0.00"
       style="stop-color:#a5b4d3;"
       id="stop132" />
    <stop
       offset="1.00"
       style="stop-color:#a5b4d3; stop-opacity:0.33;"
       id="stop134" />
  </linearGradient>
  <linearGradient
     id="XMLID_23_"
     gradientUnits="userSpaceOnUse"
     x1="48.16"
     y1="72.75"
     x2="92.410004"
     y2="28.5"
     gradientTransform="matrix(0.30424153,0,0,0.29157188,-0.00599944,0)">
    <stop
       offset="0.00"
       style="stop-color:#264b92;"
       id="stop137" />
    <stop
       offset="1.00"
       style="stop-color:#264b92; stop-opacity:0.33;"
       id="stop139" />
  </linearGradient>
  <radialGradient
     id="eye_2_"
     gradientUnits="userSpaceOnUse"
     cx="58.580002"
     cy="67.169998"
     r="8.5100002"
     fx="58.580002"
     fy="67.169998"
     gradientTransform="matrix(0.30424153,0,0,0.29157188,-0.00599944,0)">
    <stop
       offset="0.00"
       style="stop-color:#600000;"
       id="stop142" />
    <stop
       offset="0.50"
       style="stop-color:#c00000;"
       id="stop144" />
    <stop
       offset="1.00"
       style="stop-color:#f6aa00;"
       id="stop146" />
  </radialGradient>
  <radialGradient
     id="pupil_1_"
     gradientUnits="userSpaceOnUse"
     cx="59.610001"
     cy="65.110001"
     r="3.8"
     fx="59.610001"
     fy="65.110001"
     gradientTransform="matrix(0.30424153,0,0,0.29157188,-0.00599944,0)">
    <stop
       offset="0.01"
       style="stop-color:#ffffff;"
       id="stop149" />
    <stop
       offset="1.00"
       style="stop-color:#000000;"
       id="stop151" />
  </radialGradient>
  <radialGradient
     id="XMLID_24_"
     gradientUnits="userSpaceOnUse"
     cx="51.5"
     cy="87.5"
     r="12.97"
     fx="51.5"
     fy="87.5"
     gradientTransform="matrix(0.30424153,0,0,0.29157188,-0.00599944,0)">
    <stop
       offset="0.00"
       style="stop-color:#769eb8;"
       id="stop154" />
    <stop
       offset="1.00"
       style="stop-color:#ffffff;"
       id="stop156" />
  </radialGradient>
  <radialGradient
     id="XMLID_25_"
     gradientUnits="userSpaceOnUse"
     cx="47.25"
     cy="82.5"
     r="3.78"
     fx="47.25"
     fy="82.5"
     gradientTransform="matrix(0.30424153,0,0,0.29157188,-0.00599944,0)">
    <stop
       offset="0.01"
       style="stop-color:#ffffff;"
       id="stop159" />
    <stop
       offset="1.00"
       style="stop-color:#000000;"
       id="stop161" />
  </radialGradient>
  <path
     d="m 61.526819,36.009112 c 0,14.654396 -12.394793,26.533028 -27.676838,26.533028 -15.282045,0 -27.6920494,-11.878632 -27.6920494,-26.533028 0,-14.6544 12.3947924,-26.533032 27.6859654,-26.533032 15.291173,0 27.682922,11.878632 27.682922,26.533032 z"
     id="path163"
     style="fill:url(#XMLID_1_);stroke:none"
     inkscape:connector-curvature="0" />
  <path
     d="M 9.3250826,15.094668 1.5486746,24.634896 5.6741886,44.753348 43.64047,56.535764 52.722072,41.75016 50.059964,19.596536 20.910597,6.706148 l -11.3725464,8.12902 -0.21296,0.25952 z"
     id="path165"
     style="fill:#340000;stroke:none"
     inkscape:connector-curvature="0" />
  <path
     d="M 50.397668,27.509792 21.366956,37.97722 8.0229286,17.640088 2.1997496,24.7836 6.2005236,44.304328 43.363611,55.835988 52.095337,41.621868 50.397668,27.509792 z"
     id="path167"
     style="fill:url(#XMLID_2_);stroke:none"
     inkscape:connector-curvature="0" />
  <path
     d="M 21.010997,40.528472 9.9579056,25.46296 c -6.185226,5.248292 0.4046394,11.95444 -0.498955,12.928292 -0.610511,0.647288 -2.032333,-0.09816 -4.265466,-2.236356 -3.349698,-3.207288 0.608483,3.790432 2.433933,6.219228 1.216966,1.621136 -0.23628,1.523948 -4.359782,-0.29156 L 2.0476296,23.03418 7.4479136,16.765388 61.170859,23.908896 45.350304,32.656048 21.010997,40.528484 z"
     id="path169"
     style="fill:url(#XMLID_3_);stroke:none"
     inkscape:connector-curvature="0" />
  <path
     d="M 59.777433,24.12756 21.366956,37.97722 7.4479136,16.765376 6.9337466,17.074456 21.11748,38.691584 59.990401,24.672816 l -0.21296,-0.54524 z"
     id="path171"
     style="fill:#340000;stroke:none"
     inkscape:connector-curvature="0" />
  <path
     d="M 50.397668,27.509792 49.822653,22.72802 8.6040316,16.928652 8.3849916,17.193972 8.0229526,17.640076 21.36698,37.977208 50.397692,27.50978 z"
     id="path173"
     style="fill:url(#XMLID_4_);stroke:none"
     inkscape:connector-curvature="0" />
  <path
     d="m 6.2005236,44.304328 37.1630874,11.53166 1.028334,-1.676536 -38.6934204,-12.307244 0.501999,2.45212 z"
     id="path175"
     style="fill:url(#XMLID_5_);stroke:none"
     inkscape:connector-curvature="0" />
  <path
     d="m 50.403756,22.45394 -0.581103,0.27408 0.575015,4.781772 -6.808922,2.455036 c 3.358827,6.895672 0.824495,15.520364 0.833623,15.520364 5.205568,-2.66788 6.56857,-10.32164 6.821094,-16.141412 l -0.839707,-6.88984 z"
     id="path177"
     style="fill:#7b5516;stroke:none"
     inkscape:connector-curvature="0" />
  <path
     d="m 34.312429,21.8533 c 5.251203,1.370388 7.666884,4.805104 9.285445,8.111528 L 50.400712,27.509792 49.825697,22.72802 44.391945,21.9641 44.032946,23.617312 34.312433,21.8533 z"
     id="path179"
     style="fill:#7b5516;stroke:none"
     inkscape:connector-curvature="0" />
  <path
     d="m 12.772138,17.514716 -4.1681064,-0.586064 -0.21904,0.26532 -0.362039,0.446104 4.4997334,6.857768 0.0244,-0.0029 c 0.19776,-1.154624 0.581103,-2.06724 0.590231,-2.06724 0.0092,0 0.0212,0.0554 0.07604,0.1458 l -0.0578,-1.271252 c -0.0244,-1.032164 -0.316399,-2.434624 -0.374199,-3.787516 l -0.0092,0 z"
     id="path181"
     style="fill:url(#XMLID_6_);stroke:none"
     inkscape:connector-curvature="0" />
  <path
     d="m 34.312429,21.8533 c 0,0 -4.122471,-0.860136 -7.003638,-1.055488 -2.881168,-0.19536 -6.474254,2.530844 -7.606036,3.183964 -0.602396,0.34696 -1.280854,0.699772 -2.001905,1.067152 0.0578,2.743688 0.751474,8.694668 5.427663,11.17886 C 23.116513,21.6492 34.312429,21.8533 34.321557,21.8533 l -0.0092,0 z"
     id="path183"
     style="fill:url(#XMLID_7_);stroke:none"
     inkscape:connector-curvature="0" />
  <path
     d="M 19.082104,48.301776 6.2005236,44.304328 4.6732336,38.169656 1.9715696,37.321184 c 0,0 2.814232,8.45558 7.831172,15.2492 10.1707924,6.793624 7.6851364,3.484284 7.6942644,3.484284 1.819365,1.0205 3.036327,1.0205 3.045459,1.0205 -0.006,-1.0205 -4.569709,-1.23918 -5.853607,-8.164008 1.363002,2.624148 6.839346,4.082004 7.152717,3.790436 0.2008,-0.1944 -0.667303,-1.627944 -2.604308,-4.300684 l -0.155159,-0.09912 z"
     id="path185"
     style="fill:#000000;stroke:none"
     inkscape:connector-curvature="0" />
  <path
     d="m 15.282129,55.179952 c 0,0 -6.4955534,-0.422776 -12.0236174,-10.928108 -3.26451104,-10.86688 4.308058,6.251296 12.0327454,10.928108 l -0.0092,0 z"
     id="path187"
     style="fill:url(#XMLID_8_);stroke:none"
     inkscape:connector-curvature="0" />
  <path
     d="m 0.04572056,31.20984 c 0,0 0.784943,16.389248 9.46495004,19.086288 C 5.0930846,44.537584 3.8396116,33.312072 3.8487396,33.312072 L 0.04572056,31.20984 z"
     id="path189"
     style="fill:url(#XMLID_9_);stroke:none"
     inkscape:connector-curvature="0" />
  <path
     d="m 5.1661046,41.621868 c -1.825449,0.36448 -5.28467504,-5.758544 -5.16297604,-12.100228 0.073,-4.227792 0.830579,-7.605164 2.27268104,-10.13212 l 1.52121,12.027336 c 0,0 0,8.2369 1.378209,10.205012 l -0.0092,0 z"
     id="path191"
     style="fill:url(#XMLID_10_);stroke:none"
     inkscape:connector-curvature="0" />
  <path
     d="m 28.516629,3.644644 c 0,0 -20.8405364,3.207292 -26.2316914,15.744876 -3.696534,8.857948 4.670105,16.438816 5.932707,15.234624 -0.006,0 -4.542325,-5.659408 -0.073,-14.114988 C 11.118096,14.872104 17.908765,9.2506 28.516645,3.644644 z"
     id="path193"
     style="fill:#000000;stroke:none"
     inkscape:connector-curvature="0" />
  <path
     d="m 28.516629,3.644644 c 0,0 -20.8405364,3.207292 -26.2316914,15.744876 -3.696534,8.857948 4.670105,16.438816 5.932707,15.234624 -0.006,0 -5.786671,-6.560364 -0.681499,-15.453304 C 10.931476,13.242216 17.924973,8.066816 28.516629,3.644644 z"
     id="path195"
     style="fill:url(#XMLID_11_);stroke:none"
     inkscape:connector-curvature="0" />
  <path
     d="m 2.2514696,21.771664 c -1.116566,7.143504 1.283902,4.469792 3.151943,-1.070072 -1.858917,3.084832 -3.151943,2.259684 -3.142815,1.070072 l -0.0092,0 z m 2.324404,-4.94506 c -3.319271,6.487472 -0.188639,4.635992 3.343615,-0.10788 -2.7473,2.405468 -3.720874,1.242096 -3.334487,0.10788 l -0.0092,0 z M 11.20834,10.193348 c -4.8313574,4.114076 -1.7189654,3.618404 2.692536,0.95344 -2.999823,1.055488 -3.374039,-0.16912 -2.683412,-0.95344 l -0.0092,0 z m -3.4227194,2.930296 c -4.834396,5.0646 -1.463401,4.175308 3.0789244,0.755172 -3.1762804,1.492848 -3.7391274,0.18368 -3.0697964,-0.755172 l -0.0092,0 z M 17.171466,9.02706 C 14.542822,9.732664 14.308559,8.6597 14.95659,8.035716 c -4.432797,3.195628 -1.737217,2.976948 2.224004,0.991344 l -0.0092,0 z"
     id="path197"
     style="fill:url(#XMLID_12_);stroke:none"
     inkscape:connector-curvature="0" />
  <path
     d="M 48.93731,6.886924 C 47.355257,5.469884 43.683062,4.522276 41.602053,4.116992 39.810068,3.772952 37.902475,3.66214 36.095282,3.533848 c -1.24739,-0.08456 -4.800929,-0.0204 -6.309967,0.12828 -3.809102,0.37904 -5.333352,1.726104 -8.397059,3.802096 -2.808152,1.8923 -6.939749,3.953712 -8.159755,7.263052 -0.967487,1.8369 -0.09736,4.770112 -0.05172,6.574944 l 0.05172,1.271252 c -0.0578,-0.0904 -0.0852,-0.1458 -0.07604,-0.1458 0.0092,0 -1.691581,4.020772 0.19776,5.831436 0.0184,-0.16328 0.0578,-0.32364 0.12476,-0.481096 l -0.12168,0.481096 c 0,0 0.824494,-1.4462 2.339616,-2.201368 1.515121,-0.755172 2.905503,-1.422872 4.037282,-2.075992 1.131778,-0.65312 4.679232,-3.3764 7.569524,-3.183964 1.926865,0.13024 7.504621,1.070068 16.733279,2.8195 l 0.964442,-4.469796 -1.746341,-1.262508 c 0.1856,-0.469428 0.328599,-0.968016 0.599351,-1.393712 0.663247,-1.093392 0.745395,-2.046832 0.733223,-3.29476 1.539461,-0.34988 3.264511,-0.956356 4.271549,-2.210112 0.857963,-1.096312 1.27173,-3.032348 0.09128,-4.0995 l -0.0092,0 z"
     id="path199"
     style="fill:#000000;stroke:none"
     inkscape:connector-curvature="0" />
  <path
     d="M 48.93731,6.886924 C 47.355257,5.469884 43.683062,4.522276 41.602053,4.116992 39.810068,3.772952 37.902475,3.66214 36.095282,3.533848 c -1.24739,-0.08456 -4.800929,-0.0204 -6.309967,0.12828 -3.809102,0.37904 -5.333352,1.726104 -8.397059,3.802096 -2.808152,1.8923 -6.939749,3.953712 -8.159755,7.263052 -0.967487,1.8369 -0.09736,4.770112 -0.05172,6.574944 l 0.05172,1.271252 c -0.0578,-0.0904 -0.0852,-0.1458 -0.07604,-0.1458 0.0092,0 -1.691581,4.020772 0.19776,5.831436 0.203839,-1.89522 3.346654,-3.353076 3.355782,-3.353076 l 2.315277,-1.116724 c 0.352919,-0.23032 1.32345,-0.795988 1.633777,-1.093392 1.846745,-1.023416 3.395331,-2.148884 5.579784,-2.3559 2.881167,-0.277 5.607171,0.950524 8.482251,0.65312 2.354828,-0.24492 5.576743,-0.565648 7.624288,-1.816492 0.961407,-0.591892 0.988787,-1.793168 1.54555,-2.685376 0.663243,-1.090476 0.745391,-2.046832 0.733223,-3.29476 1.539457,-0.34988 3.264507,-0.956356 4.271545,-2.210112 0.821455,-1.096312 1.235222,-3.032348 0.05476,-4.0995 l -0.0092,0 z"
     id="path201"
     style="fill:url(#XMLID_13_);stroke:none"
     inkscape:connector-curvature="0" />
  <path
     d="m 27.299663,2.041 c -0.33164,0.13412 -0.669327,0.32072 -1.000951,0.54524 0.33772,-0.22452 0.675415,-0.414032 1.010079,-0.54524 l -0.0092,0 z m 0,0 c -2.929844,1.822324 -4.006858,5.589432 -3.99773,5.589432 0.29816,-0.12248 0.739307,-0.658952 1.332578,-1.314988 -0.355959,0.3936 -0.660203,0.746424 -0.900555,0.988428 0.0152,-0.07 1.207839,-3.10524 3.574835,-5.262872 l -0.0092,0 z M 26.38694,0 c -6.54119,4.580592 -6.23999,8.257312 -6.230862,8.257312 0.09432,-0.04664 0.216,-0.1312 0.365079,-0.24492 C 20.509157,8.009492 20.335558,5.181228 26.39606,0 l -0.0092,0 z m 1.621606,3.644644 c -1.509038,2.041004 -0.35292,2.47836 -0.3438,2.47836 0.0092,0 -0.428979,-0.67936 0.3438,-2.47836 z m -1.609438,0.950524 c 0.483744,-0.37612 1.019211,-0.714348 1.618566,-0.950524 -0.623695,0.24784 -1.156118,0.583144 -1.609438,0.950524 -0.0092,0 -0.0092,0 0,0 l -0.0092,0 z"
     id="path203"
     style="fill:#484848;stroke:none"
     inkscape:connector-curvature="0" />
  <path
     d="M 13.900876,13.38606 C 18.044641,1.259588 26.38694,0 26.396068,0 c -6.547274,4.580592 -6.246078,8.257312 -6.23695,8.257312 1.07093,-0.519 4.502773,-5.146244 7.149673,-6.216312 -2.932888,1.822324 -4.012946,5.589432 -4.003818,5.589432 0.727139,-0.29156 2.251389,-3.000272 4.718785,-3.985788 -1.512078,2.041004 -0.359,2.47836 -0.34988,2.47836 L 13.900876,13.38606 z"
     id="path205"
     style="fill:url(#XMLID_14_);stroke:none"
     inkscape:connector-curvature="0" />
  <path
     d="M 63.480052,26.378496 50.193828,21.06606 49.052922,33.384964 c 0.14604,0.795992 0.2434,1.656128 0.307279,2.565832 -0.0152,-0.1516 -0.0244,-0.2974 -0.0272,-0.446104 -1.104398,16.931572 -11.585514,25.602916 -16.845846,27.839272 6.611166,0.437356 10.672788,-1.766924 10.681916,-1.766924 0.0092,0 -0.885343,1.037992 -3.243215,2.42296 2.966355,0 10.344208,-2.69704 11.798482,-5.539864 l 0.754519,0.29156 c -0.003,0 14.372362,-9.621868 11.010495,-32.373212 l -0.0092,0 z"
     id="path207"
     style="fill:#000000;stroke:none"
     inkscape:connector-curvature="0" />
  <path
     d="M 49.320653,35.504692 C 48.222343,52.436264 37.741227,61.107608 32.480895,63.343964 45.453747,60.638176 50.05692,45.074076 49.329781,35.504692 l -0.0092,0 z"
     id="path209"
     style="fill:url(#XMLID_15_);stroke:none"
     inkscape:connector-curvature="0" />
  <path
     d="m 39.92568,64 c 0,0 10.420268,-3.93622 11.646362,-12.902052 C 56.430779,51.753984 46.46687,62.615032 39.934808,64 l -0.0092,0 z"
     id="path211"
     style="fill:url(#XMLID_16_);stroke:none"
     inkscape:connector-curvature="0" />
  <path
     d="m 41.754173,20.191344 c -3.389247,-4.746788 -8.610031,-6.245468 -13.480936,-6.245468 8.838211,1.070068 21.844531,13.097404 14.551866,26.436812 4.311098,-5.548612 2.841612,-14.70688 -1.061802,-20.191344 l -0.0092,0 z"
     id="path213"
     style="fill:#000000;stroke:none"
     inkscape:connector-curvature="0" />
  <path
     d="m 49.360205,34.950704 c -2.363952,4.886744 -6.54423,5.431984 -6.535102,5.431984 0.0092,0 3.492691,0.58314 6.382983,-2.769932 0.413767,-0.484012 0.428979,-1.41704 0.161239,-2.662052 l -0.0092,0 z"
     id="path215"
     style="fill:#000000;stroke:none"
     inkscape:connector-curvature="0" />
  <path
     d="M 63.480052,26.378496 50.193828,21.06606 49.052922,33.384964 c 0.12168,0.6677 0.20992,1.382052 0.273839,2.131388 -0.003,-0.006 -0.003,-0.0116 0.006,-0.0116 0.006,0.14872 0.0152,0.29448 0.0336,0.446104 -0.0152,-0.1458 -0.0272,-0.28864 -0.0304,-0.431524 -0.04564,0.615212 -0.100399,1.218768 -0.155159,1.813576 -0.17036,2.6533 -0.19472,7.577948 1.518161,10.560724 1.165247,-1.688196 2.336577,-3.79626 2.74426,-5.90724 0.18256,2.143052 -0.876215,4.898404 -1.913681,7.035624 0.3438,0.3732 0.745395,0.68228 1.207838,0.909704 0.17344,0.07 0.34988,0.12248 0.535467,0.1662 1.457314,-1.726104 3.824315,-4.918816 4.438882,-8.111524 0.212959,2.51918 -1.283898,5.886832 -2.455229,8.096948 4.995645,-1.30916 8.400107,-11.811572 8.470079,-11.99818 -0.006,-0.0029 -0.006,-0.0029 0.003,-0.006 0.38944,-3.4318 0.39856,-7.321364 -0.240359,-11.700772 l -0.0092,0 z"
     id="path217"
     style="fill:url(#XMLID_17_);stroke:none"
     inkscape:connector-curvature="0" />
  <path
     d="m 56.461203,47.46788 c -0.39856,0.95344 -0.842751,1.854396 -1.238263,2.618316 1.801106,-0.475264 3.398375,-2.148884 4.712697,-4.0995 -1.183498,0.8164 -2.6256,1.268336 -3.465311,1.481184 l -0.0092,0 z"
     id="path219"
     style="fill:#0c418f;stroke:none"
     inkscape:connector-curvature="0" />
  <path
     d="m 51.994937,47.95772 c -0.161239,0.36736 -0.328599,0.726016 -0.486787,1.064236 0.34684,0.3732 0.745391,0.68228 1.207838,0.909704 0.1734,0.07 0.34988,0.12248 0.535463,0.1662 1.457318,-1.726104 3.824319,-4.918816 4.438886,-8.111524 -1.667242,4.096584 -4.186362,5.496128 -5.686272,5.971388 l -0.0092,0 z"
     id="path221"
     style="fill:#0c418f;stroke:none"
     inkscape:connector-curvature="0" />
  <path
     d="m 53.08412,32.145784 c 0.836666,4.665148 -2.433929,11.517088 -2.424801,11.517088 0.0092,0 4.886117,-0.918456 7.043186,-10.88146 0,0 -0.459404,6.918996 -1.411678,8.54888 -0.006,0 4.709653,-2.113892 5.707567,-10.71526 0.99791,-8.601364 -5.482432,-13.849656 -7.53606,-12.829156 -1.369086,0.680332 -1.82849,5.466968 -1.378214,14.359908 z"
     id="path223"
     style="fill:url(#XMLID_18_);stroke:none"
     inkscape:connector-curvature="0" />
  <path
     d="m 63.653467,27.375672 c 0,-0.0029 0,-0.0029 0.0092,-0.006 -0.492871,-3.052756 -1.347789,-5.953896 -2.497824,-8.563464 -2.960267,-6.653668 -7.876808,-10.71526 -13.566123,-12.3918 -12.936344,-1.166284 -19.325411,7.5313 -19.316287,7.5313 4.873949,0 10.094733,1.49868 13.493108,6.245468 3.906458,5.484464 5.375948,14.642732 1.064846,20.191344 -0.006,0 8.969035,-1.166288 8.06544,-15.453304 -0.006,0 3.188447,5.97722 -0.909683,14.214124 -0.006,0 8.284492,-1.968112 5.707568,-17.275628 -0.006,0 1.895425,3.49886 1.29607,11.589976 -0.006,0 3.41663,-2.280088 3.425754,-9.257404 -0.006,0 2.351789,7.362188 0.003,12.027336 -0.006,0 0.0336,-0.12828 0.21296,-0.2566 0.733223,-0.594804 3.611347,-2.950704 3.021119,-8.595532 l -0.0092,0 z"
     id="path225"
     style="fill:url(#XMLID_19_);stroke:none"
     inkscape:connector-curvature="0" />
  <path
     d="m 42.326148,21.05148 c 1.645946,2.615396 2.643856,5.62442 2.996776,8.653848 0.237319,0.618132 0.854918,1.609476 1.706793,1.382052 0.699755,-0.19244 1.335622,-0.965104 1.749389,-1.522004 0.523296,-0.726016 0.730179,-1.60948 1.232178,-2.347156 0.23428,-0.36448 0.562848,-0.685192 0.608483,-1.134212 0.0092,-0.15744 -0.04868,-1.09048 0.28904,-1.06132 -0.0092,-0.032 -0.0092,-0.06124 -0.003,-0.09332 -0.006,0 0.0152,0.04372 0.06084,0.11956 0.23124,0.19244 0.319439,0.641456 0.416811,0.909704 0.13084,0.42278 0.24948,0.851388 0.36812,1.28 0.185599,0.73476 0.711923,2.058496 1.694621,1.23918 0.447235,-0.38196 0.724095,-0.962188 0.967491,-1.4841 0.222079,-0.507336 0.355959,-1.014668 0.444191,-1.562824 0.14604,-1.037996 0.1004,-2.455036 0.906639,-3.274352 -0.0212,-0.09624 -0.0364,-0.19244 -0.0426,-0.28864 -0.006,0 0.05476,0.11372 0.161239,0.34112 0.359,0.23032 0.861003,0.44902 1.293026,0.2216 0.39248,-0.21284 0.565888,-0.693944 0.681499,-1.09048 0.1582,-0.606468 0.216,-1.242096 0.34988,-1.860228 0.13996,-0.70852 0.289039,-1.434532 0.237319,-2.157632 0.32248,0.714352 0.675415,1.408292 0.967487,2.143052 0.22816,0.609388 0.462447,1.224604 0.514167,1.877724 0.0396,0.553984 0.0272,1.110888 0.10648,1.664872 0.05172,0.440276 0.1582,0.9826 0.568927,1.262508 0.17648,-2.364648 0.556763,-4.924648 -0.23428,-7.225148 -1.293026,-2.402552 -2.969395,-4.624328 -5.053448,-6.443736 -2.202708,-1.909796 -4.81614,-3.353076 -7.642544,-4.186972 -12.936344,-1.166284 -19.325415,7.534216 -19.316287,7.534216 2.628648,0 5.29076,0.437356 7.700349,1.51034 2.59518,1.201276 4.743125,3.166472 6.279546,5.592348 l -0.0092,0 z"
     id="path227"
     style="fill:url(#XMLID_20_);stroke:none"
     inkscape:connector-curvature="0" />
  <path
     d="m 37.948111,9.455672 c 0.873175,1.134212 -0.11256,1.516172 -2.144901,1.33248 6.096999,1.822324 4.697489,0.21284 2.154029,-1.33248 l -0.0092,0 z m 5.756247,-0.825148 c 5.737995,0.600636 4.207662,-0.594808 1.676374,-1.5395 0.970526,0.860136 0.167319,1.36164 -1.667246,1.5395 l -0.0092,0 z m 4.116386,4.105328 c 0.809283,1.262508 -0.2586,1.58032 -2.376125,1.215856 6.227823,2.428792 4.910457,0.621048 2.385253,-1.215856 l -0.0092,0 z m 2.881167,-1.498676 c 0.812327,1.26542 -0.255559,1.580316 -2.373084,1.215852 6.227822,2.428792 4.910456,0.621048 2.382212,-1.215852 l -0.0092,0 z m -12.95764,1.204188 c 6.236951,2.428796 4.919585,0.621048 2.394381,-1.215852 0.800154,1.262504 -0.26772,1.577404 -2.382213,1.215852 l -0.012,0 z m 5.823179,0.603556 c 0.809283,1.262504 -0.258599,1.577404 -2.376124,1.215852 6.227822,2.428792 4.910456,0.621048 2.385252,-1.215852 l -0.0092,0 z M 48.839954,9.9805 c -0.459407,-0.34112 -1.19567,-0.73476 -2.026249,-1.107972 1.064847,1.072984 0.08824,1.594896 -2.059712,1.667788 4.66706,0.787244 5.208611,0.27408 4.122469,-0.545236 6.53815,1.093392 4.855693,-0.402372 1.995825,-1.679456 1.040506,1.061324 0.08824,1.583236 -2.023205,1.664876 l -0.0092,0 z m -6.699393,2.379224 c 6.632461,1.11672 4.94392,-0.38488 2.07188,-1.667788 1.061803,1.070068 0.0852,1.594896 -2.062756,1.667788 l -0.0092,0 z m 0.0152,-3.274348 c 0.419852,0.726012 -0.435067,1.052572 -2.053632,1.052572 5.406371,1.10214 4.344569,-0.08164 2.11448,-1.2246 -0.06388,-0.36448 -0.857962,-1.04966 -1.858913,-1.734852 0.724091,1.06132 -0.182559,1.358724 -2.004953,1.10214 2.464357,0.880548 3.556583,1.037996 3.812146,0.80474 l -0.0092,0 z m 9.556222,6.076352 c 5.999639,3.58342 4.974344,1.487016 2.701664,-0.848472 0.596311,1.446196 -0.568931,1.589068 -2.692536,0.848472 l -0.0092,0 z m -3.188451,1.3354 c 5.999638,3.58342 4.971304,1.487016 2.701664,-0.848472 0.593271,1.446196 -0.571972,1.589064 -2.692536,0.848472 l -0.0092,0 z m -13.465724,-5.1754 c 0.812327,1.262508 -0.255559,1.58032 -2.373084,1.215856 6.227822,2.428792 4.910457,0.621048 2.382212,-1.215856 l -0.0092,0 z m 19.958234,-0.0116 c 0.575015,1.37622 -0.532419,1.513256 -2.552584,0.807652 5.704527,3.411388 4.724868,1.414124 2.561712,-0.807652 l -0.0092,0 z M 44.328045,16.7217 c 6.297794,3.764192 5.22078,1.562824 2.835528,-0.889296 0.623695,1.516172 -0.599355,1.667792 -2.826404,0.889296 l -0.0092,0 z m -6.480342,-3.30934 c 0.809279,1.262504 -0.258599,1.577404 -2.376124,1.215852 6.227818,2.428792 4.910452,0.621048 2.385248,-1.215852 l -0.0092,0 z m 4.308057,2.283004 c 0.812323,1.265424 -0.255559,1.58032 -2.373084,1.215856 6.227823,2.428792 4.910457,0.621048 2.382212,-1.215856 l -0.0092,0 z m -0.751478,3.796268 c 5.622383,5.17248 5.010856,2.688288 3.115435,-0.32948 0.298159,1.694028 -0.991831,1.59198 -3.106307,0.32948 l -0.0092,0 z"
     id="path229"
     style="fill:url(#XMLID_21_);stroke:none"
     inkscape:connector-curvature="0" />
  <path
     d="m 47.127077,31.294392 c -2.081013,-1.312068 -1.825449,-4.566012 -1.816321,-4.566012 0.170359,0.99426 1.639857,0.752256 1.648989,0.752256 -0.310319,-0.924284 -0.282959,-5.953896 -0.273839,-5.953896 2.071884,7.484648 3.547454,6.557448 2.917675,-0.80182 -0.0184,0 3.151939,5.612756 -2.4674,10.569472 l -0.0092,0 z"
     id="path231"
     style="fill:#4a6eaa;stroke:none"
     inkscape:connector-curvature="0" />
  <path
     d="m 52.095337,27.019952 c 0.532423,-1.23918 -0.355959,-5.638996 -0.346839,-5.638996 0.0092,0 0.705839,1.312072 1.718965,0.973848 0,0 0.25252,-2.140136 -1.411682,-3.207288 -0.006,0 1.718966,0.437356 2.184453,-0.486924 -0.0152,0 3.583966,5.53986 -2.135773,8.35936 l -0.0092,0 z"
     id="path233"
     style="fill:#4a6eaa;stroke:none"
     inkscape:connector-curvature="0" />
  <path
     d="m 16.371316,22.865056 c 7.073609,-0.21868 3.322315,-4.837176 12.762924,-13.584328 -7.69122,4.277356 -15.701899,4.18114 -12.7538,13.584328 l -0.0092,0 z"
     id="path235"
     style="fill:url(#XMLID_22_);stroke:none"
     inkscape:connector-curvature="0" />
  <path
     d="M 16.371316,22.865056 C 17.615662,21.138952 21.823319,14.4328 29.13424,9.280728 c -7.69122,4.277356 -15.701899,4.18114 -12.7538,13.584328 l -0.0092,0 z"
     id="path237"
     style="fill:url(#XMLID_23_);stroke:none"
     inkscape:connector-curvature="0" />
  <path
     d="m 20.016126,20.168016 c -1.329534,1.274168 -2.920715,0.976768 -3.045455,-0.702688 -0.19472,-2.373396 2.461312,-2.624144 3.617426,-2.262596 0.38944,1.0759 -0.10344,2.12556 -0.562843,2.965284"
     id="path239"
     style="fill:#000064;stroke:none"
     inkscape:connector-curvature="0" />
  <path
     d="m 20.143906,19.850204 c -0.428979,0.766832 -1.429934,1.0759 -1.983653,0.787244 -0.565887,-0.28864 -0.562847,-1.25376 -0.12476,-2.020592 0.422895,-0.766836 2.290937,-0.42278 2.300069,-0.42278 0.0092,0 0.237319,0.892208 -0.19168,1.656128 z"
     id="path241"
     style="fill:url(#eye_2_);stroke:none"
     inkscape:connector-curvature="0" />
  <path
     d="m 18.254569,19.896856 c 0.389439,0.466512 0.985742,0.632708 1.338662,0.37028 0.337719,-0.26532 0.492871,-1.043824 0.10952,-1.51034 -0.39552,-0.469428 -1.183495,-0.446104 -1.518162,-0.18368 -0.359,0.2624 -0.32248,0.85722 0.07908,1.323736 l -0.0092,0 z"
     id="path243"
     style="fill:url(#pupil_1_);stroke:none"
     inkscape:connector-curvature="0" />
  <path
     d="m 16.778995,24.806924 c 0,0 0,-0.728928 -0.21904,-1.45786 -2.619519,0.851388 -3.428802,-0.921364 -3.41967,-0.921364 0.0092,0 -1.694625,4.020772 0.19472,5.831436 0.203839,-1.89522 3.346654,-3.353076 3.355782,-3.353076"
     id="path245"
     style="fill:url(#XMLID_24_);stroke:none"
     inkscape:connector-curvature="0" />
  <path
     d="m 16.675555,24.90606 0.10344,-0.09912 c 0,0 0,-0.728928 -0.21904,-1.45786 -4.165065,2.13722 -3.227998,4.910072 -3.21887,4.910072 0.191679,-1.89522 3.334482,-3.353076 3.34361,-3.353076 l -0.0092,0 z"
     id="path247"
     style="fill:#484848;stroke:none"
     inkscape:connector-curvature="0" />
  <path
     d="m 13.322817,25.04018 c 0,0 0.0212,-1.204192 0.593271,-1.422868 -0.006,0.23616 0.285999,0.41986 0.581099,0.41986 -0.797111,0.0758 -1.17437,1.003008 -1.165242,1.003008 l -0.0092,0 z"
     id="path249"
     style="fill:url(#XMLID_25_);stroke:none"
     inkscape:connector-curvature="0" />
  <path
     d="m 13.900876,13.38606 0.006,-0.0029 c -0.28296,0.425692 -0.523295,0.868884 -0.690627,1.344144 -0.830583,1.574488 -0.31032,3.953712 -0.10952,5.735216 0.1734,0.62688 0.37728,1.271252 0.745391,1.624052 l 0.450275,0.1458 c -0.0092,-0.994264 0.358999,-1.915628 0.313359,-2.91572 -0.06996,-1.21294 -0.401599,-2.428796 -0.146039,-3.644648 0.209919,-1.070068 0.87317,-1.997264 1.143946,-3.058588 0.325519,-1.32082 0.285999,-2.743688 0.480699,-4.090752 -0.818407,1.387884 -1.557713,2.994444 -2.184448,4.86342"
     id="path251"
     style="fill:#ffffff;fill-opacity:0.25;stroke:none"
     inkscape:connector-curvature="0" />
</svg>
