/* XPM */
static char *abc[] = {
/* columns rows colors chars-per-pixel */
"24 24 129 2 ",
"   c #39142B102B8D",
".  c #568F27742848",
"X  c #5DE42F73303F",
"o  c #75A63A753B0D",
"O  c #4D46561855C5",
"+  c #5D3E61F36144",
"@  c #5FFB63B462F3",
"#  c #6445683D6790",
"$  c #63BD6A2B69CE",
"%  c #6C586FAF6F87",
"&  c #6DEA71D770AF",
"*  c #73A377707649",
"=  c #774A7C3F7AD3",
"-  c #7B777E1C7BA4",
";  c #9E4530FE3166",
":  c #A62839E53A3D",
">  c #BD86329F32DF",
",  c #DB602E552E56",
"<  c #C62D32003240",
"1  c #CF5C3EDF3E95",
"2  c #D704324E325B",
"3  c #DC263329332A",
"4  c #D59F3BF73B87",
"5  c #DBA23AFA3ADC",
"6  c #DA8E400D3FA8",
"7  c #8E614D404D24",
"8  c #A01042504269",
"9  c #95554ED84ECB",
"0  c #B37F51F24FDE",
"q  c #BA4F566C5480",
"w  c #941672DE6F0C",
"e  c #94B17DB27965",
"r  c #A47B6CCB6B33",
"t  c #B3A570DF6EAE",
"y  c #A456759072BE",
"u  c #C7A342E2423C",
"i  c #CEDA442143B6",
"p  c #C63B49DD4977",
"a  c #D111413B40B4",
"s  c #DCC4434F4327",
"d  c #DD6E4C834C60",
"f  c #C2BC549953E8",
"g  c #CC3C59BC58EB",
"h  c #DF1755B455A6",
"j  c #E0195AA15AA3",
"k  c #C1E863506189",
"l  c #CE0C683F6703",
"z  c #C6086B946A4F",
"x  c #DF09641F640A",
"c  c #D3736EF76E84",
"v  c #E00A6A986A70",
"b  c #CD86734F71A9",
"n  c #C6BB7DB77BF5",
"m  c #E0EB64C464C4",
"M  c #E1DC6B036B03",
"N  c #E3AD7BF37BF3",
"B  c #809483007E2E",
"V  c #991882177EB1",
"C  c #A6A180387DBF",
"Z  c #837385EA81BA",
"A  c #8F5D87528372",
"S  c #873A89A18509",
"D  c #8A0D8BE987CB",
"F  c #8B878DD18A22",
"G  c #91C1870683D0",
"H  c #967A8AE18792",
"J  c #9AB98A108747",
"K  c #913990078B9F",
"L  c #8F3B91CA8E51",
"P  c #91F592868E90",
"I  c #9FC491A38E7C",
"U  c #8EE395279203",
"Y  c #93C995D5929C",
"T  c #9BEE96EA942B",
"R  c #96F799359745",
"E  c #96C599949951",
"W  c #9BC79D869A94",
"Q  c #A5B88A5E88F7",
"!  c #BB5091548F39",
"~  c #BBF29E259C46",
"^  c #9E52A0AB9DBC",
"/  c #A144A2C09F04",
"(  c #A405A5D9A223",
")  c #A927AA31A69A",
"_  c #A4C0AC34AAC6",
"`  c #AC61ADACAB0B",
"'  c #B212AE46AABB",
"]  c #B553B677B399",
"[  c #B658B8DDB635",
"{  c #BCA6BDADBA58",
"}  c #C19F87DF85AC",
"|  c #D67882D980FA",
" . c #D48D895E880C",
".. c #DAAD90388FAD",
"X. c #CC169BF59985",
"o. c #D74C948191DE",
"O. c #DD2C99CC994A",
"+. c #E0738EE08DA7",
"@. c #E4DF91649146",
"#. c #E7889B549B55",
"$. c #C663A6D6A739",
"%. c #DC38A33FA202",
"&. c #DA43B514B44C",
"*. c #EA1BB5CBB5CB",
"=. c #EA46BED5BED5",
"-. c #C395C498C243",
";. c #C849C8F1C7D1",
":. c #CB1ECCCBC9F9",
">. c #D1FFCF2DCB39",
",. c #CFF4D084CFE3",
"<. c #D073D1FECE49",
"1. c #D1B3D234D130",
"2. c #DB01D192D064",
"3. c #DB48DA04D7A0",
"4. c #DBBFDC6EDB76",
"5. c #E774CED1CEF9",
"6. c #EC09CBE8CBE9",
"7. c #EF63D6C6D6C3",
"8. c #E39EDDC5DB16",
"9. c #EDBBDBA9DB9B",
"0. c #E46DE4D7E444",
"q. c #EDC6E376E332",
"w. c #EF8DEF28EEF1",
"e. c #F09DE3FCE3F9",
"r. c #F0A9F024F025",
"t. c #EFA9F06BF093",
"y. c #F037F1A9F19F",
"u. c #F126F19EF19D",
"i. c None",
/* pixels */
"i.i.i.i.i.i.i.i.i.3 3 3 3 , 3 3 i.i.i.i.i.i.i.i.",
"i.i.4.4.4.&.s , 3 s v %.%.O.d s 3 3 i.i.i.i.i.i.",
"i.4.w.w.@.s 3 j #.e.e.y.u.u.q.5.g 3 3 3 i.i.i.i.",
"i.4.y.#.3 3 N 9.u.y.u.u.y.r.r.0.^ i.3 3 3 i.i.i.",
"i.4.9.j 3 3 h =.r.u.r.r.r.w.r.0.^ i.i.i.3 3 i.i.",
"i.2.M , M N 3 j 6.r.t.t.r.u.u.0.^ i.i.i.3 3 i.i.",
"i...5 m 9.9.M 3 m 6.t.t.r.r.u.0.^ i.i.i.i.3 3 i.",
"i.3 5 *.y.y.6.x 3 m 6.t.0.;.` ( & i.i.i.i.3 3 i.",
"i., M w.r.r.r.6.m 3 x $.E Y W ^ W Y = # i.i.3 3 ",
"i.3 N r.r.r.r.r.6.x 3 p Q ( ` ` ` ) / P & i.3 3 ",
"i.s 7.r.t.r.r.r.w.~ p 3 f J E ( / Y R R R $ i.3 ",
"i.s e.t.r.r.r.r.:.Y C i 3 l I Y P [ 3.` Y U 9 3 ",
"i.s e.u.t.t.r.t.` P F ! h 3 b T [ 0.w.3.Y L r 3 ",
"i.s 7.u.t.t.u.0.Y Y F Y X.d 5 | 8.w.0.[ D L t 3 ",
"i.3 c :.t.w.1.` Z Y F Z P X.d 5 +.3.` S S G 6 2 ",
"i.3 a T 4.-.i.i.* F S Z Z { %.s 5  .P B S e 4 3 ",
"i.3 3 r _ i.i.i.% F Z S ` <.>...6 6 n P B q , i.",
"i.i.3 u i.i.i.i.* L B ) :.-.>.' n 5 6 ! y 6 > i.",
"i.i.3 3 3 i.i.i.i.= S W -.;./ B G z 4 6 6 2 : i.",
"i.i.i.3 3 i.i.i.i.@ L D / / B D B V k 3 3 8 i.i.",
"i.i.i.i.3 3 i.i.i.i.+ L S B F S S w 0 3 < X i.i.",
"i.i.i.i.3 3 3 3 i.i.  O = D H V q 4 2 < . i.i.i.",
"i.i.i.i.i.i.3 3 3 3 3 i.o 7 a 4 3 > ;   i.i.i.i.",
"i.i.i.i.i.i.i.i.i.3 3 3 3 3 3 3 i.i.i.i.i.i.i.i."
};
