/* XPM */
static char *pidgin_tray_offline_png[] = {
/* columns rows colors chars-per-pixel */
"24 24 205 2 ",
"   c #212527",
".  c #2F3334",
"X  c #323638",
"o  c #343839",
"O  c #3D4142",
"+  c #4F5354",
"@  c #4F5454",
"#  c #505454",
"$  c #595D5D",
"%  c #5C6060",
"&  c #5D6261",
"*  c #5E6262",
"=  c #616464",
"-  c #656969",
";  c #666A6A",
":  c #686C6B",
">  c #696C6C",
",  c #6A6D6D",
"<  c #6D7170",
"1  c #6F7372",
"2  c #717473",
"3  c #747776",
"4  c #757878",
"5  c #787B7A",
"6  c #797C7A",
"7  c #7C7E7A",
"8  c #7D7F7A",
"9  c #7C7F7D",
"0  c #7F817C",
"q  c #7F817D",
"w  c #7E817F",
"e  c #80827D",
"r  c #80827E",
"t  c #81837E",
"y  c #82847F",
"u  c #7F8280",
"i  c #808382",
"p  c #838580",
"a  c #848680",
"s  c #848681",
"d  c #858782",
"f  c #858783",
"g  c #838584",
"h  c #878983",
"j  c #868884",
"k  c #878884",
"l  c #878984",
"z  c #878985",
"x  c #888A85",
"c  c #898B85",
"v  c #888A86",
"b  c #898B86",
"n  c #8A8B87",
"m  c #8A8C87",
"M  c #8B8D87",
"N  c #888B88",
"B  c #888B8B",
"V  c #8A8C88",
"C  c #8B8D89",
"Z  c #8B8D8A",
"A  c #8C8E89",
"S  c #8C8E8A",
"D  c #8C8E8B",
"F  c #8D8F8B",
"G  c #8B8E8D",
"H  c #8C8E8D",
"J  c #8E8F8C",
"K  c #8F908C",
"L  c #8E908D",
"P  c #8E918D",
"I  c #8F918D",
"U  c #90918C",
"Y  c #90928D",
"T  c #90928E",
"R  c #91938E",
"E  c #90928F",
"W  c #91928F",
"Q  c #91938F",
"!  c #92938E",
"~  c #92948F",
"^  c #8F9190",
"/  c #919390",
"(  c #909392",
")  c #909393",
"_  c #939490",
"`  c #939491",
"'  c #939591",
"]  c #929492",
"[  c #939593",
"{  c #949592",
"}  c #949692",
"|  c #959693",
" . c #969793",
".. c #969794",
"X. c #969696",
"o. c #979995",
"O. c #979996",
"+. c #999A97",
"@. c #9A9B98",
"#. c #9A9C98",
"$. c #9B9D9B",
"%. c #9C9E9B",
"&. c #9C9C9C",
"*. c #9D9D9D",
"=. c #9FA09D",
"-. c #9FA19D",
";. c #9FA19E",
":. c #A1A29F",
">. c #A2A39F",
",. c #9D9FA0",
"<. c #A2A4A1",
"1. c #A4A5A1",
"2. c #A4A5A2",
"3. c #A4A5A3",
"4. c #A4A6A2",
"5. c #A5A6A3",
"6. c #A4A4A4",
"7. c #A5A7A7",
"8. c #A8A9A6",
"9. c #AAABA7",
"0. c #A7AAAA",
"q. c #ABACA8",
"w. c #ABACA9",
"e. c #ABACAA",
"r. c #ACADA9",
"t. c #ADAEAB",
"y. c #AEAFAC",
"u. c #ACAEAE",
"i. c #AEAEAE",
"p. c #AFAFAF",
"a. c #AEB0AD",
"s. c #AFB0AE",
"d. c #AFB1B2",
"f. c #B4B5B3",
"g. c #B5B5B4",
"h. c #B4B5B5",
"j. c #B5B6B4",
"k. c #BBBCBA",
"l. c #BDBEBB",
"z. c #BEBFBC",
"x. c #BDBFBF",
"c. c #BFBFBF",
"v. c #C1C2BF",
"b. c #C0C0C0",
"n. c #C2C3C0",
"m. c #C5C6C3",
"M. c #C5C5C5",
"N. c #C6C8C3",
"B. c #C6C9C3",
"V. c #C6C9C4",
"C. c #C8CAC4",
"Z. c #CACBC6",
"A. c #CACCC7",
"S. c #C8C9C9",
"D. c #C9C9C9",
"F. c #CBCDC9",
"G. c #CCCEC9",
"H. c #CCCDCB",
"J. c #CDCDCD",
"K. c #D0D2CD",
"L. c #D0D1CF",
"P. c #D1D3CE",
"I. c #D2D3CF",
"U. c #D2D3D0",
"Y. c #D2D2D3",
"T. c #D4D5D1",
"R. c #D4D5D2",
"E. c #D4D4D3",
"W. c #D5D5D5",
"Q. c #D6D6D5",
"!. c #D7D7D6",
"~. c #D9DAD6",
"^. c #D9DAD7",
"/. c #DBDCD8",
"(. c #DFDFDE",
"). c #DFE0DD",
"_. c #E0E0DF",
"`. c #E1E1E1",
"'. c #E3E4E0",
"]. c #E3E4E1",
"[. c #E4E4E4",
"{. c #E6E6E4",
"}. c #E6E7E5",
"|. c #E6E6E7",
" X c #E7E7E7",
".X c #E9E9E7",
"XX c #E8E8E8",
"oX c #E9E8E8",
"OX c #EAEAE8",
"+X c #E9EAEA",
"@X c #EBECE9",
"#X c #EBECEA",
"$X c #EDEDEB",
"%X c #ECECEC",
"&X c #EEEEEC",
"*X c #EFEFED",
"=X c #EEEEEE",
"-X c #EFEFEF",
";X c #F0F0F0",
":X c #F1F0F0",
">X c #F1F1F1",
",X c #F2F2F2",
"<X c #F3F3F3",
"1X c #F5F5F5",
"2X c None",
/* pixels */
"2X2X2X2X2X2X2X2X2X2X2X2X2X2X2X2X2X2X2X2X2X2X2X2X",
"2Xi.M.M.M.M.M.M.M.M.M.M.M.M.M.c.2X2X2X2X2X2X2X2X",
"2XM.1X,X,X,X,X,X,X,X,X,X,X,X,XoX2X2X2X2X2X2X2X2X",
"2XM.,X-X-X-X-X-X-X-X-X-X-X-X,X X*.2X2X2X2X2X2X2X",
"2XM.,X-X-X-X-X-X-X-X-X-X-X-X-X X*.2X2X2X2X2X2X2X",
"2XM.,X-X-X-X-X-X-X-X-X-X-X-X-X X*.2X2X2X2X2X2X2X",
"2XM.,X-X-X-X-X-X-X-X-X-X-X,X,XoX*.2X2X2X2X2X2X2X",
"2XM.,X-X-X-X-X-X-X-X-X,X[.S.u.*.> 2X2X2X2X2X2X2X",
"2XM.,X-X-X-X-X-X-X-X#Xx.) ^ $.-.-.[ 4 2X2X2X2X2X",
"2Xb.,X-X-X-X-X-X-XoXu.B -.2.q.q.r.9.>.o.; 2X2X2X",
"2XM.,X-X-X-X-X-X-Xd.B -.{ [ $.2.>.{  .o.%.; 2X2X",
"2XM.,X-X-X-X-X,XY.B $. .H.!.+.Q U f._.r.[ [ 2X2X",
"2XM.,X-X-X-X-X-X7.{ h k.$X-XE.{ j..X*X_.) { 4 2X",
"2XM.1X,X-X-X,X X) { x [ E.#X#X_.{.$X{.f.h ~ N 2X",
"2Xp.D.J.;X,X!.h.i ~ M a K P.]._._._.t.y x F K @ ",
"2X2X2XX.`.b.2X2X3 Q x h 8 l./.^.~.E.K t x x K + ",
"2X2X2X2X7.2X2X2X2 Q l 0 i.U.P.U.I.I.m.C p M C 2X",
"2X2X2X2X2X2X2X2X& ~ 0 8.H.C.F.a.n.A.A.v.l C u 2X",
"2X2X2X2X2X2X2X2X2Xg a 7.B.B.2.0 C z.B.l.x K = 2X",
"2X2X2X2X2X2X2X2X2X$ K a 4.2.0 l y C a.C F 6 2X2X",
"2X2X2X2X2X2X2X2X2X2X& K a 0 h l x y 0 K 9 o 2X2X",
"2X2X2X2X2X2X2X2X2X2X2X# u Q Q Q Q ) F > . 2X2X2X",
"2X2X2X2X2X2X2X2X2X2X2X2XX @ > 1 < % O   2X2X2X2X",
"2X2X2X2X2X2X2X2X2X2X2X2X2X2X2X2X2X2X2X2X2X2X2X2X"
};
