<?xml version="1.0" encoding="UTF-8" standalone="no"?>
<!-- Created with Inkscape (http://www.inkscape.org/) -->

<svg
   xmlns:dc="http://purl.org/dc/elements/1.1/"
   xmlns:cc="http://creativecommons.org/ns#"
   xmlns:rdf="http://www.w3.org/1999/02/22-rdf-syntax-ns#"
   xmlns:svg="http://www.w3.org/2000/svg"
   xmlns="http://www.w3.org/2000/svg"
   xmlns:sodipodi="http://sodipodi.sourceforge.net/DTD/sodipodi-0.dtd"
   xmlns:inkscape="http://www.inkscape.org/namespaces/inkscape"
   width="256"
   height="256"
   id="svg2987"
   version="1.1"
   inkscape:version="0.48.3.1 r9886"
   sodipodi:docname="escribe.svg">
  <defs
     id="defs2989" />
  <sodipodi:namedview
     id="base"
     pagecolor="#ffffff"
     bordercolor="#666666"
     borderopacity="1.0"
     inkscape:pageopacity="0.0"
     inkscape:pageshadow="2"
     inkscape:zoom="0.35"
     inkscape:cx="-560.71422"
     inkscape:cy="-194.00001"
     inkscape:document-units="px"
     inkscape:current-layer="layer1"
     showgrid="false"
     inkscape:window-width="1050"
     inkscape:window-height="1034"
     inkscape:window-x="0"
     inkscape:window-y="40"
     inkscape:window-maximized="0"
     fit-margin-top="0"
     fit-margin-left="0"
     fit-margin-right="0"
     fit-margin-bottom="0" />
  <metadata
     id="metadata2992">
    <rdf:RDF>
      <cc:Work
         rdf:about="">
        <dc:format>image/svg+xml</dc:format>
        <dc:type
           rdf:resource="http://purl.org/dc/dcmitype/StillImage" />
        <dc:title />
      </cc:Work>
    </rdf:RDF>
  </metadata>
  <g
     inkscape:label="Layer 1"
     inkscape:groupmode="layer"
     id="layer1"
     transform="translate(-343.36438,-184.99554)">
    <g
       transform="matrix(5.1346218,0,0,3.6850092,-2477.2158,-884.50232)"
       id="layer1-3">
      <text
         xml:space="preserve"
         style="font-size:144px;font-style:italic;font-variant:normal;font-weight:normal;font-stretch:normal;text-align:start;line-height:125%;letter-spacing:0px;word-spacing:0px;writing-mode:lr-tb;text-anchor:start;fill:#000000;fill-opacity:1;stroke:none;font-family:Gentium Book Basic;-inkscape-font-specification:Gentium Book Basic Italic"
         x="545.70532"
         y="356.87793"
         id="text3044"
         sodipodi:linespacing="125%"><tspan
           sodipodi:role="line"
           x="545.70532"
           y="356.87793"
           id="tspan3046"><tspan
             x="545.70532"
             y="356.87793"
             id="tspan3048">e</tspan></tspan></text>
    </g>
    <path
       style="fill:#aa0000;fill-opacity:0.40784313999999999;stroke:none"
       d="M 65.926271,249.88717 C 27.804197,237.96712 5.1803037,207.8666 5.0628057,168.90988 4.9239594,122.8751 29.663566,81.425299 77.8572,46.947004 116.69079,19.164995 151.34585,7.0300757 192.14291,6.9283763 c 25.24849,-0.06294 30.0539,0.7595123 41.318,7.0716337 25.10491,14.068161 32.08104,35.965451 18.72091,58.762797 -15.7773,26.921926 -70.71193,54.771343 -154.384869,78.266283 -16.982377,4.76857 -31.515008,9.30808 -32.29474,10.08781 -2.537328,2.53733 5.514532,24.89116 13.088103,36.33559 4.064369,6.14168 13.276397,14.62737 20.47118,18.8571 10.978196,6.45396 16.101156,7.61413 31.863246,7.21595 22.09173,-0.55808 52.49886,-10.07378 85.97515,-26.90533 22.69062,-11.40862 23.30369,-11.54367 28.55696,-6.29039 5.25327,5.25327 4.76928,5.71261 -22.54414,21.39624 -31.93403,18.33683 -62.55509,31.78761 -86.47717,37.98644 -20.01666,5.18684 -54.208726,5.27154 -70.509269,0.17466 l 0,1e-5 z M 102.88885,128.51506 C 165.7246,107.40502 189.68393,91.450587 192.7374,68.68523 194.88778,52.652939 189.51683,41.152933 177.13449,35.277133 143.15151,19.151148 78.647709,70.930319 66.24314,124.29302 c -2.7815,11.96562 -2.812257,15.42128 -0.137257,15.42128 1.896143,0 18.448477,-5.03966 36.782967,-11.19924 z"
       id="path2986"
       inkscape:connector-curvature="0"
       transform="translate(343.36438,184.99554)" />
    <path
       style="fill:#aa0000;fill-opacity:0.40784314;stroke:none"
       d="M 60.070286,246.4169 C 45.1229,241.12414 21.604349,220.37112 15.157494,206.78538 3.2771009,181.7493 4.9482734,145.17084 19.381652,114.32742 25.562292,101.11969 34.47466,89.538964 51.469583,72.632359 92.101209,32.211888 134.05584,12.266824 184.97434,9.1647337 218.6974,7.1102356 233.9802,11.488636 247.72406,27.142032 c 7.07886,8.062372 8.70457,12.439595 8.70457,23.437012 0,34.721066 -41.13364,61.562896 -145.53036,94.966096 -51.719279,16.54832 -50.423407,15.20252 -39.160756,40.66938 7.889106,17.83867 23.393829,31.3915 41.485806,36.26317 20.42421,5.49967 50.30461,-1.25208 96.96465,-21.91004 22.74901,-10.07175 30.2456,-12.27438 32.85714,-9.65404 4.65362,4.6693 -3.72422,10.8018 -41.0636,30.05815 -46.13648,23.79312 -67.9689,30.21719 -101.77093,29.94554 -17.070837,-0.13718 -32.797686,-1.90043 -40.140294,-4.5004 z M 106.23677,128.02351 c 60.74252,-20.5968 83.87716,-36.754926 86.54775,-60.44828 3.82859,-33.967174 -26.67776,-46.421032 -62.81939,-25.645277 -30.47749,17.519763 -60.901601,58.261417 -66.086959,88.498627 -2.088674,12.17962 -0.364797,12.08174 42.358599,-2.40507 z"
       id="path2988"
       inkscape:connector-curvature="0"
       transform="translate(343.36438,184.99554)" />
    <path
       style="fill:#ff0000;fill-opacity:0.40784314;stroke:none"
       d="M 78.88071,247.88284 C 56.814393,245.64763 51.523821,243.21175 34.346999,227.37871 15.002271,209.54736 9.8363314,197.15381 9.7155837,168.28572 9.5451326,127.53474 22.34904,101.73174 60.186836,66.573807 100.25004,29.34808 135.40563,13.975217 185.51836,11.76874 c 36.2152,-1.594565 41.95479,-0.439956 55.07419,11.079027 20.15543,17.696697 18.65155,41.13956 -4.01461,62.580814 -18.13088,17.151069 -51.31359,33.046789 -117.0765,56.083889 -61.764787,21.63654 -60.650476,20.54284 -47.456881,46.57915 13.208782,26.06628 38.804991,39.97684 66.417831,36.09556 18.35984,-2.58068 27.80913,-5.52127 67.23456,-20.92324 31.65983,-12.36825 42.76521,-14.10119 33.41876,-5.21483 -7.96523,7.57313 -64.36196,35.6768 -85.54422,42.62847 -24.00148,7.87689 -46.56861,10.05389 -74.69078,7.20526 z m 21.49453,-117.0295 c 27.1557,-9.23586 68.61022,-28.03659 76.1205,-34.522681 10.87657,-9.393315 17.07575,-20.703078 17.07575,-31.152952 0,-46.053186 -50.29753,-44.696835 -94.74326,2.5549 -18.71364,19.895097 -31.817046,42.629873 -35.312057,61.267403 -1.836469,9.79316 -1.458346,10.71429 4.398237,10.71429 3.524091,0 18.131466,-3.98743 32.46083,-8.86096 z"
       id="path3227"
       inkscape:connector-curvature="0"
       transform="translate(343.36438,184.99554)" />
  </g>
</svg>
