/* XPM */
static char *dummy[]={
"32 32 628 2",
"Qt c None",
".# c #000000",
".S c #000001",
".0 c #000100",
".w c #000101",
".m c #000200",
".A c #000201",
"g2 c #001909",
"#j c #001a10",
"gF c #003b29",
"hl c #004732",
".V c #010000",
".Z c #010100",
".p c #010102",
"#3 c #010201",
".L c #010202",
"hX c #010204",
"cN c #010301",
".e c #010402",
".a c #010604",
".f c #010704",
".1 c #010d07",
"gj c #013826",
"fz c #013a29",
"eA c #014a34",
".Y c #020300",
"#C c #020304",
"b5 c #020305",
"gW c #020400",
".z c #020405",
"gz c #020802",
"dB c #020d09",
"ep c #021811",
".5 c #021e14",
"he c #026e59",
".v c #030305",
".D c #030406",
"#b c #030507",
".I c #030508",
"hE c #030701",
".s c #030e0b",
".l c #03120f",
"d1 c #03140f",
".4 c #031f15",
".3 c #03251a",
"fX c #03402e",
"gE c #034531",
"dq c #03624b",
"#z c #04070b",
"ge c #040f0b",
"em c #04100f",
".2 c #042118",
".Q c #04231a",
"fW c #044936",
"g1 c #04533f",
"#8 c #04785e",
"eM c #050709",
"#2 c #05090d",
"gd c #050b12",
"eo c #050c0e",
".6 c #052419",
"eN c #052a21",
"b6 c #052c22",
"en c #053629",
"hH c #054c3a",
"fd c #05523e",
"dX c #05553f",
"dr c #055943",
"bj c #060404",
"ar c #060c10",
"co c #060c11",
"el c #061613",
"bH c #061c19",
"d# c #06211d",
"gV c #062626",
"f# c #063227",
"#k c #064c3a",
"#r c #06604b",
"hf c #06765e",
".P c #070b0c",
".G c #070e0b",
"aT c #070e11",
"#a c #071014",
"#0 c #071118",
".M c #071b14",
"#y c #072420",
"dA c #072e28",
"fw c #072f25",
"e. c #075742",
"es c #075b47",
"ds c #07614c",
"#s c #07624c",
"dO c #076d57",
"#A c #080e14",
"bi c #081418",
"cM c #08161a",
"## c #08171a",
"#. c #081e1c",
"fS c #081f18",
"#1 c #082f27",
"#B c #083429",
"aS c #08382b",
"eQ c #085f4b",
"fA c #08604b",
"d3 c #08604c",
"gi c #086550",
"aw c #086650",
"gk c #086752",
"cx c #087a63",
"dU c #088a73",
"aq c #092221",
".t c #09241c",
"d0 c #092522",
".7 c #094232",
".n c #094c3d",
"#x c #095746",
"d8 c #095b46",
"dE c #096a55",
"#t c #096f58",
"#q c #096f5a",
"di c #09725b",
"f0 c #09967d",
"ej c #099b82",
"hh c #0a2312",
".9 c #0a2923",
".d c #0a352f",
"fc c #0a6b56",
"#J c #0a826a",
"hM c #0a8a73",
"hD c #0b0f12",
"ap c #0b151c",
"bI c #0b2119",
".R c #0b2326",
".8 c #0b392b",
".c c #0b493b",
"cn c #0b4e3b",
".g c #0b5947",
".y c #0b5a48",
"eR c #0b735d",
"dx c #0b765f",
"#u c #0b7760",
"hk c #0b7862",
"#p c #0b7b65",
"cQ c #0b7d67",
"fv c #0c1631",
".q c #0c2c28",
"dc c #0c7660",
"#l c #0c7963",
"dp c #0c7f64",
"cr c #0c806a",
".C c #0d171b",
".o c #0d2726",
".x c #0d2a2a",
".b c #0d3c36",
"dP c #0d4d4f",
"dY c #0d6c56",
"#v c #0d7760",
"bm c #0d7a64",
"db c #0d7b65",
"dD c #0d7f68",
"cV c #0d826b",
"#o c #0d8770",
"e3 c #0e1436",
".J c #0e191e",
"#c c #0e1b20",
".F c #0e2726",
"b4 c #0e3d32",
"#Z c #0e6453",
"ek c #0e664e",
"#w c #0e705a",
"d2 c #0e806a",
"fe c #0e8971",
"fD c #0e8e77",
"dN c #0e9177",
"do c #0e9178",
".i c #0f2c2b",
".j c #0f4c40",
".k c #0f6752",
"cU c #0f856d",
"fY c #0f8871",
"et c #0f8972",
"b8 c #0f8b73",
"#m c #0f8c74",
"#n c #0f8f78",
"gh c #0f927b",
"eL c #102d49",
".u c #104c42",
"gD c #10846e",
"er c #108a73",
"fV c #108b73",
"dC c #108d75",
"d4 c #10917a",
"cd c #10937c",
"bK c #10967e",
"ea c #109b81",
".h c #11463c",
".r c #11735e",
"eq c #11917a",
"b7 c #11927a",
"eP c #11937b",
"bJ c #11967e",
"eS c #119780",
"fZ c #119980",
"hg c #121f23",
"gy c #12382d",
"c3 c #128d76",
"fb c #12967e",
"eO c #12977f",
"dd c #129881",
"fa c #129c83",
"fR c #13171b",
"gU c #13755f",
"da c #138771",
"fB c #139880",
"fy c #139981",
"eE c #141b38",
"aX c #14332a",
"#I c #144b40",
"bh c #14745f",
"eb c #147a6f",
"dt c #148570",
"e# c #148d76",
"dK c #149680",
"cR c #149981",
"fU c #149a82",
"ed c #151d62",
".U c #152221",
"hN c #158f79",
"#K c #15977f",
"b9 c #159882",
"cs c #159982",
"fo c #161c55",
"#d c #16322b",
".N c #163736",
"d9 c #16513d",
"g0 c #168671",
"c4 c #16937c",
"dZ c #16967d",
"cL c #175f4b",
"hL c #176c59",
"cP c #17816c",
"ho c #178e78",
"#L c #179b84",
"fn c #181c0f",
".E c #185348",
"c8 c #188e78",
"bL c #189781",
"fx c #189c85",
"fg c #198e79",
"cp c #1a5a4c",
"cq c #1a8b76",
"#M c #1a9a83",
"c1 c #1a9a84",
"fL c #1b2fa4",
"hF c #1b5f4e",
"#Y c #1b917a",
"cy c #1b937d",
"d5 c #1b9a84",
"bn c #1b9f88",
"dy c #1c8d78",
"#T c #1c9a84",
"ff c #1c9b85",
"fC c #1c9c86",
"eV c #1d927d",
"#P c #1d9c85",
"as c #1e050b",
".T c #1e3234",
"#S c #1e9882",
"c2 c #1e9883",
"#Q c #1e9a84",
"gg c #1e9d87",
"#D c #1f0c11",
"ez c #1f2417",
"g3 c #1f7361",
"dI c #1f8774",
"dh c #1f917c",
"ew c #1f9480",
"c0 c #1f9b85",
"f. c #202a68",
"gX c #205849",
"ao c #207e6b",
"cc c #209882",
"#R c #209884",
"#N c #209c86",
"#O c #209d88",
"hG c #218370",
"cw c #219883",
"dF c #219b86",
"ec c #23424c",
"dT c #23523d",
"d. c #238470",
"dW c #239783",
"dJ c #239985",
"dl c #239c86",
"#U c #239f8a",
".X c #25040c",
"cO c #257a69",
"hO c #25917e",
"de c #259c88",
"gC c #259e8a",
"#7 c #261417",
"aR c #267f6f",
"dj c #269984",
"aY c #269f8a",
"dV c #26a18c",
"dv c #279d8a",
"dL c #279e89",
"cJ c #279f8a",
".K c #284b41",
"eB c #287469",
"d7 c #289582",
"dn c #289e8a",
"du c #299f8c",
"#9 c #29a38d",
"c9 c #2a9d89",
"ce c #2a9d8a",
"bo c #2a9e8a",
"gm c #2b7765",
"eT c #2b9e8b",
"dz c #2ba08c",
"#X c #2ba18c",
"dQ c #2c4538",
"c7 c #2c9e8b",
"cX c #2c9f8b",
"c5 c #2c9f8d",
"dk c #2da08c",
"c. c #2e9e8b",
"fT c #2e9f8b",
"cW c #2e9f8c",
"#V c #2ea38f",
".W c #2f0914",
"ei c #2f725c",
"gG c #2f9b89",
"an c #2fa791",
"bM c #309f8c",
"cH c #30a08d",
"cE c #30a18d",
".O c #314b44",
"cC c #32a18f",
"hp c #32a28f",
"dM c #32a290",
".B c #33584d",
"gA c #338879",
"dw c #33a290",
"aU c #340513",
"aa c #34a08e",
"cF c #34a18f",
"#W c #34a491",
".H c #35564f",
"f1 c #355e48",
"cl c #35a290",
"am c #35a391",
"cK c #36a391",
"a. c #36a492",
"gf c #379a89",
"bS c #37a18f",
"eu c #37a291",
"hA c #387869",
"ab c #38a290",
"cT c #38a492",
"c# c #39a18f",
"ct c #39a290",
"ah c #39a391",
"cD c #39a493",
"cS c #3aa190",
"df c #3aa290",
"c6 c #3aa391",
"a# c #3aa491",
"#i c #3b0110",
"cm c #3ba291",
"ae c #3ba392",
"af c #3ba493",
"aQ c #3ba996",
"bN c #3ca291",
"dG c #3ca391",
"al c #3ca392",
"ac c #3ca492",
"ag c #3ca493",
"gl c #3caa98",
"ex c #3d4b36",
"bp c #3da391",
"aD c #3da392",
"ad c #3da492",
"cz c #3da494",
"aB c #3ea392",
"aP c #3fa492",
"ai c #3fa594",
"aE c #40a493",
"aC c #40a494",
"dg c #40a695",
"bO c #41a494",
"cG c #41a595",
"a2 c #42a493",
"a3 c #42a494",
"cf c #42a595",
"eU c #42a797",
"eX c #433426",
"ak c #43a695",
"ax c #43ad9b",
"dR c #443f2b",
"bq c #44a595",
"ev c #44a798",
"hq c #44a897",
"gB c #44aa99",
"a4 c #45a495",
"aA c #45a595",
"dH c #45a798",
"d6 c #45a898",
"br c #46a595",
"bR c #46a696",
"aj c #46a797",
"av c #470213",
"a0 c #47a696",
"hm c #485d51",
"eK c #487c71",
"hr c #489a8b",
"cj c #48a797",
"cI c #48a897",
"gZ c #48aa99",
"bT c #49a797",
"ca c #4ba798",
"aZ c #4ba99a",
"a1 c #4ca898",
"aF c #4ca899",
"#e c #4d1d2b",
"dS c #4d4631",
"ck c #4da999",
"fm c #4e5bb4",
"hn c #4e8072",
"bU c #4fa999",
"dm c #4fa99a",
"fE c #50533e",
"g6 c #50a595",
"cA c #50aa9a",
"bl c #53071c",
"hj c #53b0a0",
"a5 c #54aa9b",
"ay c #54ab9d",
"cu c #55ab9c",
"fK c #57639d",
"aG c #57ab9d",
"hP c #589689",
"cZ c #58ac9e",
"bk c #590019",
"aO c #59ac9e",
"cY c #59ad9e",
"gJ c #5a8075",
"bW c #5aac9e",
"gT c #5b6a54",
"bg c #5cb5a5",
"bV c #5dada0",
"hi c #5fa99f",
"cb c #5faea0",
"az c #5faea1",
"cg c #60aea2",
"ey c #61432f",
"gI c #61ada0",
"aH c #62aea1",
"ci c #62afa2",
"#H c #64102b",
"bX c #64afa3",
"g4 c #64b5a8",
"gn c #654c37",
"bP c #65b0a3",
"a6 c #66afa3",
"eW c #675f47",
"cv c #67b1a4",
"hI c #68837a",
"aI c #68b0a4",
"aJ c #69b1a4",
"ee c #6a6d87",
"hW c #6a6f6f",
"bs c #6ab0a4",
"gY c #6cb8ac",
"fh c #6d5e47",
"bZ c #6db2a6",
"g9 c #6f695c",
"bG c #6f9d91",
"bY c #6fb3a7",
"b3 c #70aca0",
"gH c #72b7ab",
"g5 c #75b6ab",
"b1 c #76b5a9",
"aN c #76b5aa",
"cB c #77b6ab",
"aK c #78b6ab",
"eY c #7b7f7b",
"bf c #7bb6ac",
"ch c #7bb7ac",
"bv c #7cb6ac",
"b2 c #7cb9ae",
"a7 c #7db7ac",
"b0 c #7db8ad",
"e4 c #7f89d0",
"gL c #80644c",
"bw c #80b8ae",
"h. c #826e5a",
"hB c #82a8a0",
"eZ c #838c83",
"eF c #848ecf",
"bx c #85bab0",
"aM c #85bab1",
"aW c #860024",
"e2 c #86887b",
"eh c #88634c",
"#h c #89012c",
"f7 c #8a80a4",
"fp c #8a97d7",
"hd c #8b958a",
"be c #8cbbb2",
"aL c #8cbdb4",
"go c #8d684e",
"gK c #8d7f72",
"bu c #8ebdb4",
"f2 c #90664d",
"bz c #90bcb4",
"fM c #91909d",
"#6 c #92002a",
"by c #92beb6",
"gc c #998268",
"bt c #99c0b8",
"a8 c #99c0b9",
"bQ c #9ac1b9",
"f8 c #9e8892",
"gx c #9e9175",
"g7 c #9ec0b9",
"ef c #a48e78",
"eg c #a67b5f",
"bE c #a7c4bd",
"a9 c #a7c4be",
"hv c #a9ada9",
"bA c #aac5bf",
"fi c #ac866b",
"fG c #ac8b73",
"b. c #acc6c0",
"#4 c #ad1347",
"hu c #adb3af",
"gS c #ae896d",
"h# c #ae8e74",
"b# c #afc7c1",
"fH c #b0a8a0",
"eC c #b0b9d3",
"fj c #b3b2ac",
"bB c #b3c8c3",
"fu c #b49a9d",
"hC c #b4bab5",
"ba c #b4cac5",
"hw c #b7b8b4",
"fJ c #b8c4e1",
"fF c #b98c70",
"bD c #b9cac5",
"bF c #b9ceca",
"bC c #bacbc6",
"bd c #bbcbc6",
"eD c #bcb8b4",
"au c #be003e",
"#G c #be0543",
"bb c #becdc8",
"g8 c #c1beba",
"e0 c #c1c2cd",
"bc c #c3ceca",
"f5 c #c5a38a",
"f6 c #c5b19f",
"#g c #c70b4c",
"hK c #c8d0ce",
"hT c #c9cbc9",
"e9 c #cba8ba",
"gM c #cea082",
"ha c #cea487",
"eJ c #cfaa8b",
"f3 c #d0a284",
"aV c #d40048",
"hb c #d5aa8d",
"hc c #d5b8a3",
"fl c #d5dded",
"e1 c #d8d8f5",
"hz c #d9dedc",
"hs c #d9e2e0",
"gp c #daab8d",
"fQ c #daac8a",
"hx c #dddedb",
"ga c #deb093",
"f4 c #dfaf8f",
"fP c #e1b395",
"fI c #e1e4e6",
"hQ c #e5e4e4",
"ht c #e7e8e8",
"#F c #e80d59",
"hS c #e8e8e8",
"fq c #e9c7a7",
"eI c #eab697",
"f9 c #eabb97",
"#5 c #eb0354",
"eH c #ecb897",
"fN c #ecbc99",
"#E c #ed2b6e",
"gR c #edb898",
"gv c #edbb9b",
"gu c #eebc9d",
"hJ c #efecec",
"hU c #efefef",
"hR c #f0f0f0",
"at c #f10053",
"gN c #f2be9e",
"fr c #f3bf9e",
"fs c #f3c0a0",
"e7 c #f3c1a1",
"e6 c #f4bf9d",
"g. c #f4c0a0",
"fO c #f5c2a1",
"g# c #f5c2a2",
"gP c #f6c2a2",
"gQ c #f6c3a2",
"gr c #f7c19f",
"gO c #f8c3a3",
"e5 c #f8d9bd",
"hV c #f9f9f9",
"#f c #fa3a7d",
"gw c #fac09f",
"gq c #fbc5a4",
"ft c #fbc6a1",
"gb c #fcc3a3",
"gt c #fdc7a0",
"hy c #fdfdfe",
"gs c #fec79e",
"e8 c #ffc69f",
"eG c #ffe4cb",
"fk c #ffffff",
"QtQtQtQtQtQtQtQtQtQtQtQtQtQtQtQtQtQtQt.#.a.b.c.d.e.#QtQtQtQtQtQt",
"QtQtQtQtQtQtQtQtQtQtQtQtQtQtQtQtQtQt.#.f.g.h.i.j.k.l.#QtQtQtQtQt",
"QtQtQtQtQtQtQtQtQtQtQtQtQtQtQtQtQt.#.m.n.o.#.#.p.q.r.s.#QtQtQtQt",
"QtQtQtQtQtQtQtQtQtQtQtQtQtQtQtQtQt.#.t.u.v.#Qt.#.w.x.y.z.#QtQtQt",
"QtQtQtQtQtQtQtQtQtQtQtQtQtQtQtQt.#.A.B.C.#QtQtQt.#.D.E.F.#QtQtQt",
"QtQtQtQtQtQtQtQtQtQtQtQtQtQtQtQt.#.G.H.I.#QtQtQtQt.#.J.K.L.#QtQt",
"QtQtQtQtQtQtQtQtQtQtQtQtQt.#Qt.#.#.M.N.#.#QtQtQtQt.#.I.O.P.#QtQt",
"QtQtQtQt.#.#.#.#.#Qt.#.#.#.#.#.#.#.Q.R.#.S.#.#.#QtQt.#.T.U.#QtQt",
"QtQtQt.#.V.W.X.Y.Z.#.0.1.2.3.4.5.6.7.8.9#.###a#b.#.#.##c#d.#.#Qt",
"QtQt.#.##e#f#g#h#i#j#k#l#m#n#o#p#q#r#s#t#u#v#w#x#y#z.##A#B#C.#Qt",
"QtQt.##D#E#F#G#H#I#J#K#L#M#N#O#P#Q#R#S#T#U#V#W#X#Y#Z#0.I#1#2.#Qt",
"Qt.##3#4#5#6#7#8#9a.a#aaabacadaeafagahabaiajakalamanaoapaqar.#Qt",
"Qt.#asatauavawaxayazaAaBaCaDaEaFaGaHaIaJaKaLaMaNaOaPaQaRaSaT.#Qt",
"Qt.#aUaVaWaXaYaZa0a1a2a3a4a5a6a7a8a9b.b#babbbcbdb#bebfbgbhbi.#Qt",
"Qt.#bjbkblbmbnboabbpbqbrbsbtbubfbvbwa7bxbybzbAbBbCbDbEbFbGbH.#Qt",
"QtQt.#.VbIbJbKbLbMbNbObPbQaKbRbSbTbUbVazbWbXbYaJbZb0b1b2b3b4b5.#",
"QtQtQt.#b6b7b8b9c.c#cabwcbcccdcecfcgchcicacfcaa5bRcjckclcmcnco.#",
"QtQt.#.0cpcqcrcsc.ctcucvcwcxcyczcAcBaOcCcDcEcFcGaecHcIcJcKcLcM.#",
"QtQt.#cNcOcPcQcRcecScacTcUcVcWcXcYcZc0c1c2c3c4c5c6c7akc8c9d.d#.#",
"QtQt.#.fdadbdcdddedfdgdhdidjdkdldmdndodpdqdrdsdtdudvdwdxdydzdA.#",
"QtQt.#dBdCdDdEbJdFdGdHdIdcdJdKdLdMdNdOdPdQdRdSdTdUdVdWdXdYdZd0.#",
"QtQt.#d1b7d2d3d4d5ald6d7d8d9e.e#eaebecedeeefegeheiejekelemeneo.#",
"QtQt.#epeqeresetcseuevewexeyezeAeBeCeDeEeFeGeHeIeJeKeLeM.#.w.#.#",
"QtQt.#eNeOePeQeReSeTeUeVeWeXeYeZe0e1e2e3e4e5e6e7e8e9f.b5.#.#.#Qt",
"QtQt.#f#fafbfcfdfeffcTfgfhfifjfkflfmfnfofpfqfrfsftfufv.#.#QtQtQt",
"QtQt.#fwfxfybmfzfAfBfCfDfEfFfGfHfIfJfKfLfMfNfOfPfsfQfR.#QtQtQtQt",
"QtQt.#fSfTfUfVfWfXfYfZf0f1f2f3f4f5f6f7f8f9g.g#gagbgcgd.#QtQtQtQt",
"QtQt.#gegfggghgigjgkc1glgmgngogpgqgrgsgtfsgugvgwgxgyb5.#QtQtQtQt",
"QtQt.#gzgAgBgCgDgEgFgGgHgIgJgKgLgMgNgOgPgQgRgSgTgUgV.#QtQtQtQtQt",
"QtQt.#gWgXgYgZg0g1g2g3g4g5g6g7g8g9h.h#hahbhchdhehfhg.#QtQtQtQtQt",
"QtQtQt.#hhhihjhkhlhmhnhohphqhrhshthuhvhwhxhyhzhAhBhChD.#QtQtQtQt",
"QtQtQt.#hEhFhGhHhIhJhKhLhMhNhOhPhQhRhRhRhRhRhShThUhVhWhX.#QtQtQt"};
