<?xml version="1.0" encoding="UTF-8" standalone="no"?>
<svg
   xmlns:dc="http://purl.org/dc/elements/1.1/"
   xmlns:cc="http://creativecommons.org/ns#"
   xmlns:rdf="http://www.w3.org/1999/02/22-rdf-syntax-ns#"
   xmlns:svg="http://www.w3.org/2000/svg"
   xmlns="http://www.w3.org/2000/svg"
   xmlns:xlink="http://www.w3.org/1999/xlink"
   xmlns:sodipodi="http://sodipodi.sourceforge.net/DTD/sodipodi-0.dtd"
   xmlns:inkscape="http://www.inkscape.org/namespaces/inkscape"
   height="800"
   width="800"
   viewBox="0 0 666.66667 1000"
   version="1.1"
   id="svg129"
   sodipodi:docname="jitsi.svg"
   inkscape:version="0.92.4 (5da689c313, 2019-01-14)">
  <metadata
     id="metadata133">
    <rdf:RDF>
      <cc:Work
         rdf:about="">
        <dc:format>image/svg+xml</dc:format>
        <dc:type
           rdf:resource="http://purl.org/dc/dcmitype/StillImage" />
        <dc:title></dc:title>
      </cc:Work>
    </rdf:RDF>
  </metadata>
  <sodipodi:namedview
     pagecolor="#ffffff"
     bordercolor="#666666"
     borderopacity="1"
     objecttolerance="10"
     gridtolerance="10"
     guidetolerance="10"
     inkscape:pageopacity="0"
     inkscape:pageshadow="2"
     inkscape:window-width="2560"
     inkscape:window-height="1390"
     id="namedview131"
     showgrid="false"
     fit-margin-top="0"
     fit-margin-left="0"
     fit-margin-right="0"
     fit-margin-bottom="0"
     inkscape:zoom="0.295"
     inkscape:cx="-745.76228"
     inkscape:cy="373.1968"
     inkscape:window-x="0"
     inkscape:window-y="50"
     inkscape:window-maximized="0"
     inkscape:current-layer="svg129" />
  <defs
     id="defs89">
    <linearGradient
       y2="557.74799"
       x2="469.71701"
       y1="455.73901"
       x1="439.90399"
       gradientTransform="matrix(4.20707,0,0,4.20707,-1437.5283,-1736.4667)"
       gradientUnits="userSpaceOnUse"
       id="j"
       xlink:href="#a" />
    <linearGradient
       id="a">
      <stop
         offset="0"
         stop-color="#0f3060"
         id="stop3" />
      <stop
         offset=".271"
         stop-color="#0575ce"
         id="stop5" />
      <stop
         offset=".733"
         stop-color="#0575ce"
         id="stop7" />
      <stop
         offset="1"
         stop-color="#0f3060"
         id="stop9" />
    </linearGradient>
    <linearGradient
       y2="645.02399"
       x2="347.44299"
       y1="585.22601"
       x1="382.802"
       gradientTransform="matrix(4.20707,0,0,4.20707,-1437.5283,-1736.4667)"
       gradientUnits="userSpaceOnUse"
       id="k"
       xlink:href="#b" />
    <linearGradient
       id="b">
      <stop
         offset="0"
         stop-color="#092d61"
         id="stop13" />
      <stop
         offset="1"
         stop-color="#0575ce"
         id="stop15" />
    </linearGradient>
    <linearGradient
       y2="486.431"
       x2="436.35599"
       y1="620.09802"
       x1="415.814"
       gradientTransform="matrix(4.20707,0,0,4.20707,-1437.5283,-1736.4667)"
       gradientUnits="userSpaceOnUse"
       id="l"
       xlink:href="#c" />
    <linearGradient
       id="c">
      <stop
         offset="0"
         stop-color="#0f3060"
         id="stop19" />
      <stop
         offset=".457"
         stop-color="#0575ce"
         id="stop21" />
      <stop
         offset=".738"
         stop-color="#0575ce"
         id="stop23" />
      <stop
         offset="1"
         stop-color="#0f3060"
         id="stop25" />
    </linearGradient>
    <linearGradient
       y2="420.01599"
       x2="308.98599"
       y1="763.302"
       x1="389.59299"
       gradientTransform="matrix(1.0338033,0,0,1.0338033,-42.53961,-44.467253)"
       gradientUnits="userSpaceOnUse"
       id="m"
       xlink:href="#d" />
    <linearGradient
       id="d">
      <stop
         offset="0"
         stop-color="#ff8000"
         id="stop29" />
      <stop
         offset=".663"
         stop-color="#fff4e1"
         id="stop31" />
      <stop
         offset=".75"
         stop-color="#fff4e1"
         id="stop33" />
      <stop
         offset="1"
         stop-color="#ff8400"
         id="stop35" />
    </linearGradient>
    <linearGradient
       y2="527.10699"
       x2="458.46899"
       y1="511.71799"
       x1="528.82001"
       gradientTransform="matrix(4.20707,0,0,4.20707,-1437.5283,-1736.4667)"
       gradientUnits="userSpaceOnUse"
       id="n"
       xlink:href="#e" />
    <linearGradient
       id="e">
      <stop
         offset="0"
         stop-color="#fff"
         id="stop39" />
      <stop
         offset="1"
         stop-color="#fff"
         stop-opacity="0"
         id="stop41" />
    </linearGradient>
    <linearGradient
       y2="785.90399"
       x2="146.54201"
       y1="703.802"
       x1="197.17799"
       gradientTransform="matrix(1.0338033,0,0,1.0338033,-42.53961,-44.467253)"
       gradientUnits="userSpaceOnUse"
       id="o"
       xlink:href="#f" />
    <linearGradient
       id="f">
      <stop
         offset="0"
         stop-color="#ffc768"
         id="stop45" />
      <stop
         offset=".378"
         stop-color="#ff8400"
         id="stop47" />
      <stop
         offset=".774"
         stop-color="#ff8400"
         id="stop49" />
      <stop
         offset="1"
         stop-color="#ffc768"
         id="stop51" />
    </linearGradient>
    <linearGradient
       y2="541.83301"
       x2="423.52499"
       y1="484.60101"
       x1="413.63199"
       gradientTransform="matrix(4.3475861,0,0,4.2652538,-1490.874,-1764.5573)"
       gradientUnits="userSpaceOnUse"
       id="p"
       xlink:href="#e" />
    <linearGradient
       y2="676.03497"
       x2="467.88599"
       y1="559.36401"
       x1="409.69601"
       gradientTransform="matrix(1.0338033,0,0,1.0338033,-42.53961,-44.467253)"
       gradientUnits="userSpaceOnUse"
       id="q"
       xlink:href="#g" />
    <linearGradient
       id="g">
      <stop
         offset="0"
         stop-color="#ff8000"
         id="stop56" />
      <stop
         offset=".341"
         stop-color="#ffc768"
         id="stop58" />
      <stop
         offset=".712"
         stop-color="#ffc768"
         id="stop60" />
      <stop
         offset="1"
         stop-color="#ff8400"
         id="stop62" />
    </linearGradient>
    <linearGradient
       y2="161.10899"
       x2="585.93298"
       y1="168.687"
       x1="522.63599"
       gradientTransform="matrix(1.0338033,0,0,1.0338033,-42.53961,-44.467253)"
       gradientUnits="userSpaceOnUse"
       id="r"
       xlink:href="#h" />
    <linearGradient
       id="h">
      <stop
         offset="0"
         stop-color="#ff8000"
         id="stop66" />
      <stop
         offset=".5"
         stop-color="#fff4e1"
         id="stop68" />
      <stop
         offset=".75"
         stop-color="#fff4e1"
         id="stop70" />
      <stop
         offset="1"
         stop-color="#ff8400"
         id="stop72" />
    </linearGradient>
    <linearGradient
       y2="316.79001"
       x2="405.41101"
       y1="417.5"
       x1="481.48999"
       gradientTransform="matrix(1.0338033,0,0,1.0338033,-42.53961,-44.467253)"
       gradientUnits="userSpaceOnUse"
       id="s"
       xlink:href="#g" />
    <linearGradient
       y2="477.60001"
       x2="457.69"
       y1="499.58401"
       x1="473.09201"
       gradientTransform="matrix(4.20707,0,0,4.20707,-1437.5283,-1736.4667)"
       gradientUnits="userSpaceOnUse"
       id="t"
       xlink:href="#e" />
    <linearGradient
       y2="485.37799"
       x2="446.31299"
       y1="501.802"
       x1="394.341"
       gradientTransform="matrix(4.20707,0,0,4.20707,-1437.5283,-1736.4667)"
       gradientUnits="userSpaceOnUse"
       id="u"
       xlink:href="#e" />
    <linearGradient
       y2="572.16901"
       x2="369.55301"
       y1="590.73297"
       x1="395.81299"
       gradientTransform="matrix(4.20707,0,0,4.20707,-1437.5283,-1736.4667)"
       gradientUnits="userSpaceOnUse"
       id="v"
       xlink:href="#e" />
    <linearGradient
       y2="713.86603"
       x2="310.45499"
       y1="667.16199"
       x1="297.05301"
       gradientTransform="matrix(1.0338033,0,0,1.0338033,-42.53961,-44.467253)"
       gradientUnits="userSpaceOnUse"
       id="w"
       xlink:href="#i" />
    <linearGradient
       id="i">
      <stop
         offset="0"
         stop-color="#212a3a"
         id="stop80" />
      <stop
         offset="1"
         stop-color="#404e67"
         stop-opacity="0"
         id="stop82" />
    </linearGradient>
    <linearGradient
       y2="632.15997"
       x2="366.879"
       y1="690.02698"
       x1="246.304"
       gradientTransform="matrix(0.39159408,0,0,0.78272537,368.02835,-284.97702)"
       gradientUnits="userSpaceOnUse"
       id="x"
       xlink:href="#i" />
    <linearGradient
       y2="654.72101"
       x2="367.94601"
       y1="645.89899"
       x1="301.052"
       gradientTransform="matrix(-0.39045817,-0.02961777,0.05919347,-0.78049563,596.29555,824.99945)"
       gradientUnits="userSpaceOnUse"
       id="y"
       xlink:href="#i" />
    <linearGradient
       y2="667.63501"
       x2="386.78601"
       y1="688.32397"
       x1="279.81699"
       gradientTransform="matrix(1.0338033,0,0,1.0338033,226.53617,-382.7283)"
       gradientUnits="userSpaceOnUse"
       id="z"
       xlink:href="#i" />
    <linearGradient
       xlink:href="#i"
       id="A"
       gradientUnits="userSpaceOnUse"
       gradientTransform="matrix(1.0338033,0,0,1.0338033,-79.57024,-306.4415)"
       x1="338.14401"
       y1="668.30103"
       x2="266.215"
       y2="702.89301" />
  </defs>
  <path
     d="m 33.86919,969.10005 c -2.51583,-5.5323 -4.57308,-10.5093 -4.57308,-11.0646 0,-0.5596 -8.75071,-46.5933 -9.74779,-58.4236 -4.35431,-51.6502 -11.22446,-56.5977 -9.30603,-102.6483 1.16115,-27.8929 -2.70936,-37.4093 5.52388,-60.2242 16.9587,-46.98037 29.3948,-65.46203 51.43143,-76.45931 17.88005,-8.91899 34.65364,-7.70735 50.4007,3.63912 4.14817,2.99122 18.06936,12.41085 30.93879,20.93858 12.86522,8.52353 28.1495,18.8603 33.95947,22.97061 5.80996,4.1061 15.50305,10.02965 21.5402,13.16813 10.64388,5.53229 11.03935,5.61643 13.19757,2.81873 4.74558,-6.13391 16.19722,-23.36186 22.38582,-31.58668 31.01873,-41.18721 1.80904,-36.60992 -5.49022,-38.75974 -11.47689,-3.37827 -16.31081,-8.32999 -27.03884,-20.89651 -24.91427,-29.19707 -36.71931,-61.68406 -38.46524,-101.82792 -2.0236,-46.61434 2.66307,-84.20451 23.13047,-105.59746 8.77595,-9.17141 27.34595,-22.491 44.32148,-31.78862 14.37977,-7.86722 102.56837,-24.32528 110.30517,-20.90914 3.8663,1.71228 -15.30532,-48.96188 -4.27438,-114.8446 2.19188,-13.08819 17.0807,-53.58965 18.65415,-56.34529 3.88312,-6.80703 67.88107,-28.70904 86.08506,-39.39921 20.34119,-11.94807 64.3261,-40.72443 67.64128,-62.121593 7.28243,-47.03084 8.574,-67.12801 11.61151,-68.89077 4.51839,-2.62942 34.71674,59.63521 14.27459,118.344883 -4.03038,11.59047 -23.27351,38.49469 -31.88959,49.74439 -6.20122,8.10282 7.26981,11.88918 15.01924,23.58904 7.05105,10.63968 11.68303,36.64358 12.58755,50.12304 0.92555,13.76132 -3.42876,41.99497 -7.32872,47.53568 -1.58185,2.24237 -2.22974,4.44687 -1.44723,4.92648 0.7741,0.4796 6.03294,-0.14725 11.68303,-1.38833 5.6501,-1.2453 17.89688,-3.22683 27.21133,-4.40481 16.58848,-2.09091 17.18168,-2.06146 28.4398,1.40096 16.88718,5.19152 99.02601,25.03627 46.61433,254.55718 -17.36678,76.04279 -98.40336,176.38136 -108.58868,168.61096 l -25.09097,-19.12955 -28.91519,42.87005 c -14.7584,15.1581 -30.67375,29.786 -40.05972,36.8245 -14.80889,11.1066 -44.44769,28.5996 -48.44862,28.5996 -1.03073,0 -6.86594,2.3981 -12.97039,5.322 -17.64866,8.4646 -44.08589,15.4021 -72.08815,17.2405 -108.4204,7.0259 -67.0607,-6.0665 -156.83115,-49.5382 -7.0805,-3.4288 -23.3829,13.8707 -43.02571,31.7465 -20.97645,19.0833 -31.98635,33.6061 -40.30373,53.169 a 2633.2093,2633.2093 0 0 1 -9.74357,22.5709 c -6.92063,15.7681 -12.6128,37.5818 -13.45842,51.5703 -0.41229,6.8449 -1.32523,12.7979 -2.0236,13.2312 -0.70258,0.4334 -3.33621,-3.7359 -5.84783,-9.2639 z M 153.0639,775.95345 c 13.89595,-3.5129 15.41891,-4.287 30.36242,-15.4694 10.7112,-8.0145 17.34996,-22.4868 20.19394,-23.7531 18.64994,-8.27113 -13.91278,-15.71765 -26.08804,-23.92985 -12.17527,-8.2122 -28.01067,-14.283 -38.79339,-22.52044 -10.78693,-8.22903 -20.12663,-14.64902 -20.75348,-14.26197 -0.63106,0.38705 -1.15695,5.91093 -1.17377,12.27623 -0.0421,18.57001 -2.53266,37.19891 -6.01191,44.99463 -1.77117,3.9672 -3.55918,11.6115 -3.97568,16.9965 -0.95921,12.4614 1.94367,18.4523 12.2552,25.3266 8.6918,5.7931 12.30147,5.8268 33.98471,0.345 z M 656.67542,424.30969 c -4.52681,-30.39608 -0.77831,-72.19332 -24.46411,-87.41029 -54.64143,-35.108 -60.6365,-0.2945 -63.98954,7.40023 -5.51126,12.65487 -8.91057,23.00847 -4.72454,36.92125 12.86102,42.74383 29.31066,80.59905 37.11898,110.98251 8.96106,34.8724 18.83926,56.92165 19.82792,84.26761 0.69838,19.41142 0.51747,21.45185 -2.33913,25.93659 -4.06403,6.37371 -65.43256,21.99035 -96.33349,31.09445 -10.61023,3.12585 -1.21163,25.75568 -2.42748,33.2064 -1.21584,7.44652 -17.82535,49.08389 -12.48237,57.45596 52.71038,82.59735 169.27146,-169.15366 149.81376,-299.85471 z M 543.13081,627.39338 c 8.24585,-1.98153 15.95321,-4.4006 17.13119,-5.37664 1.17798,-0.97183 4.165,-1.61552 6.64717,-1.4304 4.43425,0.33656 21.80103,-5.12842 23.13888,-7.27824 0.37443,-0.61002 15.86907,-8.6918 12.76846,-10.74485 -3.10061,-2.05305 -63.66138,-46.57227 -72.34478,-51.10328 -100.00205,-52.13822 -152.5736,-55.72685 -185.59068,-49.07547 -56.56406,11.39695 -105.41656,40.07655 -111.29383,47.14863 -1.77539,2.13719 88.55882,-28.01909 152.67457,3.66436 11.84711,5.85624 36.30701,15.91534 54.69191,35.60443 16.79883,17.98523 32.11677,37.0138 44.17423,40.22801 13.06716,3.48345 39.84937,2.72618 58.00288,-1.64076 z M 422.5688,412.42472 c 31.66241,-5.54071 80.71685,-71.31825 76.90104,-77.4774 -0.51747,-0.833 9.48694,-17.43831 7.86301,-17.76225 -59.25237,-11.81345 -57.82618,-70.8134 -58.68021,-71.33929 -0.85404,-0.52588 -87.35981,40.85065 -107.29712,49.46673 -16.91242,7.3161 2.41907,50.91817 12.62121,77.97804 4.53522,12.04064 29.52101,28.09482 39.57591,34.64102 11.89759,7.74101 26.31102,4.96434 29.01616,4.49315 z m 68.23868,-200.74876 c 17.09753,-13.47525 62.63486,-80.91878 57.80514,-108.28998 -19.68909,-111.5083925 -28.17054,-42.474583 -29.43687,-32.524863 -0.52168,4.12293 -2.01098,13.25227 -3.31096,20.28649 a 579.62907,579.62907 0 0 0 -3.68119,22.570933 c -0.72362,5.38084 -2.72618,14.85937 -4.45108,21.06901 a 1125.997,1125.997 0 0 0 -6.05397,22.92853 c -1.6029,6.40737 -7.00477,22.18388 -11.99857,35.06172 -4.998,12.87784 -9.08727,23.71946 -9.08727,24.0981 0,1.88056 3.47083,0.11359 10.21477,-5.19994 z"
     id="path91"
     inkscape:connector-curvature="0"
     style="fill:url(#j);stroke-width:4.20706987" />
  <path
     d="m 38.35393,965.56605 c 26.72331,-110.7301 50.90554,-123.1409 114.54589,-164.1851 -14.00113,-7.9556 -48.45703,-34.3297 -48.36447,-48.3645 0.2398,-40.98524 7.01318,-112.42129 -38.18337,-82.732 -85.76112,56.34109 -54.72977,235.4613 -28.00226,295.2816 z"
     id="path93"
     inkscape:connector-curvature="0"
     style="fill:url(#k);fill-rule:evenodd;stroke-width:4.20706987" />
  <path
     d="m 132.39456,787.19895 c 37.7837,28.5492 71.18363,53.7874 94.88626,67.1743 231.14063,11.6872 288.85743,-116.0899 293.05608,-220.84176 -20.57257,0.94238 -55.63008,-4.09348 -74.52404,-32.56272 -47.17808,15.48202 -190.01652,58.9116 -192.5029,68.66779 -12.89467,50.6363 -51.22108,91.52899 -120.9154,117.56239 z"
     id="path95"
     inkscape:connector-curvature="0"
     style="fill:url(#l);fill-rule:evenodd;stroke-width:4.20706987" />
  <path
     d="M 533.50503,744.53085 C 673.11665,640.6162 655.14825,432.53872 657.40324,421.88642 663.13748,394.7971 629.42623,303.02828 588.93739,319.86497 c -67.41409,28.03592 47.44312,186.98323 32.03263,274.15793 -3.21,18.17454 -58.85691,31.56564 -96.67847,37.43871 -4.36273,0.67313 -0.48802,59.29865 -19.46611,86.28701 -2.71356,3.85788 26.1259,28.68383 28.67959,26.78223 z"
     id="path97"
     inkscape:connector-curvature="0"
     style="fill:url(#m);fill-rule:evenodd;stroke-width:4.20706987" />
  <path
     d="M 552.97956,730.26886 C 731.74638,554.62789 641.2523,241.07917 578.83621,332.65867 664.56368,315.32554 678.19879,603.03444 552.97956,730.26886 Z"
     id="path99"
     inkscape:connector-curvature="0"
     style="fill:url(#n);fill-rule:evenodd;stroke-width:4.20706987" />
  <path
     d="m 213.5237,732.72999 c 3.30676,-4.45949 -58.39834,-25.5916 -95.69401,-59.17244 -4.13555,-3.72325 -4.80448,54.32169 -8.70864,78.525 -2.43168,15.0402 23.10523,30.1815 28.94464,32.0662 4.83813,1.5651 61.886,-33.1054 75.45801,-51.41876 z"
     id="path101"
     inkscape:connector-curvature="0"
     style="fill:url(#o);fill-rule:evenodd;stroke-width:4.20706987" />
  <path
     d="m 164.58706,565.44427 c -21.45185,-108.72331 17.58555,-172.65815 173.996,-195.11549 0.75727,2.39803 173.83614,-55.76892 234.72085,-56.16439 -16.50433,26.22688 0.18091,90.97368 20.23601,144.20574 0,0 -146.52383,38.22965 -428.95286,107.07414 z"
     id="path103"
     inkscape:connector-curvature="0"
     style="fill:url(#p);fill-rule:evenodd;stroke-width:4.20706987" />
  <path
     d="m 240.60882,548.11535 c 18.56159,-6.64717 71.55384,-22.67611 134.85763,-0.63948 43.35385,15.09497 68.23867,53.14792 86.95172,67.78432 44.08589,34.47693 125.46745,-3.82002 140.18378,-3.58864 6.04977,0.0926 -109.24078,-103.50233 -196.16726,-108.74434 -116.85137,-7.04684 -189.78514,53.77477 -165.82587,45.18393 z"
     id="path105"
     inkscape:connector-curvature="0"
     style="fill:url(#q);fill-rule:evenodd;stroke-width:4.20706987" />
  <path
     d="M 525.73037,32.921757 C 525.08668,68.277977 513.96319,152.6718 478.16103,210.34653 461.7829,236.72485 539.24768,175.52461 547.58609,122.92361 552.1718,93.987377 526.26046,4.7470075 525.73037,32.921757 Z"
     id="path107"
     inkscape:connector-curvature="0"
     style="fill:url(#r);fill-rule:evenodd;stroke-width:4.20706987" />
  <path
     d="m 409.45957,418.59228 c 38.87333,-19.84895 74.28424,-45.94961 96.72896,-94.41927 3.79898,-8.20378 -18.51111,-0.24401 -35.65913,-24.58612 -16.97553,-24.1023 -12.9704,-48.5622 -27.51424,-46.60592 -45.43635,6.11288 -106.01816,48.96188 -106.01816,48.96188 0,0 3.48345,46.88359 15.76389,65.93741 25.32235,39.29404 56.70289,50.71202 56.70289,50.71202 z"
     id="path109"
     inkscape:connector-curvature="0"
     style="fill:url(#s);fill-rule:evenodd;stroke-width:4.20706987" />
  <path
     d="m 469.62909,295.21575 c 11.46426,41.60371 75.19296,34.06464 61.86917,-46.91725 -5.74265,8.39732 -20.09297,54.51101 -61.86917,46.91725 z"
     id="path111"
     inkscape:connector-curvature="0"
     style="opacity:0.55199998;fill:url(#t);fill-rule:evenodd;stroke-width:4.20706987" />
  <path
     d="m 403.96935,415.12566 c -21.45606,-14.59433 -39.984,-32.74783 -51.85214,-51.95732 -11.86394,-19.20527 -17.08071,-117.15427 2.89025,-141.49638 10.97204,-26.7738 49.81592,-52.65148 92.96363,-64.07788 -82.01683,95.10081 -55.44077,239.24344 17.1396,225.22549 3.6265,-0.69838 -53.95988,32.52065 -61.14134,32.30609 z"
     id="path113"
     inkscape:connector-curvature="0"
     style="fill:url(#u);fill-rule:evenodd;stroke-width:4.20706987" />
  <path
     d="m 117.20283,670.69254 c 16.02894,11.85552 85.1511,65.35681 100.38069,56.888 -35.38146,86.49731 -128.53861,13.22281 -100.38069,-56.89221 z"
     id="path115"
     inkscape:connector-curvature="0"
     style="fill:url(#v);fill-rule:evenodd;stroke-width:4.20706987" />
  <path
     d="m 402.17012,184.90282 c -16.607,9.678 -36.572,20.503 -40.536,30.29 -13.30401,27.95 -18.29001,78.107 -14.24001,75.227 39.48001,-28.073 85.18801,-35.856 101.82001,-50.892 49.285,-44.554 68.419,-136.66 58.062,-123.007 -33.526,44.198 -87.974,58.396 -105.106,68.381 z m -258.35,618.48803 c 0,0 -46.618,-32.245 -45.759,-42.59 7.14,-85.96103 -8.117,-90.97703 -15.806,-90.06603 -9.29,1.102 -57.562,31.577 -66.979,117.62303 -6.833,62.44 17.839,159.993 21.597,165.272 19.448,-52.268 11.86,-94.337 106.947,-150.24 z m 509.299,-380.83303 c -2.32,-64.443 -41.12,-108.752 -67.471,-98.375 -11.18,4.402 -18.686,34.409 -14.76,53.014 3.481,16.503 27.204,80.362 28.91,85.76 4.033,12.765 31.262,90.998 26.421,128.588 -4.242,32.948 -99.748,44.348 -99.748,44.348 0,0 -1.605,26.818 -4.897,44.939 -4.047,22.276 -12.072,39.758 -12.072,39.758 0,0 20.794,19.37003 21.634,19.34903 0.84,-0.021 130.875,-70.31103 121.983,-317.38103 z m -99.694,199.624 c 6.722,-1.882 46.413,-12.377 44.285,-13.772 -14.728,-9.661 -31.49,-21.823 -59.563,-43.656 -155.853,-121.216 -297.41601,-19.122 -294.62601,-20.051 25.88,-8.607 53.209,-13.47 91.177,-10.935 30.58101,2.043 78.65601,17.545 120.76801,67.744 15.664,18.672 33.438,31.342 97.96,20.669 z m -69.522,-263.113 c 4.716,-4.079 21.105,-34.975 18.154,-35.692 -41.359,-10.058 -45.387,-28.357 -49.435,-48.267 -3.791,-18.648 -3.206,-21.307 -11.041,-18.72 -63.304,20.91 -80.815,32.4 -90.50001,40.44 -15.174,12.593 -4.531,46.43 1.402,59.879 8.27001,18.744 38.67301,52.662 52.81701,55.394 20.631,3.983 69.39,-38.284 78.603,-53.034 z m 46.009,-114.183 c -3.431,-14.032 -14.453,-32.103 -17.39,-32.103 -2.766,0 -32.053,22.662 -39.617,30.558 -17.169,17.921 -8.802,50.396 10.243,61.536 32.235,18.854 55.907,-22.597 46.764,-59.991 z m -24.305,-53.667 c 14.103,-14.088 32.85,-37.213 37.836,-72.355 1.954,-13.773 3.089,-25.889003 -5.477,-53.120003 -1.986,-6.312 -8.02,-24.464 -8.247,-22.073 -4.455,47.22 -10.983,99.651003 -41.802,155.374003 -9.674,17.491 -4.472,14.312 17.69,-7.826 z m -330.75601,281.234 c -16.8,70.473 27.722,163.027 63.789,168.302 34.864,5.1 134.81501,-25.078 187.23501,-39.654 13.734,-3.82 21.122,-1.827 -9.262,-27.281 -47.634,-32.384 -86.08001,-36.554 -124.43501,-32.2 -42.305,4.801 -74.006,17.323 -71.04,14.84 19.397,-16.242 53.945,-45.286 120.693,-58.437 29.01001,-5.717 73.78301,-6.219 127.83601,14.893 67.047,26.186 101.968,65.022 130.315,78.183 10.094,4.687 13.7,2.508 17.689,-9.206 6.682,-19.624 -33.937,-142.154 -48.653,-177.884 -22.458,-54.527 3.744,-80.59 -1.983,-79.327 -27.778,6.123 -52.273,23.978 -72.807,42.363 -50.194,44.94 -80.787,54.513 -85.328,54.127 -14.334,-1.219 -41.155,-26.59 -50.9,-39.473 -6.21801,-8.22 -117.50101,13.26 -150.31701,41.77 -0.751,0.652 -26.072,16.89 -32.832,48.984 z m -35.65499,306.81703 c 36.70399,-15.4 72.63899,-48.12603 69.52999,-48.66703 -19.055,-3.314 -89.33099,-51.469 -89.28299,-50.97 2.414,24.852 -3.002,47.182 -5.473,71.81303 -1.03,10.272 12.662,26.186 25.226,27.824 z M 257.63211,671.54782 c -7.021,15.653 -14.351,77.20503 -115.82099,116.70503 -2.94,1.144 85.03299,61.298 89.81999,61.509 290.51801,12.751 288.05601,-208.48003 284.20001,-214.05903 -0.558,-0.807 -25.406,0.058 -44.652,-9.074 -1.468,-0.696 -14.523,-7.426 -22.307,-17.561 -2.64,-3.438 -3.051,-5.306 -12.835,-2.463 -45.279,13.159 -180.46301,61.663 -178.40401,64.942 z m -90.503,-107.908 c -51.87799,-181.268 130.18,-189.677 159.046,-196.657 22.323,-5.397 17.459,-7.496 12.751,-28.61 -6.609,-29.644 -4.55,-55.484 1.116,-83.182 5.358,-26.193 8.12,-39.437 19.43601,-52.57 9.12,-10.586 60.514,-34.795 73.254,-40.906 54.294,-26.04 75.037,-54.663 81.088,-77.177003 4.266,-15.871 10.509,-54.99 7.703,-82.9519995 -0.691,-6.882 3.75,3.902 25.84,72.5369995 11.287,35.070003 5.729,77.179003 -29.87,115.197003 -4.835,5.163 -2.49,6.185 4.011,16.928 13.508,22.321 20.976,50.232 18.872,70.539 -1.724,16.636 -8.835,32.366 1.336,31.144 1.47,-0.177 46.397,-6.978 77.15,12.569 20.828,13.238 50.496,38.613 42.795,144.611 -16.863,232.112 -130.271,282.62603 -131.066,282.65403 -1.92,0.065 -23.137,-21.96403 -24.393,-19.37003 -65.028,134.33603 -199.20701,129.51003 -274.04101,130.92203 -14.962,0.282 -77.17599,-52.103 -82.41999,-48.52 -66.232,45.264 -84.62,56.568 -110.157,172.254 -0.979,-1.834 -35.415,-62.92 -33.986,-185.77 1.171,-100.65603 56.161,-148.15803 80.608,-145.41803 29.677,3.326 44.571,18.81 86.36699,46.27 7.461,4.901 33.82,20.84 39.819,20.695 14.943,-0.352 25.138,-27.807 27.577,-45.583 2.46,-17.929 4.839,-13.596 -9.155,-18.411 -17.641,-6.072 -48.072,-39.11 -63.68,-91.194 z"
     id="path117"
     inkscape:connector-curvature="0"
     style="fill:#2c3b54" />
  <path
     d="m 259.36393,669.86795 c 27.24499,-14.86357 181.88847,-63.21122 183.2768,-66.24452 1.0097,-2.21713 -181.39203,72.81597 -222.70546,45.00303 -2.49058,-1.67442 9.65102,7.24036 20.62306,9.49535 0.7741,0.15567 0.71941,28.99513 -9.67626,45.31015 -2.9155,4.57729 22.15864,-30.11 28.48186,-33.56401 z"
     id="path119"
     inkscape:connector-curvature="0"
     style="fill:url(#w);fill-rule:evenodd;stroke-width:4.20706987" />
  <path
     d="m 511.34639,212.77821 c -16.95449,11.83449 -40.32476,28.36828 -45.10399,41.1199 -2.81874,7.51804 -4.72454,-21.00169 14.5228,-37.98984 10.84162,-9.57529 34.04782,-5.54912 30.58119,-3.13006 z"
     id="path121"
     inkscape:connector-curvature="0"
     style="fill:url(#x);fill-rule:evenodd;stroke-width:4.20706987" />
  <path
     d="m 488.55249,308.03469 c 19.22631,5.73424 34.07727,-6.00769 42.21795,-31.30901 0.95921,-2.98702 -2.38121,22.15863 -14.32928,31.50674 -11.39275,8.91058 -31.94429,-1.40516 -27.89288,-0.19773 z"
     id="path123"
     inkscape:connector-curvature="0"
     style="fill:url(#y);fill-rule:evenodd;stroke-width:4.20706987" />
  <path
     d="m 537.3545,334.15218 c 27.24078,-14.86358 55.12945,-12.58755 78.9036,-11.51896 15.78072,0.71521 -29.72716,-17.69073 -81.42363,-14.81309 -5.52389,4.6993 -21.93146,32.12519 -45.05772,59.89606 -3.47084,4.165 41.25032,-30.11 47.57354,-33.56401 z"
     id="path125"
     inkscape:connector-curvature="0"
     style="fill:url(#z);fill-rule:evenodd;stroke-width:4.20706987" />
  <path
     d="m 278.06857,392.94599 c 15.99528,-3.29414 36.05459,-8.72968 49.33631,-10.06752 11.0688,-1.11488 24.94371,-7.34975 35.60023,4.11451 -5.93197,-8.13647 -17.28265,-24.56929 -20.81659,-35.32677 3.21841,12.64225 -11.16977,14.43025 -14.74578,14.994 -80.43076,12.70535 -128.81207,34.36756 -153.22149,74.64184 46.2357,-35.76851 100.82664,-47.73342 103.84732,-48.35606 z"
     id="path127"
     inkscape:connector-curvature="0"
     style="fill:url(#A);fill-rule:evenodd;stroke-width:4.20706987" />
</svg>
