<?xml version="1.0" encoding="UTF-8" standalone="no"?>
<svg
   xmlns:dc="http://purl.org/dc/elements/1.1/"
   xmlns:cc="http://creativecommons.org/ns#"
   xmlns:rdf="http://www.w3.org/1999/02/22-rdf-syntax-ns#"
   xmlns:svg="http://www.w3.org/2000/svg"
   xmlns="http://www.w3.org/2000/svg"
   xmlns:sodipodi="http://sodipodi.sourceforge.net/DTD/sodipodi-0.dtd"
   xmlns:inkscape="http://www.inkscape.org/namespaces/inkscape"
   role="img"
   viewBox="0 0 24 24"
   version="1.1"
   id="svg6"
   sodipodi:docname="riot.svg"
   inkscape:version="1.0.1 (3bc2e813f5, 2020-09-07)">
  <metadata
     id="metadata12">
    <rdf:RDF>
      <cc:Work
         rdf:about="">
        <dc:format>image/svg+xml</dc:format>
        <dc:type
           rdf:resource="http://purl.org/dc/dcmitype/StillImage" />
      </cc:Work>
    </rdf:RDF>
  </metadata>
  <defs
     id="defs10" />
  <sodipodi:namedview
     pagecolor="#ffffff"
     bordercolor="#666666"
     borderopacity="1"
     objecttolerance="10"
     gridtolerance="10"
     guidetolerance="10"
     inkscape:pageopacity="0"
     inkscape:pageshadow="2"
     inkscape:window-width="2560"
     inkscape:window-height="1390"
     id="namedview8"
     showgrid="false"
     inkscape:zoom="23.208333"
     inkscape:cx="11.935368"
     inkscape:cy="12"
     inkscape:window-x="0"
     inkscape:window-y="50"
     inkscape:window-maximized="0"
     inkscape:current-layer="svg6" />
  <title
     id="title2" />
  <path
     d="M 5.9050001,0 A 3.4180002,3.418 0 0 0 3.962,0.628 L 3.973,0.621 A 3.4330001,3.433 0 0 0 2.628,4.325 L 2.623,4.301 v 16.266 c 0,1.9 1.5340001,3.433 3.4330002,3.433 1.899,0 3.4330001,-1.533 3.4330001,-3.433 V 17.134 H 11.354 l 3.768,5.383 a 3.4100001,3.41 0 0 0 4.767001,0.85 3.4080001,3.408 0 0 0 0.85,-4.766 l -2.385,-3.407 A 8.5500003,8.55 0 0 0 21.489,8.568 c 0,-4.733 -3.865999,-8.566 -8.583,-8.566 H 6.0560002 l -0.047,0.001 L 5.9070002,0 Z M 8.2190003,0.868 H 12.906 c 4.250001,0.067 7.666001,3.567 7.599001,7.816 a 7.7080003,7.708 0 0 1 -2.694,5.735 l -0.454,-0.648 A 6.8500002,6.85 0 0 0 12.905,1.718 H 8.9130003 a 3.2530002,3.253 0 0 0 -0.167,-0.265 l 0.007,0.011 A 3.4800001,3.48 0 0 0 8.2210001,0.872 l -0.004,-0.003 z m 1.044,1.7 H 12.906 c 3.316001,0 6.000001,2.683 6.000001,6 a 5.9830002,5.983 0 0 1 -2.037,4.505 l -0.489,-0.699 A 5.1540003,5.154 0 0 0 12.906,3.418 H 9.3720002 A 3.4500001,3.45 0 0 0 9.2580003,2.544 Z m 0.004,1.717 H 12.906 c 2.367001,0.05 4.250001,2 4.200001,4.383 a 4.3030002,4.303 0 0 1 -1.255,2.949 l -0.244,-0.349 A 3.5100001,3.51 0 0 0 15.33,10.921 3.399,3.399 0 0 0 16.257001,8.651 3.4530002,3.453 0 0 0 12.891,5.135 H 8.9220003 c 0.1430001,-0.245 0.262,-0.527 0.342,-0.826 l 0.005,-0.024 z M 3.49,5.83 c 0.243,0.249 0.5230001,0.461 0.8320001,0.627 l 0.018,0.009 v 14.101 c 0,0.95 0.7670001,1.717 1.717,1.717 0.9330001,0 1.7000001,-0.767 1.7160002,-1.733 V 15.418 H 10.153 l 0.607,0.867 H 8.6230003 v 4.283 A 2.5680001,2.568 0 0 1 3.49,20.568 V 5.831 Z M 8.6230003,5.984 H 12.906 a 2.5750001,2.575 0 0 1 2.583001,2.583 c 0,0.719 -0.290001,1.366 -0.759,1.833 A 3.4080001,3.408 0 0 0 13.905,9.987 1.7000001,1.7 0 0 0 14.639001,8.583 C 14.639001,7.616 13.856,6.85 12.906,6.85 H 9.4730002 V 10.3 H 11.021 a 3.4400001,3.44 0 0 0 -0.945,0.85 H 8.6230003 Z M 7.7560002,6.347 v 5.671 h 1.8390001 a 3.4600002,3.46 0 0 0 -0.2,0.85 H 6.9060001 V 6.725 C 7.2290002,6.63 7.5110001,6.501 7.7700002,6.339 Z M 5.1900001,6.779 c 0.23,0.055 0.4930001,0.086 0.7640001,0.086 L 6.0620001,6.863 h -0.005 v 6.854 h 3.3550001 c 0.042,0.289 0.1170001,0.574 0.235,0.85 H 6.9070001 v 6 a 0.88000004,0.88 0 0 1 -0.85,0.867 0.85800003,0.858 0 0 1 -0.867,-0.85 z M 10.323,7.701 h 2.567 c 0.483,0 0.866,0.383 0.866,0.866 0,0.483 -0.366999,0.883 -0.85,0.883 L 10.323,9.433 V 7.7 Z"
     id="path4"
     style="fill:#ffcc00;stroke-width:0.999998" />
</svg>
