<?xml version="1.0" encoding="UTF-8" standalone="no"?>
<!-- Generator: libbsvg 0.5.0 - a native SVG-Library for BeOS -->

<svg
   xmlns:dc="http://purl.org/dc/elements/1.1/"
   xmlns:cc="http://creativecommons.org/ns#"
   xmlns:rdf="http://www.w3.org/1999/02/22-rdf-syntax-ns#"
   xmlns:svg="http://www.w3.org/2000/svg"
   xmlns="http://www.w3.org/2000/svg"
   xmlns:sodipodi="http://sodipodi.sourceforge.net/DTD/sodipodi-0.dtd"
   xmlns:inkscape="http://www.inkscape.org/namespaces/inkscape"
   width="16.000025"
   height="16"
   id="svg2"
   sodipodi:version="0.32"
   inkscape:version="0.48.3.1 r9886"
   sodipodi:docname="thunderbird.svg"
   version="1.0"
   inkscape:output_extension="org.inkscape.output.svg.inkscape"
   inkscape:export-xdpi="960"
   inkscape:export-ydpi="960"
   sodipodi:modified="true">
  <metadata
     id="metadata256">
    <rdf:RDF>
      <cc:Work
         rdf:about="">
        <dc:format>image/svg+xml</dc:format>
        <dc:type
           rdf:resource="http://purl.org/dc/dcmitype/StillImage" />
      </cc:Work>
    </rdf:RDF>
  </metadata>
  <defs
     id="defs254" />
  <sodipodi:namedview
     inkscape:window-height="1034"
     inkscape:window-width="1050"
     inkscape:pageshadow="2"
     inkscape:pageopacity="0.0"
     guidetolerance="10.0"
     gridtolerance="10.0"
     objecttolerance="10.0"
     borderopacity="1.0"
     bordercolor="#666666"
     pagecolor="#ffffff"
     id="base"
     width="48px"
     height="48px"
     inkscape:zoom="1"
     inkscape:cx="-9.2085053"
     inkscape:cy="-3.4164981"
     inkscape:window-x="0"
     inkscape:window-y="40"
     inkscape:current-layer="svg2"
     showgrid="false"
     fit-margin-top="0"
     fit-margin-left="0"
     fit-margin-right="0"
     fit-margin-bottom="0"
     inkscape:window-maximized="0" />
  <radialGradient
     id="XMLID_1_"
     gradientUnits="userSpaceOnUse"
     cx="111.25"
     cy="123.5"
     r="91"
     fx="111.25"
     fy="123.5"
     gradientTransform="matrix(0.0760605,0,0,0.07289297,-0.00149997,0)">
    <stop
       offset="0.00"
       style="stop-color:#000000;"
       id="stop5" />
    <stop
       offset="0.50"
       style="stop-color:#000000;"
       id="stop7" />
    <stop
       offset="1.00"
       style="stop-color:#000000; stop-opacity:0.00;"
       id="stop9" />
  </radialGradient>
  <radialGradient
     id="XMLID_2_"
     gradientUnits="userSpaceOnUse"
     cx="151.75"
     cy="175.67"
     r="126.3"
     fx="151.75"
     fy="175.67"
     gradientTransform="matrix(0.0760605,0,0,0.07289297,-0.00149997,0)">
    <stop
       offset="0.00"
       style="stop-color:#f2be7f;"
       id="stop12" />
    <stop
       offset="1.00"
       style="stop-color:#ffffdc;"
       id="stop14" />
  </radialGradient>
  <linearGradient
     id="XMLID_3_"
     gradientUnits="userSpaceOnUse"
     x1="100.13"
     y1="79.080002"
     x2="94.449997"
     y2="45.619999"
     gradientTransform="matrix(0.0760605,0,0,0.07289297,-0.00149997,0)">
    <stop
       offset="0.00"
       style="stop-color:#c3ad7b;"
       id="stop17" />
    <stop
       offset="1.00"
       style="stop-color:#a25f00;"
       id="stop19" />
  </linearGradient>
  <radialGradient
     id="XMLID_4_"
     gradientUnits="userSpaceOnUse"
     cx="149.75"
     cy="87"
     r="90.870003"
     fx="149.75"
     fy="87"
     gradientTransform="matrix(0.0760605,0,0,0.07289297,-0.00149997,0)">
    <stop
       offset="0.00"
       style="stop-color:#f2be7f;"
       id="stop22" />
    <stop
       offset="1.00"
       style="stop-color:#ffffdc;"
       id="stop24" />
  </radialGradient>
  <linearGradient
     id="XMLID_5_"
     gradientUnits="userSpaceOnUse"
     x1="80.160004"
     y1="171.37"
     x2="82.470001"
     y2="164.25"
     gradientTransform="matrix(0.0760605,0,0,0.07289297,-0.00149997,0)">
    <stop
       offset="0.00"
       style="stop-color:#aa944b;"
       id="stop27" />
    <stop
       offset="1.00"
       style="stop-color:#aa944b; stop-opacity:0.00;"
       id="stop29" />
  </linearGradient>
  <linearGradient
     id="XMLID_6_"
     gradientUnits="userSpaceOnUse"
     x1="34.919998"
     y1="84.019997"
     x2="34.919998"
     y2="58.060001"
     gradientTransform="matrix(0.0760605,0,0,0.07289297,-0.00149997,0)">
    <stop
       offset="0.01"
       style="stop-color:#d2b170;"
       id="stop32" />
    <stop
       offset="1.00"
       style="stop-color:#a25f00;"
       id="stop34" />
  </linearGradient>
  <linearGradient
     id="XMLID_7_"
     gradientUnits="userSpaceOnUse"
     x1="85.489998"
     y1="124.25"
     x2="85.489998"
     y2="71.330002"
     gradientTransform="matrix(0.0760605,0,0,0.07289297,-0.00149997,0)">
    <stop
       offset="0.00"
       style="stop-color:#a25f00; stop-opacity:0.00;"
       id="stop37" />
    <stop
       offset="1.00"
       style="stop-color:#a25f00;"
       id="stop39" />
  </linearGradient>
  <linearGradient
     id="XMLID_8_"
     gradientUnits="userSpaceOnUse"
     x1="29.23"
     y1="187.64"
     x2="29.23"
     y2="165.83"
     gradientTransform="matrix(0.0760605,0,0,0.07289297,-0.00149997,0)">
    <stop
       offset="0.00"
       style="stop-color:#a4d8e5;"
       id="stop42" />
    <stop
       offset="0.50"
       style="stop-color:#0c418f;"
       id="stop44" />
    <stop
       offset="1.00"
       style="stop-color:#000060;"
       id="stop46" />
  </linearGradient>
  <linearGradient
     id="XMLID_9_"
     gradientUnits="userSpaceOnUse"
     x1="15.71"
     y1="170.38"
     x2="15.71"
     y2="141.59"
     gradientTransform="matrix(0.0760605,0,0,0.07289297,-0.00149997,0)">
    <stop
       offset="0.00"
       style="stop-color:#a4d8e5;"
       id="stop49" />
    <stop
       offset="0.50"
       style="stop-color:#0c418f;"
       id="stop51" />
    <stop
       offset="1.00"
       style="stop-color:#000060;"
       id="stop53" />
  </linearGradient>
  <radialGradient
     id="XMLID_10_"
     gradientUnits="userSpaceOnUse"
     cx="41.75"
     cy="67"
     r="77.830002"
     fx="41.75"
     fy="67"
     gradientTransform="matrix(0.0760605,0,0,0.07289297,-0.00149997,0)">
    <stop
       offset="0.00"
       style="stop-color:#000060;"
       id="stop56" />
    <stop
       offset="0.50"
       style="stop-color:#0c418f;"
       id="stop58" />
    <stop
       offset="1.00"
       style="stop-color:#a4d8e5;"
       id="stop60" />
  </radialGradient>
  <radialGradient
     id="XMLID_11_"
     gradientUnits="userSpaceOnUse"
     cx="57.5"
     cy="54.25"
     r="71.419998"
     fx="57.5"
     fy="54.25"
     gradientTransform="matrix(0.0760605,0,0,0.07289297,-0.00149997,0)">
    <stop
       offset="0.00"
       style="stop-color:#000060;"
       id="stop63" />
    <stop
       offset="0.50"
       style="stop-color:#0c418f;"
       id="stop65" />
    <stop
       offset="1.00"
       style="stop-color:#a4d8e5;"
       id="stop67" />
  </radialGradient>
  <linearGradient
     id="XMLID_12_"
     gradientUnits="userSpaceOnUse"
     x1="46.73"
     y1="25.34"
     x2="9.2200003"
     y2="90.300003"
     gradientTransform="matrix(0.0760605,0,0,0.07289297,-0.00149997,0)">
    <stop
       offset="0.01"
       style="stop-color:#1b609d;"
       id="stop70" />
    <stop
       offset="0.50"
       style="stop-color:#9fd2e5;"
       id="stop72" />
    <stop
       offset="1.00"
       style="stop-color:#4187b8;"
       id="stop74" />
  </linearGradient>
  <linearGradient
     id="XMLID_13_"
     gradientUnits="userSpaceOnUse"
     x1="66.43"
     y1="24.35"
     x2="123.46"
     y2="81.379997"
     gradientTransform="matrix(0.0760605,0,0,0.07289297,-0.00149997,0)">
    <stop
       offset="0.00"
       style="stop-color:#a4d8e5;"
       id="stop77" />
    <stop
       offset="0.67"
       style="stop-color:#0c418f;"
       id="stop79" />
    <stop
       offset="1.00"
       style="stop-color:#000040;"
       id="stop81" />
  </linearGradient>
  <linearGradient
     id="XMLID_14_"
     gradientUnits="userSpaceOnUse"
     x1="71.550003"
     y1="36.5"
     x2="61.5"
     y2="8.8800001"
     gradientTransform="matrix(0.0760605,0,0,0.07289297,-0.00149997,0)">
    <stop
       offset="0.00"
       style="stop-color:#a4d8e5;"
       id="stop84" />
    <stop
       offset="1.00"
       style="stop-color:#0c418f;"
       id="stop86" />
  </linearGradient>
  <linearGradient
     id="XMLID_15_"
     gradientUnits="userSpaceOnUse"
     x1="115.05"
     y1="222.03999"
     x2="170.24001"
     y2="126.46"
     gradientTransform="matrix(0.0760605,0,0,0.07289297,-0.00149997,0)">
    <stop
       offset="0.01"
       style="stop-color:#b4b4dc;"
       id="stop89" />
    <stop
       offset="1.00"
       style="stop-color:#000000;"
       id="stop91" />
  </linearGradient>
  <linearGradient
     id="XMLID_16_"
     gradientUnits="userSpaceOnUse"
     x1="139.21001"
     y1="224.10001"
     x2="168.19"
     y2="173.89999"
     gradientTransform="matrix(0.0760605,0,0,0.07289297,-0.00149997,0)">
    <stop
       offset="0.01"
       style="stop-color:#b4b4dc;"
       id="stop94" />
    <stop
       offset="1.00"
       style="stop-color:#000000;"
       id="stop96" />
  </linearGradient>
  <linearGradient
     id="XMLID_17_"
     gradientUnits="userSpaceOnUse"
     x1="185.78999"
     y1="171.82001"
     x2="185.78999"
     y2="72.25"
     gradientTransform="matrix(0.0760605,0,0,0.07289297,-0.00149997,0)">
    <stop
       offset="0.00"
       style="stop-color:#6498c1;"
       id="stop99" />
    <stop
       offset="0.20"
       style="stop-color:#0c418f;"
       id="stop101" />
    <stop
       offset="1.00"
       style="stop-color:#000040;"
       id="stop103" />
  </linearGradient>
  <linearGradient
     id="XMLID_18_"
     gradientUnits="userSpaceOnUse"
     x1="185.2"
     y1="149.75"
     x2="185.2"
     y2="60.68"
     gradientTransform="matrix(0.0760605,0,0,0.07289297,-0.00149997,0)">
    <stop
       offset="0.00"
       style="stop-color:#a4d8e5;"
       id="stop106" />
    <stop
       offset="0.20"
       style="stop-color:#0c418f;"
       id="stop108" />
    <stop
       offset="0.50"
       style="stop-color:#000040;"
       id="stop110" />
  </linearGradient>
  <linearGradient
     id="XMLID_19_"
     gradientUnits="userSpaceOnUse"
     x1="151.2"
     y1="134.73"
     x2="151.2"
     y2="83.480003"
     gradientTransform="matrix(0.0760605,0,0,0.07289297,-0.00149997,0)">
    <stop
       offset="0.00"
       style="stop-color:#a4d8e5;"
       id="stop113" />
    <stop
       offset="0.50"
       style="stop-color:#0c418f;"
       id="stop115" />
    <stop
       offset="1.00"
       style="stop-color:#000060;"
       id="stop117" />
  </linearGradient>
  <linearGradient
     id="XMLID_20_"
     gradientUnits="userSpaceOnUse"
     x1="132.09"
     y1="33.560001"
     x2="171.09"
     y2="88.059998"
     gradientTransform="matrix(0.0760605,0,0,0.07289297,-0.00149997,0)">
    <stop
       offset="0.00"
       style="stop-color:#4187b8;"
       id="stop120" />
    <stop
       offset="1.00"
       style="stop-color:#074e92;"
       id="stop122" />
  </linearGradient>
  <linearGradient
     id="XMLID_21_"
     gradientUnits="userSpaceOnUse"
     x1="162.21001"
     y1="71.089996"
     x2="134.67999"
     y2="23.41"
     gradientTransform="matrix(0.0760605,0,0,0.07289297,-0.00149997,0)">
    <stop
       offset="0.01"
       style="stop-color:#1b609d;"
       id="stop125" />
    <stop
       offset="0.50"
       style="stop-color:#9fd2e5;"
       id="stop127" />
    <stop
       offset="1.00"
       style="stop-color:#4187b8;"
       id="stop129" />
  </linearGradient>
  <linearGradient
     id="XMLID_22_"
     gradientUnits="userSpaceOnUse"
     x1="50.32"
     y1="74.900002"
     x2="94.57"
     y2="30.65"
     gradientTransform="matrix(0.0760605,0,0,0.07289297,-0.00149997,0)">
    <stop
       offset="0.00"
       style="stop-color:#a5b4d3;"
       id="stop132" />
    <stop
       offset="1.00"
       style="stop-color:#a5b4d3; stop-opacity:0.33;"
       id="stop134" />
  </linearGradient>
  <linearGradient
     id="XMLID_23_"
     gradientUnits="userSpaceOnUse"
     x1="48.16"
     y1="72.75"
     x2="92.410004"
     y2="28.5"
     gradientTransform="matrix(0.0760605,0,0,0.07289297,-0.00149997,0)">
    <stop
       offset="0.00"
       style="stop-color:#264b92;"
       id="stop137" />
    <stop
       offset="1.00"
       style="stop-color:#264b92; stop-opacity:0.33;"
       id="stop139" />
  </linearGradient>
  <radialGradient
     id="eye_2_"
     gradientUnits="userSpaceOnUse"
     cx="58.580002"
     cy="67.169998"
     r="8.5100002"
     fx="58.580002"
     fy="67.169998"
     gradientTransform="matrix(0.0760605,0,0,0.07289297,-0.00149997,0)">
    <stop
       offset="0.00"
       style="stop-color:#600000;"
       id="stop142" />
    <stop
       offset="0.50"
       style="stop-color:#c00000;"
       id="stop144" />
    <stop
       offset="1.00"
       style="stop-color:#f6aa00;"
       id="stop146" />
  </radialGradient>
  <radialGradient
     id="pupil_1_"
     gradientUnits="userSpaceOnUse"
     cx="59.610001"
     cy="65.110001"
     r="3.8"
     fx="59.610001"
     fy="65.110001"
     gradientTransform="matrix(0.0760605,0,0,0.07289297,-0.00149997,0)">
    <stop
       offset="0.01"
       style="stop-color:#ffffff;"
       id="stop149" />
    <stop
       offset="1.00"
       style="stop-color:#000000;"
       id="stop151" />
  </radialGradient>
  <radialGradient
     id="XMLID_24_"
     gradientUnits="userSpaceOnUse"
     cx="51.5"
     cy="87.5"
     r="12.97"
     fx="51.5"
     fy="87.5"
     gradientTransform="matrix(0.0760605,0,0,0.07289297,-0.00149997,0)">
    <stop
       offset="0.00"
       style="stop-color:#769eb8;"
       id="stop154" />
    <stop
       offset="1.00"
       style="stop-color:#ffffff;"
       id="stop156" />
  </radialGradient>
  <radialGradient
     id="XMLID_25_"
     gradientUnits="userSpaceOnUse"
     cx="47.25"
     cy="82.5"
     r="3.78"
     fx="47.25"
     fy="82.5"
     gradientTransform="matrix(0.0760605,0,0,0.07289297,-0.00149997,0)">
    <stop
       offset="0.01"
       style="stop-color:#ffffff;"
       id="stop159" />
    <stop
       offset="1.00"
       style="stop-color:#000000;"
       id="stop161" />
  </radialGradient>
  <path
     d="m 15.381728,9.002278 c 0,3.663599 -3.098703,6.633257 -6.91922,6.633257 -3.820517,0 -6.923023,-2.969658 -6.923023,-6.633257 0,-3.6636 3.098703,-6.633258 6.921502,-6.633258 3.822799,0 6.920741,2.969658 6.920741,6.633258 z"
     id="path163"
     style="fill:url(#XMLID_1_);stroke:none"
     inkscape:connector-curvature="0" />
  <path
     d="M 2.331274,3.773667 0.38716903,6.158724 1.418549,11.188337 10.910134,14.133941 13.180538,10.43754 12.51501,4.899134 5.227657,1.676537 2.384516,3.708792 2.331276,3.773672 z"
     id="path165"
     style="fill:#340000;stroke:none"
     inkscape:connector-curvature="0" />
  <path
     d="M 12.599436,6.877448 5.341747,9.494305 2.005735,4.410022 0.54993803,6.1959 1.550133,11.076082 l 9.290786,2.882915 2.182935,-3.55353 -0.424418,-3.528019 z"
     id="path167"
     style="fill:url(#XMLID_2_);stroke:none"
     inkscape:connector-curvature="0" />
  <path
     d="M 5.252757,10.132118 2.48948,6.36574 C 0.94317103,7.677813 2.59064,9.35435 2.364741,9.597813 2.212113,9.759635 1.856657,9.573273 1.298373,9.038724 0.46094703,8.236902 1.450494,9.986332 1.906857,10.593531 2.211099,10.998815 1.847787,10.974518 0.81691003,10.520641 L 0.51190803,5.758545 1.861981,4.191347 15.292738,5.977224 11.337593,8.164012 5.252757,10.132121 z"
     id="path169"
     style="fill:url(#XMLID_3_);stroke:none"
     inkscape:connector-curvature="0" />
  <path
     d="M 14.944381,6.03189 5.341747,9.494305 1.861981,4.191344 1.733439,4.268614 5.279378,9.672896 14.997623,6.168204 14.944383,6.031894 z"
     id="path171"
     style="fill:#340000;stroke:none"
     inkscape:connector-curvature="0" />
  <path
     d="M 12.599436,6.877448 12.455682,5.682005 2.151011,4.232163 2.096251,4.298493 2.005741,4.410019 5.341753,9.494302 12.599442,6.877445 z"
     id="path173"
     style="fill:url(#XMLID_4_);stroke:none"
     inkscape:connector-curvature="0" />
  <path
     d="m 1.550133,11.076082 9.290786,2.882915 0.257084,-0.419134 -9.67337,-3.076811 0.1255,0.61303 z"
     id="path175"
     style="fill:url(#XMLID_5_);stroke:none"
     inkscape:connector-curvature="0" />
  <path
     d="m 12.600958,5.613485 -0.145276,0.06852 0.143754,1.195443 -1.702233,0.613759 c 0.839708,1.723918 0.206124,3.880091 0.208406,3.880091 1.301394,-0.66697 1.642145,-2.58041 1.705276,-4.035353 l -0.209927,-1.72246 z"
     id="path177"
     style="fill:#7b5516;stroke:none"
     inkscape:connector-curvature="0" />
  <path
     d="m 8.57812,5.463325 c 1.312803,0.342597 1.916724,1.201276 2.321365,2.027882 L 12.600197,6.877448 12.456443,5.682005 11.098003,5.491025 11.008253,5.904328 8.578121,5.463325 z"
     id="path179"
     style="fill:#7b5516;stroke:none"
     inkscape:connector-curvature="0" />
  <path
     d="m 3.193039,4.378679 -1.042028,-0.146516 -0.05476,0.06633 -0.09051,0.111526 1.124935,1.714442 0.0061,-7.29e-4 c 0.04944,-0.288656 0.145276,-0.51681 0.147558,-0.51681 0.0023,0 0.0053,0.01385 0.01901,0.03645 L 3.288894,5.325559 C 3.282794,5.067518 3.209794,4.716903 3.195344,4.37868 l -0.0023,0 z"
     id="path181"
     style="fill:url(#XMLID_6_);stroke:none"
     inkscape:connector-curvature="0" />
  <path
     d="m 8.57812,5.463325 c 0,0 -1.030619,-0.215034 -1.750912,-0.263872 C 6.106915,5.150613 5.208642,5.832164 4.925696,5.995444 4.775097,6.082184 4.605482,6.170387 4.425219,6.262232 4.439669,6.948154 4.613088,8.435899 5.782137,9.056947 5.779137,5.4123 8.57812,5.463325 8.580402,5.463325 l -0.0023,0 z"
     id="path183"
     style="fill:url(#XMLID_7_);stroke:none"
     inkscape:connector-curvature="0" />
  <path
     d="M 4.770533,12.075444 1.550133,11.076082 1.16831,9.542414 0.49289303,9.330296 c 0,0 0.70355897,2.113895 1.95779597,3.8123 2.542702,1.698406 1.921287,0.871071 1.923569,0.871071 0.454842,0.255125 0.759083,0.255125 0.761366,0.255125 -0.0015,-0.255125 -1.142429,-0.309795 -1.463404,-2.041002 0.340751,0.656037 1.709839,1.020501 1.788182,0.947609 0.0502,-0.0486 -0.166826,-0.406986 -0.651078,-1.075171 l -0.03879,-0.02478 z"
     id="path185"
     style="fill:#000000;stroke:none"
     inkscape:connector-curvature="0" />
  <path
     d="m 3.820538,13.794988 c 0,0 -1.623891,-0.105694 -3.00590897,-2.732027 -0.816129,-2.71672 1.07701597,1.562824 3.00819097,2.732027 l -0.0023,0 z"
     id="path187"
     style="fill:url(#XMLID_8_);stroke:none"
     inkscape:connector-curvature="0" />
  <path
     d="m 0.01143003,7.80246 c 0,0 0.196236,4.097312 2.36624097,4.771572 C 1.273273,11.134396 0.95990403,8.328018 0.96218603,8.328018 L 0.01143003,7.80246 z"
     id="path189"
     style="fill:url(#XMLID_9_);stroke:none"
     inkscape:connector-curvature="0" />
  <path
     d="M 1.291528,10.405467 C 0.83516503,10.496587 -0.02964297,8.965831 7.8202669e-4,7.38041 0.01903203,6.323462 0.20842703,5.479119 0.56895303,4.84738 l 0.380303,3.006834 c 0,0 0,2.059225 0.34455297,2.551253 l -0.0023,0 z"
     id="path191"
     style="fill:url(#XMLID_10_);stroke:none"
     inkscape:connector-curvature="0" />
  <path
     d="m 7.129168,0.911161 c 0,0 -5.210142,0.801823 -6.55793297,3.936219 -0.924135,2.214487 1.16752797,4.109704 1.48317897,3.808656 -0.0015,0 -1.13558297,-1.414852 -0.01825,-3.528747 C 2.779528,3.718026 4.477198,2.31265 7.129172,0.911161 z"
     id="path193"
     style="fill:#000000;stroke:none"
     inkscape:connector-curvature="0" />
  <path
     d="m 7.129168,0.911161 c 0,0 -5.210142,0.801823 -6.55793297,3.936219 -0.924135,2.214487 1.16752797,4.109704 1.48317897,3.808656 -0.0015,0 -1.44666997,-1.640091 -0.170375,-3.863326 C 2.732873,3.310554 4.48125,2.016704 7.129168,0.911161 z"
     id="path195"
     style="fill:url(#XMLID_11_);stroke:none"
     inkscape:connector-curvature="0" />
  <path
     d="M 0.56286803,5.442916 C 0.28372603,7.228792 0.88384403,6.560364 1.350855,5.175398 0.88612503,5.946606 0.56286803,5.740319 0.56515003,5.442916 l -0.0023,0 z M 1.14397,4.206651 C 0.31415103,5.828519 1.09681,5.365649 1.979875,4.179681 1.293049,4.781048 1.049655,4.490205 1.146252,4.206651 l -0.0023,0 z M 2.802089,2.548337 C 1.594248,3.576856 2.372347,3.452938 3.475224,2.786697 2.725267,3.050569 2.631713,2.744417 2.80437,2.548337 l -0.0023,0 z M 1.946408,3.280911 C 0.73780703,4.547061 1.580557,4.324738 2.71614,3.469704 1.922069,3.842916 1.781357,3.515624 1.94869,3.280911 l -0.0023,0 z M 4.292873,2.256765 C 3.635711,2.433166 3.577145,2.164925 3.739153,2.008929 2.630952,2.807836 3.304848,2.753166 4.295155,2.256765 l -0.0023,0 z"
     id="path197"
     style="fill:url(#XMLID_12_);stroke:none"
     inkscape:connector-curvature="0" />
  <path
     d="M 12.234346,1.721731 C 11.838832,1.367471 10.920782,1.130569 10.400529,1.029248 9.952532,0.943238 9.475633,0.915535 9.023834,0.883462 8.711986,0.862322 7.8236,0.878362 7.44634,0.915532 6.494063,1.010292 6.113,1.347058 5.347072,1.866056 4.645033,2.339131 3.612132,2.854484 3.30713,3.681819 3.065258,4.141044 3.28279,4.874347 3.2942,5.325555 l 0.01293,0.317813 c -0.01445,-0.0226 -0.0213,-0.03645 -0.01901,-0.03645 0.0023,0 -0.422896,1.005193 0.04944,1.457859 0.0046,-0.04082 0.01445,-0.08091 0.03119,-0.120274 L 3.33833,7.064777 c 0,0 0.206124,-0.36155 0.584905,-0.550342 0.378781,-0.188793 0.726377,-0.355718 1.009322,-0.518998 0.282945,-0.16328 1.16981,-0.8441 1.892384,-0.795991 0.481717,0.03256 1.876158,0.267517 4.183326,0.704875 L 11.249378,4.786872 10.812792,4.471245 c 0.0464,-0.117357 0.08215,-0.242004 0.149838,-0.348428 0.165812,-0.273348 0.186349,-0.511708 0.183306,-0.82369 0.384866,-0.08747 0.816129,-0.239089 1.067889,-0.552528 0.214491,-0.274078 0.317933,-0.758087 0.02282,-1.024875 l -0.0023,0 z"
     id="path199"
     style="fill:#000000;stroke:none"
     inkscape:connector-curvature="0" />
  <path
     d="M 12.234346,1.721731 C 11.838832,1.367471 10.920782,1.130569 10.400529,1.029248 9.952532,0.943238 9.475633,0.915535 9.023834,0.883462 8.711986,0.862322 7.8236,0.878362 7.44634,0.915532 6.494063,1.010292 6.113,1.347058 5.347072,1.866056 4.645033,2.339131 3.612132,2.854484 3.30713,3.681819 3.065258,4.141044 3.28279,4.874347 3.2942,5.325555 l 0.01293,0.317813 c -0.01445,-0.0226 -0.0213,-0.03645 -0.01901,-0.03645 0.0023,0 -0.422896,1.005193 0.04944,1.457859 C 3.38852,6.590972 4.174225,6.226508 4.176507,6.226508 L 4.755327,5.947327 C 4.843557,5.889747 5.08619,5.74833 5.163772,5.673979 5.625459,5.418125 6.012606,5.136758 6.55872,5.085004 c 0.720293,-0.06925 1.401795,0.237631 2.120566,0.16328 0.588708,-0.06123 1.394188,-0.141412 1.906075,-0.454123 0.240352,-0.147973 0.247197,-0.448292 0.386388,-0.671344 0.165811,-0.272619 0.186348,-0.511708 0.183306,-0.82369 0.384865,-0.08747 0.816128,-0.239089 1.067888,-0.552528 0.205364,-0.274078 0.308806,-0.758087 0.01369,-1.024875 l -0.0023,0 z"
     id="path201"
     style="fill:url(#XMLID_13_);stroke:none"
     inkscape:connector-curvature="0" />
  <path
     d="M 6.824926,0.51025 C 6.742016,0.54378 6.657594,0.59043 6.574688,0.64656 6.659118,0.59043 6.743542,0.543052 6.827208,0.51025 l -0.0023,0 z m 0,0 C 6.092464,0.965831 5.82321,1.907608 5.825492,1.907608 5.900032,1.876988 6.010319,1.74287 6.158637,1.578861 c -0.08899,0.0984 -0.165051,0.186606 -0.225139,0.247107 0.0038,-0.0175 0.30196,-0.77631 0.89371,-1.315718 l -0.0023,0 z M 6.596745,0 c -1.6353,1.145148 -1.56,2.064328 -1.557718,2.064328 0.02358,-0.01166 0.054,-0.0328 0.09127,-0.06123 C 5.127297,2.002369 5.083897,1.295307 6.599025,0 l -0.0023,0 z m 0.405402,0.911161 c -0.37726,0.510251 -0.08823,0.61959 -0.08595,0.61959 0.0023,0 -0.107245,-0.16984 0.08595,-0.61959 z M 6.599787,1.148792 C 6.720723,1.054762 6.85459,0.970205 7.004429,0.911161 c -0.155924,0.06196 -0.28903,0.145786 -0.40236,0.237631 -0.0023,0 -0.0023,0 0,0 l -0.0023,0 z"
     id="path203"
     style="fill:#484848;stroke:none"
     inkscape:connector-curvature="0" />
  <path
     d="M 3.475224,3.346515 C 4.511167,0.314897 6.596745,0 6.599027,0 4.962206,1.145148 5.037505,2.064328 5.039787,2.064328 5.30752,1.934578 6.165482,0.777767 6.827208,0.51025 6.093985,0.965831 5.82397,1.907608 5.826252,1.907608 6.008037,1.834718 6.3891,1.15754 7.00595,0.911161 6.62793,1.421412 6.9162,1.530751 6.91848,1.530751 L 3.475224,3.346515 z"
     id="path205"
     style="fill:url(#XMLID_14_);stroke:none"
     inkscape:connector-curvature="0" />
  <path
     d="M 15.870037,6.594624 12.548476,5.266515 12.263249,8.346241 c 0.03651,0.198998 0.06085,0.414032 0.07682,0.641458 -0.0038,-0.0379 -0.0061,-0.07435 -0.0068,-0.111526 -0.2761,4.232893 -2.896383,6.400729 -4.211468,6.959818 1.652794,0.109339 2.668201,-0.441731 2.670483,-0.441731 0.0023,0 -0.221336,0.259498 -0.810805,0.60574 0.74159,0 2.586056,-0.67426 2.949625,-1.384966 l 0.18863,0.07289 c -7.6e-4,0 3.593096,-2.405467 2.752628,-8.093303 l -0.0023,0 z"
     id="path207"
     style="fill:#000000;stroke:none"
     inkscape:connector-curvature="0" />
  <path
     d="m 12.330182,8.876173 c -0.274578,4.232893 -2.894861,6.400729 -4.209946,6.959818 3.243218,-0.676447 4.394013,-4.567472 4.212228,-6.959818 l -0.0023,0 z"
     id="path209"
     style="fill:url(#XMLID_15_);stroke:none"
     inkscape:connector-curvature="0" />
  <path
     d="m 9.981435,16 c 0,0 2.605071,-0.984055 2.911595,-3.225513 C 14.107716,12.938496 11.616735,15.653758 9.983717,16 l -0.0023,0 z"
     id="path211"
     style="fill:url(#XMLID_16_);stroke:none"
     inkscape:connector-curvature="0" />
  <path
     d="M 10.438559,5.047836 C 9.591246,3.861139 8.286048,3.486469 7.06832,3.486469 c 2.209556,0.267517 5.461141,3.274351 3.637972,6.609203 1.077776,-1.387153 0.710404,-3.67672 -0.265451,-5.047836 l -0.0023,0 z"
     id="path213"
     style="fill:#000000;stroke:none"
     inkscape:connector-curvature="0" />
  <path
     d="m 12.34007,8.737676 c -0.590989,1.221686 -1.63606,1.357996 -1.633778,1.357996 0.0023,0 0.873174,0.145785 1.595748,-0.692483 0.103442,-0.121003 0.107245,-0.35426 0.04031,-0.665513 l -0.0023,0 z"
     id="path215"
     style="fill:#000000;stroke:none"
     inkscape:connector-curvature="0" />
  <path
     d="M 15.870037,6.594624 12.548476,5.266515 12.263249,8.346241 c 0.03042,0.166925 0.05248,0.345513 0.06846,0.532847 -7.61e-4,-0.0015 -7.61e-4,-0.0029 0.0015,-0.0029 0.0015,0.03718 0.0038,0.07362 0.0084,0.111526 -0.0038,-0.03645 -0.0068,-0.07216 -0.0076,-0.107881 -0.01141,0.153803 -0.0251,0.304692 -0.03879,0.453394 -0.04259,0.663325 -0.04868,1.894487 0.379541,2.640181 0.291312,-0.422049 0.584145,-0.949065 0.686066,-1.47681 0.04564,0.535763 -0.219054,1.224601 -0.478421,1.758906 0.08595,0.0933 0.186349,0.17057 0.30196,0.227426 0.04336,0.0175 0.08747,0.03062 0.133867,0.04155 0.364329,-0.431526 0.95608,-1.229704 1.109722,-2.027881 0.05324,0.629795 -0.320975,1.471708 -0.613808,2.024237 1.248913,-0.32729 2.10003,-2.952893 2.117523,-2.999545 -0.0015,-7.29e-4 -0.0015,-7.29e-4 7.61e-4,-0.0015 0.09736,-0.85795 0.09964,-1.830341 -0.06009,-2.925193 l -0.0023,0 z"
     id="path217"
     style="fill:url(#XMLID_17_);stroke:none"
     inkscape:connector-curvature="0" />
  <path
     d="m 14.115322,11.86697 c -0.09964,0.23836 -0.210688,0.463599 -0.309566,0.654579 0.450277,-0.118816 0.849595,-0.537221 1.178176,-1.024875 -0.295875,0.2041 -0.656401,0.317084 -0.866329,0.370296 l -0.0023,0 z"
     id="path219"
     style="fill:#0c418f;stroke:none"
     inkscape:connector-curvature="0" />
  <path
     d="m 12.998754,11.98943 c -0.04031,0.09184 -0.08215,0.181504 -0.121697,0.266059 0.08671,0.0933 0.186348,0.17057 0.30196,0.227426 0.04335,0.0175 0.08747,0.03062 0.133866,0.04155 0.36433,-0.431526 0.956081,-1.229704 1.109723,-2.027881 -0.416811,1.024146 -1.046592,1.374032 -1.42157,1.492847 l -0.0023,0 z"
     id="path221"
     style="fill:#0c418f;stroke:none"
     inkscape:connector-curvature="0" />
  <path
     d="m 13.27105,8.036446 c 0.209167,1.166287 -0.608483,2.879272 -0.606201,2.879272 0.0023,0 1.221531,-0.229614 1.760799,-2.720365 0,0 -0.114851,1.729749 -0.35292,2.13722 -0.0015,0 1.177415,-0.528473 1.426894,-2.678815 C 15.7491,5.503417 14.129012,4.191344 13.615604,4.446469 13.273332,4.616552 13.158481,5.813211 13.27105,8.036446 z"
     id="path223"
     style="fill:url(#XMLID_18_);stroke:none"
     inkscape:connector-curvature="0" />
  <path
     d="m 15.913391,6.843918 c 0,-7.29e-4 0,-7.29e-4 0.0023,-0.0015 C 15.792473,6.079229 15.578743,5.353944 15.291234,4.701552 14.551166,3.038135 13.322029,2.022737 11.899698,1.603602 8.665607,1.312031 7.068338,3.486427 7.070619,3.486427 c 1.218489,0 2.523687,0.37467 3.373282,1.561367 0.976616,1.371116 1.343989,3.660683 0.266212,5.047836 -0.0015,0 2.242262,-0.291572 2.016363,-3.863326 -0.0015,0 0.797113,1.494305 -0.227421,3.553531 -0.0015,0 2.071126,-0.492028 1.426894,-4.318907 -0.0015,0 0.473857,0.874715 0.324018,2.897494 -0.0015,0 0.854159,-0.570022 0.85644,-2.314351 -0.0015,0 0.587948,1.840547 7.61e-4,3.006834 -0.0015,0 0.0084,-0.03207 0.05324,-0.06415 0.183306,-0.148701 0.902838,-0.737676 0.755281,-2.148883 l -0.0023,0 z"
     id="path225"
     style="fill:url(#XMLID_19_);stroke:none"
     inkscape:connector-curvature="0" />
  <path
     d="m 10.581553,5.26287 c 0.411487,0.653849 0.660965,1.406105 0.749195,2.163462 0.05933,0.154533 0.21373,0.402369 0.426699,0.345513 0.174939,-0.04811 0.333906,-0.241276 0.437348,-0.380501 0.130824,-0.181504 0.182545,-0.40237 0.308045,-0.586789 0.05857,-0.09112 0.140712,-0.171298 0.152121,-0.283553 0.0023,-0.03936 -0.01217,-0.27262 0.07226,-0.26533 -0.0023,-0.008 -0.0023,-0.01531 -7.6e-4,-0.02333 -0.0015,0 0.0038,0.01093 0.01521,0.02989 0.05781,0.04811 0.07986,0.160364 0.104203,0.227426 0.03271,0.105695 0.06237,0.212847 0.09203,0.32 0.0464,0.18369 0.177981,0.514624 0.423656,0.309795 0.111809,-0.09549 0.181024,-0.240547 0.241873,-0.371025 0.05552,-0.126834 0.08899,-0.253667 0.111048,-0.390706 0.03651,-0.259499 0.0251,-0.613759 0.22666,-0.818588 -0.0053,-0.02406 -0.0091,-0.04811 -0.01065,-0.07216 -0.0015,0 0.01369,0.02843 0.04031,0.08528 0.08975,0.05758 0.215251,0.112255 0.323257,0.0554 0.09812,-0.05321 0.141472,-0.173486 0.170375,-0.27262 0.03955,-0.151617 0.054,-0.310524 0.08747,-0.465057 0.03499,-0.17713 0.07226,-0.358633 0.05933,-0.539408 0.08062,0.178588 0.168854,0.352073 0.241872,0.535763 0.05704,0.152347 0.115612,0.306151 0.128542,0.469431 0.0099,0.138496 0.0068,0.277722 0.02662,0.416218 0.01293,0.110069 0.03955,0.24565 0.142232,0.315627 C 15.194619,5.476446 15.28969,4.836446 15.091929,4.261321 14.768672,3.660683 14.349579,3.105239 13.828565,2.650387 13.277887,2.172938 12.624528,1.812118 11.917926,1.603644 8.683835,1.312073 7.086565,3.487198 7.088847,3.487198 c 0.657163,0 1.322692,0.109339 1.92509,0.377585 0.648796,0.300319 1.185783,0.791618 1.569889,1.398087 l -0.0023,0 z"
     id="path227"
     style="fill:url(#XMLID_20_);stroke:none"
     inkscape:connector-curvature="0" />
  <path
     d="m 9.487042,2.363918 c 0.218294,0.283553 -0.02814,0.379043 -0.536226,0.33312 1.524252,0.455581 1.174374,0.05321 0.538508,-0.33312 l -0.0023,0 z m 1.439064,-0.206287 c 1.434501,0.150159 1.051917,-0.148702 0.419094,-0.384875 0.242632,0.215034 0.04183,0.34041 -0.416812,0.384875 l -0.0023,0 z m 1.029098,1.026332 c 0.202321,0.315627 -0.06465,0.39508 -0.594032,0.303964 1.556958,0.607198 1.227616,0.155262 0.596314,-0.303964 l -0.0023,0 z m 0.720293,-0.374669 c 0.203082,0.316355 -0.06389,0.395079 -0.593272,0.303963 1.556958,0.607198 1.227616,0.155262 0.595554,-0.303963 l -0.0023,0 z M 9.436082,3.110341 c 1.55924,0.607199 1.229898,0.155262 0.598596,-0.303963 0.200039,0.315626 -0.06693,0.394351 -0.595554,0.303963 l -0.003,0 z m 1.455797,0.150889 c 0.202321,0.315626 -0.06465,0.394351 -0.594032,0.303963 1.556958,0.607198 1.227616,0.155262 0.596314,-0.303963 l -0.0023,0 z m 1.318128,-0.766105 c -0.114852,-0.08528 -0.298918,-0.18369 -0.506563,-0.276993 0.266212,0.268246 0.02206,0.398724 -0.514929,0.416947 1.166767,0.196811 1.302155,0.06852 1.030619,-0.136309 1.63454,0.273348 1.213925,-0.100593 0.498957,-0.419864 0.260127,0.265331 0.02206,0.395809 -0.505802,0.416219 l -0.0023,0 z m -1.674851,0.594806 c 1.658118,0.27918 1.235982,-0.09622 0.517971,-0.416947 0.265451,0.267517 0.0213,0.398724 -0.51569,0.416947 l -0.0023,0 z m 0.0038,-0.818587 c 0.104963,0.181503 -0.108767,0.263143 -0.513409,0.263143 1.351595,0.275535 1.086144,-0.02041 0.528621,-0.30615 -0.01597,-0.09112 -0.214491,-0.262415 -0.464729,-0.433713 0.181023,0.26533 -0.04564,0.339681 -0.501239,0.275535 0.61609,0.220137 0.889147,0.259499 0.953038,0.201185 l -0.0023,0 z m 2.389059,1.519088 c 1.499912,0.895855 1.243588,0.371754 0.675417,-0.212118 0.149078,0.361549 -0.142233,0.397267 -0.673135,0.212118 l -0.0023,0 z m -0.797114,0.33385 c 1.499912,0.895855 1.242828,0.371754 0.675417,-0.212118 0.148318,0.361549 -0.142993,0.397266 -0.673135,0.212118 l -0.0023,0 z M 8.764465,2.830432 C 8.967547,3.146059 8.700575,3.225512 8.171193,3.134396 9.728151,3.741594 9.398809,3.289658 8.766747,2.830432 l -0.0023,0 z m 4.989566,-0.0029 c 0.143754,0.344055 -0.133105,0.378314 -0.638147,0.201913 1.426134,0.852847 1.181219,0.353531 0.640429,-0.201913 l -0.0023,0 z m -2.672003,1.352893 c 1.574451,0.941048 1.305197,0.390706 0.708883,-0.222324 0.155924,0.379043 -0.149839,0.416948 -0.706602,0.222324 l -0.0023,0 z M 9.46194,3.35309 C 9.66426,3.668716 9.39729,3.747441 8.867908,3.657053 10.424865,4.264251 10.095523,3.812315 9.464221,3.35309 l -0.0023,0 z m 1.077016,0.570751 c 0.203081,0.316356 -0.06389,0.39508 -0.593272,0.303964 1.556958,0.607198 1.227616,0.155262 0.595554,-0.303964 l -0.0023,0 z m -0.18787,0.949067 c 1.405598,1.29312 1.252716,0.672072 0.77886,-0.08237 0.07454,0.423507 -0.247958,0.397995 -0.776578,0.08237 l -0.0023,0 z"
     id="path229"
     style="fill:url(#XMLID_21_);stroke:none"
     inkscape:connector-curvature="0" />
  <path
     d="M 11.781787,7.823598 C 11.261533,7.495581 11.325424,6.682095 11.327706,6.682095 c 0.04259,0.248565 0.409965,0.188064 0.412248,0.188064 -0.07758,-0.231071 -0.07074,-1.488474 -0.06846,-1.488474 0.517972,1.871162 0.886865,1.639362 0.72942,-0.200455 -0.0046,0 0.787986,1.403189 -0.616851,2.642368 l -0.0023,0 z"
     id="path231"
     style="fill:#4a6eaa;stroke:none"
     inkscape:connector-curvature="0" />
  <path
     d="m 13.023854,6.754988 c 0.133106,-0.309795 -0.08899,-1.409749 -0.08671,-1.409749 0.0023,0 0.17646,0.328018 0.429742,0.243462 0,0 0.06313,-0.535034 -0.352921,-0.801822 -0.0015,0 0.429742,0.109339 0.546114,-0.121731 -0.0038,0 0.895993,1.384965 -0.533944,2.08984 l -0.0023,0 z"
     id="path233"
     style="fill:#4a6eaa;stroke:none"
     inkscape:connector-curvature="0" />
  <path
     d="M 4.092835,5.716264 C 5.86124,5.661594 4.923415,4.50697 7.283571,2.320182 5.360763,3.389521 3.35809,3.365467 4.095116,5.716264 l -0.0023,0 z"
     id="path235"
     style="fill:url(#XMLID_22_);stroke:none"
     inkscape:connector-curvature="0" />
  <path
     d="M 4.092835,5.716264 C 4.403922,5.284738 5.455838,3.6082 7.283571,2.320182 5.360763,3.389521 3.35809,3.365467 4.095116,5.716264 l -0.0023,0 z"
     id="path237"
     style="fill:url(#XMLID_23_);stroke:none"
     inkscape:connector-curvature="0" />
  <path
     d="M 5.004039,5.042004 C 4.671655,5.360546 4.273859,5.286196 4.242674,4.866332 4.193994,4.272983 4.858003,4.210296 5.147032,4.300683 5.244392,4.569658 5.121172,4.832073 5.006321,5.042004"
     id="path239"
     style="fill:#000064;stroke:none"
     inkscape:connector-curvature="0" />
  <path
     d="M 5.035984,4.962551 C 4.928739,5.154259 4.6785,5.231526 4.54007,5.159362 4.398598,5.087202 4.399358,4.845922 4.50888,4.654214 4.614604,4.462505 5.081615,4.548519 5.083898,4.548519 c 0.0023,0 0.05933,0.223052 -0.04792,0.414032 z"
     id="path241"
     style="fill:url(#eye_2_);stroke:none"
     inkscape:connector-curvature="0" />
  <path
     d="m 4.563649,4.974214 c 0.09736,0.116628 0.246436,0.158177 0.334666,0.09257 0.08443,-0.06633 0.123218,-0.260956 0.02738,-0.377585 -0.09888,-0.117357 -0.295874,-0.111526 -0.379541,-0.04592 -0.08975,0.0656 -0.08062,0.214305 0.01977,0.330934 l -0.0023,0 z"
     id="path243"
     style="fill:url(#pupil_1_);stroke:none"
     inkscape:connector-curvature="0" />
  <path
     d="m 4.194755,6.201731 c 0,0 0,-0.182232 -0.05476,-0.364465 C 3.485114,6.050113 3.282793,5.606925 3.285076,5.606925 c 0.0023,0 -0.423657,1.005193 0.04868,1.457859 0.05096,-0.473805 0.836665,-0.838269 0.838947,-0.838269"
     id="path245"
     style="fill:url(#XMLID_24_);stroke:none"
     inkscape:connector-curvature="0" />
  <path
     d="m 4.168895,6.226515 0.02586,-0.02478 c 0,0 0,-0.182232 -0.05476,-0.364465 C 3.098727,6.371575 3.332994,7.064788 3.335276,7.064788 3.383196,6.590983 4.168898,6.226519 4.17118,6.226519 l -0.0023,0 z"
     id="path247"
     style="fill:#484848;stroke:none"
     inkscape:connector-curvature="0" />
  <path
     d="m 3.330709,6.260045 c 0,0 0.0053,-0.301048 0.148318,-0.355717 -0.0015,0.05904 0.0715,0.104965 0.145275,0.104965 -0.199278,0.01895 -0.293593,0.250752 -0.291311,0.250752 l -0.0023,0 z"
     id="path249"
     style="fill:url(#XMLID_25_);stroke:none"
     inkscape:connector-curvature="0" />
  <path
     d="m 3.475224,3.346515 0.0015,-7.29e-4 C 3.405984,3.452209 3.3459,3.563007 3.304067,3.681822 3.096421,4.075444 3.226487,4.67025 3.276687,5.115626 c 0.04335,0.15672 0.09432,0.317813 0.186348,0.406013 l 0.112569,0.03645 C 3.573304,5.309523 3.665354,5.079182 3.653944,4.829159 3.636454,4.525924 3.553544,4.22196 3.617434,3.917997 3.669914,3.65048 3.835727,3.418681 3.903421,3.15335 3.984801,2.823145 3.974921,2.467428 4.023596,2.130662 3.818994,2.477633 3.634167,2.879273 3.477483,3.346517"
     id="path251"
     style="fill:#ffffff;fill-opacity:0.25;stroke:none"
     inkscape:connector-curvature="0" />
</svg>
