<?xml version="1.0" encoding="UTF-8" standalone="no"?>
<!-- Created with Inkscape (http://www.inkscape.org/) -->
<svg xmlns:svg="http://www.w3.org/2000/svg" xmlns="http://www.w3.org/2000/svg" xmlns:xlink="http://www.w3.org/1999/xlink" xmlns:inkscape="http://www.inkscape.org/namespaces/inkscape" version="1.0" width="480" height="480" id="svg2">
  <defs id="defs4">
    <linearGradient x1="30.4375" y1="31.82852" x2="29.742416" y2="27.45352" id="linearGradient9801" xlink:href="#linearGradient9795" gradientUnits="userSpaceOnUse"/>
    <linearGradient x1="18.3125" y1="20.743757" x2="18.3125" y2="21.814325" id="linearGradient9789" xlink:href="#linearGradient9783" gradientUnits="userSpaceOnUse"/>
    <linearGradient x1="24.71875" y1="35.958694" x2="23.936657" y2="17.070877" id="linearGradient9781" xlink:href="#linearGradient9775" gradientUnits="userSpaceOnUse"/>
    <filter id="filter9771" x="-0.029765811" width="1.0595316" y="-0.13995509" height="1.2799102">
      <feGaussianBlur inkscape:collect="always" stdDeviation="0.5196773" id="feGaussianBlur9773"/>
    </filter>
    <linearGradient x1="10.1875" y1="20.25" x2="10.1875" y2="42.5" id="linearGradient5954" xlink:href="#linearGradient5948" gradientUnits="userSpaceOnUse"/>
    <linearGradient x1="13.625" y1="33.125" x2="14.125" y2="24" id="linearGradient5928" xlink:href="#linearGradient5871" gradientUnits="userSpaceOnUse"/>
    <linearGradient x1="24.040522" y1="5.0690055" x2="24.040522" y2="10.0086" id="linearGradient5914" xlink:href="#linearGradient5908" gradientUnits="userSpaceOnUse"/>
    <linearGradient x1="14.8125" y1="5.6244211" x2="14.8125" y2="9" id="linearGradient5904" xlink:href="#linearGradient5898" gradientUnits="userSpaceOnUse"/>
    <linearGradient x1="20.771132" y1="32.248005" x2="20.563131" y2="23.939499" id="linearGradient5849" xlink:href="#linearGradient5843" gradientUnits="userSpaceOnUse"/>
    <linearGradient x1="23.9375" y1="30.616879" x2="23.9375" y2="36.357994" id="linearGradient5841" xlink:href="#linearGradient5835" gradientUnits="userSpaceOnUse"/>
    <linearGradient x1="23.732271" y1="30.057167" x2="23.688078" y2="22.632544" id="linearGradient5829" xlink:href="#linearGradient5823" gradientUnits="userSpaceOnUse"/>
    <linearGradient x1="23.738585" y1="4.156569" x2="23.738585" y2="19.46567" id="linearGradient5240" xlink:href="#linearGradient5234" gradientUnits="userSpaceOnUse"/>
    <linearGradient id="linearGradient5234">
      <stop id="stop5236" style="stop-color:#babdb6;stop-opacity:1" offset="0"/>
      <stop id="stop5242" style="stop-color:#eeeeec;stop-opacity:1" offset="0.13299191"/>
      <stop id="stop5238" style="stop-color:#babdb6;stop-opacity:1" offset="1"/>
    </linearGradient>
    <linearGradient id="linearGradient5823">
      <stop id="stop5825" style="stop-color:#2e3436;stop-opacity:1" offset="0"/>
      <stop id="stop5827" style="stop-color:#2e3436;stop-opacity:0" offset="1"/>
    </linearGradient>
    <linearGradient id="linearGradient5835">
      <stop id="stop5837" style="stop-color:#555753;stop-opacity:1" offset="0"/>
      <stop id="stop5839" style="stop-color:#2e3436;stop-opacity:1" offset="1"/>
    </linearGradient>
    <linearGradient id="linearGradient5843">
      <stop id="stop5845" style="stop-color:#888a85;stop-opacity:1" offset="0"/>
      <stop id="stop5847" style="stop-color:#2e3436;stop-opacity:1" offset="1"/>
    </linearGradient>
    <linearGradient id="linearGradient5871">
      <stop id="stop5873" style="stop-color:#f0f2ef;stop-opacity:1" offset="0"/>
      <stop id="stop5875" style="stop-color:#cdd1c8;stop-opacity:1" offset="1"/>
    </linearGradient>
    <linearGradient id="linearGradient5898">
      <stop id="stop5900" style="stop-color:#cc0000;stop-opacity:1" offset="0"/>
      <stop id="stop5906" style="stop-color:#ef0000;stop-opacity:1" offset="0.36509839"/>
      <stop id="stop5902" style="stop-color:#aa0000;stop-opacity:1" offset="1"/>
    </linearGradient>
    <linearGradient id="linearGradient5908">
      <stop id="stop5910" style="stop-color:#ffffff;stop-opacity:1" offset="0"/>
      <stop id="stop5912" style="stop-color:#ffffff;stop-opacity:0" offset="1"/>
    </linearGradient>
    <linearGradient id="linearGradient5948">
      <stop id="stop5950" style="stop-color:#787b76;stop-opacity:1" offset="0"/>
      <stop id="stop5956" style="stop-color:#babcb9;stop-opacity:1" offset="0.87125719"/>
      <stop id="stop5952" style="stop-color:#787b76;stop-opacity:1" offset="1"/>
    </linearGradient>
    <linearGradient id="linearGradient9775">
      <stop id="stop9777" style="stop-color:#f9f9f9;stop-opacity:1" offset="0"/>
      <stop id="stop9779" style="stop-color:#eeeeec;stop-opacity:0.62037039" offset="1"/>
    </linearGradient>
    <linearGradient id="linearGradient9783">
      <stop id="stop9785" style="stop-color:#000000;stop-opacity:1" offset="0"/>
      <stop id="stop9787" style="stop-color:#000000;stop-opacity:0" offset="1"/>
    </linearGradient>
    <linearGradient id="linearGradient9795">
      <stop id="stop9797" style="stop-color:#ffffff;stop-opacity:1" offset="0"/>
      <stop id="stop9799" style="stop-color:#ffffff;stop-opacity:0" offset="1"/>
    </linearGradient>
  </defs>
  <g transform="translate(-26.192224,-29.328554)" id="layer1">
    <g transform="matrix(11.364498,0,0,10.81868,-7.9012706,-3.5745963)" id="g2644">
      <rect width="41.901279" height="8.9116125" rx="2.2980971" ry="2.2980971" x="3" y="39" id="rect9761" style="opacity:0.28240739;fill:#2e3436;fill-opacity:1;stroke:none;stroke-width:1;stroke-linecap:round;stroke-linejoin:round;stroke-miterlimit:4;stroke-dasharray:none;stroke-dashoffset:0;stroke-opacity:1;filter:url(#filter9771)"/>
      <path d="M 10,16.59375 C 8.8196081,16.548814 7.6402135,17.571722 7.53125,18.8125 C 6.643292,26.100083 5.3269606,33.403527 4.65625,40.6875 L 4.65625,43.75 C 4.6900093,45.329492 5.7271791,46.392039 6.875,46.59375 L 41.5,46.59375 C 42.479024,46.569246 43.565009,45.89005 43.53125,44.59375 L 43.53125,40.65625 L 40.40625,19.4375 C 40.152431,18.135677 39.039534,16.752716 37.5,16.59375 L 10,16.59375 z" id="path5232" style="fill:url(#linearGradient5954);fill-opacity:1;fill-rule:evenodd;stroke:#555753;stroke-width:1.00000012px;stroke-linecap:butt;stroke-linejoin:miter;stroke-opacity:1"/>
      <path d="M 10.601853,39.624614 C 9.47224,39.502143 8.6733861,38.760954 8.7014295,37.401046 L 10.601853,21.407733 C 10.893931,20.339398 11.586949,19.485349 12.680909,19.488442 L 34.605501,19.488442 C 35.691818,19.455762 36.778134,20.208796 37.062569,21.104687 L 39.478435,37.237611 C 39.535481,38.706714 38.931012,39.557098 37.913093,39.523599 L 10.601853,39.624614 z" id="path5230" style="fill:url(#linearGradient5928);fill-opacity:1;fill-rule:evenodd;stroke:#555753;stroke-width:0.99999994px;stroke-linecap:butt;stroke-linejoin:miter;stroke-opacity:1"/>
      <path d="M 20.46875,20.4375 L 18.40625,32.46875 L 15.4375,32.46875 L 23.46875,37.625 L 32.4375,32.46875 L 29.46875,32.46875 L 27.59375,20.4375 L 20.46875,20.4375 z" id="path5197" style="fill:url(#linearGradient5841);fill-opacity:1;fill-rule:evenodd;stroke:url(#linearGradient5849);stroke-width:1px;stroke-linecap:butt;stroke-linejoin:miter;stroke-opacity:1"/>
      <rect width="31.113209" height="6.0609155" rx="5.0159144" ry="1.9854566" x="8.4847708" y="4.5135489" id="rect5224" style="opacity:1;fill:url(#linearGradient5904);fill-opacity:1;stroke:#930000;stroke-width:1.00000012;stroke-linecap:round;stroke-linejoin:round;stroke-miterlimit:4;stroke-dasharray:none;stroke-dashoffset:0;stroke-opacity:1"/>
      <rect width="29.080278" height="3.9395947" rx="1.8339339" ry="1.2783499" x="9.5003824" y="5.5690055" id="rect5896" style="opacity:0.58333333;fill:none;fill-opacity:1;stroke:url(#linearGradient5914);stroke-width:1.00000012;stroke-linecap:round;stroke-linejoin:round;stroke-miterlimit:4;stroke-dasharray:none;stroke-dashoffset:0;stroke-opacity:1"/>
      <path d="M 10.592965,17.57221 C 9.474152,17.53019 8.3562869,18.486727 8.2530054,19.647002 L 5.4687498,39.722803 C 5.4796612,39.847886 5.4997885,39.979699 5.5279893,40.102694 L 5.5279893,42.966491 C 5.559989,44.443503 6.5430497,45.407885 7.6309909,45.596509 L 40.479283,45.596509 C 41.407232,45.573597 42.406944,44.967688 42.374947,43.755497 L 42.374947,40.073472 C 42.382229,40.044972 42.398547,40.013922 42.404566,39.985805 L 42.374947,39.781247 L 42.374947,39.576691 L 42.345327,39.576691 L 39.442592,20.202228 C 39.202015,18.98487 38.147175,17.72086 36.687956,17.57221 L 10.592965,17.57221 z" id="path5881" style="opacity:0.24537036;fill:none;fill-opacity:1;fill-rule:evenodd;stroke:url(#linearGradient9781);stroke-width:1.00000012px;stroke-linecap:butt;stroke-linejoin:miter;stroke-opacity:1"/>
      <path d="M 10.210155,29.955767 L 12.048004,22 L 36.07815,22.05802 L 37.857941,31.044156 L 36.681164,21.969631 C 36.460193,20.967897 35.929863,20 34.957591,20.025088 L 13.037281,19.980893 C 11.606886,19.936699 11.32554,20.864777 11,21.969631 L 10.210155,29.955767 z" id="path5926" style="opacity:0.20833333;fill:url(#linearGradient9789);fill-opacity:1;fill-rule:evenodd;stroke:none;stroke-width:1px;stroke-linecap:butt;stroke-linejoin:miter;stroke-opacity:1"/>
      <rect width="7.0964494" height="25.970053" rx="1.0763195" ry="1.0763192" x="20.48369" y="3.6044116" id="rect5226" style="opacity:1;fill:url(#linearGradient5240);fill-opacity:1;stroke:#888a85;stroke-width:1;stroke-linecap:round;stroke-linejoin:round;stroke-miterlimit:4;stroke-dasharray:none;stroke-dashoffset:0;stroke-opacity:1"/>
      <rect width="8.1317272" height="8.0433397" rx="1.0763195" ry="1.0763192" x="19.975765" y="22.013826" id="rect5244" style="opacity:1;fill:url(#linearGradient5829);fill-opacity:1;stroke:none;stroke-width:1;stroke-linecap:round;stroke-linejoin:round;stroke-miterlimit:4;stroke-dasharray:none;stroke-dashoffset:0;stroke-opacity:1"/>
      <path d="M 11.423372,41.486321 L 39.533811,41.486321" id="path5879" style="opacity:0.43518521;fill:none;fill-rule:evenodd;stroke:#ffffff;stroke-width:1px;stroke-linecap:round;stroke-linejoin:miter;stroke-opacity:1"/>
      <rect width="5.151906" height="23.93712" rx="1.0763195" ry="1.0763192" x="21.428234" y="4.6321397" id="rect5892" style="opacity:0.22685188;fill:none;fill-opacity:1;stroke:#ffffff;stroke-width:1;stroke-linecap:round;stroke-linejoin:round;stroke-miterlimit:4;stroke-dasharray:none;stroke-dashoffset:0;stroke-opacity:1"/>
      <g id="g5972" style="opacity:0.62037036">
        <path d="M 20.4375,30.5 L 27.5,30.5" id="path5831" style="opacity:1;fill:none;fill-rule:evenodd;stroke:#888a85;stroke-width:1px;stroke-linecap:round;stroke-linejoin:miter;stroke-opacity:1"/>
        <path d="M 19.960998,32.5 L 27.976504,32.5" id="path5833" style="opacity:0.68055558;fill:none;fill-rule:evenodd;stroke:#888a85;stroke-width:1px;stroke-linecap:round;stroke-linejoin:miter;stroke-opacity:1"/>
        <path d="M 20.273498,31.5 L 27.726504,31.5" id="path5958" style="opacity:1;fill:none;fill-rule:evenodd;stroke:#5d5d5c;stroke-width:1px;stroke-linecap:round;stroke-linejoin:miter;stroke-opacity:1"/>
        <path d="M 19.869986,33.488738 L 28.141277,33.488738" id="path5960" style="opacity:0.68055558;fill:none;fill-rule:evenodd;stroke:#5d5d5c;stroke-width:0.99999994px;stroke-linecap:round;stroke-linejoin:miter;stroke-opacity:1"/>
      </g>
      <path d="M 14.381412,31.513733 L 17.519198,31.513733" id="path9791" style="fill:none;fill-rule:evenodd;stroke:#ffffff;stroke-width:1px;stroke-linecap:round;stroke-linejoin:miter;stroke-opacity:1"/>
      <path d="M 30.443912,31.451233 L 33.581698,31.451233" id="path9803" style="fill:none;fill-rule:evenodd;stroke:#ffffff;stroke-width:1px;stroke-linecap:round;stroke-linejoin:miter;stroke-opacity:1"/>
      <path d="M 11.048544,42.188465 A 1.1932427,1.0827572 0 1 1 8.6620582,42.188465 A 1.1932427,1.0827572 0 1 1 11.048544,42.188465 z" transform="matrix(0.4216252,0,0,0.4766032,5.3634688,21.39228)" id="path5119" style="opacity:0.33500001;fill:#ffffff;fill-opacity:1;stroke:none;stroke-width:1;stroke-linecap:round;stroke-linejoin:round;stroke-miterlimit:4;stroke-dasharray:none;stroke-dashoffset:0;stroke-opacity:1"/>
    </g>
  </g>
</svg>