<?xml version="1.0" encoding="UTF-8" standalone="no"?>
<!-- Created with Inkscape (http://www.inkscape.org/) -->
<svg xmlns:dc="http://purl.org/dc/elements/1.1/" xmlns:cc="http://web.resource.org/cc/" xmlns:rdf="http://www.w3.org/1999/02/22-rdf-syntax-ns#" xmlns:svg="http://www.w3.org/2000/svg" xmlns="http://www.w3.org/2000/svg" xmlns:xlink="http://www.w3.org/1999/xlink" xmlns:sodipodi="http://sodipodi.sourceforge.net/DTD/sodipodi-0.dtd" xmlns:inkscape="http://www.inkscape.org/namespaces/inkscape" version="1.0" width="256" height="256" id="svg2" sodipodi:version="0.32" inkscape:version="0.44.1" sodipodi:docname="Information-q.svg" sodipodi:docbase="f:\incoming">
  <metadata id="metadata9066">
    <rdf:RDF>
      <cc:Work rdf:about="">
        <dc:format>image/svg+xml</dc:format>
        <dc:type rdf:resource="http://purl.org/dc/dcmitype/StillImage"/>
      </cc:Work>
    </rdf:RDF>
  </metadata>
  <sodipodi:namedview inkscape:window-height="667" inkscape:window-width="1024" inkscape:pageshadow="2" inkscape:pageopacity="0.0" guidetolerance="10.0" gridtolerance="10.0" objecttolerance="10.0" borderopacity="1.0" bordercolor="#666666" pagecolor="#ffffff" id="base" inkscape:zoom="1.0413252" inkscape:cx="201.12842" inkscape:cy="99.636138" inkscape:window-x="-4" inkscape:window-y="26" inkscape:current-layer="svg2"/>
  <defs id="defs4">
    <linearGradient id="linearGradient2820">
      <stop style="stop-color:black;stop-opacity:0.3137255" offset="0" id="stop2822"/>
      <stop style="stop-color:black;stop-opacity:0.19607843" offset="0.92982459" id="stop2826"/>
      <stop style="stop-color:black;stop-opacity:0" offset="1" id="stop2824"/>
    </linearGradient>
    <linearGradient id="linearGradient10053">
      <stop style="stop-color:white;stop-opacity:1" offset="0" id="stop10055"/>
      <stop style="stop-color:white;stop-opacity:0.47959185" offset="1" id="stop10057"/>
    </linearGradient>
    <linearGradient id="linearGradient7070">
      <stop style="stop-color:white;stop-opacity:0.94897962" offset="0" id="stop7072"/>
      <stop style="stop-color:white;stop-opacity:0.74489796" offset="1" id="stop7074"/>
    </linearGradient>
    <linearGradient id="linearGradient4153">
      <stop style="stop-color:#2a4fe4;stop-opacity:1" offset="0" id="stop4155"/>
      <stop style="stop-color:#447bfa;stop-opacity:1" offset="0.2" id="stop7080"/>
      <stop style="stop-color:#69a3ff;stop-opacity:1" offset="0.625" id="stop7084"/>
      <stop style="stop-color:#89beff;stop-opacity:1" offset="0.75" id="stop7082"/>
      <stop style="stop-color:#80beff;stop-opacity:1" offset="1" id="stop4157"/>
    </linearGradient>
    <linearGradient id="linearGradient4145">
      <stop style="stop-color:black;stop-opacity:1" offset="0" id="stop4147"/>
      <stop style="stop-color:black;stop-opacity:0" offset="1" id="stop4149"/>
    </linearGradient>
    <linearGradient id="linearGradient25332">
      <stop style="stop-color:#385ae5;stop-opacity:1" offset="0" id="stop25334"/>
      <stop style="stop-color:#66a1ff;stop-opacity:1" offset="0" id="stop26309"/>
      <stop style="stop-color:#66a1f0;stop-opacity:0.94117647" offset="1" id="stop25336"/>
    </linearGradient>
    <linearGradient id="linearGradient23386">
      <stop style="stop-color:#2b51e4;stop-opacity:0" offset="0" id="stop23388"/>
      <stop style="stop-color:black;stop-opacity:0" offset="1" id="stop23390"/>
    </linearGradient>
    <linearGradient id="linearGradient15560">
      <stop style="stop-color:#1864ed;stop-opacity:1" offset="0" id="stop15562"/>
      <stop style="stop-color:#3a7bef;stop-opacity:0.25510204" offset="1" id="stop15564"/>
    </linearGradient>
    <linearGradient id="linearGradient15536">
      <stop style="stop-color:white;stop-opacity:1" offset="0" id="stop15538"/>
      <stop style="stop-color:white;stop-opacity:0.59090906" offset="1" id="stop15540"/>
    </linearGradient>
    <filter id="filter9681">
      <feGaussianBlur inkscape:collect="always" stdDeviation="1.7392633" id="feGaussianBlur9683"/>
    </filter>
    <filter id="filter22413">
      <feGaussianBlur inkscape:collect="always" stdDeviation="0.33355481" id="feGaussianBlur22415"/>
    </filter>
    <linearGradient x1="168.97348" y1="226.79765" x2="94.360741" y2="42.124634" id="linearGradient4159" xlink:href="#linearGradient4153" gradientUnits="userSpaceOnUse"/>
    <linearGradient x1="162.12244" y1="228.19299" x2="101.21178" y2="40.729256" id="linearGradient7076" xlink:href="#linearGradient7070" gradientUnits="userSpaceOnUse"/>
    <linearGradient x1="127.8125" y1="31.59375" x2="127.8125" y2="118.62509" id="linearGradient10059" xlink:href="#linearGradient10053" gradientUnits="userSpaceOnUse"/>
    <linearGradient x1="150.76942" y1="72.579872" x2="162.2932" y2="131.31783" id="linearGradient2818" xlink:href="#linearGradient2820" gradientUnits="userSpaceOnUse"/>
    <radialGradient cx="130.61937" cy="132.01637" r="115.95089" fx="130.61937" fy="132.01637" id="radialGradient3721" xlink:href="#linearGradient2820" gradientUnits="userSpaceOnUse"/>
    <linearGradient x1="127.8125" y1="31.59375" x2="127.8125" y2="118.62509" id="linearGradient4614" xlink:href="#linearGradient15536" gradientUnits="userSpaceOnUse"/>
  </defs>
  <g style="opacity:1;fill:url(#linearGradient2818);fill-opacity:1;display:inline" id="layer2">
    <path d="M 246.57026,132.01637 C 246.57026,196.05428 194.65728,247.96726 130.61937,247.96726 C 66.581461,247.96726 14.668479,196.05428 14.66848,132.01637 C 14.668479,67.978461 66.581461,16.065479 130.61937,16.065479 C 194.65728,16.065479 246.57026,67.978461 246.57026,132.01637 L 246.57026,132.01637 z " transform="matrix(0.995962,0,0,0.995962,-0.171109,-0.165469)" style="opacity:1;fill:url(#radialGradient3721);fill-opacity:1;stroke:none;stroke-width:0.1;stroke-linecap:butt;stroke-linejoin:round;stroke-miterlimit:4;stroke-dasharray:none;stroke-opacity:1" id="path12053"/>
  </g>
  <g style="opacity:1;display:inline" id="layer4">
    <path d="M 230.50477,134.46112 C 230.50477,189.04765 186.25364,233.29877 131.66712,233.29877 C 77.080585,233.29878 32.82946,189.04765 32.82946,134.46112 C 32.82946,79.87459 77.080585,35.623465 131.66711,35.623465 C 186.25364,35.623465 230.50477,79.87459 230.50477,134.46112 L 230.50477,134.46112 z " transform="matrix(1.082583,0,0,1.082583,-14.54063,-17.56537)" style="opacity:1;fill:#3a73ef;fill-opacity:1;stroke:none;stroke-width:0.1;stroke-linecap:butt;stroke-linejoin:round;stroke-miterlimit:4;stroke-dasharray:none;stroke-opacity:1" id="path2175"/>
    <path d="M 230.50477,134.46112 C 230.50477,189.04765 186.25364,233.29877 131.66712,233.29877 C 77.080585,233.29878 32.82946,189.04765 32.82946,134.46112 C 32.82946,79.87459 77.080585,35.623465 131.66711,35.623465 C 186.25364,35.623465 230.50477,79.87459 230.50477,134.46112 L 230.50477,134.46112 z " transform="matrix(1.042113,0,0,1.042113,-9.212006,-12.12368)" style="opacity:1;fill:url(#linearGradient7076);fill-opacity:1;stroke:none;stroke-width:0.1;stroke-linecap:butt;stroke-linejoin:round;stroke-miterlimit:4;stroke-dasharray:none;stroke-opacity:1" id="path13592"/>
    <path d="M 230.50477,134.46112 C 230.50477,189.04765 186.25364,233.29877 131.66712,233.29877 C 77.080585,233.29878 32.82946,189.04765 32.82946,134.46112 C 32.82946,79.87459 77.080585,35.623465 131.66711,35.623465 C 186.25364,35.623465 230.50477,79.87459 230.50477,134.46112 L 230.50477,134.46112 z " transform="matrix(0.951055,0,0,0.951055,2.777393,0.12014)" style="opacity:1;fill:url(#linearGradient4159);fill-opacity:1;stroke:none;stroke-width:0.1;stroke-linecap:butt;stroke-linejoin:round;stroke-miterlimit:4;stroke-dasharray:none;stroke-opacity:1" id="path14565"/>
  </g>
  <g style="opacity:1;display:inline" id="layer5"/>
  <g style="opacity:1;fill:url(#linearGradient4614);fill-opacity:1;display:inline" id="layer7">
    <path d="M 128,31.59375 C 86.871341,31.59375 51.74836,57.401715 37.90625,93.6875 C 56.732365,110.35912 96.245675,118.37197 128.03125,118.625 C 128.07285,118.62467 128.02111,118.62533 128.0625,118.625 C 160.09769,118.36974 199.12268,109.67594 217.71875,92.6875 C 203.61988,56.922098 168.75455,31.593751 128,31.59375 z " style="opacity:0.45;fill:url(#linearGradient4614);fill-opacity:1;fill-rule:evenodd;stroke:none;stroke-width:0.1;stroke-linecap:butt;stroke-linejoin:miter;stroke-miterlimit:4;stroke-opacity:1" id="path18502"/>
  </g>
  <path style="font-size:165.61247253px;font-style:normal;font-weight:bold;fill:white;fill-opacity:1;stroke:none;stroke-width:1px;stroke-linecap:butt;stroke-linejoin:miter;stroke-opacity:1;font-family:Bitstream Vera Sans" d="M 114.28927,178.51542 C 114.28924,175.49646 115.32701,172.93572 117.40259,170.8332 C 119.4781,168.73072 122.05232,167.67947 125.12524,167.67945 C 128.09027,167.67947 130.62405,168.73072 132.7266,170.8332 C 134.82905,172.93572 135.8803,175.49646 135.88035,178.51542 C 135.8803,181.48049 134.82905,184.01428 132.7266,186.11678 C 130.62405,188.21928 128.09027,189.27053 125.12524,189.27053 C 122.05232,189.27053 119.4781,188.23275 117.40259,186.15721 C 115.32701,184.08166 114.28924,181.5344 114.28927,178.51542 L 114.28927,178.51542 z M 96.418004,71.530412 C 102.13248,68.996745 107.56394,67.109886 112.71239,65.869829 C 117.8608,64.630014 122.69924,64.010046 127.22775,64.009923 C 139.19578,64.010046 148.64355,66.894245 155.57109,72.662528 C 162.49849,78.43104 165.96222,86.221072 165.9623,96.032648 C 165.96222,106.06005 162.98368,114.2544 157.02667,120.61575 C 151.06951,126.97723 142.07998,131.53264 130.05804,134.28201 L 130.05804,154.82184 L 120.11158,154.82184 L 120.11158,128.29797 C 129.65367,125.97989 136.83721,122.09835 141.66223,116.65334 C 146.48714,111.20848 148.89963,104.28101 148.89969,95.870917 C 148.89963,88.485303 146.9319,82.662995 142.99651,78.403976 C 139.061,74.145174 133.69693,72.015719 126.90428,72.015604 C 120.75847,72.015719 115.73134,73.78128 111.82287,77.312292 C 107.91435,80.843524 105.39405,85.924565 104.26195,92.555433 L 96.418004,92.555433 L 96.418004,71.530412 z " id="text9068"/>
</svg>