/* XPM */
static char *pidgin_tray_email_png[] = {
/* columns rows colors chars-per-pixel */
"24 24 110 2 ",
"   c #949594",
".  c #969696",
"X  c #989A96",
"o  c #9B9C98",
"O  c #9C9C9C",
"+  c #A1A39F",
"@  c #A3A3A3",
"#  c #AEAEAE",
"$  c #AFAFAF",
"%  c #B1B3AF",
"&  c #B2B3AF",
"*  c #B2B3B1",
"=  c #B9BBB6",
"-  c #BABBB8",
";  c #BDBEBB",
":  c #BEBEBE",
">  c #BFC0BE",
",  c #C1C3BF",
"<  c #C0C0C0",
"1  c #C3C4C2",
"2  c #C4C5C2",
"3  c #C5C5C5",
"4  c #C6C7C4",
"5  c #C6C7C5",
"6  c #C7C7C5",
"7  c #C6C6C6",
"8  c #C7C8C5",
"9  c #C8C9C7",
"0  c #C9C9C7",
"q  c #C9CAC7",
"w  c #C9C9C9",
"e  c #CCCDCB",
"r  c #CDCECB",
"t  c #CDCDCD",
"y  c #CDCECC",
"u  c #CECFCD",
"i  c #D1D2D0",
"p  c #D3D4D2",
"a  c #D4D5D2",
"s  c #D4D4D4",
"d  c #D7D8D5",
"f  c #D8D9D6",
"g  c #D9DAD7",
"h  c #DBDBDA",
"j  c #DBDCD8",
"k  c #DBDCD9",
"l  c #DCDDD9",
"z  c #DCDDDA",
"x  c #DCDEDB",
"c  c #DDDEDB",
"v  c #DDDDDC",
"b  c #DEDFDC",
"n  c #DEDFDD",
"m  c #DFE0DD",
"M  c #DFE0DE",
"N  c #E0E0DD",
"B  c #E0E2DE",
"V  c #E1E2DF",
"C  c #E1E1E1",
"Z  c #E2E3E0",
"A  c #E2E2E1",
"S  c #E2E3E1",
"D  c #E2E2E2",
"F  c #E4E5E2",
"G  c #E4E4E3",
"H  c #E4E5E3",
"J  c #E5E6E3",
"K  c #E4E5E4",
"L  c #E5E5E4",
"P  c #E5E5E5",
"I  c #E6E7E4",
"U  c #E6E6E5",
"Y  c #E6E7E5",
"T  c #E7E7E5",
"R  c #E7E7E7",
"E  c #E8E8E7",
"W  c #E9E9E7",
"Q  c #E9EAE7",
"!  c #E8E7E8",
"~  c #E8E8E8",
"^  c #EAEBE9",
"/  c #EBEBEB",
"(  c #ECECEA",
")  c #ECECEB",
"_  c #EDEDEB",
"`  c #ECECEC",
"'  c #EDEDEC",
"]  c #EEEEEC",
"[  c #EEEEED",
"{  c #EEEFED",
"}  c #EFEFED",
"|  c #EEEEEE",
" . c #EFEFEE",
".. c #EFEFEF",
"X. c #EFF0EE",
"o. c #F0F0EE",
"O. c #F0F0EF",
"+. c #F1F1EF",
"@. c #F0F0F0",
"#. c #F1F1F0",
"$. c #F1F1F1",
"%. c #F2F2F0",
"&. c #F3F3F1",
"*. c #F2F2F2",
"=. c #F3F3F3",
"-. c #F4F4F3",
";. c #F5F5F4",
":. c #F5F5F5",
">. c #F6F6F4",
",. c None",
/* pixels */
",.,.,.,.,.,.,.,.,.,.,.,.,.,.,.,.,.,.,.,.,.,.,.,.",
",.# 3 3 3 3 3 3 3 3 3 3 3 3 3 : ,.,.,.,.,.,.,.,.",
",.3 :.*.*.*.*.*.*.*.*.*.*.*.*.~ ,.,.,.,.,.,.,.,.",
",.3 *.......................*.R O ,.,.,.,.,.,.,.",
",.3 *.........................R O ,.,.,.,.,.,.,.",
",.3 *.........................R O ,.,.,.,.,.,.,.",
",.3 *.......................*.R O ,.,.,.,.,.,.,.",
",.3 *.........................R O ,.,.,.,.,.,.,.",
",.3 *.......................@.R O ,.,.,.,.,.,.,.",
",.3 *.................*...O.*.! O ,.,.,.,.,.,.,.",
",.3 *.............R C C C C C h   ,.,.,.,.,.,.,.",
",.3 *.........@.z i y r y r r e 9 9 9 9 9 y , ,.",
",.3 *...........4 f :.*.*.O.O.*.O.O.O.>.>...= ,.",
",.3 :.*.*...*.*.9 d N X.O._ _ _ _ _ O.O.R n ; ,.",
",.# w y *.X.s 3 * R E z _ O.O._ ....*.N m X.1 ,.",
",.,.,.. C < ,.,.o J O._ z J O.O.O._ z J ..*.4 ,.",
",.,.,.,.@ ,.,.,.,.R ....R d V O.E j z ..X.*.1 ,.",
",.,.,.,.,.,.,.,.,.R X.R m X.I j N X.I m ( *.1 ,.",
",.,.,.,.,.,.,.,.,.J J N O..._ _ _ X.O.Q h ..4 ,.",
",.,.,.,.,.,.,.,.,.p J O..._ _ _ _ _ _ O.( z - ,.",
",.,.,.,.,.,.,.,.o a >.O.O.O.*.*.O.O.O.*.&...& ,.",
",.,.,.,.,.,.,.,.,.& 4 8 9 8 3 8 9 8 8 8 8 > + ,.",
",.,.,.,.,.,.,.,.,.,.,.,.,.,.,.,.,.,.,.,.,.,.,.,.",
",.,.,.,.,.,.,.,.,.,.,.,.,.,.,.,.,.,.,.,.,.,.,.,."
};
