/* XPM */
static char *pidgin_tray_connect_png[] = {
/* columns rows colors chars-per-pixel */
"24 24 71 1 ",
"  c #3B5A7B",
". c #D6BB25",
"X c #DBBF24",
"o c #DEC224",
"O c #DEC226",
"+ c #E7CC2B",
"@ c #E4C92C",
"# c #E9CE2D",
"$ c #869065",
"% c #879165",
"& c #8E9668",
"* c #2F5485",
"= c #2F5486",
"- c #315788",
"; c #315789",
": c #31588B",
"> c #335A90",
", c #386097",
"< c #3C6399",
"1 c #3D649A",
"2 c #436489",
"3 c #4B6A88",
"4 c #48688A",
"5 c #436EA4",
"6 c #4E7AAE",
"7 c #4F7AAE",
"8 c #537CAF",
"9 c #587FB0",
"0 c #5581B5",
"q c #5E83B3",
"w c #5F8CBF",
"e c #6487B4",
"r c #6B8CB7",
"t c #6D8FB9",
"y c #7090BA",
"u c #6895C7",
"i c #6C97C7",
"p c #6694C9",
"a c #6795C9",
"s c #6E9BCB",
"d c #739CCA",
"f c #729FCE",
"g c #73A0CF",
"h c #7CA1CB",
"j c #73A0D0",
"k c #73A1D0",
"l c #74A1D0",
"z c #7BA5D1",
"x c #7DA6D2",
"c c #7FA7D2",
"v c #86A3C7",
"b c #86A8CF",
"n c #8EABCD",
"m c #86ACD4",
"M c #8DADD0",
"N c #8EB1D7",
"B c #96B3D6",
"V c #93B4D7",
"C c #94B5D7",
"Z c #99B5D4",
"A c #9DB8D5",
"S c #9CB7D8",
"D c #9EBBDA",
"F c #A2BEDB",
"G c #A5C0DB",
"H c #A7C1DC",
"J c #A9C2DC",
"K c #A9C2DD",
"L c #ABC4DE",
"P c #ACC5DD",
"I c None",
/* pixels */
"IIIIIIIIIIIIIIIIIIIIIIII",
"IIIIIIIIIIIIIIIIIIIIIIII",
"IIIIIIIIIIIIIIIIIIIIIIII",
"IIIIIIIIIIIIIIIIIIIIIIII",
"IIIIIIII<IIIIII<IIIIIIII",
"IIIIIIvAn4IIIIInAvIIIIII",
"IIIIIrKLS&+OIIIAPKrIIIII",
"IIIIIyLKB&#OIIIZGFtIIIII",
"IIIIIeDCb4IIII1MCNqIIIII",
"IIIII9mxd2IIII,hxz8IIIII",
"IIIII7gju$#XII>ijf7IIIII",
"IIIII5sla$@.II:ujs5IIIII",
"IIIIII0uw IIII*eu0IIIIII",
"IIIIIII;:IIIIII:;IIIIIII",
"IIIIIIIIIIIIIIIIIIIIIIII",
"IIIIIIIIIIIIIIIIIIIIIIII",
"IIIIIIIIIIIIIIIIIIIIIIII",
"IIIIIIIIIIIIIIIIIIIIIIII",
"IIIIIIIIIIIIIIIIIIIIIIII",
"IIIIIIIIIIIIIIIIIIIIIIII",
"IIIIIIIIIIIIIIIIIIIIIIII",
"IIIIIIIIIIIIIIIIIIIIIIII",
"IIIIIIIIIIIIIIIIIIIIIIII",
"IIIIIIIIIIIIIIIIIIIIIIII"
};
