/* XPM */
static char * thunderbird_off_xpm[] = {
"18 36 257 2",
"  	c None",
". 	c #000000",
"+ 	c #000101",
"@ 	c #010305",
"# 	c #09182B",
"$ 	c #205898",
"% 	c #020405",
"& 	c #010304",
"* 	c #000204",
"= 	c #000102",
"- 	c #000407",
"; 	c #0F3254",
"> 	c #3378B4",
", 	c #5998C0",
"' 	c #72B1D0",
") 	c #4D8EB7",
"! 	c #286EA5",
"~ 	c #1A62A0",
"{ 	c #165E9F",
"] 	c #1764A9",
"^ 	c #0A3153",
"/ 	c #000508",
"( 	c #060F13",
"_ 	c #153D64",
": 	c #488BC1",
"< 	c #76B8DC",
"[ 	c #77B3D2",
"} 	c #2F7BB2",
"| 	c #3381B8",
"1 	c #4B97CB",
"2 	c #4190C9",
"3 	c #3B8AC5",
"4 	c #2B7CBD",
"5 	c #11446C",
"6 	c #050D12",
"7 	c #0A141B",
"8 	c #295D80",
"9 	c #467DB5",
"0 	c #5486B2",
"a 	c #5486A5",
"b 	c #457BA4",
"c 	c #2C7FB6",
"d 	c #0A4F8F",
"e 	c #2D649B",
"f 	c #448BC1",
"g 	c #4A97CD",
"h 	c #3A8AC4",
"i 	c #3586C4",
"j 	c #3583C1",
"k 	c #1F5580",
"l 	c #030E19",
"m 	c #376E90",
"n 	c #2C649D",
"o 	c #43678C",
"p 	c #4B627E",
"q 	c #45637C",
"r 	c #3B6E89",
"s 	c #044688",
"t 	c #0D4288",
"u 	c #163D83",
"v 	c #052060",
"w 	c #2B66A2",
"x 	c #3785C1",
"y 	c #3C8BC3",
"z 	c #3A87C3",
"A 	c #2673BB",
"B 	c #19568B",
"C 	c #04101B",
"D 	c #458CB8",
"E 	c #2F466D",
"F 	c #484E5F",
"G 	c #4D6882",
"H 	c #2D5782",
"I 	c #2B496C",
"J 	c #50576C",
"K 	c #777F95",
"L 	c #7B8199",
"M 	c #474665",
"N 	c #243260",
"O 	c #3773AA",
"P 	c #4392CB",
"Q 	c #2D76B6",
"R 	c #206CB6",
"S 	c #3283C8",
"T 	c #19578D",
"U 	c #336C9B",
"V 	c #717C90",
"W 	c #7F7D84",
"X 	c #575F72",
"Y 	c #555B6F",
"Z 	c #A5A6A6",
"` 	c #E5E2E2",
" .	c #EFEDED",
"..	c #F0EFEF",
"+.	c #E8E7EA",
"@.	c #78707C",
"#.	c #3D638F",
"$.	c #296EB1",
"%.	c #1B63AA",
"&.	c #2A76B8",
"*.	c #418DC7",
"=.	c #1D62A6",
"-.	c #28588D",
";.	c #8F9BB1",
">.	c #BDB9BE",
",.	c #959397",
"'.	c #A49D9C",
").	c #FCFAF0",
"!.	c #FEFCF6",
"~.	c #F9F8F1",
"{.	c #FBFAF7",
"].	c #D3CDCB",
"^.	c #897C7F",
"/.	c #345480",
"(.	c #1C599C",
"_.	c #2C6DAC",
":.	c #3780BA",
"<.	c #3C81B8",
"[.	c #10559A",
"}.	c #121F4D",
"|.	c #9295A4",
"1.	c #D4D0CA",
"2.	c #CDC7C2",
"3.	c #C3BEB9",
"4.	c #DDD9D3",
"5.	c #F6F4F1",
"6.	c #BAB6B5",
"7.	c #908886",
"8.	c #D2CEC5",
"9.	c #C9BFC0",
"0.	c #587CA8",
"a.	c #2D65A1",
"b.	c #3A6FA5",
"c.	c #286AA9",
"d.	c #2667A7",
"e.	c #1E5FA1",
"f.	c #1D3664",
"g.	c #A6A7AB",
"h.	c #EAE3D7",
"i.	c #FDF9F0",
"j.	c #ECE7DF",
"k.	c #C0BAB5",
"l.	c #C0BAB4",
"m.	c #E8E5DD",
"n.	c #E7E2DB",
"o.	c #EBE4DA",
"p.	c #BBB8BE",
"q.	c #545878",
"r.	c #182D68",
"s.	c #1F5092",
"t.	c #3474AE",
"u.	c #3068A3",
"v.	c #174D98",
"w.	c #08154B",
"x.	c #767587",
"y.	c #CDC7BD",
"z.	c #E6E1D5",
"A.	c #E6E1D8",
"B.	c #EDE8DF",
"C.	c #F1EDE3",
"D.	c #F3EFE5",
"E.	c #F5F0E6",
"F.	c #CDC5BC",
"G.	c #E8DED0",
"H.	c #C5B7AE",
"I.	c #4B517A",
"J.	c #08307D",
"K.	c #225497",
"L.	c #0C3287",
"M.	c #1B4E92",
"N.	c #000003",
"O.	c #0C0C30",
"P.	c #262143",
"Q.	c #5B535F",
"R.	c #958D8C",
"S.	c #C0B9B1",
"T.	c #D9D2C8",
"U.	c #D9D1C7",
"V.	c #E1D8CB",
"W.	c #D9CFC2",
"X.	c #E0D2BD",
"Y.	c #958E99",
"Z.	c #2D2B5D",
"`.	c #061055",
" +	c #173B87",
".+	c #14397D",
"++	c #02060B",
"@+	c #00001F",
"#+	c #080528",
"$+	c #12111B",
"%+	c #232024",
"&+	c #504744",
"*+	c #837A75",
"=+	c #A19990",
"-+	c #C2B6A7",
";+	c #B7A899",
">+	c #4A486F",
",+	c #0A0648",
"'+	c #10124F",
")+	c #142B6E",
"!+	c #09184C",
"~+	c #000006",
"{+	c #000010",
"]+	c #00000A",
"^+	c #040202",
"/+	c #151312",
"(+	c #1E1C19",
"_+	c #453E3E",
":+	c #4F5068",
"<+	c #222A63",
"[+	c #0F175B",
"}+	c #101650",
"|+	c #04092B",
"1+	c #00010B",
"2+	c #000002",
"3+	c #000004",
"4+	c #121F44",
"5+	c #14295F",
"6+	c #142A64",
"7+	c #112054",
"8+	c #060C28",
"9+	c #08122E",
"0+	c #091C44",
"a+	c #0D2047",
"b+	c #070E1E",
"c+	c #02060E",
"d+	c #000104",
"e+	c #010206",
"f+	c #000206",
"g+	c #010306",
"h+	c #010000",
"i+	c #290000",
"j+	c #260000",
"k+	c #070000",
"l+	c #0E0000",
"m+	c #500000",
"n+	c #DF0000",
"o+	c #D70000",
"p+	c #E20000",
"q+	c #680000",
"r+	c #130000",
"s+	c #4B0000",
"t+	c #E40000",
"u+	c #FF0000",
"v+	c #EC0000",
"w+	c #600000",
"x+	c #FE0000",
"y+	c #860000",
"z+	c #5B0000",
"A+	c #7E0000",
"B+	c #5D0000",
"C+	c #800000",
"D+	c #3B0000",
"E+	c #F70000",
"F+	c #5C0000",
"G+	c #0B0000",
"H+	c #090000",
". . . . + @ # $ % & * * * = . . . . ",
". . . - ; > , ' ) ! ~ { ] ^ / . . . ",
". . ( _ : < [ , } | 1 2 3 4 5 6 . . ",
". 7 8 9 0 a b c d e f g h i j k l . ",
". m n o p q r s t u v w x y z A B C ",
". D E F G H I J K L M N O P Q R S T ",
". U V W X Y Z `  ...+.@.#.$.%.&.*.=.",
". -.;.>.,.'.).!.~.{.].^./.(._.:.<.[.",
". }.|.1.2.3.4.5.6.7.8.9.0.a.b.c.d.e.",
". f.g.h.i.j.k.l.m.n.o.p.q.r.s.t.u.v.",
". w.x.y.z.A.B.C.D.E.F.G.H.I.J.K.L.M.",
". N.O.P.Q.R.S.T.U.V.W.X.Y.Z.`. +.+++",
". . . @+#+$+%+&+*+=+-+;+>+,+'+)+!+. ",
". . . ~+{+]+. ^+/+(+_+:+<+[+}+|+1+. ",
". . . . 2+3+. . . ~+4+5+6+7+8+2+. . ",
". . . . . . . . . 9+0+a+b+c+d+. . . ",
". . . . . . . . . e+f+g+. . . . . . ",
". . . . . . . . . . . . . . . . . . ",
". . . . . . . . . . . . . . . . . . ",
". . . . . . . . . . . . . . . . . . ",
". . . . . . h+i+j+j+j+i+k+. . . . . ",
". . . . . l+m+n+o+o+o+p+q+r+. . . . ",
". . . . . s+t+u+u+u+u+u+v+q+. . . . ",
". . . . . w+u+x+u+u+u+x+u+y+. . . . ",
". . . . . z+u+u+u+u+u+u+u+A+. . . . ",
". . . . . B+u+x+u+u+u+x+u+C+. . . . ",
". . . . . z+u+x+u+u+u+x+u+A+. . . . ",
". . . . . . D+E+E+E+E+E+F+. . . . . ",
". . . . . . . G+H+H+H+G+h+. . . . . ",
". . . . . . . . . . . . . . . . . . ",
". . . . . . . . . . . . . . . . . . ",
". . . . . . . . . . . . . . . . . . ",
". . . . . . . . . . . . . . . . . . ",
". . . . . . . . . . . . . . . . . . ",
". . . . . . . . . . . . . . . . . . ",
". . . . . . . . . . . . . . . . . . "};
