/* XPM */
static char * thunderbird_on_xpm[] = {
"18 36 231 2",
"  	c None",
". 	c #000000",
"+ 	c #000104",
"@ 	c #0C213A",
"# 	c #1D4F89",
"$ 	c #020407",
"% 	c #010304",
"& 	c #000203",
"* 	c #000101",
"= 	c #01070E",
"- 	c #113558",
"; 	c #3271A7",
"> 	c #5A9CC7",
", 	c #6FAECE",
"' 	c #4C8FB6",
") 	c #276DA4",
"! 	c #1961A0",
"~ 	c #1761A4",
"{ 	c #145B9B",
"] 	c #0A3357",
"^ 	c #01090F",
"/ 	c #040E16",
"( 	c #194165",
"_ 	c #4787B8",
": 	c #72B5DC",
"< 	c #76B3D2",
"[ 	c #5897BF",
"} 	c #2F7BB1",
"| 	c #3381B8",
"1 	c #4895CA",
"2 	c #4391C9",
"3 	c #398BCA",
"4 	c #2976B3",
"5 	c #12446B",
"6 	c #030F18",
"7 	c #0B161E",
"8 	c #29577B",
"9 	c #457DB1",
"0 	c #5487B4",
"a 	c #5383A6",
"b 	c #457FA7",
"c 	c #2A7BB2",
"d 	c #0B4F8F",
"e 	c #2D649B",
"f 	c #4489BF",
"g 	c #4795CC",
"h 	c #3C8DC6",
"i 	c #3688C7",
"j 	c #317EBB",
"k 	c #1E527C",
"l 	c #04111C",
"m 	c #326689",
"n 	c #326A9F",
"o 	c #3F648C",
"p 	c #49627E",
"q 	c #48677D",
"r 	c #346786",
"s 	c #074889",
"t 	c #0C4187",
"u 	c #153B82",
"v 	c #082566",
"w 	c #265F9B",
"x 	c #3885BF",
"y 	c #3C8CC5",
"z 	c #3785C4",
"A 	c #2774BA",
"B 	c #185388",
"C 	c #04111B",
"D 	c #000202",
"E 	c #3E7EA8",
"F 	c #38547A",
"G 	c #454E62",
"H 	c #47607A",
"I 	c #315980",
"J 	c #2D496D",
"K 	c #50576D",
"L 	c #777F95",
"M 	c #7A8098",
"N 	c #474665",
"O 	c #283967",
"P 	c #346DA3",
"Q 	c #3D8AC5",
"R 	c #2E7ABB",
"S 	c #2370B9",
"T 	c #2F7EC3",
"U 	c #19568D",
"V 	c #000001",
"W 	c #346691",
"X 	c #6F8096",
"Y 	c #787881",
"Z 	c #595F70",
"` 	c #5D6475",
" .	c #A2A2A5",
"..	c #E3E0E0",
"+.	c #EEECED",
"@.	c #F0EFEF",
"#.	c #E1DFE2",
"$.	c #7E7C8B",
"%.	c #3D608B",
"&.	c #2466A8",
"*.	c #1D67AF",
"=.	c #2A77B9",
"-.	c #3D88C5",
";.	c #1D63A6",
">.	c #2B5787",
",.	c #8C9CB6",
"'.	c #B1AEB5",
").	c #9D989A",
"!.	c #AEAAA7",
"~.	c #F0EDE5",
"{.	c #FFFEF7",
"].	c #F8F7F1",
"^.	c #FAFAF6",
"/.	c #D2CBC8",
"(.	c #857F86",
"_.	c #39557F",
":.	c #1D5798",
"<.	c #296CAD",
"[.	c #3980B9",
"}.	c #397EB6",
"|.	c #10549B",
"1.	c #17224C",
"2.	c #8B8FA1",
"3.	c #CECAC7",
"4.	c #CFC8C2",
"5.	c #C7C1BD",
"6.	c #DEDAD5",
"7.	c #F2EFED",
"8.	c #BBB6B5",
"9.	c #908886",
"0.	c #CFC9C0",
"a.	c #BEBBBF",
"b.	c #6382AA",
"c.	c #3167A1",
"d.	c #306AA4",
"e.	c #2B6BA8",
"f.	c #2466A7",
"g.	c #1D5EA0",
"h.	c #223961",
"i.	c #9DA1AA",
"j.	c #EAE4D8",
"k.	c #FDF7ED",
"l.	c #E7E2DC",
"m.	c #C3BDB8",
"n.	c #C1BAB5",
"o.	c #E8E5DC",
"p.	c #E7E2DB",
"q.	c #EAE3DA",
"r.	c #B5B2B8",
"s.	c #585C7D",
"t.	c #1C346C",
"u.	c #1D4E8E",
"v.	c #3270AB",
"w.	c #2E68A3",
"x.	c #164D97",
"y.	c #0C1848",
"z.	c #727389",
"A.	c #C8C1BB",
"B.	c #E6E0D4",
"C.	c #E8E3DA",
"D.	c #ECE7DE",
"E.	c #F0ECE2",
"F.	c #F3EEE5",
"G.	c #F4EFE5",
"H.	c #D2C9BF",
"I.	c #E3D9C9",
"J.	c #B9AEAB",
"K.	c #525A81",
"L.	c #13387F",
"M.	c #164691",
"N.	c #0F3689",
"O.	c #1A4D92",
"P.	c #000006",
"Q.	c #0A0A2B",
"R.	c #282444",
"S.	c #5B5361",
"T.	c #948B8A",
"U.	c #C0B9B1",
"V.	c #D9D1C7",
"W.	c #E0D7CB",
"X.	c #DCD1C2",
"Y.	c #DACCBB",
"Z.	c #928994",
"`.	c #343262",
" +	c #09165C",
".+	c #123483",
"++	c #133779",
"@+	c #01060C",
"#+	c #000003",
"$+	c #01001B",
"%+	c #070424",
"&+	c #100F1D",
"*+	c #242124",
"=+	c #4F4744",
"-+	c #827A74",
";+	c #A1998F",
">+	c #C2B6A6",
",+	c #ADA098",
"'+	c #504B6D",
")+	c #100E4C",
"!+	c #0B1153",
"~+	c #122668",
"{+	c #09184A",
"]+	c #000007",
"^+	c #00000E",
"/+	c #000009",
"(+	c #040202",
"_+	c #141212",
":+	c #1D1B19",
"<+	c #443E3E",
"[+	c #494A63",
"}+	c #272F65",
"|+	c #11195C",
"1+	c #0C124C",
"2+	c #04092C",
"3+	c #00010B",
"4+	c #000002",
"5+	c #111D42",
"6+	c #15295F",
"7+	c #142964",
"8+	c #0F1F50",
"9+	c #060C28",
"0+	c #000004",
"a+	c #07122D",
"b+	c #091C44",
"c+	c #0C1D42",
"d+	c #071124",
"e+	c #02050B",
"f+	c #000105",
"g+	c #000206",
"h+	c #000205",
". . . . . + @ # $ % & + & * . . . . ",
". . . = - ; > , ' ) ! ~ { ] ^ . . . ",
". . / ( _ : < [ } | 1 2 3 4 5 6 . . ",
". 7 8 9 0 a b c d e f g h i j k l . ",
"* m n o p q r s t u v w x y z A B C ",
"D E F G H I J K L M N O P Q R S T U ",
"V W X Y Z `  ...+.@.#.$.%.&.*.=.-.;.",
"V >.,.'.).!.~.{.].^./.(._.:.<.[.}.|.",
". 1.2.3.4.5.6.7.8.9.0.a.b.c.d.e.f.g.",
". h.i.j.k.l.m.n.o.p.q.r.s.t.u.v.w.x.",
". y.z.A.B.C.D.E.F.G.H.I.J.K.L.M.N.O.",
". P.Q.R.S.T.U.V.V.W.X.Y.Z.`. +.+++@+",
". . #+$+%+&+*+=+-+;+>+,+'+)+!+~+{+. ",
". . . ]+^+/+. (+_+:+<+[+}+|+1+2+3+. ",
". . . . 4+#+. . . P.5+6+7+8+9+0+. . ",
". . . . . . . . V a+b+c+d+e+#+. . . ",
". . . . . . . . . f+g+h+V . . . . . ",
". . . . . . . . . . . . . . . . . . ",
". . . . . . . . . . . . . . . . . . ",
". . . . . . . . . . . . . . . . . . ",
". . . . . . . . . . . . . . . . . . ",
". . . . . . . . . . . . . . . . . . ",
". . . . . . . . . . . . . . . . . . ",
". . . . . . . . . . . . . . . . . . ",
". . . . . . . . . . . . . . . . . . ",
". . . . . . . . . . . . . . . . . . ",
". . . . . . . . . . . . . . . . . . ",
". . . . . . . . . . . . . . . . . . ",
". . . . . . . . . . . . . . . . . . ",
". . . . . . . . . . . . . . . . . . ",
". . . . . . . . . . . . . . . . . . ",
". . . . . . . . . . . . . . . . . . ",
". . . . . . . . . . . . . . . . . . ",
". . . . . . . . . . . . . . . . . . ",
". . . . . . . . . . . . . . . . . . ",
". . . . . . . . . . . . . . . . . . "};
