/* XPM */
static char *downloads[] = {
/* columns rows colors chars-per-pixel */
"18 18 88 1 ",
"  c black",
". c #012001200120",
"X c #024D024D024D",
"o c #033C033C033C",
"O c #085D085D085D",
"+ c #0ABE0ABE0ABE",
"@ c #0BD90BD90BD9",
"# c #0D730D730D73",
"$ c #0E7A0E7A0E7A",
"% c #10D610D610D6",
"& c #131413141314",
"* c #166816681668",
"= c #16CB16CB16CB",
"- c #193E193E193E",
"; c #1BA91BA91BA9",
": c #1D651D651D65",
"> c #21A321A321A3",
", c #23C123C123C1",
"< c #252325232523",
"1 c #27A727A727A7",
"2 c #283628362836",
"3 c #298D298D298D",
"4 c #2F952F952F95",
"5 c #364636463646",
"6 c #3DED3DED3DED",
"7 c #3F863F863F86",
"8 c #3FF93FF93FF9",
"9 c #413A413A413A",
"0 c #428642864286",
"q c #477C477C477C",
"w c #4A794A794A79",
"e c #4CC54CC54CC5",
"r c #4D2F4D2F4D2F",
"t c #4E2E4E2E4E2E",
"y c #4F2E4F2E4F2E",
"u c #58E958E958E9",
"i c #5F855F855F85",
"p c #7E707E707E70",
"a c #804B804B804B",
"s c #818F818F818F",
"d c #830683068306",
"f c #87EE87EE87EE",
"g c #8DF48DF48DF4",
"h c #92EF92EF92EF",
"j c #997D997D997D",
"k c #9E5C9E5C9E5C",
"l c #A2A2A2A2A2A2",
"z c #A7CDA7CDA7CD",
"x c #A9A6A9A6A9A6",
"c c #AA81AA81AA81",
"v c #ABF0ABF0ABF0",
"b c #B12BB12BB12B",
"n c #B29AB29AB29A",
"m c #B4CFB4CFB4CF",
"M c #B5A0B5A0B5A0",
"N c #B6D8B6D8B6D8",
"B c #B8C5B8C5B8C5",
"V c #B979B979B979",
"C c #BFBCBFBCBFBC",
"Z c #C3E9C3E9C3E9",
"A c #CAB3CAB3CAB3",
"S c #CC0ACC0ACC0A",
"D c #CE31CE31CE31",
"F c #D250D250D250",
"G c #D94CD94CD94C",
"H c #DD3CDD3CDD3C",
"J c #DD66DD66DD66",
"K c #E09CE09CE09C",
"L c #E402E402E402",
"P c #E47AE47AE47A",
"I c #E75AE75AE75A",
"U c #E7DCE7DCE7DC",
"Y c #E8BCE8BCE8BC",
"T c #E9D9E9D9E9D9",
"R c #EB23EB23EB23",
"E c #EE61EE61EE61",
"W c #EF58EF58EF58",
"Q c #F053F053F053",
"! c #F20DF20DF20D",
"~ c #F2BEF2BEF2BE",
"^ c #F400F400F400",
"/ c #F4F1F4F1F4F1",
"( c #F5CCF5CCF5CC",
") c #FC23FC23FC23",
"_ c #FC96FC96FC96",
"` c #FDF9FDF9FDF9",
"' c #FEE1FEE1FEE1",
"] c #FFFBFFFBFFFB",
/* pixels */
"]]]]]]]]]]]]]]]]]]",
"]]]]]]]]]]]])E~]]]",
"]CfI]IA~]]]]/ljR]]",
"]a wk4a]]]]]]GwiI]",
"~t  + 6n~]]]]~t u~",
"E0    +2Z]]]]]p 0E",
"V:    6N]]]]]]a :V",
"F-   #a]]]]]]~t =F",
"L:   0I]]]]]]E0 :L",
"J:   #pSbhL]]J< %N",
"F-    o=-tS]]p  6J",
"N:     6N~]~S<  5R",
"]z#    0cNgt-   t~",
"]/t     +%     -c]",
"]]N=          =c]]",
"]]]c,        =c]]]",
"]]])Ja<::::2tc]]]]",
"]]]]])LLLJJIE)]]]]"
};
