/* XPM */
static char *eclipse[] = {
/* columns rows colors chars-per-pixel */
"18 18 124 2 ",
"   c black",
".  c #017B017B017B",
"X  c #020102010201",
"o  c #033E033E033E",
"O  c #03F303F303F3",
"+  c #04B604B604B6",
"@  c #092609260926",
"#  c #0B390B390B39",
"$  c #0C060C060C06",
"%  c #0D2B0D2B0D2B",
"&  c #0DFD0DFD0DFD",
"*  c #0F1A0F1A0F1A",
"=  c #103F103F103F",
"-  c #140114011401",
";  c #167D167D167D",
":  c #17EF17EF17EF",
">  c #18E618E618E6",
",  c #19A319A319A3",
"<  c #1B4A1B4A1B4A",
"1  c #1C271C271C27",
"2  c #1D021D021D02",
"3  c #1DF61DF61DF6",
"4  c #1EF91EF91EF9",
"5  c #1FDB1FDB1FDB",
"6  c #20D520D520D5",
"7  c #252D252D252D",
"8  c #266026602660",
"9  c #282028202820",
"0  c #28DD28DD28DD",
"q  c #2A0B2A0B2A0B",
"w  c #2B192B192B19",
"e  c #2D032D032D03",
"r  c #2E222E222E22",
"t  c #30E530E530E5",
"y  c #325032503250",
"u  c #332F332F332F",
"i  c #347034703470",
"p  c #369B369B369B",
"a  c #36C036C036C0",
"s  c #37E737E737E7",
"d  c #399539953995",
"f  c #3AA83AA83AA8",
"g  c #3B543B543B54",
"h  c #3BF43BF43BF4",
"j  c #3E653E653E65",
"k  c #415441544154",
"l  c #429F429F429F",
"z  c #473C473C473C",
"x  c #4D2C4D2C4D2C",
"c  c #505450545054",
"v  c #516B516B516B",
"b  c #520A520A520A",
"n  c #534453445344",
"m  c #542654265426",
"M  c #553D553D553D",
"N  c #568756875687",
"B  c #5A425A425A42",
"V  c #5CC15CC15CC1",
"C  c #5DA55DA55DA5",
"Z  c #5F6C5F6C5F6C",
"A  c #605860586058",
"S  c #61AF61AF61AF",
"D  c #656965696569",
"F  c #679E679E679E",
"G  c #691869186918",
"H  c #6C026C026C02",
"J  c #6E856E856E85",
"K  c #713171317131",
"L  c #720172017201",
"P  c #72F472F472F4",
"I  c #743074307430",
"U  c #75BC75BC75BC",
"Y  c #76AC76AC76AC",
"T  c #779377937793",
"R  c #785278527852",
"E  c #798279827982",
"W  c #7D857D857D85",
"Q  c #7F817F817F81",
"!  c #80B880B880B8",
"~  c #828982898289",
"^  c #83A983A983A9",
"/  c #847584758475",
"(  c #856F856F856F",
")  c #89E389E389E3",
"_  c #8AB18AB18AB1",
"`  c #8B988B988B98",
"'  c #8CB08CB08CB0",
"]  c #8D4A8D4A8D4A",
"[  c #8E468E468E46",
"{  c #8FCE8FCE8FCE",
"}  c #906090609060",
"|  c #928292829282",
" . c #937393739373",
".. c #946894689468",
"X. c #965F965F965F",
"o. c #975F975F975F",
"O. c #9C0C9C0C9C0C",
"+. c #9C809C809C80",
"@. c #9DF19DF19DF1",
"#. c #9F039F039F03",
"$. c #9F8C9F8C9F8C",
"%. c #A726A726A726",
"&. c #A9FBA9FBA9FB",
"*. c #AA7AAA7AAA7A",
"=. c #ABE1ABE1ABE1",
"-. c #AD9EAD9EAD9E",
";. c #B394B394B394",
":. c #B436B436B436",
">. c #BF37BF37BF37",
",. c #BFD0BFD0BFD0",
"<. c #C0E4C0E4C0E4",
"1. c #C1B2C1B2C1B2",
"2. c #C3E8C3E8C3E8",
"3. c #CCE8CCE8CCE8",
"4. c #D170D170D170",
"5. c #D712D712D712",
"6. c #D79DD79DD79D",
"7. c #DC21DC21DC21",
"8. c #E5F6E5F6E5F6",
"9. c #F1D3F1D3F1D3",
"0. c #F4A0F4A0F4A0",
"q. c #FE6DFE6DFE6D",
"w. c #FEACFEACFEAC",
"e. c #FFF6FFF6FFF6",
/* pixels */
"S < q q 1 q q $ q $ $ q $ @ = O @ t ",
"1 r ; t 6 B Q Y Q K F z t 1 8 $ 8 X ",
"O $ X 6 *.0.w.4. .' ^ K B j < 8 X X ",
"X X ; *.w.w.w.9.' Q F G z k r t $ $ ",
"X @ *.w.w.w.w.8.) E C x k s $ $ X q ",
"X x 0.w.w.w.w.;.E B s t $ @ X X X X ",
"X ) w.w.w.0.1.F Y v m q 1 1 1 6 < O ",
"< 5.w.w.w.6.1.-.;. . .( ^ K Y E Y = ",
"6 5.1.>.1.:.X.@.E J C C v r r j m $ ",
"6 7.-.O.@.@.X.O.' ^ C v s S S C m $ ",
"1 3.-.X.' ^ ^ ^ ( ( ( ^ E ( ( ( Y $ ",
"X ) 4.' G v q 1 1 6 1 6 6 1 6 1 < X ",
"X v *.m s $ O X X X X X X X X X X X ",
"X @ ^  .; X X X X X X X X X X X X $ ",
"X X $ K k X X X X X X X X X X X $ q ",
"X X X = a t ; X X X X X X X X < 8 @ ",
"q @ X X X @ q $ X X X X X X < t X q ",
"J j s s $ X X X X X X X q q m v z j "
};
