/* XPM */
static char *eog[] = {
/* columns rows colors chars-per-pixel */
"18 18 91 1 ",
"  c black",
". c #033803380338",
"X c #0A8C0A8C0A8C",
"o c #0F120F120F12",
"O c #149D149D149D",
"+ c #24E224E224E2",
"@ c #282228222822",
"# c #3CEE3CEE3CEE",
"$ c #480D480D480D",
"% c #4A854A854A85",
"& c #4BC44BC44BC4",
"* c #4D344D344D34",
"= c #53C853C853C8",
"- c #54D654D654D6",
"; c #58A558A558A5",
": c #662566256625",
"> c #6D976D976D97",
", c #6E2D6E2D6E2D",
"< c #6F826F826F82",
"1 c #70AD70AD70AD",
"2 c #755775577557",
"3 c #768B768B768B",
"4 c #7A9D7A9D7A9D",
"5 c #7EFF7EFF7EFF",
"6 c #818281828182",
"7 c #833E833E833E",
"8 c #896489648964",
"9 c #8A368A368A36",
"0 c #8C358C358C35",
"q c #8F818F818F81",
"w c #917F917F917F",
"e c #926692669266",
"r c #944B944B944B",
"t c #959C959C959C",
"y c #967696769676",
"u c #97FD97FD97FD",
"i c #988198819881",
"p c #99FA99FA99FA",
"a c #9AD89AD89AD8",
"s c #9BBD9BBD9BBD",
"d c #A039A039A039",
"f c #A1B3A1B3A1B3",
"g c #A2FBA2FBA2FB",
"h c #A45FA45FA45F",
"j c #A546A546A546",
"k c #A6FDA6FDA6FD",
"l c #A877A877A877",
"z c #AB72AB72AB72",
"x c #ACECACECACEC",
"c c #AE8EAE8EAE8E",
"v c #B027B027B027",
"b c #B0ADB0ADB0AD",
"n c #B1B2B1B2B1B2",
"m c #B2B3B2B3B2B3",
"M c #B45EB45EB45E",
"N c #B586B586B586",
"B c #BA25BA25BA25",
"V c #BCF6BCF6BCF6",
"C c #BF32BF32BF32",
"Z c #C1A6C1A6C1A6",
"A c #C8D0C8D0C8D0",
"S c #CCB5CCB5CCB5",
"D c #D3DFD3DFD3DF",
"F c #D467D467D467",
"G c #D5FDD5FDD5FD",
"H c #D688D688D688",
"J c #D7A1D7A1D7A1",
"K c #D85FD85FD85F",
"L c #DACDDACDDACD",
"P c #DCAADCAADCAA",
"I c #DF38DF38DF38",
"U c #E02DE02DE02D",
"Y c #E0F0E0F0E0F0",
"T c #E1D0E1D0E1D0",
"R c #E302E302E302",
"E c #E420E420E420",
"W c #E4B4E4B4E4B4",
"Q c #E5CEE5CEE5CE",
"! c #E68FE68FE68F",
"~ c #E8F1E8F1E8F1",
"^ c #EBF2EBF2EBF2",
"/ c #F01BF01BF01B",
"( c #F101F101F101",
") c #F1B8F1B8F1B8",
"_ c #F2F0F2F0F2F0",
"` c #F464F464F464",
"' c #F5F3F5F3F5F3",
"] c #FD0DFD0DFD0D",
"[ c #FDFBFDFBFDFB",
"{ c #FF22FF22FF22",
"} c gray100",
/* pixels */
"}}}}}}}}}}}}}}}}}}",
"}}}}}}}}}}}}}}}}}}",
"}}}}}}}}}}}}}}}}}}",
"}}}}}/Ht9atH)}}}}}",
"}}})VafMvvt45P}}}}",
"}}PfBQ}}}'StskB)}}",
"}M2^ZA}}Y)}YwQN>Q}",
"YwQ)a/)q@&Z}vt}kt}",
"7M}Ya}H#X &'Ps}}tl",
"qH}Ps}Bo  +^Ys}}H9",
"k9}Ya}'; O7}Hk}}MM",
")>l}tM}QtK)}fK}k>)",
"}Q>MKtN}}})VZKttY}",
"}})v1a29q6-:9>N}}}",
"}}}}Htq&&=6tD)}}}}",
"}}}}}}}QY/}}}}}}}}",
"}}}}}}}}}}}}}}}}}}",
"}}}}}}}}}}}}}}}}}}"
};
