/* XPM */
static char *gimp_xbm[] = {
/* columns rows colors chars-per-pixel */
"36 36 2 1 ",
"  c gray100",
". c black",
/* pixels */
"                                    ",
"                                    ",
"                                    ",
"                                    ",
"                                    ",
"                                    ",
"                            .       ",
"                           ..       ",
"        .                 ...       ",
"        .                ....       ",
"        ..              ......      ",
"        ...           .......       ",
"        .. ... .  ...........       ",
"        .     .    . ........       ",
"  ....      ..    . .........       ",
" ..  ... .  ..    .. . ......       ",
" .   .... ....  .............       ",
" ..  .... .. .. .... ........       ",
" ............. . . ..........       ",
"  ......... ......... ......        ",
"  ........... . ............        ",
"   ...... ....... ..........        ",
"     ......................         ",
"        .. . ........... ...        ",
"         ................. .        ",
"           . ........... ... .      ",
"            .  .... .       . ....  ",
"                    . .        ...  ",
"                               .... ",
"                                ... ",
"                                  . ",
"                                    ",
"                                    ",
"                                    ",
"                                    ",
"                                    "
};
