/* XPM */
static char *gimp[] = {
/* columns rows colors chars-per-pixel */
"18 18 94 2 ",
"   c black",
".  c #01A801A801A8",
"X  c #043204320432",
"o  c #091409140914",
"O  c #0A3B0A3B0A3B",
"+  c #0B640B640B64",
"@  c #0C0D0C0D0C0D",
"#  c #0CB60CB60CB6",
"$  c #10EB10EB10EB",
"%  c #123A123A123A",
"&  c #182B182B182B",
"*  c #1AB01AB01AB0",
"=  c #1DCD1DCD1DCD",
"-  c #1F4F1F4F1F4F",
";  c #24CA24CA24CA",
":  c #261726172617",
">  c #285528552855",
",  c #291629162916",
"<  c #2D6E2D6E2D6E",
"1  c #2F3B2F3B2F3B",
"2  c #30C530C530C5",
"3  c #31EF31EF31EF",
"4  c #32FC32FC32FC",
"5  c #344534453445",
"6  c #36DB36DB36DB",
"7  c #38AD38AD38AD",
"8  c #397C397C397C",
"9  c #406C406C406C",
"0  c #414A414A414A",
"q  c #493449344934",
"w  c #4BE34BE34BE3",
"e  c #4D434D434D43",
"r  c #566056605660",
"t  c #58D958D958D9",
"y  c #5A545A545A54",
"u  c #5B3B5B3B5B3B",
"i  c #5CA55CA55CA5",
"p  c #605E605E605E",
"a  c #653865386538",
"s  c #689068906890",
"d  c #71E971E971E9",
"f  c #72AF72AF72AF",
"g  c #749274927492",
"h  c #765776577657",
"j  c #798279827982",
"k  c #7AB37AB37AB3",
"l  c #7CCB7CCB7CCB",
"z  c #7DA77DA77DA7",
"x  c #802580258025",
"c  c #84F784F784F7",
"v  c #8AB38AB38AB3",
"b  c #96BB96BB96BB",
"n  c #992899289928",
"m  c #9A3E9A3E9A3E",
"M  c #9BE39BE39BE3",
"N  c #9DF49DF49DF4",
"B  c #A47BA47BA47B",
"V  c #A5D4A5D4A5D4",
"C  c #A7F8A7F8A7F8",
"Z  c #AAB8AAB8AAB8",
"A  c #ADCFADCFADCF",
"S  c #B1E9B1E9B1E9",
"D  c #B291B291B291",
"F  c #B42BB42BB42B",
"G  c #B720B720B720",
"H  c #B9B9B9B9B9B9",
"J  c #C0A3C0A3C0A3",
"K  c #C2E6C2E6C2E6",
"L  c #C35AC35AC35A",
"P  c #C765C765C765",
"I  c #CA6BCA6BCA6B",
"U  c #D12FD12FD12F",
"Y  c #D7AAD7AAD7AA",
"T  c #D877D877D877",
"R  c #DA08DA08DA08",
"E  c #E1CDE1CDE1CD",
"W  c #E2E7E2E7E2E7",
"Q  c #E3DFE3DFE3DF",
"!  c #E5F7E5F7E5F7",
"~  c #E6EBE6EBE6EB",
"^  c #E821E821E821",
"/  c #E931E931E931",
"(  c #F03DF03DF03D",
")  c #F123F123F123",
"_  c #F289F289F289",
"`  c #F426F426F426",
"'  c #F517F517F517",
"]  c #F811F811F811",
"[  c #F8A6F8A6F8A6",
"{  c #FC6CFC6CFC6C",
"}  c #FC9FFC9FFC9F",
"|  c #FDB6FDB6FDB6",
" . c #FEE0FEE0FEE0",
".. c #FFFEFFFEFFFE",
/* pixels */
"....................................",
"....................................",
"............................' ......",
"......{ ' ................B b ......",
"......Q m ..............Z $ d ......",
"......Q 5 Z ! ( { ! T x &   y ' ....",
"{ Q ! Q g S c B ! g 9       x ......",
"A g s k G P q T U y q ;     x ......",
"k m g   y 5 8 N 9 = 5 #     x ......",
"B = #   o < 4 e 8 > 4 #   # S ......",
"_ i #   ; * > 4 4 # #     > / ......",
"..' S d < 5 ;   # X   # ; e ( ......",
"........H a 9 #   o $ < i r A T ! { ",
"........../ I S z m v K ( T K p < Y ",
"..................{ ( _ ......G ; k ",
"................................T K ",
"....................................",
"...................................."
};
