/* XPM */
static char *gwt[] = {
/* columns rows colors chars-per-pixel */
"18 18 110 2 ",
"   c #000200020002",
".  c #00C500C500C5",
"X  c #01E701E701E7",
"o  c #031103110311",
"O  c #03C703C703C7",
"+  c #089908990899",
"@  c #0A220A220A22",
"#  c #0B540B540B54",
"$  c #0BEE0BEE0BEE",
"%  c #0CE40CE40CE4",
"&  c #0E280E280E28",
"*  c #106410641064",
"=  c #10F610F610F6",
"-  c #11FA11FA11FA",
";  c #164E164E164E",
":  c #170B170B170B",
">  c #180B180B180B",
",  c #196B196B196B",
"<  c #1A021A021A02",
"1  c #1B121B121B12",
"2  c #1BCB1BCB1BCB",
"3  c #1D1E1D1E1D1E",
"4  c #1E291E291E29",
"5  c #1F2A1F2A1F2A",
"6  c #209120912091",
"7  c #236E236E236E",
"8  c #250F250F250F",
"9  c #263C263C263C",
"0  c #272627262726",
"q  c #296C296C296C",
"w  c #29C029C029C0",
"e  c #311C311C311C",
"r  c #320E320E320E",
"t  c #360A360A360A",
"y  c #375837583758",
"u  c #37F537F537F5",
"i  c #3DB33DB33DB3",
"p  c #405E405E405E",
"a  c #420F420F420F",
"s  c #48EF48EF48EF",
"d  c #4A604A604A60",
"f  c #4BB14BB14BB1",
"g  c #4C544C544C54",
"h  c #4D884D884D88",
"j  c #4E064E064E06",
"k  c #563656365636",
"l  c #571557155715",
"z  c #586958695869",
"x  c #5A135A135A13",
"c  c #5BC05BC05BC0",
"v  c #604460446044",
"b  c #62B262B262B2",
"n  c #65AC65AC65AC",
"m  c #697E697E697E",
"M  c #6B4B6B4B6B4B",
"N  c #6F446F446F44",
"B  c #706F706F706F",
"V  c #733573357335",
"C  c #7C967C967C96",
"Z  c #7EB07EB07EB0",
"A  c #7F387F387F38",
"S  c #806180618061",
"D  c #82CB82CB82CB",
"F  c #83E783E783E7",
"G  c #85E785E785E7",
"H  c #892489248924",
"J  c #8B9E8B9E8B9E",
"K  c #8C7F8C7F8C7F",
"L  c #8D8B8D8B8D8B",
"P  c #90AD90AD90AD",
"I  c #915E915E915E",
"U  c #96CB96CB96CB",
"Y  c #9C3C9C3C9C3C",
"T  c #9D329D329D32",
"R  c #A112A112A112",
"E  c #A74DA74DA74D",
"W  c #AA15AA15AA15",
"Q  c #ADEFADEFADEF",
"!  c #AF39AF39AF39",
"~  c #B1B0B1B0B1B0",
"^  c #B2B7B2B7B2B7",
"/  c #B3C3B3C3B3C3",
"(  c #B5A0B5A0B5A0",
")  c #B660B660B660",
"_  c #BB67BB67BB67",
"`  c #C120C120C120",
"'  c #CC08CC08CC08",
"]  c #CD7BCD7BCD7B",
"[  c #D476D476D476",
"{  c #D5BED5BED5BE",
"}  c #D852D852D852",
"|  c #D877D877D877",
" . c #D969D969D969",
".. c #DB56DB56DB56",
"X. c #E0B4E0B4E0B4",
"o. c #E7C0E7C0E7C0",
"O. c #E925E925E925",
"+. c #E9C1E9C1E9C1",
"@. c #EBC9EBC9EBC9",
"#. c #EE69EE69EE69",
"$. c #F059F059F059",
"%. c #F20BF20BF20B",
"&. c #F2C0F2C0F2C0",
"*. c #F3F7F3F7F3F7",
"=. c #F7C8F7C8F7C8",
"-. c #FC63FC63FC63",
";. c #FCF8FCF8FCF8",
":. c #FDB7FDB7FDB7",
">. c #FEBBFEBBFEBB",
",. c #FFFEFFFEFFFE",
/* pixels */
",.,.,.,.,.,.,.&.=...$.,.,.,.,.,.,.,.",
",.,.,.,.,.o.$.E ] L Z ~ Y ~  .,.,.,.",
",.,.,.&.{ U D p 3 3 $ x 7 # 7 V ) ,.",
"&.! Z j < m 3         $         9 { ",
"D s ;     # O     O 3 7 3 O       V ",
"Z { ! ; $ 9       i n v P s       # ",
"9 ! @.j   $     x m     3 u       t ",
"v p Y J #     < ` w               N ",
"N $ m J -     7 R -               V ",
"V   ; L 3     3 _ <     t V $     N ",
"N     r -     < ] x     w ] 3     Z ",
"Z     O $       l { G 9 u V $   < { ",
"[ <   $ 9         j G c ;   $ j L $.",
"&.x                   $ 9 V ~ =.,.,.",
",.@.s             < s ~ o.,.,.,.,.,.",
",.,.) ;     $ 9 D  .&.,.,.,.,.,.,.,.",
",.,.,.W r V ~ @.-.,.,.,.,.,.,.,.,.,.",
",.,.,.-.o.-.,.,.,.,.,.,.,.,.,.,.,.,."
};
