/* XPM */
static char *klomp[] = {
/* columns rows colors chars-per-pixel */
"18 18 92 1 ",
"  c #000A000A000A",
". c #05CA05CA05CA",
"X c #1B9E1B9E1B9E",
"o c #23CF23CF23CF",
"O c #275427542754",
"+ c #2EDC2EDC2EDC",
"@ c #3A913A913A91",
"# c #4FB14FB14FB1",
"$ c #5B2A5B2A5B2A",
"% c #5E445E445E44",
"& c #62E262E262E2",
"* c #67CB67CB67CB",
"= c #67F367F367F3",
"- c #6BE66BE66BE6",
"; c #6DF86DF86DF8",
": c #766076607660",
"> c #7DE17DE17DE1",
", c #7E2B7E2B7E2B",
"< c gray50",
"1 c #80DD80DD80DD",
"2 c #868486848684",
"3 c #880488048804",
"4 c #88E788E788E7",
"5 c #893989398939",
"6 c #8AB08AB08AB0",
"7 c #8BCD8BCD8BCD",
"8 c #8CFF8CFF8CFF",
"9 c #8D538D538D53",
"0 c #8EF98EF98EF9",
"q c #8F838F838F83",
"w c #918D918D918D",
"e c #933A933A933A",
"r c #95CF95CF95CF",
"t c #962496249624",
"y c #98B098B098B0",
"u c #996D996D996D",
"i c #9AA29AA29AA2",
"p c #9BD69BD69BD6",
"a c #9C899C899C89",
"s c #A1B2A1B2A1B2",
"d c #A299A299A299",
"f c #A85CA85CA85C",
"g c #AA8BAA8BAA8B",
"h c #AB34AB34AB34",
"j c #AF7DAF7DAF7D",
"k c #B0D3B0D3B0D3",
"l c #B1E8B1E8B1E8",
"z c #B295B295B295",
"x c #B403B403B403",
"c c #B451B451B451",
"v c #B6B6B6B6B6B6",
"b c #B970B970B970",
"n c #BA44BA44BA44",
"m c #BBC1BBC1BBC1",
"M c #BD26BD26BD26",
"N c #BD79BD79BD79",
"B c #BEA2BEA2BEA2",
"V c #BFDDBFDDBFDD",
"C c #C0D1C0D1C0D1",
"Z c #C179C179C179",
"A c #C34EC34EC34E",
"S c #C923C923C923",
"D c #CCC2CCC2CCC2",
"F c #D010D010D010",
"G c #D1CFD1CFD1CF",
"H c #D726D726D726",
"J c #D76BD76BD76B",
"K c #D86ED86ED86E",
"L c #D9CBD9CBD9CB",
"P c #DBBBDBBBDBBB",
"I c #DDC4DDC4DDC4",
"U c #DF38DF38DF38",
"Y c #DFC0DFC0DFC0",
"T c #E0DEE0DEE0DE",
"R c #E1AAE1AAE1AA",
"E c #E2C1E2C1E2C1",
"W c #E423E423E423",
"Q c #E6BAE6BAE6BA",
"! c #E7FBE7FBE7FB",
"~ c #EA60EA60EA60",
"^ c #EC4FEC4FEC4F",
"/ c #EE7DEE7DEE7D",
"( c #F02AF02AF02A",
") c #F0D3F0D3F0D3",
"_ c #F216F216F216",
"` c #F2EDF2EDF2ED",
"' c #F42FF42FF42F",
"] c #F4B3F4B3F4B3",
"[ c #FC56FC56FC56",
"{ c #FD15FD15FD15",
"} c #FDFEFDFEFDFE",
"| c gray100",
/* pixels */
"||||||||||||||||||",
"||||||||[E(|||||||",
"||||||||A*7)||||||",
"||||||Erxijm||||[)",
"!e0i0eifvB|ijEUEj0",
"i7#%,iD,v||)BiiiBi",
"0|L,*-,U[|B2J~|||S",
"0||[)))|||0@+ox||m",
"0|||||||||iGL:0||0",
"0|||||||||iU|Ui||v",
"&)||||||!7$E|Ui|(i",
"7J||||||r OL0ei|mx",
"Js||||||!7vEX.0~s(",
"|BmUUBim(||)00Dg!|",
"|[AiimEj-xEU!Lj!||",
"||||||||Jriiis!|||",
"||||||||||||||||||",
"||||||||||||||||||"
};
