/* XPM */
static char *mplayer[] = {
/* columns rows colors chars-per-pixel */
"18 18 121 2 ",
"   c black",
".  c #010201020102",
"X  c #027D027D027D",
"o  c #082808280828",
"O  c #09ED09ED09ED",
"+  c #0C260C260C26",
"@  c #0D340D340D34",
"#  c #12DF12DF12DF",
"$  c #151D151D151D",
"%  c #167A167A167A",
"&  c #16CB16CB16CB",
"*  c #19F819F819F8",
"=  c #1C2E1C2E1C2E",
"-  c #1CF41CF41CF4",
";  c #205920592059",
":  c #219D219D219D",
">  c #221122112211",
",  c #230A230A230A",
"<  c #24D724D724D7",
"1  c #265B265B265B",
"2  c #275327532753",
"3  c #28A428A428A4",
"4  c #2B372B372B37",
"5  c #2D4D2D4D2D4D",
"6  c #324132413241",
"7  c #33F533F533F5",
"8  c #375837583758",
"9  c #37E737E737E7",
"0  c #39B139B139B1",
"q  c #3E9F3E9F3E9F",
"w  c #435343534353",
"e  c #499E499E499E",
"r  c #4C464C464C46",
"t  c #4D4F4D4F4D4F",
"y  c #4E214E214E21",
"u  c #525552555255",
"i  c #566D566D566D",
"p  c #575157515751",
"a  c #57F257F257F2",
"s  c #5C915C915C91",
"d  c #605A605A605A",
"f  c #624262426242",
"g  c #62F462F462F4",
"h  c #641264126412",
"j  c #663866386638",
"k  c #677C677C677C",
"l  c #67FE67FE67FE",
"z  c #6FDA6FDA6FDA",
"x  c #705970597059",
"c  c #721072107210",
"v  c #736673667366",
"b  c #755C755C755C",
"n  c #786478647864",
"m  c #7C967C967C96",
"M  c #7EB17EB17EB1",
"N  c #7F6D7F6D7F6D",
"B  c #805B805B805B",
"V  c #826282628262",
"C  c #831683168316",
"Z  c #86FB86FB86FB",
"A  c #898689868986",
"S  c #8AC58AC58AC5",
"D  c #8CA08CA08CA0",
"F  c #8DEC8DEC8DEC",
"G  c #90DE90DE90DE",
"H  c #959995999599",
"J  c #961B961B961B",
"K  c #971B971B971B",
"L  c #9AA29AA29AA2",
"P  c #A3CDA3CDA3CD",
"I  c #A5F7A5F7A5F7",
"U  c #A704A704A704",
"Y  c #A7CEA7CEA7CE",
"T  c #A8A5A8A5A8A5",
"R  c #A9C8A9C8A9C8",
"E  c #AAC3AAC3AAC3",
"W  c #AB58AB58AB58",
"Q  c #AE4BAE4BAE4B",
"!  c #AFA0AFA0AFA0",
"~  c #B38AB38AB38A",
"^  c #B5D5B5D5B5D5",
"/  c #B78DB78DB78D",
"(  c #BC51BC51BC51",
")  c #BF99BF99BF99",
"_  c #C0EAC0EAC0EA",
"`  c #C181C181C181",
"'  c #C924C924C924",
"]  c #C9A7C9A7C9A7",
"[  c #CBA4CBA4CBA4",
"{  c #CC92CC92CC92",
"}  c #CDD7CDD7CDD7",
"|  c #CE82CE82CE82",
" . c #D01FD01FD01F",
".. c #D159D159D159",
"X. c #D3A1D3A1D3A1",
"o. c #D7DED7DED7DE",
"O. c #D866D866D866",
"+. c #DA27DA27DA27",
"@. c #DAE3DAE3DAE3",
"#. c #DC43DC43DC43",
"$. c #DD18DD18DD18",
"%. c #DD80DD80DD80",
"&. c #DEE4DEE4DEE4",
"*. c #E240E240E240",
"=. c gray89",
"-. c #E4B5E4B5E4B5",
";. c #E696E696E696",
":. c #E9CCE9CCE9CC",
">. c #EF1DEF1DEF1D",
",. c #F115F115F115",
"<. c #F25BF25BF25B",
"1. c #F2CBF2CBF2CB",
"2. c #F3E5F3E5F3E5",
"3. c #F491F491F491",
"4. c #F65BF65BF65B",
"5. c #F72CF72CF72C",
"6. c #FC11FC11FC11",
"7. c #FD37FD37FD37",
"8. c #FDF6FDF6FDF6",
"9. c #FEE8FEE8FEE8",
"0. c #FFF6FFF6FFF6",
/* pixels */
"0.0.0.0.0.6.,.) U P ) *.>.0.0.0.0.0.",
"0.0.0.0.;.~ c j z f p u f ^ 0.0.0.0.",
"0.0.0.] C C G ` ] ] { K l 3 R 0.0.0.",
"0.0.` s c ` 5.0.0.0.0.0...j # R 0.0.",
"0.%.j S ) 0.0.0.0.0.0.0.0.^ $ $ ^ 0.",
"0.^ t ! 0.0.+.>.,.0.0.0.0.0.U o t ,.",
"*.p b o.0.0.{ +.] { >.6.0.0.,.t o R ",
"..w S 6.0.0.{ K ~ R D K +.0.0.C . c ",
"U = S 5.0.0.+.Z b j p s e S 5.D . 7 ",
"Z + L 0.0.0.S q 5 7 3 = 0 U ,.R o . ",
"..$ t 5.0.0.N : + . : C +.0.0.C . + ",
";.3 : +.0.0.N . + 6 { ,.0.0.,.t . f ",
"0.N . N 0.0.C - U ;.0.0.0.0.U + . m ",
"0.%.: $ R 0.] +.0.0.0.0.0.R $ . < o.",
"0.0.R $ = N %.0.0.0.0.;.U $ . $ R 0.",
"0.0.0.R $ . : c C N b 3 + . = R 0.0.",
"0.0.0.0.^ t + . . . . . . < R 0.0.0.",
"0.0.0.0.0.,.R f + . . 7 N o.0.0.0.0."
};
