/* XPM */
static char *pidgin[] = {
/* columns rows colors chars-per-pixel */
"18 18 84 1 ",
"  c #000300030003",
". c #00F000F000F0",
"X c #01E301E301E3",
"o c #093A093A093A",
"O c #09C409C409C4",
"+ c #0ADB0ADB0ADB",
"@ c #0C3D0C3D0C3D",
"# c #0E250E250E25",
"$ c #0EE90EE90EE9",
"% c #15FF15FF15FF",
"& c #173E173E173E",
"* c #17F217F217F2",
"= c #192C192C192C",
"- c #1A371A371A37",
"; c #1BE31BE31BE3",
": c #1E781E781E78",
"> c #203620362036",
", c #239C239C239C",
"< c #251425142514",
"1 c #277E277E277E",
"2 c #29A429A429A4",
"3 c #375837583758",
"4 c #3BAA3BAA3BAA",
"5 c #3C783C783C78",
"6 c #3E903E903E90",
"7 c #404540454045",
"8 c #47B347B347B3",
"9 c #48E448E448E4",
"0 c #49F749F749F7",
"q c #4C774C774C77",
"w c #4EF64EF64EF6",
"e c #56A756A756A7",
"r c #575057505750",
"t c #59B159B159B1",
"y c #641C641C641C",
"u c #6F0A6F0A6F0A",
"i c #704370437043",
"p c #714B714B714B",
"a c #72D472D472D4",
"s c #748C748C748C",
"d c #751875187518",
"f c #761C761C761C",
"g c #77EA77EA77EA",
"h c #7A677A677A67",
"j c #7C967C967C96",
"k c #7EE87EE87EE8",
"l c #7F787F787F78",
"z c #808E808E808E",
"x c #839283928392",
"c c #864786478647",
"v c #89A989A989A9",
"b c #96E396E396E3",
"n c #9CE09CE09CE0",
"m c #9E9D9E9D9E9D",
"M c #A064A064A064",
"N c #A1A8A1A8A1A8",
"B c #A5A0A5A0A5A0",
"V c #AACBAACBAACB",
"C c #ACABACABACAB",
"Z c #AF67AF67AF67",
"A c #B246B246B246",
"S c #B3A4B3A4B3A4",
"D c #B4CCB4CCB4CC",
"F c #B5FAB5FAB5FA",
"G c #B736B736B736",
"H c #BAFCBAFCBAFC",
"J c #BB47BB47BB47",
"K c #C6C0C6C0C6C0",
"L c #C7D3C7D3C7D3",
"P c #CF77CF77CF77",
"I c #D561D561D561",
"U c #D8D6D8D6D8D6",
"Y c #E118E118E118",
"T c #E3DEE3DEE3DE",
"R c #E6F1E6F1E6F1",
"E c #E7E3E7E3E7E3",
"W c #E883E883E883",
"Q c #EE54EE54EE54",
"! c #F28AF28AF28A",
"~ c #F415F415F415",
"^ c #F719F719F719",
"/ c #FCF5FCF5FCF5",
"( c #FEF8FEF8FEF8",
") c #FFFEFFFEFFFE",
/* pixels */
")))))))IKKKLLKLK~)",
"))))))))))))))))))",
"))))EE))))))))))))",
")))S>,kE))))))))))",
")))s   0S~))))))))",
"))V&    ox))))))))",
")D=&$    =D)))))))",
")k>Pm&  $abW))))))",
"^eqSmh  =ccQ))))))",
")a6JBq o 0sY))))))",
")k =:$tm7ot~))))))",
")x  o0ZJs6Z)))))))",
")s   27a2:Y)))))))",
"I,     o =U)))))))",
"k         0D))))))",
"3          =kE))))",
"o            v))))",
"Naauauy$    oV))))"
};
