/* XPM */
static char *reviewboard[] = {
/* columns rows colors chars-per-pixel */
"18 18 96 2 ",
"   c black",
".  c #0F120F120F12",
"X  c #175417541754",
"o  c #185D185D185D",
"O  c #2D572D572D57",
"+  c #578E578E578E",
"@  c #769D769D769D",
"#  c #80A280A280A2",
"$  c #81EB81EB81EB",
"%  c #820882088208",
"&  c #8A8C8A8C8A8C",
"*  c #8C328C328C32",
"=  c #8D828D828D82",
"-  c #911091109110",
";  c #97D497D497D4",
":  c #982E982E982E",
">  c #999F999F999F",
",  c #9BD19BD19BD1",
"<  c #9CE59CE59CE5",
"1  c #9D909D909D90",
"2  c #A2DDA2DDA2DD",
"3  c #A352A352A352",
"4  c #A553A553A553",
"5  c #A675A675A675",
"6  c #A76FA76FA76F",
"7  c #A857A857A857",
"8  c #A93FA93FA93F",
"9  c #AA89AA89AA89",
"0  c #ADA0ADA0ADA0",
"q  c #AF5FAF5FAF5F",
"w  c #B118B118B118",
"e  c #B1A7B1A7B1A7",
"r  c #B2F3B2F3B2F3",
"t  c #B3AFB3AFB3AF",
"y  c #B588B588B588",
"u  c #B6C5B6C5B6C5",
"i  c #B8A1B8A1B8A1",
"p  c #B99CB99CB99C",
"a  c #BCDABCDABCDA",
"s  c #BE15BE15BE15",
"d  c #BE8CBE8CBE8C",
"f  c #C100C100C100",
"g  c #C1E6C1E6C1E6",
"h  c #C2E7C2E7C2E7",
"j  c #C36FC36FC36F",
"k  c #C4FFC4FFC4FF",
"l  c #C5FFC5FFC5FF",
"z  c #C6DCC6DCC6DC",
"x  c #C8C1C8C1C8C1",
"c  c #C9D4C9D4C9D4",
"v  c #CAF6CAF6CAF6",
"b  c #CBB2CBB2CBB2",
"n  c #CD05CD05CD05",
"m  c #CDAACDAACDAA",
"M  c #CED9CED9CED9",
"N  c #CF8ECF8ECF8E",
"B  c #D0C6D0C6D0C6",
"V  c #D188D188D188",
"C  c #D2EDD2EDD2ED",
"Z  c #D396D396D396",
"A  c #D47ED47ED47E",
"S  c #D604D604D604",
"D  c #D6DFD6DFD6DF",
"F  c #D7DAD7DAD7DA",
"G  c #D905D905D905",
"H  c #DA57DA57DA57",
"J  c #DAE8DAE8DAE8",
"K  c #DC00DC00DC00",
"L  c #DC98DC98DC98",
"P  c #DD92DD92DD92",
"I  c #DF3FDF3FDF3F",
"U  c #E052E052E052",
"Y  c #E09AE09AE09A",
"T  c #E232E232E232",
"R  c #E2F7E2F7E2F7",
"E  c #E3F2E3F2E3F2",
"W  c #E59CE59CE59C",
"Q  c #E6AAE6AAE6AA",
"!  c #E82AE82AE82A",
"~  c #E8F0E8F0E8F0",
"^  c #EA87EA87EA87",
"/  c #EBC6EBC6EBC6",
"(  c #ED2CED2CED2C",
")  c #EEFBEEFBEEFB",
"_  c #F001F001F001",
"`  c #F0CAF0CAF0CA",
"'  c #F1B5F1B5F1B5",
"]  c #F2CAF2CAF2CA",
"[  c #F425F425F425",
"{  c #F52BF52BF52B",
"}  c #F68EF68EF68E",
"|  c #F852F852F852",
" . c #FC1CFC1CFC1C",
".. c #FCE5FCE5FCE5",
"X. c #FDBEFDBEFDBE",
"o. c #FFFEFFFEFFFE",
/* pixels */
"o.o.o.o.o.o.) / ! 3 i G 4 g ! o.o.o.",
"o.) / ! e N d g e N N c z V c  .o.o.",
"! 3 g G ! F c G / ) F c N N 3 T o.o.",
"4 N G g N N F g e c G N G N q / o.o.",
"G V 9 o O N F { [ )  .o.o.F q g o.o.",
"> G $   . d o.o.o.o.o.o.G / i < o.o.",
"= g i o + [ o.o.o.o.o.o.c c F c o.o.",
"T d V y T o.o.o.o.o.o.o./ z c y ) o.",
"/ d G F o.o.o.o.o.o.o.o.{ G V @ T o.",
"P < c / { o.o.o.o.o.o.o.{ N G g ) o.",
"o.g d T N o.o.o.o.o.o.o.o.F N V { o.",
"o.9 i G G o.o.o.o.o.o.o.o./ N c 9 o.",
"o.4 F e [ o.o.o.o.o. .) N 4 P i < o.",
"o.[ N G z o.o.G N N G d i c c F < o.",
"o.T = N g N N g F c c c g G P e g o.",
"o.T > ! y P c N g N q e 9 $ y g  .o.",
"o.o.> & c e 4 - = > > d [ !  .o.o.o.",
"o.o.[ 4 & $ e P P o.o.o.o.o.o.o.o.o."
};
