/* XPM */
static char *rhythmbox[] = {
/* columns rows colors chars-per-pixel */
"18 18 68 1 ",
"  c black",
". c #00F300F300F3",
"X c #049804980498",
"o c #072E072E072E",
"O c #099C099C099C",
"+ c #0B170B170B17",
"@ c #0C430C430C43",
"# c #0D650D650D65",
"$ c #0EE70EE70EE7",
"% c #160316031603",
"& c #173317331733",
"* c #181518151815",
"= c #196E196E196E",
"- c #1A1C1A1C1A1C",
"; c #1AFC1AFC1AFC",
": c #1BE01BE01BE0",
"> c #22AA22AA22AA",
", c #246924692469",
"< c #24C524C524C5",
"1 c #269A269A269A",
"2 c #26CB26CB26CB",
"3 c #2FD12FD12FD1",
"4 c #3E083E083E08",
"5 c #41E741E741E7",
"6 c #430A430A430A",
"7 c #4A8B4A8B4A8B",
"8 c #4B174B174B17",
"9 c #4D794D794D79",
"0 c #4E774E774E77",
"q c #503E503E503E",
"w c #557355735573",
"e c #5A525A525A52",
"r c #663E663E663E",
"t c #742274227422",
"y c #763876387638",
"u c #77C677C677C6",
"i c #80EE80EE80EE",
"p c #838E838E838E",
"a c #8AA38AA38AA3",
"s c #8E1D8E1D8E1D",
"d c #A019A019A019",
"f c #A7C6A7C6A7C6",
"g c #A846A846A846",
"h c #AA33AA33AA33",
"j c #B34AB34AB34A",
"k c #B4FAB4FAB4FA",
"l c #B555B555B555",
"z c #B691B691B691",
"x c #BF1EBF1EBF1E",
"c c #D410D410D410",
"v c #DC68DC68DC68",
"b c #DDF0DDF0DDF0",
"n c #E42DE42DE42D",
"m c #E72AE72AE72A",
"M c #E7AEE7AEE7AE",
"N c #E8BAE8BAE8BA",
"B c #EB84EB84EB84",
"V c #EC9AEC9AEC9A",
"C c #F228F228F228",
"Z c #F349F349F349",
"A c #F42FF42FF42F",
"S c #F47FF47FF47F",
"D c #F6D6F6D6F6D6",
"F c #F874F874F874",
"G c #F8A8F8A8F8A8",
"H c #FCC9FCC9FCC9",
"J c #FEFBFEFBFEFB",
"K c #FFFEFFFEFFFE",
/* pixels */
"KKKKKKKKKKKKKKKKKK",
"KKKKKmnnnnnnnAKKKK",
"KKKKk,;;%;;:;iKKKK",
"KKKFe  +99+  ,mKKK",
"KKKA8 %fFFk4 ;nKKK",
"KKKF9 iAsaBj+;nKKK",
"KKKA8%bx# am;;nKKK",
"KKKKtokb3>kv%;nKKK",
"KKKFe 8mBVmw :mKKK",
"KKKKr  8pi9  :nKKK",
"KKKGe        ;nKKK",
"KKKGe        ;nKKK",
"KKKGr 95  5t#;nKKK",
"KKKGeoft  tc%;nKKK",
"KKKGe ##  #; ,mKKK",
"KKKKh,;:::;;,hKKKK",
"KKKKGmmnnnnnmGKKKK",
"KKKKKKKKKKKKKKKKKK"
};
