#define arrow_width 36
#define arrow_height 36
static unsigned char arrow_bits[] = {
   0x00, 0x00, 0x00, 0x00, 0x00, 0x00, 0x00, 0x00, 0x00, 0x00, 0x00, 0x00,
   0x06, 0x00, 0x00, 0x00, 0x00, 0x0f, 0x00, 0x00, 0x00, 0x80, 0x19, 0x00,
   0x00, 0x00, 0xc0, 0x30, 0x00, 0x00, 0x00, 0x60, 0x60, 0x00, 0x00, 0x00,
   0x30, 0xc0, 0x00, 0x00, 0x00, 0x18, 0x86, 0x01, 0x00, 0x00, 0x0c, 0x0f,
   0x03, 0x00, 0x00, 0x86, 0x1f, 0x06, 0x00, 0x00, 0xc3, 0x3f, 0x0c, 0x00,
   0x80, 0xe1, 0x79, 0x18, 0x00, 0xc0, 0xf0, 0xf0, 0x30, 0x00, 0x60, 0x78,
   0xe6, 0x61, 0x00, 0x30, 0x0c, 0x0f, 0xc3, 0x00, 0x18, 0x06, 0x0f, 0x86,
   0x01, 0x0c, 0x07, 0x0f, 0x0e, 0x03, 0x8c, 0x23, 0x4f, 0x1c, 0x03, 0x8c,
   0x31, 0xc9, 0x18, 0x03, 0x0c, 0x38, 0xc0, 0x01, 0x03, 0x0c, 0x3c, 0xc6,
   0x03, 0x03, 0x18, 0x3e, 0xcf, 0x87, 0x01, 0xf0, 0x37, 0xcf, 0xfe, 0x00,
   0xe0, 0x33, 0xcf, 0x7c, 0x00, 0x00, 0x30, 0xcf, 0x00, 0x00, 0x00, 0x30,
   0xcf, 0x00, 0x00, 0x00, 0x30, 0xc6, 0x00, 0x00, 0x00, 0x30, 0xc0, 0x00,
   0x00, 0x00, 0x60, 0xe0, 0x00, 0x00, 0x00, 0xc0, 0x70, 0x00, 0x00, 0x00,
   0xc0, 0x39, 0x00, 0x00, 0x00, 0x80, 0x1f, 0x00, 0x00, 0x00, 0x00, 0x0f,
   0x00, 0x00, 0x00, 0x00, 0x00, 0x00, 0x00, 0x00, 0x00, 0x00, 0x00, 0x00 };
