/* XPM */
static char *stepmania[] = {
/* columns rows colors chars-per-pixel */
"18 18 68 1 ",
"  c #0E6B0E6B0E6B",
". c #172D172D172D",
"X c #1A2B1A2B1A2B",
"o c #1BF51BF51BF5",
"O c #272F272F272F",
"+ c #299B299B299B",
"@ c #2D442D442D44",
"# c #320732073207",
"$ c #361936193619",
"% c #38FB38FB38FB",
"& c #3AF33AF33AF3",
"* c #404940494049",
"= c #48FF48FF48FF",
"- c #506050605060",
"; c #513B513B513B",
": c #528F528F528F",
"> c #547554755475",
", c #551F551F551F",
"< c #577F577F577F",
"1 c #5AEF5AEF5AEF",
"2 c #5F285F285F28",
"3 c #633763376337",
"4 c #646F646F646F",
"5 c #653765376537",
"6 c #694E694E694E",
"7 c #6BF66BF66BF6",
"8 c #6D366D366D36",
"9 c #72E772E772E7",
"0 c #744B744B744B",
"q c #781C781C781C",
"w c #7E737E737E73",
"e c #891489148914",
"r c #976D976D976D",
"t c #9D4F9D4F9D4F",
"y c #A4B1A4B1A4B1",
"u c #A5F7A5F7A5F7",
"i c #A714A714A714",
"p c #A7CFA7CFA7CF",
"a c #A8D8A8D8A8D8",
"s c #A9C3A9C3A9C3",
"d c #AA79AA79AA79",
"f c #ACB0ACB0ACB0",
"g c #B1E8B1E8B1E8",
"h c #C655C655C655",
"j c #C939C939C939",
"k c #C9DEC9DEC9DE",
"l c #CB1ACB1ACB1A",
"z c #D2F0D2F0D2F0",
"x c #D630D630D630",
"c c #D6B5D6B5D6B5",
"v c #DAF2DAF2DAF2",
"b c #DEEDDEEDDEED",
"n c #E15EE15EE15E",
"m c #E238E238E238",
"M c #E2CEE2CEE2CE",
"N c #E649E649E649",
"B c #E6C6E6C6E6C6",
"V c #E804E804E804",
"C c #E94CE94CE94C",
"Z c #E97DE97DE97D",
"A c #EEA6EEA6EEA6",
"S c #F204F204F204",
"D c #F2E5F2E5F2E5",
"F c #F6C5F6C5F6C5",
"G c #F9C5F9C5F9C5",
"H c #FCA1FCA1FCA1",
"J c #FF08FF08FF08",
"K c #FFFDFFFDFFFD",
/* pixels */
"KKKKKKKKAAKKKKKKKK",
"KKKKKKKV33VKKKKKKK",
"KKKKKKV6is6VKKKKKK",
"KKKKKV6sSSs6VKKKKK",
"KKKKV6sC>>Cs6VKKKK",
"KKKV6sC>  >Ci6VKKK",
"KKV6sV-.tt.-Cs6MKK",
"KV6sV79s12s97Vs6VK",
"A6iV-wFM.oMGw-Ci6A",
"b$Vr>zql77lqz>rV%b",
"M&xFb-obffb.-bFx*M",
"Kf3w=%@l+Ol@%=w2sK",
"KKgqel%hooh%leqgKK",
"KKKKKM%x11x%MKKKKK",
"KKKKKS6iSSy#VKKKKK",
"KKKKKKx$is+iKKKKKK",
"KKKKKKKs##sKKKKKKK",
"KKKKKKKGMMGKKKKKKK"
};
