/* XPM */
static char *terminal[] = {
/* columns rows colors chars-per-pixel */
"18 18 132 2 ",
"   c black",
".  c #017A017A017A",
"X  c #02CC02CC02CC",
"o  c #097709770977",
"O  c #099009900990",
"+  c #0C000C000C00",
"@  c #0D5C0D5C0D5C",
"#  c #0DBD0DBD0DBD",
"$  c #0F240F240F24",
"%  c #0FFA0FFA0FFA",
"&  c #178917891789",
"*  c #17FC17FC17FC",
"=  c #18DF18DF18DF",
"-  c #19F419F419F4",
";  c #1C271C271C27",
":  c #1D2A1D2A1D2A",
">  c #1E1A1E1A1E1A",
",  c #236023602360",
"<  c #24FA24FA24FA",
"1  c #272627262726",
"2  c #27F827F827F8",
"3  c #2EC02EC02EC0",
"4  c #306F306F306F",
"5  c #35A635A635A6",
"6  c #374B374B374B",
"7  c #3C683C683C68",
"8  c #3DAB3DAB3DAB",
"9  c #3F303F303F30",
"0  c #419A419A419A",
"q  c #428C428C428C",
"w  c #462246224622",
"e  c #4D334D334D33",
"r  c #4E6B4E6B4E6B",
"t  c #4F314F314F31",
"y  c #50AD50AD50AD",
"u  c #512951295129",
"i  c #522F522F522F",
"p  c #562E562E562E",
"a  c #59E759E759E7",
"s  c #5C655C655C65",
"d  c #5D045D045D04",
"f  c #60F160F160F1",
"g  c #644D644D644D",
"h  c #64F264F264F2",
"j  c #665466546654",
"k  c #671567156715",
"l  c #69D569D569D5",
"z  c #6A446A446A44",
"x  c #6B836B836B83",
"c  c #6CAE6CAE6CAE",
"v  c #700370037003",
"b  c #714871487148",
"n  c #729272927292",
"m  c #737973797379",
"M  c #757275727572",
"N  c #778277827782",
"B  c #799479947994",
"V  c #7BAE7BAE7BAE",
"C  c #7D037D037D03",
"Z  c #7E9A7E9A7E9A",
"A  c #7F427F427F42",
"S  c #807A807A807A",
"D  c #82B882B882B8",
"F  c #83A983A983A9",
"G  c #849084908490",
"H  c #86CF86CF86CF",
"J  c #886D886D886D",
"K  c #8CED8CED8CED",
"L  c #914091409140",
"P  c #931893189318",
"I  c #98A598A598A5",
"U  c #9C769C769C76",
"Y  c #9D239D239D23",
"T  c #A116A116A116",
"R  c #A70BA70BA70B",
"E  c #A7ACA7ACA7AC",
"W  c #AA66AA66AA66",
"Q  c #AD0CAD0CAD0C",
"!  c #AD46AD46AD46",
"~  c #AFF9AFF9AFF9",
"^  c #B19BB19BB19B",
"/  c #B2E3B2E3B2E3",
"(  c #B494B494B494",
")  c #B6BCB6BCB6BC",
"_  c #B9A0B9A0B9A0",
"`  c #BF02BF02BF02",
"'  c #BF84BF84BF84",
"]  c #C0C6C0C6C0C6",
"[  c #C1DDC1DDC1DD",
"{  c #C3D9C3D9C3D9",
"}  c #C488C488C488",
"|  c #C639C639C639",
" . c #C6EEC6EEC6EE",
".. c #C7E4C7E4C7E4",
"X. c #C8F5C8F5C8F5",
"o. c #CA22CA22CA22",
"O. c #CAEACAEACAEA",
"+. c #CBDBCBDBCBDB",
"@. c #CCAECCAECCAE",
"#. c #CD5ECD5ECD5E",
"$. c #CEEDCEEDCEED",
"%. c #D021D021D021",
"&. c #D20BD20BD20B",
"*. c #D6CAD6CAD6CA",
"=. c #D7A8D7A8D7A8",
"-. c #D922D922D922",
";. c #D998D998D998",
":. c #DA99DA99DA99",
">. c #DCEDDCEDDCED",
",. c #DD98DD98DD98",
"<. c #E0E9E0E9E0E9",
"1. c #E1B2E1B2E1B2",
"2. c #E3D6E3D6E3D6",
"3. c #E4C2E4C2E4C2",
"4. c #E5A5E5A5E5A5",
"5. c #E790E790E790",
"6. c #E91DE91DE91D",
"7. c #E9A0E9A0E9A0",
"8. c #ED4BED4BED4B",
"9. c #ED99ED99ED99",
"0. c #EE81EE81EE81",
"q. c #F117F117F117",
"w. c #F1F1F1F1F1F1",
"e. c #F2EDF2EDF2ED",
"r. c #F44AF44AF44A",
"t. c #F4D4F4D4F4D4",
"y. c #F6DDF6DDF6DD",
"u. c #F7DBF7DBF7DB",
"i. c #F998F998F998",
"p. c #FB93FB93FB93",
"a. c #FCB4FCB4FCB4",
"s. c gray100",
/* pixels */
"s.s.s.s.s.s.s.s.s.s.s.s.s.s.s.s.s.s.",
"s.s.3.,.,.8.3.1.1.1.1.1.1.,.,.r.s.s.",
"t.L j l l l y s s t l l l l s j 3.s.",
"s.V Y r.r.3.3.8.8.8.r.8.r.r.1.V W s.",
"s.J T s.s.s.s.s.t.t.r.,.:.O.[ t ~ s.",
"s.S F p.:.3.*.[ ' :.R ~ F m c : ~ s.",
"t.p l &.t...( I L S c l 7 j f : ( s.",
"s.m w ) r.s.r.[ p 7 7 t w 6 7 * ( s.",
"t.a 4 j [ s.s.R 6 0 , 3 t 1 1   J s.",
"t.t   S t.( m * % * % 1 + %     Z t.",
"r.t   0 y +   O + 1 + + + 1     m O.",
"r.t         0 W F S ~ M O       M #.",
"r.y         * V F F S t         Z #.",
"8.F 2 : : : : * * * * * : : : * Z O.",
"8._ ( ( ~ ' ( ) O.( O.' 8._ #.[ O.Y ",
"s.1.[ #.1...O.#...) [ ..r.*...[ .._ ",
"s.s.s.s.s.*.t.:.t.*.1.8.O.#.#.#.r.p.",
"s.s.s.s.s.s.s.s.s.s.s.s.s.s.s.s.s.s."
};
