/* XPM */
static char *thunderbird[] = {
/* columns rows colors chars-per-pixel */
"18 18 97 2 ",
"   c black",
".  c #02E202E202E2",
"X  c #08FD08FD08FD",
"o  c #0B260B260B26",
"O  c #0C750C750C75",
"+  c #0CFA0CFA0CFA",
"@  c #0F460F460F46",
"#  c #11EC11EC11EC",
"$  c #14E214E214E2",
"%  c #16FC16FC16FC",
"&  c #181E181E181E",
"*  c #190F190F190F",
"=  c #1BE31BE31BE3",
"-  c #1CAD1CAD1CAD",
";  c #1E6F1E6F1E6F",
":  c #1ECF1ECF1ECF",
">  c #22F022F022F0",
",  c #244224422442",
"<  c #257C257C257C",
"1  c #271327132713",
"2  c #289028902890",
"3  c #293D293D293D",
"4  c #2D432D432D43",
"5  c #307B307B307B",
"6  c #31AC31AC31AC",
"7  c #329232923292",
"8  c #332A332A332A",
"9  c #352A352A352A",
"0  c #360A360A360A",
"q  c #37E637E637E6",
"w  c #3F3A3F3A3F3A",
"e  c #3FC13FC13FC1",
"r  c #412041204120",
"t  c #429A429A429A",
"y  c #484548454845",
"u  c #4A6E4A6E4A6E",
"i  c #4E164E164E16",
"p  c #509950995099",
"a  c #535753575357",
"s  c gray33",
"d  c #55E655E655E6",
"f  c #576E576E576E",
"g  c #591859185918",
"h  c #5AC35AC35AC3",
"j  c #64FA64FA64FA",
"k  c #68E068E068E0",
"l  c #6BB96BB96BB9",
"z  c #717071707170",
"x  c #75D575D575D5",
"c  c #7BCE7BCE7BCE",
"v  c #7C287C287C28",
"b  c #7D597D597D59",
"n  c #7F3E7F3E7F3E",
"m  c #802D802D802D",
"M  c #8B228B228B22",
"N  c #8E178E178E17",
"B  c #904690469046",
"V  c #959195919591",
"C  c #A5C2A5C2A5C2",
"Z  c #AF7AAF7AAF7A",
"A  c #B0C0B0C0B0C0",
"S  c #B1FAB1FAB1FA",
"D  c #B26CB26CB26C",
"F  c #B518B518B518",
"G  c #BF42BF42BF42",
"H  c #C1E0C1E0C1E0",
"J  c #C4D5C4D5C4D5",
"K  c #C9E3C9E3C9E3",
"L  c #CAC4CAC4CAC4",
"P  c #CEE3CEE3CEE3",
"I  c #D3B5D3B5D3B5",
"U  c #D8FFD8FFD8FF",
"Y  c #DA07DA07DA07",
"T  c #DB0CDB0CDB0C",
"R  c #DC5ADC5ADC5A",
"E  c #E35FE35FE35F",
"W  c #E43FE43FE43F",
"Q  c #E4E7E4E7E4E7",
"!  c #E72BE72BE72B",
"~  c #E7F1E7F1E7F1",
"^  c #E934E934E934",
"/  c #EA9FEA9FEA9F",
"(  c #EBD5EBD5EBD5",
")  c #EE43EE43EE43",
"_  c #F003F003F003",
"`  c #F0E5F0E5F0E5",
"'  c #F20EF20EF20E",
"]  c #F2B5F2B5F2B5",
"[  c #F426F426F426",
"{  c #F49BF49BF49B",
"}  c #F5C5F5C5F5C5",
"|  c #F68EF68EF68E",
" . c #F8BFF8BFF8BF",
".. c #FCB9FCB9FCB9",
"X. c #FD9EFD9EFD9E",
"o. c #FEF9FEF9FEF9",
"O. c gray100",
/* pixels */
"O.O.O.O.O.O.O.O.O.O.O.O.O.O.O.O.O.O.",
"O.O.O.O.O.O.Q L O.O.O.O.O.O.O.O.O.O.",
"O.O.O.O.O.^ p n ^ W ] O.O.O.O.O.O.O.",
"O.O.O.O.] g   9 2 = i n F O.O.O.O.O.",
"O.O.O.O.A # O O         % m ^ O.O.O.",
"O.O.P W i O w u 8 8 8 =     g { O.O.",
"O.] l J = % 9 4 8 < 9 9 =   o A O.O.",
"O.A 2 I t > # d N c t 8 < O   i ] O.",
"O.n % U d = n Q O...^ z       = W O.",
"O.n % H m U O.O.O.O.O.x       = W O.",
"O.Z o c ) O.O.O.O.O.U < o     t ) O.",
"O.Q < = g U O.O.O.O.L N l     g ..O.",
"O.O.m     n O.O.O.O.O.{ i   o A O.O.",
"O.O.^ d O M { O.O.O.O.U %   i { O.O.",
"O.O.O.Q j G O.O.O.O.O.n   u H O.O.O.",
"O.O.O.O.] ) O.O.O.O.C = d ^ O.O.O.O.",
"O.O.O.O.O.O.O.O.O.{ V Z ] O.O.O.O.O.",
"O.O.O.O.O.O.O.O.O.O.O.O.O.O.O.O.O.O."
};
