/* XPM */
static char *torbrowserbundle[] = {
/* columns rows colors chars-per-pixel */
"18 18 86 1 ",
"  c #000400040004",
". c #0A1F0A1F0A1F",
"X c #16BB16BB16BB",
"o c #185118511851",
"O c #194919491949",
"+ c #1A811A811A81",
"@ c #20EC20EC20EC",
"# c #241124112411",
"$ c #251125112511",
"% c #26CB26CB26CB",
"& c #2B192B192B19",
"* c #2BB92BB92BB9",
"= c #353F353F353F",
"- c #4D294D294D29",
"; c #4E2A4E2A4E2A",
": c #589758975897",
"> c #5A5F5A5F5A5F",
", c #5CB05CB05CB0",
"< c #5E465E465E46",
"1 c #63AF63AF63AF",
"2 c #645364536453",
"3 c #69AA69AA69AA",
"4 c #75F475F475F4",
"5 c #786D786D786D",
"6 c #832083208320",
"7 c #852F852F852F",
"8 c #88FE88FE88FE",
"9 c #8BDC8BDC8BDC",
"0 c #8FAB8FAB8FAB",
"q c #916991699169",
"w c #94FD94FD94FD",
"e c #993399339933",
"r c #9B999B999B99",
"t c #9EA49EA49EA4",
"y c #A162A162A162",
"u c #A441A441A441",
"i c #A525A525A525",
"p c #A7CFA7CFA7CF",
"a c #A9B6A9B6A9B6",
"s c #AAB8AAB8AAB8",
"d c #AC72AC72AC72",
"f c #ADEEADEEADEE",
"g c #B150B150B150",
"h c #B2E6B2E6B2E6",
"j c #B34CB34CB34C",
"k c #B500B500B500",
"l c #B6F1B6F1B6F1",
"z c #B78AB78AB78A",
"x c #C0BDC0BDC0BD",
"c c #C1CDC1CDC1CD",
"v c #C2F5C2F5C2F5",
"b c #C4CFC4CFC4CF",
"n c #C6D3C6D3C6D3",
"m c #C8C7C8C7C8C7",
"M c #CA90CA90CA90",
"N c #CBA8CBA8CBA8",
"B c #CE64CE64CE64",
"V c #D146D146D146",
"C c #D53ED53ED53E",
"Z c #D7E4D7E4D7E4",
"A c #D934D934D934",
"S c #DB90DB90DB90",
"D c #DCA1DCA1DCA1",
"F c #DDC3DDC3DDC3",
"G c #DEBCDEBCDEBC",
"H c #E1D7E1D7E1D7",
"J c #E349E349E349",
"K c #E3CEE3CEE3CE",
"L c #E521E521E521",
"P c #E651E651E651",
"I c #E7AEE7AEE7AE",
"U c #E8EFE8EFE8EF",
"Y c #EA37EA37EA37",
"T c #F041F041F041",
"R c #F0C5F0C5F0C5",
"E c #F211F211F211",
"W c #F30AF30AF30A",
"Q c #F499F499F499",
"! c #F5AEF5AEF5AE",
"~ c #F6F3F6F3F6F3",
"^ c #FA5AFA5AFA5A",
"/ c #FBCDFBCDFBCD",
"( c #FD1BFD1BFD1B",
") c #FE18FE18FE18",
"_ c #FEE6FEE6FEE6",
"` c #FFFEFFFEFFFE",
/* pixels */
"``````````````````",
"``````````````````",
"``````````````````",
"`````````AC```````",
"````````A4P```````",
"```````!p3P```````",
"```````Kv9C```````",
"``````U6Vd4P``````",
"`````vyD`n<<l`````",
"````g0W``W1;&a````",
"```WqP``/!p#=#P```",
"```ng```!lpo#.g```",
"```zm```Wn7   9```",
"```Pm```/r<  oC```",
"```WrmW`Wt#  #P```",
"````vqdKU:  oa````",
"````/D2:3*o;l`````",
"``````WDBgKW``````"
};
