/* XPM */
static char *transmission[] = {
/* columns rows colors chars-per-pixel */
"18 18 129 2 ",
"   c #000F000F000F",
".  c #020A020A020A",
"X  c #02C102C102C1",
"o  c #090809080908",
"O  c #09F309F309F3",
"+  c #0AE20AE20AE2",
"@  c #0BF30BF30BF3",
"#  c #125412541254",
"$  c #135413541354",
"%  c #154B154B154B",
"&  c #162316231623",
"*  c #173E173E173E",
"=  c #185118511851",
"-  c #1C0F1C0F1C0F",
";  c #1CF81CF81CF8",
":  c #1ED61ED61ED6",
">  c #219E219E219E",
",  c #241624162416",
"<  c #253425342534",
"1  c #25CC25CC25CC",
"2  c #332333233323",
"3  c #347634763476",
"4  c #365336533653",
"5  c #36DD36DD36DD",
"6  c #37CD37CD37CD",
"7  c #3BD23BD23BD2",
"8  c #3D3A3D3A3D3A",
"9  c #3F363F363F36",
"0  c #401C401C401C",
"q  c #414C414C414C",
"w  c #43DD43DD43DD",
"e  c #450F450F450F",
"r  c #479447944794",
"t  c #481748174817",
"y  c #496F496F496F",
"u  c #49E249E249E2",
"i  c #4B424B424B42",
"p  c #4C084C084C08",
"a  c #51A051A051A0",
"s  c #530B530B530B",
"d  c #548654865486",
"f  c #55AA55AA55AA",
"g  c #56EE56EE56EE",
"h  c #5B535B535B53",
"j  c #5E9F5E9F5E9F",
"k  c #5FB25FB25FB2",
"l  c #613961396139",
"z  c #635563556355",
"x  c #675C675C675C",
"c  c #690C690C690C",
"v  c #6A7E6A7E6A7E",
"b  c #6EC16EC16EC1",
"n  c #6F2D6F2D6F2D",
"m  c #703B703B703B",
"M  c #73FB73FB73FB",
"N  c #755275527552",
"B  c #7A487A487A48",
"V  c #7E2D7E2D7E2D",
"C  c #7F847F847F84",
"Z  c #80EF80EF80EF",
"A  c #81AC81AC81AC",
"S  c #826582658265",
"D  c #862586258625",
"F  c #89F089F089F0",
"G  c #8A968A968A96",
"H  c #8BAD8BAD8BAD",
"J  c #8C2C8C2C8C2C",
"K  c #8D958D958D95",
"L  c #8E8C8E8C8E8C",
"P  c #8F328F328F32",
"I  c #93B993B993B9",
"U  c #965D965D965D",
"Y  c #98A798A798A7",
"T  c #995499549954",
"R  c #9BA39BA39BA3",
"E  c #9DB69DB69DB6",
"W  c #A445A445A445",
"Q  c #A609A609A609",
"!  c #A6D2A6D2A6D2",
"~  c #A793A793A793",
"^  c #A8BAA8BAA8BA",
"/  c #A966A966A966",
"(  c #AA9BAA9BAA9B",
")  c #ABB0ABB0ABB0",
"_  c #ADFBADFBADFB",
"`  c #B24EB24EB24E",
"'  c #B538B538B538",
"]  c #B66AB66AB66A",
"[  c #B7C7B7C7B7C7",
"{  c #BE7FBE7FBE7F",
"}  c #BF6DBF6DBF6D",
"|  c #C173C173C173",
" . c #C35DC35DC35D",
".. c #C663C663C663",
"X. c #C838C838C838",
"o. c #C8EDC8EDC8ED",
"O. c #CAC3CAC3CAC3",
"+. c #CC46CC46CC46",
"@. c #CC9DCC9DCC9D",
"#. c #CD5ACD5ACD5A",
"$. c #CEE8CEE8CEE8",
"%. c #D0F2D0F2D0F2",
"&. c #D2AED2AED2AE",
"*. c #D571D571D571",
"=. c #D81FD81FD81F",
"-. c #D918D918D918",
";. c #DB0EDB0EDB0E",
":. c #DBA6DBA6DBA6",
">. c #DCBFDCBFDCBF",
",. c #DDB7DDB7DDB7",
"<. c #E2E0E2E0E2E0",
"1. c #E41CE41CE41C",
"2. c #E48CE48CE48C",
"3. c #E5CDE5CDE5CD",
"4. c #E7A9E7A9E7A9",
"5. c #E997E997E997",
"6. c #EB4AEB4AEB4A",
"7. c #EEACEEACEEAC",
"8. c #F283F283F283",
"9. c #F400F400F400",
"0. c #F4B4F4B4F4B4",
"q. c #F710F710F710",
"w. c #F7A4F7A4F7A4",
"e. c gray98",
"r. c #FC39FC39FC39",
"t. c #FCCDFCCDFCCD",
"y. c #FE0CFE0CFE0C",
"u. c #FF58FF58FF58",
"i. c #FFFEFFFEFFFE",
/* pixels */
"i.i.i.i.i.e.1.` l @   r 9.i.i.i.i.i.",
"i.i.i.i.:.L x ( g     - 1.i.i.i.i.i.",
"i.i.9.Q >   M i.:.* O j 9.i.i.i.i.i.",
"i.i.A O     ; ( V 9 l ( i.i.i.i.i.i.",
"i.9.p       < g   * < < _ i.i.i.i.i.",
"i.q.L 2 M c 2 O   < [ n 4 :.i.i.i.i.",
"i.i.e.( ( x ; # O j @.( 9 g 9.i.i.i.",
"i.i.[ u l  .=.h G U o.[ L ; Q i.i.i.",
"i.i.I 4 o.i.=.r E B Q @. .c 4 :.i.i.",
"i.i.3.q L i.=. .9 u s &.@.Y 9 A i.i.",
"i.i.q.m u :.q.7.n G r g 1.5.V > [ i.",
"i.i.i.=.* D =.@. .s # > 3.i.@.4 V i.",
"i.i.i.9.u 9 [ o.=.Q n L i.@.x q U i.",
"i.i.i.i.G @ D &.:.i.q.,. .V l Y 5.i.",
"i.i.i.i.5.r q o.:.{ V l Q Q ,.i.i.i.",
"i.i.i.i.i.W * c 9 9 r V 1.i.i.i.i.i.",
"i.i.i.i.i.o.q * j c { 9.i.i.i.i.i.i.",
"i.i.i.i.i.9.( B { q.i.i.i.i.i.i.i.i."
};
