/* XPM */
static char *unknown[] = {
/* columns rows colors chars-per-pixel */
"18 18 72 1 ",
"  c #000400040004",
". c #01EB01EB01EB",
"X c #061406140614",
"o c #0A780A780A78",
"O c #0B660B660B66",
"+ c #0DF50DF50DF5",
"@ c #0F120F120F12",
"# c #141514151415",
"$ c #153115311531",
"% c #166816681668",
"& c #16BB16BB16BB",
"* c #17B117B117B1",
"= c #18F218F218F2",
"- c #1A2B1A2B1A2B",
"; c #1C181C181C18",
": c #21A321A321A3",
"> c #22CC22CC22CC",
", c #26CB26CB26CB",
"< c #32C432C432C4",
"1 c #3ABA3ABA3ABA",
"2 c #3C613C613C61",
"3 c #3EE83EE83EE8",
"4 c #406F406F406F",
"5 c #413741374137",
"6 c #4AA44AA44AA4",
"7 c #4B5A4B5A4B5A",
"8 c #4CEC4CEC4CEC",
"9 c #4DE44DE44DE4",
"0 c #542A542A542A",
"q c #554755475547",
"w c #563356335633",
"e c #576357635763",
"r c #58D958D958D9",
"t c #72C272C272C2",
"y c #73C373C373C3",
"u c #73FD73FD73FD",
"i c #7DE27DE27DE2",
"p c #7E6F7E6F7E6F",
"a c #800B800B800B",
"s c #8ABD8ABD8ABD",
"d c #8B348B348B34",
"f c #997A997A997A",
"g c #AA9CAA9CAA9C",
"h c #B01AB01AB01A",
"j c #B1E2B1E2B1E2",
"k c #B2FFB2FFB2FF",
"l c #B5A0B5A0B5A0",
"z c #B69CB69CB69C",
"x c #BADDBADDBADD",
"c c #BCF5BCF5BCF5",
"v c #C0B0C0B0C0B0",
"b c #D565D565D565",
"n c #D74AD74AD74A",
"m c #DC3EDC3EDC3E",
"M c #DC97DC97DC97",
"N c #DFA6DFA6DFA6",
"B c #E0A1E0A1E0A1",
"V c #E259E259E259",
"C c #E3DAE3DAE3DA",
"Z c #E605E605E605",
"A c #E79FE79FE79F",
"S c #E905E905E905",
"D c #EBADEBADEBAD",
"F c #ECE6ECE6ECE6",
"G c #EDC1EDC1EDC1",
"H c #F26CF26CF26C",
"J c #F411F411F411",
"K c #F47FF47FF47F",
"L c #FCFEFCFEFCFE",
"P c #FDB2FDB2FDB2",
"I c #FEDFFEDFFEDF",
"U c #FFFDFFFDFFFD",
/* pixels */
"UUUUUUUUUUUUUUUUUU",
"UUUUUUUUUUUUUUUUUU",
"UUUUUUUZCxbJUUUUUU",
"UUUUUZs92410lUUUUU",
"UUUUS0>rjvf4#gUUUU",
"UUUJr  uSSUjo#lUUU",
"UUUjO  O=4FM= 9KUU",
"UUUa     pUa  =bUU",
"UUUa    9Fl#  @cUU",
"UUUa    uM6   ;ZUU",
"UUUjO   ;<X   >SUU",
"UUUS,   uC9   aUUU",
"UUUUg#  yC9  0SUUU",
"UUUUUg: O# orSUUUU",
"UUUUUUmspppjJUUUUU",
"UUUUUUUUUUUUUUUUUU",
"UUUUUUUUUUUUUUUUUU",
"UUUUUUUUUUUUUUUUUU"
};
