/* XPM */
static char *vim[] = {
/* columns rows colors chars-per-pixel */
"18 18 140 2 ",
"   c #1EEC1EEC1EEC",
".  c #223422342234",
"X  c #25B225B225B2",
"o  c #272927292729",
"O  c #2A9C2A9C2A9C",
"+  c #308130813081",
"@  c #311E311E311E",
"#  c #324632463246",
"$  c #3B4A3B4A3B4A",
"%  c #3DA63DA63DA6",
"&  c #3E883E883E88",
"*  c #3F343F343F34",
"=  c #424142414241",
"-  c #439043904390",
";  c #448D448D448D",
":  c #456B456B456B",
">  c #466C466C466C",
",  c #48EC48EC48EC",
"<  c #4B324B324B32",
"1  c #4D8F4D8F4D8F",
"2  c #4E0C4E0C4E0C",
"3  c #4F1C4F1C4F1C",
"4  c #536453645364",
"5  c #545F545F545F",
"6  c #54E854E854E8",
"7  c #582F582F582F",
"8  c #5C415C415C41",
"9  c #5D535D535D53",
"0  c #5DF15DF15DF1",
"q  c #5F8D5F8D5F8D",
"w  c #604360436043",
"e  c #619B619B619B",
"r  c #62CC62CC62CC",
"t  c #646364636463",
"y  c #66F866F866F8",
"u  c #691869186918",
"i  c #6EDB6EDB6EDB",
"p  c #6F3C6F3C6F3C",
"a  c #723372337233",
"s  c #759F759F759F",
"d  c #769476947694",
"f  c #770277027702",
"g  c #7D197D197D19",
"h  c #7E6E7E6E7E6E",
"j  c #802E802E802E",
"k  c #812581258125",
"l  c #84E084E084E0",
"z  c #867A867A867A",
"x  c #873087308730",
"c  c #888F888F888F",
"v  c #899989998999",
"b  c #8ACE8ACE8ACE",
"n  c #8B708B708B70",
"m  c #8CD28CD28CD2",
"M  c #8D768D768D76",
"N  c #900F900F900F",
"B  c #90FB90FB90FB",
"V  c #91E591E591E5",
"C  c #921A921A921A",
"Z  c #938093809380",
"A  c #956A956A956A",
"S  c #965696569656",
"D  c #980698069806",
"F  c #985998599859",
"G  c #9A1F9A1F9A1F",
"H  c #9B979B979B97",
"J  c #9CD29CD29CD2",
"K  c #9D8F9D8F9D8F",
"L  c #9EB29EB29EB2",
"P  c #9F669F669F66",
"I  c #A1D3A1D3A1D3",
"U  c #A25FA25FA25F",
"Y  c #A480A480A480",
"T  c #A6B2A6B2A6B2",
"R  c #A800A800A800",
"E  c #A8C8A8C8A8C8",
"W  c #A974A974A974",
"Q  c #AAEEAAEEAAEE",
"!  c #AB7AAB7AAB7A",
"~  c #AC8CAC8CAC8C",
"^  c #AD84AD84AD84",
"/  c #AE48AE48AE48",
"(  c #B0A5B0A5B0A5",
")  c #B183B183B183",
"_  c #B2F9B2F9B2F9",
"`  c #B4A8B4A8B4A8",
"'  c #B6D7B6D7B6D7",
"]  c #B749B749B749",
"[  c #B8D7B8D7B8D7",
"{  c #B9C6B9C6B9C6",
"}  c #BC15BC15BC15",
"|  c #BEEBBEEBBEEB",
" . c #BFF0BFF0BFF0",
".. c #C136C136C136",
"X. c #C16BC16BC16B",
"o. c #C2A4C2A4C2A4",
"O. c #C424C424C424",
"+. c #C496C496C496",
"@. c #C5F3C5F3C5F3",
"#. c #C748C748C748",
"$. c #C8FFC8FFC8FF",
"%. c #CBB6CBB6CBB6",
"&. c #CD2BCD2BCD2B",
"*. c #CDC8CDC8CDC8",
"=. c #D024D024D024",
"-. c #D21ED21ED21E",
";. c #D40FD40FD40F",
":. c #D4B3D4B3D4B3",
">. c #D797D797D797",
",. c #D9B5D9B5D9B5",
"<. c #DB08DB08DB08",
"1. c #DBC0DBC0DBC0",
"2. c #DCE3DCE3DCE3",
"3. c #DD7DDD7DDD7D",
"4. c #DF4EDF4EDF4E",
"5. c #DFD3DFD3DFD3",
"6. c #E118E118E118",
"7. c #E178E178E178",
"8. c #E418E418E418",
"9. c #E4A6E4A6E4A6",
"0. c #E5C5E5C5E5C5",
"q. c #E6E3E6E3E6E3",
"w. c #E824E824E824",
"e. c #EA07EA07EA07",
"r. c #EBA0EBA0EBA0",
"t. c #ED0FED0FED0F",
"y. c #EDFAEDFAEDFA",
"u. c #F0DFF0DFF0DF",
"i. c #F250F250F250",
"p. c #F370F370F370",
"a. c #F405F405F405",
"s. c #F51CF51CF51C",
"d. c #F619F619F619",
"f. c #F69AF69AF69A",
"g. c #F7E4F7E4F7E4",
"h. c #F8CEF8CEF8CE",
"j. c #FCC9FCC9FCC9",
"k. c #FDC0FDC0FDC0",
"l. c #FF45FF45FF45",
"z. c #FFFDFFFDFFFD",
/* pixels */
"z.z.z.z.z.z.z.z.y.y.z.z.z.z.z.z.z.z.",
"z.O.F J J J J F z Y W M J J J J Y q.",
"z.c ~ 5.1.@.1.} - I 4 F $.5.} @.M c ",
"a.V & ` a.` W 5 > &   M Y y.a.g > } ",
"z.z.M ~ =.h.g t 0 . 4 1.6.Y ~ O Y z.",
"z.z.F :.a.z.Y 2 5 5 6.z.6.s & W z.z.",
"z.z.s V z.z.c # i D a.5.$.# i =.z.z.",
"z.O.> I z.z.k > M ` z.=.0 a s s O.z.",
"~ 7 o z a.z. .` q.O.D O > 2 D V J ` ",
"` 0 o 1.y.$.5.a.z.W e 2 & - M t & ~ ",
"z.Y # 6.a.=.1.a.a.J M ` a 2 2 > ) a.",
"z.z.M 5.z.z.a.q.I @.e ` ` ) I D 6.Y ",
"z.z.F :.z.z.q.s J 1.g J 0 g ~ s  .5.",
"z.z.g z z.q.u 0 W F 0 I - ~ V ;.O.q.",
"z.z.c 0 g D a z :.e - } O.5.=.z.1.a.",
"z.z.O.z z q.q.V M  .M 6.z.z.z.z.z.z.",
"z.z.z.z.z.z.z.e.g F e.z.z.z.z.z.z.z.",
"z.z.z.z.z.z.z.z.y.y.z.z.z.z.z.z.z.z."
};
